<svg width="506" height="464" viewBox="0 0 506 464" fill="none" xmlns="http://www.w3.org/2000/svg">
<path d="M162.325 137.83C162.535 137.651 162.559 137.335 162.38 137.125L159.454 133.707C159.274 133.497 158.959 133.472 158.749 133.652C158.539 133.832 158.514 134.147 158.694 134.357L161.295 137.396L158.256 139.997C158.046 140.176 158.022 140.492 158.201 140.702C158.381 140.912 158.697 140.936 158.906 140.757L162.325 137.83ZM2.52554 211.889C2.45344 211.572 2.38477 211.251 2.31965 210.927L1.33927 211.124C1.40601 211.456 1.47641 211.785 1.55034 212.111L2.52554 211.889ZM1.97325 208.953C1.87598 208.306 1.7928 207.649 1.72455 206.982L0.729751 207.084C0.799601 207.766 0.88476 208.439 0.984372 209.101L1.97325 208.953ZM1.5677 204.994C1.5309 204.334 1.50879 203.665 1.50214 202.989L0.502189 202.999C0.508993 203.69 0.531604 204.374 0.56925 205.05L1.5677 204.994ZM1.52705 201.003C1.55002 200.344 1.58779 199.679 1.64102 199.009L0.644163 198.93C0.589752 199.615 0.551143 200.295 0.527661 200.968L1.52705 201.003ZM1.84344 197.018C1.92424 196.366 2.01986 195.709 2.13088 195.05L1.14474 194.884C1.03131 195.558 0.933602 196.228 0.851032 196.895L1.84344 197.018ZM2.50669 193.079C2.64364 192.436 2.79544 191.791 2.96261 191.144L1.99437 190.894C1.82363 191.555 1.66858 192.214 1.52867 192.87L2.50669 193.079ZM3.50379 189.218C3.69561 188.587 3.90235 187.954 4.12448 187.32L3.18075 186.99C2.95398 187.637 2.7429 188.283 2.54702 188.927L3.50379 189.218ZM4.82317 185.452C5.06761 184.837 5.32687 184.221 5.6014 183.606L4.68809 183.199C4.40798 183.827 4.14341 184.455 3.89394 185.082L4.82317 185.452ZM6.4485 181.804C6.74253 181.21 7.05117 180.616 7.37482 180.023L6.49692 179.544C6.16692 180.149 5.85216 180.755 5.55226 181.361L6.4485 181.804ZM8.36029 178.297C8.70019 177.727 9.05436 177.158 9.42313 176.59L8.58456 176.046C8.20885 176.624 7.84795 177.204 7.50152 177.784L8.36029 178.297ZM10.5367 174.944C10.9181 174.402 11.3133 173.861 11.7226 173.322L10.9261 172.717C10.5095 173.266 10.1072 173.816 9.71877 174.369L10.5367 174.944ZM12.9547 171.757C13.3728 171.245 13.8041 170.734 14.2488 170.226L13.4962 169.568C13.0439 170.085 12.6053 170.604 12.1799 171.125L12.9547 171.757ZM15.5916 168.742C16.0412 168.261 16.5033 167.783 16.9782 167.307L16.2701 166.601C15.7878 167.084 15.3182 167.57 14.8612 168.059L15.5916 168.742ZM18.4263 165.9C18.9022 165.452 19.3899 165.006 19.8895 164.563L19.226 163.815C18.719 164.264 18.224 164.717 17.7408 165.172L18.4263 165.9ZM21.4243 163.242C21.9267 162.822 22.4402 162.405 22.9651 161.99L22.3453 161.205C21.8133 161.625 21.2925 162.048 20.783 162.474L21.4243 163.242ZM24.556 160.768C25.0901 160.37 25.6352 159.974 26.1914 159.581L25.6143 158.764C25.051 159.162 24.4989 159.563 23.9577 159.967L24.556 160.768ZM27.8237 158.458C28.3782 158.086 28.9431 157.717 29.5186 157.352L28.9824 156.508C28.4001 156.878 27.8284 157.251 27.2671 157.627L27.8237 158.458ZM31.2198 156.299C31.7829 155.959 32.3554 155.622 32.9377 155.288L32.4403 154.421C31.8517 154.758 31.2727 155.099 30.7033 155.442L31.2198 156.299ZM34.7137 154.296C35.2903 153.982 35.8758 153.671 36.4704 153.362L36.0102 152.475C35.4096 152.786 34.818 153.1 34.2354 153.418L34.7137 154.296ZM38.253 152.461C38.8561 152.163 39.4681 151.869 40.0892 151.577L39.6642 150.672C39.0374 150.966 38.4195 151.264 37.8105 151.564L38.253 152.461ZM41.8987 150.748C42.5 150.479 43.1095 150.213 43.7272 149.95L43.3351 149.03C42.7121 149.295 42.0972 149.564 41.4904 149.835L41.8987 150.748ZM45.6048 149.169C46.2192 148.92 46.8413 148.673 47.4712 148.429L47.1106 147.497C46.4755 147.742 45.8483 147.991 45.2288 148.242L45.6048 149.169ZM49.3293 147.728C49.9562 147.497 50.5905 147.268 51.2323 147.043L50.901 146.1C50.2543 146.327 49.6152 146.557 48.9834 146.79L49.3293 147.728ZM53.165 146.381C53.7829 146.174 54.4075 145.97 55.039 145.769L54.7352 144.816C54.0994 145.019 53.4703 145.224 52.8479 145.432L53.165 146.381ZM56.9537 145.173C57.5988 144.977 58.2508 144.784 58.9097 144.594L58.6322 143.633C57.969 143.825 57.3127 144.019 56.6632 144.216L56.9537 145.173ZM60.8443 144.048C61.4766 143.875 62.1151 143.703 62.7598 143.535L62.5065 142.567C61.8579 142.737 61.2155 142.909 60.5792 143.084L60.8443 144.048ZM64.7125 143.036C65.3697 142.873 66.0332 142.712 66.7029 142.553L66.473 141.58C65.7994 141.739 65.1321 141.901 64.471 142.066L64.7125 143.036ZM68.648 142.105C69.2894 141.962 69.9363 141.82 70.589 141.681L70.3806 140.703C69.7245 140.843 69.074 140.985 68.4291 141.13L68.648 142.105ZM72.564 141.271C73.228 141.137 73.8978 141.006 74.5733 140.876L74.3857 139.894C73.7067 140.024 73.0335 140.156 72.366 140.291L72.564 141.271ZM76.5439 140.51C77.1898 140.393 77.8409 140.279 78.4971 140.167L78.3287 139.181C77.6693 139.294 77.0151 139.409 76.366 139.526L76.5439 140.51ZM80.4814 139.837C81.148 139.73 81.8198 139.625 82.4968 139.522L82.3468 138.533C81.6667 138.637 80.9919 138.742 80.3222 138.85L80.4814 139.837ZM84.5122 139.226C85.1591 139.133 85.8107 139.043 86.467 138.955L86.3342 137.964C85.6752 138.053 85.0208 138.143 84.3711 138.236L84.5122 139.226ZM88.4499 138.698C89.1156 138.615 89.786 138.534 90.4612 138.455L90.3449 137.461C89.667 137.541 88.9939 137.622 88.3254 137.706L88.4499 138.698ZM92.501 138.224C93.1598 138.152 93.8231 138.083 94.4909 138.015L94.3903 137.02C93.72 137.088 93.0542 137.158 92.3927 137.23L92.501 138.224ZM96.4641 137.823C97.1262 137.761 97.7925 137.701 98.4631 137.644L98.3772 136.647C97.7042 136.705 97.0354 136.765 96.3709 136.828L96.4641 137.823ZM100.488 137.476C101.167 137.423 101.851 137.371 102.539 137.322L102.467 136.324C101.777 136.374 101.091 136.426 100.409 136.479L100.488 137.476ZM104.526 137.186C105.182 137.143 105.842 137.103 106.506 137.064L106.448 136.065C105.781 136.104 105.119 136.145 104.461 136.188L104.526 137.186ZM108.51 136.953C109.182 136.918 109.858 136.885 110.537 136.854L110.492 135.855C109.81 135.886 109.132 135.92 108.458 135.955L108.51 136.953ZM112.588 136.767C113.255 136.741 113.924 136.717 114.598 136.695L114.565 135.695C113.889 135.718 113.217 135.742 112.549 135.768L112.588 136.767ZM116.576 136.635C117.239 136.616 117.906 136.6 118.576 136.586L118.554 135.586C117.882 135.6 117.214 135.617 116.549 135.635L116.576 136.635ZM120.597 136.547C121.275 136.537 121.956 136.528 122.64 136.52L122.63 135.52C121.943 135.528 121.261 135.537 120.581 135.548L120.597 136.547ZM124.7 136.505C125.353 136.501 126.009 136.5 126.669 136.5L126.669 135.5C126.008 135.5 125.35 135.501 124.695 135.505L124.7 136.505ZM128.657 136.506C129.323 136.509 129.993 136.514 130.665 136.521L130.676 135.521C130.002 135.514 129.33 135.509 128.663 135.506L128.657 136.506ZM132.693 136.547C133.373 136.558 134.055 136.57 134.741 136.584L134.761 135.584C134.074 135.57 133.39 135.558 132.709 135.548L132.693 136.547ZM136.785 136.63C137.439 136.647 138.096 136.665 138.756 136.685L138.786 135.685C138.124 135.665 137.466 135.647 136.81 135.631L136.785 136.63ZM140.746 136.748C141.412 136.771 142.081 136.795 142.754 136.821L142.792 135.822C142.119 135.796 141.448 135.772 140.78 135.749L140.746 136.748ZM144.779 136.904C145.457 136.933 146.139 136.964 146.823 136.997L146.87 135.998C146.185 135.965 145.502 135.934 144.822 135.905L144.779 136.904ZM148.881 137.099C149.534 137.133 150.19 137.168 150.848 137.205L150.904 136.207C150.244 136.17 149.587 136.134 148.933 136.1L148.881 137.099ZM152.832 137.32C153.496 137.36 154.162 137.401 154.832 137.444L154.895 136.446C154.225 136.403 153.557 136.362 152.892 136.322L152.832 137.32ZM156.848 137.577C157.523 137.623 158.2 137.67 158.881 137.719L158.952 136.721C158.271 136.672 157.592 136.625 156.916 136.579L156.848 137.577ZM160.93 137.87C161.273 137.896 161.617 137.922 161.961 137.949L162.039 136.952C161.694 136.925 161.349 136.899 161.006 136.873L160.93 137.87Z" fill="url(#paint0_linear_413_1655)" fill-opacity="0.2"/>
<circle opacity="0.3" cx="129" cy="357" r="107" fill="url(#paint1_radial_413_1655)"/>
<circle opacity="0.3" cx="360.5" cy="145.5" r="145.5" fill="url(#paint2_radial_413_1655)"/>
<defs>
<linearGradient id="paint0_linear_413_1655" x1="81.5" y1="136" x2="81.5" y2="212" gradientUnits="userSpaceOnUse">
<stop stop-color="#2D29FF"/>
<stop offset="1" stop-color="#CBABFF"/>
</linearGradient>
<radialGradient id="paint1_radial_413_1655" cx="0" cy="0" r="1" gradientUnits="userSpaceOnUse" gradientTransform="translate(129 357) rotate(90) scale(107)">
<stop offset="0.804414" stop-color="white"/>
<stop offset="1" stop-color="#EBEBFF"/>
</radialGradient>
<radialGradient id="paint2_radial_413_1655" cx="0" cy="0" r="1" gradientUnits="userSpaceOnUse" gradientTransform="translate(360.5 145.5) rotate(90) scale(145.5)">
<stop offset="0.804414" stop-color="white"/>
<stop offset="1" stop-color="#EBEBFF"/>
</radialGradient>
</defs>
</svg>
