<svg width="259" height="187" viewBox="0 0 259 187" fill="none" xmlns="http://www.w3.org/2000/svg">
<path d="M58.6895 128.816V130.074H53.7676V134.217H52.2637V130.074H47.3965V128.816H58.6895ZM53.0156 122.295C55.6406 122.309 57.4727 123.375 57.4727 125.07C57.4727 126.752 55.6406 127.805 53.0156 127.805C50.377 127.805 48.5723 126.752 48.5859 125.07C48.5723 123.375 50.377 122.309 53.0156 122.295ZM53.0156 123.525C51.2656 123.525 50.1309 124.1 50.1445 125.07C50.1309 126.027 51.2656 126.602 53.0156 126.602C54.7656 126.602 55.9004 126.027 55.9004 125.07C55.9004 124.1 54.7656 123.525 53.0156 123.525ZM69.1047 121.857V134.23H67.6008V121.857H69.1047ZM65.3039 122.938V127.572H61.052V130.061C63.0002 130.047 64.6818 129.951 66.6027 129.623L66.7395 130.867C64.634 131.236 62.7883 131.305 60.5734 131.305H59.4934V126.369H63.759V124.168H59.4797V122.938H65.3039ZM70.9477 129.227C70.9477 126.656 71.7133 124.51 72.9984 122.678H74.6391C73.6957 124.031 72.7523 126.779 72.7523 129.227C72.7523 131.674 73.6957 134.422 74.6391 135.789H72.9984C71.7133 133.943 70.9477 131.811 70.9477 129.227ZM77.3434 133L74.5543 123.102H76.4684L78.2594 130.389H78.3551L80.2555 123.102H82.0055L83.9195 130.402H84.0016L85.7926 123.102H87.7066L84.9176 133H83.1539L81.1715 126.041H81.1031L79.107 133H77.3434ZM88.1414 133V123.102H94.5809V124.592H89.9188V127.299H94.2391V128.789H89.9188V131.496H94.6082V133H88.1414ZM98.7617 129.227C98.7617 131.811 97.9961 133.943 96.7109 135.789H95.0703C96.0137 134.422 96.957 131.674 96.957 129.227C96.957 126.779 96.0137 124.031 95.0703 122.678H96.7109C97.9961 124.51 98.7617 126.656 98.7617 129.227ZM110.9 126.807V128.01H99.6203V126.807H110.9ZM109.56 124.811V126.014H101.056V122.172H109.45V123.389H102.573V124.811H109.56ZM109.478 128.857V131.961H102.45V132.904H109.82V134.094H100.96V130.867H107.987V130.006H100.946V128.857H109.478ZM121.301 121.857V134.23H119.77V121.857H121.301ZM114.643 122.76C116.502 122.76 117.856 124.455 117.87 127.121C117.856 129.814 116.502 131.496 114.643 131.496C112.77 131.496 111.416 129.814 111.416 127.121C111.416 124.455 112.77 122.76 114.643 122.76ZM114.643 124.127C113.59 124.127 112.879 125.234 112.879 127.121C112.879 129.021 113.59 130.129 114.643 130.129C115.682 130.129 116.393 129.021 116.393 127.121C116.393 125.234 115.682 124.127 114.643 124.127ZM129.458 124.824C129.444 127.025 130.552 129.268 132.466 130.184L131.536 131.4C130.196 130.724 129.232 129.418 128.706 127.846C128.166 129.527 127.154 130.922 125.739 131.633L124.809 130.416C126.792 129.473 127.927 127.107 127.94 124.824V122.855H129.458V124.824ZM134.721 121.857V126.697H136.622V127.996H134.721V134.217H133.204V121.857H134.721ZM147.707 127.805V129.021H136.441V127.805H139.066V126.232C138.137 125.843 137.604 125.221 137.604 124.414C137.604 122.938 139.34 122.062 142.061 122.062C144.781 122.062 146.504 122.938 146.518 124.414C146.511 125.228 145.978 125.85 145.041 126.232V127.805H147.707ZM142.061 129.773C144.727 129.76 146.326 130.553 146.34 131.975C146.326 133.41 144.727 134.189 142.061 134.189C139.367 134.189 137.754 133.41 137.754 131.975C137.754 130.553 139.367 129.76 142.061 129.773ZM142.061 130.922C140.256 130.922 139.285 131.277 139.299 131.975C139.285 132.672 140.256 133.041 142.061 133.041C143.824 133.041 144.809 132.672 144.822 131.975C144.809 131.277 143.824 130.922 142.061 130.922ZM142.061 123.238C140.229 123.238 139.176 123.648 139.189 124.414C139.176 125.166 140.229 125.562 142.061 125.562C143.879 125.562 144.945 125.166 144.945 124.414C144.945 123.648 143.879 123.238 142.061 123.238ZM140.598 127.805H143.523V126.629C143.079 126.69 142.587 126.725 142.061 126.725C141.534 126.725 141.042 126.69 140.598 126.629V127.805ZM157.521 121.857V126.779H159.421V128.037H157.521V134.217H156.017V121.857H157.521ZM155.06 123.758V124.975H147.773V123.758H150.698V122.035H152.216V123.758H155.06ZM151.464 125.781C153.241 125.781 154.568 126.984 154.568 128.693C154.568 130.402 153.241 131.592 151.464 131.592C149.659 131.592 148.333 130.402 148.347 128.693C148.333 126.984 149.659 125.781 151.464 125.781ZM151.464 127.025C150.493 127.025 149.796 127.682 149.796 128.693C149.796 129.705 150.493 130.348 151.464 130.334C152.407 130.348 153.105 129.705 153.118 128.693C153.105 127.682 152.407 127.025 151.464 127.025ZM169.248 125.357V126.561H160.69V122.309H162.194V125.357H169.248ZM170.52 127.996V129.199H159.227V127.996H170.52ZM169.33 132.699V133.93H160.58V130.293H162.098V132.699H169.33ZM183.626 121.871V129.076H182.095V128.57H179.784V127.641H182.095V121.871H183.626ZM173.249 126.328C175.641 126.328 178.622 126.301 181.274 126.041L181.356 126.998C180.228 127.155 179.066 127.251 177.925 127.299V129.09H176.421V127.367C175.361 127.395 174.343 127.401 173.413 127.395L173.249 126.328ZM183.626 129.459V132.234H176.598V133.027H183.954V134.107H175.108V131.236H182.122V130.498H175.054V129.459H183.626ZM177.241 122.062C179.073 122.062 180.331 122.801 180.331 123.922C180.331 125.07 179.073 125.768 177.241 125.768C175.368 125.768 174.124 125.07 174.124 123.922C174.124 122.801 175.368 122.062 177.241 122.062ZM177.241 123.074C176.202 123.074 175.559 123.402 175.573 123.922C175.559 124.441 176.202 124.756 177.241 124.756C178.253 124.756 178.909 124.441 178.909 123.922C178.909 123.402 178.253 123.074 177.241 123.074ZM189.557 122.746V126.41H186.658V127.859C188.087 127.853 189.153 127.771 190.404 127.531L190.555 128.734C189.092 129.021 187.834 129.062 186.016 129.062H185.182V125.289H188.094V123.963H185.168V122.746H189.557ZM195.23 121.871V130.293H193.781V121.871H195.23ZM192.729 122.117V129.254H191.293V126.014H190.008V124.797H191.293V122.117H192.729ZM191.758 129.951C191.758 131.346 193.33 132.658 195.832 133L195.244 134.148C193.289 133.868 191.758 132.993 191.006 131.783C190.233 132.993 188.702 133.868 186.754 134.148L186.166 133C188.654 132.658 190.227 131.346 190.24 129.951V129.691H191.758V129.951Z" fill="#2D29FF"/>
<path d="M189 79.2083V84.8553H185.073L181.782 79.2083H189ZM180.88 93.3005C180.88 94.0806 181.163 94.7419 181.729 95.2846C182.331 95.8272 183.038 96.0986 183.852 96.0986H189V102H183.852C182.472 102 181.163 101.763 179.925 101.288C178.722 100.779 177.66 100.101 176.74 99.2528C175.856 98.371 175.148 97.3535 174.617 96.2003C174.087 95.0472 173.821 93.8092 173.821 92.4865V84.8553H170V79.2083H173.821V70H180.88V93.3005Z" fill="#2D29FF"/>
<path d="M155.552 76C157.394 76 159.131 76.3527 160.764 77.0581C162.398 77.73 163.822 78.6537 165.039 79.8295C166.255 81.0052 167.21 82.3824 167.905 83.9612C168.635 85.5401 169 87.2364 169 89.0504C169 90.0245 168.896 90.9651 168.687 91.8721L168.635 91.9729H155.396L152.06 86.8333H161.963C161.477 85.4225 160.66 84.2636 159.514 83.3566C158.402 82.4496 157.081 81.9961 155.552 81.9961C154.614 81.9961 153.728 82.1809 152.894 82.5504C152.06 82.9199 151.33 83.4238 150.705 84.062C150.114 84.6667 149.645 85.4057 149.297 86.2791C148.95 87.1189 148.776 88.0426 148.776 89.0504C148.776 89.823 148.932 90.6292 149.245 91.469C149.558 92.2752 150.01 93.0142 150.6 93.686C151.191 94.3579 151.903 94.9289 152.737 95.3992C153.571 95.8359 154.51 96.0543 155.552 96.0543C156.49 96.0543 157.342 95.9367 158.106 95.7016C158.905 95.4328 159.653 94.8618 160.347 93.9884L160.4 93.938L160.504 93.9884L166.55 96.5581L166.446 96.6589C165.195 98.3385 163.597 99.6486 161.651 100.589C159.739 101.53 157.707 102 155.552 102C153.676 102 151.903 101.664 150.236 100.992C148.602 100.32 147.178 99.3966 145.961 98.2209C144.745 97.0452 143.772 95.668 143.042 94.0891C142.347 92.5103 142 90.8307 142 89.0504C142 87.2364 142.347 85.5401 143.042 83.9612C143.772 82.3824 144.745 81.0052 145.961 79.8295C147.178 78.6537 148.602 77.73 150.236 77.0581C151.903 76.3527 153.676 76 155.552 76Z" fill="#2D29FF"/>
<path d="M132.053 66H139V102H132L132.053 66Z" fill="#2D29FF"/>
<path d="M122.053 66H129V102H122L122.053 66Z" fill="#2D29FF"/>
<path d="M106.552 76C108.394 76 110.131 76.3527 111.764 77.0581C113.398 77.73 114.822 78.6537 116.039 79.8295C117.255 81.0052 118.21 82.3824 118.905 83.9612C119.635 85.5401 120 87.2364 120 89.0504C120 90.0245 119.896 90.9651 119.687 91.8721L119.635 91.9729H106.396L103.06 86.8333H112.963C112.477 85.4225 111.66 84.2636 110.514 83.3566C109.402 82.4496 108.081 81.9961 106.552 81.9961C105.614 81.9961 104.728 82.1809 103.894 82.5504C103.06 82.9199 102.33 83.4238 101.705 84.062C101.114 84.6667 100.645 85.4057 100.297 86.2791C99.9498 87.1189 99.7761 88.0426 99.7761 89.0504C99.7761 89.823 99.9324 90.6292 100.245 91.469C100.558 92.2752 101.01 93.0142 101.6 93.686C102.191 94.3579 102.903 94.9289 103.737 95.3992C104.571 95.8359 105.51 96.0543 106.552 96.0543C107.49 96.0543 108.342 95.9367 109.106 95.7016C109.905 95.4328 110.653 94.8618 111.347 93.9884L111.4 93.938L111.504 93.9884L117.55 96.5581L117.446 96.6589C116.195 98.3385 114.597 99.6486 112.651 100.589C110.739 101.53 108.707 102 106.552 102C104.676 102 102.903 101.664 101.236 100.992C99.6023 100.32 98.1776 99.3966 96.9614 98.2209C95.7452 97.0452 94.7722 95.668 94.0425 94.0891C93.3475 92.5103 93 90.8307 93 89.0504C93 87.2364 93.3475 85.5401 94.0425 83.9612C94.7722 82.3824 95.7452 81.0052 96.9614 79.8295C98.1776 78.6537 99.6023 77.73 101.236 77.0581C102.903 76.3527 104.676 76 106.552 76Z" fill="#2D29FF"/>
<path d="M85.8886 76H93L92.9485 76.05L86.0432 101H77.8496L74.5 86.2L71.0474 101H65.7396V100.9L70.8928 76H70.9443H78.0042L81.9206 94.95L85.8886 76ZM63.163 76.05L66.7187 93.65L62.1838 98.2L62.1323 98.1L56 76H63.163V76.05Z" fill="#2D29FF"/>
<path d="M162.325 4.83043C162.535 4.65087 162.559 4.33523 162.38 4.12544L159.454 0.706707C159.274 0.496917 158.959 0.472412 158.749 0.651974C158.539 0.831536 158.514 1.14717 158.694 1.35696L161.295 4.39583L158.256 6.99684C158.046 7.1764 158.022 7.49204 158.201 7.70183C158.381 7.91162 158.697 7.93612 158.906 7.75656L162.325 4.83043ZM2.52554 78.8893C2.45344 78.5717 2.38477 78.2508 2.31965 77.9269L1.33927 78.124C1.40601 78.456 1.47641 78.7849 1.55034 79.1107L2.52554 78.8893ZM1.97325 75.9528C1.87598 75.306 1.7928 74.6488 1.72455 73.9821L0.729751 74.0839C0.799601 74.7663 0.88476 75.4391 0.984372 76.1015L1.97325 75.9528ZM1.5677 71.9943C1.5309 71.3336 1.50879 70.6649 1.50214 69.9889L0.502189 69.9987C0.508993 70.6901 0.531604 71.374 0.56925 72.0499L1.5677 71.9943ZM1.52705 68.0031C1.55002 67.3441 1.58779 66.6791 1.64102 66.0088L0.644163 65.9296C0.589752 66.6147 0.551143 67.2945 0.527661 67.9683L1.52705 68.0031ZM1.84344 64.0176C1.92424 63.3656 2.01986 62.7094 2.13088 62.0495L1.14474 61.8836C1.03131 62.5578 0.933602 63.2284 0.851032 63.8946L1.84344 64.0176ZM2.50669 60.0785C2.64364 59.4362 2.79544 58.7911 2.96261 58.1436L1.99437 57.8936C1.82363 58.5549 1.66858 59.2139 1.52867 59.87L2.50669 60.0785ZM3.50379 56.2178C3.69561 55.5868 3.90235 54.9541 4.12448 54.3203L3.18075 53.9895C2.95398 54.6366 2.7429 55.2826 2.54702 55.9269L3.50379 56.2178ZM4.82317 52.4516C5.06761 51.8369 5.32687 51.2215 5.6014 50.6058L4.68809 50.1986C4.40798 50.8267 4.14341 51.4547 3.89394 52.0821L4.82317 52.4516ZM6.4485 48.8044C6.74253 48.2103 7.05117 47.6164 7.37482 47.023L6.49692 46.5442C6.16692 47.1492 5.85216 47.7549 5.55226 48.3609L6.4485 48.8044ZM8.36029 45.2967C8.70019 44.7269 9.05436 44.1581 9.42313 43.5904L8.58456 43.0456C8.20885 43.624 7.84795 44.2036 7.50152 44.7843L8.36029 45.2967ZM10.5367 41.944C10.9181 41.4018 11.3133 40.861 11.7226 40.3219L10.9261 39.7172C10.5095 40.2659 10.1072 40.8165 9.71877 41.3686L10.5367 41.944ZM12.9547 38.7572C13.3728 38.2449 13.8041 37.7344 14.2488 37.2261L13.4962 36.5676C13.0439 37.0845 12.6053 37.6037 12.1799 38.1249L12.9547 38.7572ZM15.5916 35.7421C16.0412 35.2614 16.5033 34.7829 16.9782 34.3067L16.2701 33.6006C15.7878 34.0842 15.3182 34.5704 14.8612 35.059L15.5916 35.7421ZM18.4263 32.8999C18.9022 32.4518 19.3899 32.006 19.8895 31.5629L19.226 30.8148C18.719 31.2644 18.224 31.7169 17.7408 32.1718L18.4263 32.8999ZM21.4243 30.2416C21.9267 29.8218 22.4402 29.4045 22.9651 28.99L22.3453 28.2052C21.8133 28.6254 21.2925 29.0485 20.783 29.4743L21.4243 30.2416ZM24.556 27.7685C25.0901 27.3697 25.6352 26.9737 26.1914 26.5807L25.6143 25.764C25.051 26.162 24.4989 26.5631 23.9577 26.9672L24.556 27.7685ZM27.8237 25.4576C28.3782 25.086 28.9431 24.7174 29.5186 24.3518L28.9824 23.5077C28.4001 23.8776 27.8284 24.2507 27.2671 24.6268L27.8237 25.4576ZM31.2198 23.2986C31.7829 22.959 32.3554 22.6222 32.9377 22.2883L32.4403 21.4208C31.8517 21.7583 31.2727 22.0989 30.7033 22.4424L31.2198 23.2986ZM34.7137 21.2959C35.2903 20.9818 35.8758 20.6706 36.4704 20.3624L36.0102 19.4746C35.4096 19.786 34.818 20.1004 34.2354 20.4177L34.7137 21.2959ZM38.253 19.4609C38.8561 19.1633 39.4681 18.8687 40.0892 18.5772L39.6642 17.6719C39.0374 17.9662 38.4195 18.2636 37.8105 18.5641L38.253 19.4609ZM41.8987 17.748C42.5 17.4791 43.1095 17.2129 43.7272 16.9497L43.3351 16.0298C42.7121 16.2953 42.0972 16.5638 41.4904 16.8352L41.8987 17.748ZM45.6048 16.1688C46.2192 15.9195 46.8413 15.6731 47.4712 15.4295L47.1106 14.4968C46.4755 14.7423 45.8483 14.9908 45.2288 15.2422L45.6048 16.1688ZM49.3293 14.7279C49.9562 14.4968 50.5905 14.2685 51.2323 14.0431L50.901 13.0996C50.2543 13.3267 49.6152 13.5567 48.9834 13.7896L49.3293 14.7279ZM53.165 13.3808C53.7829 13.1742 54.4075 12.9703 55.039 12.769L54.7352 11.8162C54.0994 12.0189 53.4703 12.2243 52.8479 12.4324L53.165 13.3808ZM56.9537 12.1732C57.5988 11.9773 58.2508 11.7842 58.9097 11.5938L58.6322 10.6331C57.969 10.8247 57.3127 11.0191 56.6632 11.2163L56.9537 12.1732ZM60.8443 11.0485C61.4766 10.8746 62.1151 10.7033 62.7598 10.5346L62.5065 9.56715C61.8579 9.73693 61.2155 9.90932 60.5792 10.0843L60.8443 11.0485ZM64.7125 10.0361C65.3697 9.87255 66.0332 9.71164 66.7029 9.55341L66.473 8.5802C65.7994 8.73934 65.1321 8.90118 64.471 9.06569L64.7125 10.0361ZM68.648 9.10546C69.2894 8.96154 69.9363 8.82002 70.589 8.68097L70.3806 7.70292C69.7245 7.84272 69.074 7.98501 68.4291 8.12973L68.648 9.10546ZM72.564 8.27121C73.228 8.13711 73.8978 8.00551 74.5733 7.87645L74.3857 6.89421C73.7067 7.02392 73.0335 7.1562 72.366 7.291L72.564 8.27121ZM76.5439 7.51017C77.1898 7.39342 77.8409 7.27895 78.4971 7.1668L78.3287 6.18109C77.6693 6.29377 77.0151 6.40879 76.366 6.52612L76.5439 7.51017ZM80.4814 6.83734C81.148 6.72987 81.8198 6.62476 82.4968 6.52203L82.3468 5.53335C81.6667 5.63653 80.9919 5.74213 80.3222 5.85009L80.4814 6.83734ZM84.5122 6.22556C85.1591 6.13335 85.8107 6.04329 86.467 5.95541L86.3342 4.96425C85.6752 5.05251 85.0208 5.14295 84.3711 5.23556L84.5122 6.22556ZM88.4499 5.69833C89.1156 5.61484 89.786 5.53355 90.4612 5.4545L90.3449 4.46129C89.667 4.54065 88.9939 4.62227 88.3254 4.7061L88.4499 5.69833ZM92.501 5.22411C93.1598 5.15238 93.8231 5.08275 94.4909 5.01525L94.3903 4.02032C93.72 4.08808 93.0542 4.15797 92.3927 4.22998L92.501 5.22411ZM96.4641 4.8232C97.1262 4.76124 97.7925 4.70133 98.4631 4.64352L98.3772 3.64721C97.7042 3.70524 97.0354 3.76536 96.3709 3.82755L96.4641 4.8232ZM100.488 4.47635C101.167 4.42273 101.851 4.37122 102.539 4.32184L102.467 3.32441C101.777 3.37395 101.091 3.42564 100.409 3.47945L100.488 4.47635ZM104.526 4.18599C105.182 4.14333 105.842 4.10258 106.506 4.06378L106.448 3.06548C105.781 3.10441 105.119 3.14529 104.461 3.1881L104.526 4.18599ZM108.51 3.95319C109.182 3.91828 109.858 3.88533 110.537 3.85435L110.492 2.85539C109.81 2.88646 109.132 2.91952 108.458 2.95454L108.51 3.95319ZM112.588 3.76738C113.255 3.74123 113.924 3.71696 114.598 3.69458L114.565 2.69513C113.889 2.71758 113.217 2.74192 112.549 2.76815L112.588 3.76738ZM116.576 3.63461C117.239 3.61643 117.906 3.60006 118.576 3.58552L118.554 2.58576C117.882 2.60034 117.214 2.61675 116.549 2.63499L116.576 3.63461ZM120.597 3.54742C121.275 3.53656 121.956 3.52755 122.64 3.52041L122.63 2.52046C121.943 2.52763 121.261 2.53666 120.581 2.54755L120.597 3.54742ZM124.7 3.50461C125.353 3.50139 126.009 3.49986 126.669 3.50001L126.669 2.50001C126.008 2.49986 125.35 2.5014 124.695 2.50462L124.7 3.50461ZM128.657 3.50557C129.323 3.50912 129.993 3.51438 130.665 3.52136L130.676 2.52142C130.002 2.51442 129.33 2.50914 128.663 2.50558L128.657 3.50557ZM132.693 3.54749C133.373 3.55793 134.055 3.5701 134.741 3.58403L134.761 2.58423C134.074 2.57027 133.39 2.55807 132.709 2.5476L132.693 3.54749ZM136.785 3.63048C137.439 3.64692 138.096 3.66494 138.756 3.68454L138.786 2.68498C138.124 2.66533 137.466 2.64727 136.81 2.63079L136.785 3.63048ZM140.746 3.74814C141.412 3.77093 142.081 3.79533 142.754 3.82134L142.792 2.82208C142.119 2.79602 141.448 2.77157 140.78 2.74872L140.746 3.74814ZM144.779 3.90421C145.457 3.93345 146.139 3.96432 146.823 3.99683L146.87 2.99796C146.185 2.96538 145.502 2.93444 144.822 2.90514L144.779 3.90421ZM148.881 4.0991C149.534 4.13295 150.19 4.16828 150.848 4.20509L150.904 3.20665C150.244 3.16976 149.587 3.13436 148.933 3.10044L148.881 4.0991ZM152.832 4.31999C153.496 4.35979 154.162 4.40108 154.832 4.44387L154.895 3.44591C154.225 3.40303 153.557 3.36166 152.892 3.32178L152.832 4.31999ZM156.848 4.57679C157.523 4.62261 158.2 4.66995 158.881 4.71882L158.952 3.72138C158.271 3.67243 157.592 3.625 156.916 3.57909L156.848 4.57679ZM160.93 4.87C161.273 4.89597 161.617 4.92233 161.961 4.94907L162.039 3.95207C161.694 3.92528 161.349 3.89887 161.006 3.87285L160.93 4.87Z" fill="url(#paint0_linear_420_1652)"/>
<path d="M96.6749 182.17C96.4651 182.349 96.4406 182.665 96.6201 182.875L99.5463 186.293C99.7258 186.503 100.041 186.528 100.251 186.348C100.461 186.168 100.486 185.853 100.306 185.643L97.705 182.604L100.744 180.003C100.954 179.824 100.978 179.508 100.799 179.298C100.619 179.088 100.303 179.064 100.094 179.243L96.6749 182.17ZM256.474 108.111C256.547 108.428 256.615 108.749 256.68 109.073L257.661 108.876C257.594 108.544 257.524 108.215 257.45 107.889L256.474 108.111ZM257.027 111.047C257.124 111.694 257.207 112.351 257.275 113.018L258.27 112.916C258.2 112.234 258.115 111.561 258.016 110.899L257.027 111.047ZM257.432 115.006C257.469 115.666 257.491 116.335 257.498 117.011L258.498 117.001C258.491 116.31 258.468 115.626 258.431 114.95L257.432 115.006ZM257.473 118.997C257.45 119.656 257.412 120.321 257.359 120.991L258.356 121.07C258.41 120.385 258.449 119.705 258.472 119.032L257.473 118.997ZM257.157 122.982C257.076 123.634 256.98 124.291 256.869 124.95L257.855 125.116C257.969 124.442 258.066 123.772 258.149 123.105L257.157 122.982ZM256.493 126.921C256.356 127.564 256.205 128.209 256.037 128.856L257.006 129.106C257.176 128.445 257.331 127.786 257.471 127.13L256.493 126.921ZM255.496 130.782C255.304 131.413 255.098 132.046 254.876 132.68L255.819 133.01C256.046 132.363 256.257 131.717 256.453 131.073L255.496 130.782ZM254.177 134.548C253.932 135.163 253.673 135.779 253.399 136.394L254.312 136.801C254.592 136.173 254.857 135.545 255.106 134.918L254.177 134.548ZM252.551 138.196C252.257 138.79 251.949 139.384 251.625 139.977L252.503 140.456C252.833 139.851 253.148 139.245 253.448 138.639L252.551 138.196ZM250.64 141.703C250.3 142.273 249.946 142.842 249.577 143.41L250.415 143.954C250.791 143.376 251.152 142.796 251.498 142.216L250.64 141.703ZM248.463 145.056C248.082 145.598 247.687 146.139 247.277 146.678L248.074 147.283C248.49 146.734 248.893 146.184 249.281 145.631L248.463 145.056ZM246.045 148.243C245.627 148.755 245.196 149.266 244.751 149.774L245.504 150.432C245.956 149.915 246.395 149.396 246.82 148.875L246.045 148.243ZM243.408 151.258C242.959 151.739 242.497 152.217 242.022 152.693L242.73 153.399C243.212 152.916 243.682 152.43 244.139 151.941L243.408 151.258ZM240.574 154.1C240.098 154.548 239.61 154.994 239.111 155.437L239.774 156.185C240.281 155.736 240.776 155.283 241.259 154.828L240.574 154.1ZM237.576 156.758C237.073 157.178 236.56 157.595 236.035 158.01L236.655 158.795C237.187 158.375 237.707 157.952 238.217 157.526L237.576 156.758ZM234.444 159.232C233.91 159.63 233.365 160.026 232.809 160.419L233.386 161.236C233.949 160.838 234.501 160.437 235.042 160.033L234.444 159.232ZM231.176 161.542C230.622 161.914 230.057 162.283 229.481 162.648L230.018 163.492C230.6 163.122 231.172 162.749 231.733 162.373L231.176 161.542ZM227.78 163.701C227.217 164.041 226.645 164.378 226.062 164.712L226.56 165.579C227.148 165.242 227.727 164.901 228.297 164.558L227.78 163.701ZM224.286 165.704C223.71 166.018 223.124 166.329 222.53 166.638L222.99 167.525C223.59 167.214 224.182 166.9 224.765 166.582L224.286 165.704ZM220.747 167.539C220.144 167.837 219.532 168.131 218.911 168.423L219.336 169.328C219.963 169.034 220.581 168.736 221.189 168.436L220.747 167.539ZM217.101 169.252C216.5 169.521 215.89 169.787 215.273 170.05L215.665 170.97C216.288 170.705 216.903 170.436 217.51 170.165L217.101 169.252ZM213.395 170.831C212.781 171.08 212.159 171.327 211.529 171.571L211.889 172.503C212.524 172.258 213.152 172.009 213.771 171.758L213.395 170.831ZM209.671 172.272C209.044 172.503 208.41 172.732 207.768 172.957L208.099 173.9C208.746 173.673 209.385 173.443 210.017 173.21L209.671 172.272ZM205.835 173.619C205.217 173.826 204.592 174.03 203.961 174.231L204.265 175.184C204.901 174.981 205.53 174.776 206.152 174.568L205.835 173.619ZM202.046 174.827C201.401 175.023 200.749 175.216 200.09 175.406L200.368 176.367C201.031 176.175 201.687 175.981 202.337 175.784L202.046 174.827ZM198.156 175.952C197.523 176.125 196.885 176.297 196.24 176.465L196.493 177.433C197.142 177.263 197.785 177.091 198.421 176.916L198.156 175.952ZM194.287 176.964C193.63 177.127 192.967 177.288 192.297 177.447L192.527 178.42C193.201 178.261 193.868 178.099 194.529 177.934L194.287 176.964ZM190.352 177.895C189.711 178.038 189.064 178.18 188.411 178.319L188.619 179.297C189.276 179.157 189.926 179.015 190.571 178.87L190.352 177.895ZM186.436 178.729C185.772 178.863 185.102 178.994 184.427 179.124L184.614 180.106C185.293 179.976 185.966 179.844 186.634 179.709L186.436 178.729ZM182.456 179.49C181.81 179.607 181.159 179.721 180.503 179.833L180.671 180.819C181.331 180.706 181.985 180.591 182.634 180.474L182.456 179.49ZM178.519 180.163C177.852 180.27 177.18 180.375 176.503 180.478L176.653 181.467C177.333 181.363 178.008 181.258 178.678 181.15L178.519 180.163ZM174.488 180.774C173.841 180.867 173.189 180.957 172.533 181.045L172.666 182.036C173.325 181.947 173.979 181.857 174.629 181.764L174.488 180.774ZM170.55 181.302C169.884 181.385 169.214 181.466 168.539 181.545L168.655 182.539C169.333 182.459 170.006 182.378 170.675 182.294L170.55 181.302ZM166.499 181.776C165.84 181.848 165.177 181.917 164.509 181.985L164.61 182.98C165.28 182.912 165.946 182.842 166.607 182.77L166.499 181.776ZM162.536 182.177C161.874 182.239 161.208 182.299 160.537 182.356L160.623 183.353C161.296 183.295 161.965 183.235 162.629 183.172L162.536 182.177ZM158.512 182.524C157.833 182.577 157.149 182.629 156.461 182.678L156.533 183.676C157.223 183.626 157.909 183.574 158.591 183.521L158.512 182.524ZM154.474 182.814C153.818 182.857 153.158 182.897 152.494 182.936L152.552 183.935C153.219 183.896 153.881 183.855 154.539 183.812L154.474 182.814ZM150.49 183.047C149.818 183.082 149.142 183.115 148.463 183.146L148.508 184.145C149.19 184.114 149.868 184.08 150.542 184.045L150.49 183.047ZM146.412 183.233C145.745 183.259 145.076 183.283 144.402 183.305L144.435 184.305C145.111 184.282 145.783 184.258 146.451 184.232L146.412 183.233ZM142.424 183.365C141.761 183.384 141.094 183.4 140.424 183.414L140.446 184.414C141.118 184.4 141.786 184.383 142.451 184.365L142.424 183.365ZM138.403 183.453C137.725 183.463 137.044 183.472 136.36 183.48L136.37 184.48C137.057 184.472 137.739 184.463 138.419 184.452L138.403 183.453ZM134.3 183.495C133.647 183.499 132.991 183.5 132.331 183.5L132.331 184.5C132.992 184.5 133.65 184.499 134.305 184.495L134.3 183.495ZM130.343 183.494C129.677 183.491 129.007 183.486 128.335 183.479L128.324 184.479C128.998 184.486 129.67 184.491 130.337 184.494L130.343 183.494ZM126.307 183.453C125.627 183.442 124.945 183.43 124.259 183.416L124.239 184.416C124.926 184.43 125.61 184.442 126.291 184.452L126.307 183.453ZM122.215 183.37C121.561 183.353 120.904 183.335 120.244 183.315L120.214 184.315C120.876 184.335 121.534 184.353 122.19 184.369L122.215 183.37ZM118.254 183.252C117.588 183.229 116.919 183.205 116.246 183.179L116.208 184.178C116.881 184.204 117.552 184.228 118.22 184.251L118.254 183.252ZM114.221 183.096C113.543 183.067 112.861 183.036 112.177 183.003L112.13 184.002C112.815 184.035 113.498 184.066 114.178 184.095L114.221 183.096ZM110.119 182.901C109.466 182.867 108.81 182.832 108.152 182.795L108.096 183.793C108.756 183.83 109.413 183.866 110.067 183.9L110.119 182.901ZM106.168 182.68C105.504 182.64 104.838 182.599 104.168 182.556L104.105 183.554C104.775 183.597 105.443 183.638 106.108 183.678L106.168 182.68ZM102.152 182.423C101.477 182.377 100.8 182.33 100.119 182.281L100.048 183.279C100.729 183.328 101.408 183.375 102.084 183.421L102.152 182.423ZM98.0699 182.13C97.7269 182.104 97.3831 182.078 97.0387 182.051L96.9613 183.048C97.3064 183.075 97.6507 183.101 97.9944 183.127L98.0699 182.13Z" fill="url(#paint1_linear_420_1652)"/>
<defs>
<linearGradient id="paint0_linear_420_1652" x1="81.5" y1="3" x2="81.5" y2="79" gradientUnits="userSpaceOnUse">
<stop stop-color="#2D29FF"/>
<stop offset="1" stop-color="#CBABFF"/>
</linearGradient>
<linearGradient id="paint1_linear_420_1652" x1="177.5" y1="184" x2="177.5" y2="108" gradientUnits="userSpaceOnUse">
<stop stop-color="#2D29FF"/>
<stop offset="1" stop-color="#CBABFF"/>
</linearGradient>
</defs>
</svg>
