<svg width="360" height="193" viewBox="0 0 360 193" fill="none" xmlns="http://www.w3.org/2000/svg">
<path d="M218.775 46.1189C218.775 46.1189 224.154 42.9706 224.165 43.0002C224.236 43.1245 220.281 48.486 220.369 48.6458C220.482 48.847 229.048 43.3908 229.148 43.5624C229.378 43.9648 216.597 53.4451 216.821 53.8357C217.034 54.2026 234.255 43.2547 234.467 43.6216C234.721 44.0654 220.021 54.463 220.281 54.9187C220.617 55.5045 239.94 42.7576 240.276 43.3434C240.695 44.0654 216.408 60.0849 216.739 60.6589C217.117 61.3158 243.505 44.1542 243.942 44.9117C244.379 45.6691 217.429 62.458 217.878 63.2391C218.38 64.109 249.214 43.8642 249.751 44.7933C250.289 45.7224 216.508 66.2986 217.028 67.204C217.589 68.1746 255.997 43.4026 256.541 44.3376C257.084 45.2726 212.287 72.3111 212.813 73.2224C213.409 74.264 253.093 48.4387 253.73 49.5453C254.368 50.6519 211.969 76.0216 212.565 77.0572C213.09 77.9685 249.439 54.5281 249.952 55.4217C250.466 56.3153 212.636 79.0988 213.084 79.88C213.71 80.9629 250.625 56.8656 251.18 57.8302C251.735 58.7948 209.914 83.6674 210.634 84.916C211.266 86.0108 250.206 60.7655 250.749 61.7005C251.363 62.7716 209.873 87.6856 210.44 88.6679C210.947 89.5497 250.005 64.7304 250.454 65.5115C251.062 66.5649 207.807 91.7866 208.55 93.0826C209.052 93.9584 244.444 70.8612 245.07 71.9501C245.584 72.8437 208.019 95.5799 208.509 96.4262C209.029 97.3257 246.073 73.4 246.628 74.3646C247.26 75.4653 207.689 99.4265 208.184 100.29C208.71 101.208 246.062 76.927 246.682 78.0099C247.26 79.016 207.441 102.527 208.096 103.658C208.545 104.439 244.421 81.4482 244.934 82.3359C245.631 83.5431 205.528 107.137 206.089 108.108C206.65 109.078 240.211 87.2536 240.689 88.0821C241.309 89.1591 204.66 110.635 205.256 111.676C205.752 112.534 240.164 90.1888 240.719 91.1534C241.274 92.118 204.394 113.872 205.026 114.967C205.616 115.985 241.687 92.3725 242.283 93.4022C242.815 94.3253 207.482 115.588 208.037 116.547C208.592 117.505 241.357 96.0593 241.876 96.9647C242.396 97.8701 205.168 120.447 205.77 121.482C206.219 122.263 236.114 102.823 236.592 103.646C237.195 104.693 201.974 125.849 202.552 126.856C202.96 127.566 237.897 105.403 238.328 106.155C238.735 106.859 204.902 127.856 205.492 128.873C205.977 129.714 236.864 109.7 237.301 110.463C237.856 111.428 203.633 132.229 204.064 132.98C204.495 133.732 237.383 112.558 237.873 113.41" stroke="#2D29FF" stroke-width="1.75" stroke-linecap="round" stroke-linejoin="round"/>
<path d="M167.545 93.6405C167.924 94.2975 190.729 79.3696 191.101 80.0207C191.426 80.5889 169.679 94.848 170.051 95.4991C170.447 96.1857 193.447 81.1039 193.819 81.755C194.239 82.483 168.999 98.5001 169.301 99.0269C169.685 99.6898 192.011 85.1466 192.336 85.7089C192.679 86.3008 171.038 100.968 171.339 101.483C171.694 102.093 194.062 87.5971 194.387 88.1594C194.812 88.8934 169.123 105.159 169.484 105.781C169.803 106.331 195.391 89.8523 195.799 90.5626C196.207 91.2729 170.855 107.562 171.286 108.314C171.641 108.924 192.519 95.215 192.874 95.8306C193.252 96.4817 171.641 110.628 172.007 111.262C172.32 111.8 192.827 98.3284 193.211 98.9973C193.542 99.5655 168.692 115.778 169.046 116.393C169.354 116.926 195.705 100.104 196.083 100.761C196.426 101.359 170.624 118.146 171.003 118.803C171.345 119.394 195.527 103.762 195.9 104.407C196.272 105.052 172.675 120.543 173.006 121.117C173.396 121.798 194.706 107.716 195.078 108.355C195.451 108.995 173.609 123.597 173.963 124.218C174.306 124.81 198.122 109.539 198.429 110.072C198.843 110.788 174.477 126.882 174.785 127.415C175.187 128.107 200.078 111.966 200.432 112.582C200.834 113.28 176.971 129.167 177.279 129.7C177.586 130.232 198.884 116.47 199.203 117.021C199.522 117.571 173.555 134.589 173.904 135.187C174.211 135.719 198.488 120.081 198.872 120.75C199.256 121.419 176.126 136.891 176.428 137.412C176.699 137.886 197.407 124.384 197.791 125.059C198.116 125.621 176.091 140.383 176.487 141.07C176.841 141.68 200.651 126.468 200.923 126.941C201.248 127.504 176.026 144.053 176.445 144.775C176.758 145.314 200.072 130.244 200.444 130.895C200.763 131.446 176.628 147.285 177.03 147.978C177.349 148.528 199.977 133.914 200.32 134.512C200.568 134.938 181.486 148.161 181.728 148.581C182.461 149.848 236.865 115.139 237.539 116.311C238.271 117.577 178.774 151.653 179.625 153.127C180.269 154.246 233.638 120.43 234.271 121.525C234.974 122.745 179.453 154.536 180.233 155.886C180.966 157.158 235.145 122.567 235.819 123.739C236.534 124.976 177.982 158.271 178.915 159.887C179.548 160.982 231.493 128.036 232.12 129.119C232.988 130.629 180.907 159.768 181.799 161.313C182.514 162.55 228.379 132.659 229.118 133.949C229.738 135.021 180.836 163.586 181.593 164.906C182.154 165.883 230.831 135.003 231.452 136.074C232.019 137.063 183.791 165.8 184.471 166.972C185.061 168.002 228.42 140.271 228.976 141.236C229.478 142.112 193.016 164.19 193.601 165.202C194.056 165.995 228.243 144.136 228.692 144.912C229.171 145.746 196.786 165.611 197.176 166.285C197.543 166.925 227.256 147.824 227.717 148.623C228.125 149.327 204.941 164.652 205.231 165.149C205.562 165.729 224.289 153.376 224.614 153.938C224.845 154.335 209.994 165.35 210.207 165.723C210.408 166.072 225.743 156.217 225.968 156.608C226.157 156.933 215.041 166.279 215.195 166.552C215.301 166.735 225.371 160.455 225.465 160.615" stroke="#2D29FF" stroke-width="1.75" stroke-linecap="round" stroke-linejoin="round"/>
<path d="M147.407 46.4019C147.407 46.4019 148.015 46.0073 148.032 46.0367C148.079 46.1133 147.904 49.1465 147.951 49.2289C148.038 49.3821 153.437 45.8306 153.525 45.9837C153.654 46.2134 147.08 53.1926 147.185 53.3811C147.425 53.8052 160.853 45.0355 161.022 45.33C161.262 45.754 144.561 57.7453 144.836 58.2283C145.111 58.7112 168.934 43.4276 169.273 44.0166C169.647 44.6703 146.484 59.9009 146.823 60.4899C147.179 61.1142 174.047 43.8517 174.386 44.4465C174.812 45.1945 145.864 63.099 146.361 63.9648C146.858 64.8306 177.226 44.9118 177.699 45.7364C178.126 46.4785 145.187 66.5562 145.759 67.5633C146.209 68.3467 182.999 44.7469 183.49 45.6068C184.027 46.5491 145.602 69.4716 146.215 70.5435C146.829 71.6154 184.483 46.8672 185.085 47.9214C185.599 48.8225 141.599 75.108 142.242 76.227C142.884 77.346 186.113 49.5411 186.61 50.4068C187.311 51.6319 142.189 77.7818 142.879 78.9774C143.568 80.173 186.429 51.997 187.13 53.228C187.773 54.3529 143.428 80.8327 144.065 81.9517C144.591 82.8705 186.785 55.896 187.3 56.7912C187.855 57.763 141.979 85.0732 142.744 86.4043C143.41 87.5704 184.109 61.0317 184.664 62.0094C185.219 62.9871 140.863 89.5552 141.459 90.5918C142.084 91.6814 185.032 63.5113 185.775 64.8011C186.61 66.2617 136.205 95.8571 136.86 96.9997C137.444 98.0186 186.394 66.8448 186.967 67.8402C187.539 68.8355 138.408 98.3367 139.022 99.4086C139.758 100.693 187.194 69.5305 187.989 70.9145C188.714 72.1867 135.586 103.249 136.235 104.391C136.848 105.463 188.299 72.3339 189.058 73.6532C189.818 74.9725 134.482 107.218 135.154 108.39C136.001 109.869 189.847 74.9548 190.537 76.1622C191.355 77.5934 133.36 110.622 134.265 112.207C134.99 113.473 187.831 79.2837 188.585 80.5971C189.397 82.0165 135.195 113.514 135.89 114.727C136.352 115.528 163.365 97.8302 163.757 98.5133C164.213 99.3026 135.644 117.284 136.03 117.961C136.445 118.685 162.524 101.541 162.956 102.294C163.348 102.984 131.198 123.103 131.601 123.803C132.045 124.581 165.802 103.06 166.164 103.69C166.614 104.474 133.792 124.94 134.318 125.859C134.704 126.53 161.828 109.015 162.185 109.645C162.658 110.469 133.967 128.415 134.312 129.01C134.75 129.781 161.788 111.824 162.302 112.725C162.775 113.55 131.957 133.091 132.361 133.798C132.84 134.64 160.993 115.947 161.501 116.842C162.01 117.737 127.505 138.657 128.071 139.647C128.551 140.489 157.873 121.177 158.358 122.025C158.883 122.944 128.814 141.932 129.234 142.662C129.655 143.392 159.24 124.169 159.684 124.94C160.192 125.824 129.509 145.23 129.9 145.919C130.292 146.608 156.155 129.546 156.628 130.364C157.16 131.289 125.05 150.961 125.495 151.726C125.939 152.492 155.208 133.627 155.553 134.234C156.067 135.129 124.49 154.995 124.904 155.713C125.284 156.379 157.259 135.712 157.762 136.59C158.305 137.538 124.314 158.046 124.846 158.976C125.202 159.601 157.908 138.781 158.317 139.499C158.784 140.318 125.793 160.849 126.237 161.627C126.646 162.339 154.898 143.899 155.348 144.688C155.851 145.566 122.117 166.226 122.55 166.974C123.011 167.787 152.012 148.958 152.386 149.612C152.695 150.148 131.542 164.295 131.881 164.889C132.22 165.484 150.796 153.269 151.059 153.729C151.322 154.188 134.4 166.374 134.674 166.857C134.873 167.204 153.829 155.166 154.063 155.572C154.244 155.884 144.094 164.118 144.258 164.401C144.404 164.66 150.153 160.608 150.305 160.879C150.387 161.026 145.42 166.556 145.531 166.751C145.578 166.833 150.189 163.918 150.241 164.012" stroke="#2D29FF" stroke-width="1.75" stroke-linecap="round" stroke-linejoin="round"/>
<path d="M78.6328 44.5971C78.6328 44.5971 79.1815 44.2495 79.1931 44.2731C79.2282 44.332 80.1797 47.301 80.2088 47.3599C80.2964 47.5131 83.5069 45.2215 83.6003 45.3806C83.7229 45.5926 77.4303 52.373 77.547 52.5733C77.6871 52.8148 88.9123 45.5219 89.0991 45.8459C89.2451 46.0992 78.8663 54.8236 79.0122 55.071C79.2807 55.5423 97.7909 43.6486 97.9953 44.008C98.2521 44.4557 82.5613 56.0489 82.8065 56.479C83.075 56.9502 101.614 44.8386 101.906 45.3511C102.198 45.8636 82.7656 59.23 83.1158 59.8368C83.5128 60.5319 106.751 45.251 107.102 45.8636C107.452 46.4763 83.7813 61.8691 84.0907 62.4052C84.5577 63.2181 113.33 44.3555 113.768 45.1155C114.206 45.8754 85.4099 63.8897 85.766 64.5141C86.1454 65.1739 113.698 47.2774 114.112 48.002C114.62 48.8915 83.4953 67.9838 83.9623 68.7968C84.4293 69.6097 111.871 51.5895 112.273 52.3023C112.729 53.0976 85.7251 70.1517 86.198 70.9705C86.6708 71.7893 113.744 53.7692 114.241 54.6351C114.608 55.2772 85.4683 74.1928 85.8536 74.8703C86.2855 75.6243 115.863 56.3317 116.319 57.1211C116.774 57.9104 85.2115 77.8157 85.696 78.6699C86.0404 79.2708 113.692 61.3625 114.118 62.1106C114.515 62.7999 88.4103 79.3709 88.7898 80.0366C89.1692 80.7022 117.2 62.6938 117.539 63.2888C117.959 64.0311 90.8211 81.2854 91.1831 81.9157C91.6442 82.7228 114.702 67.383 115.058 68.0074C115.373 68.5553 90.9145 85.0085 91.2298 85.5622C91.545 86.1159 117.731 69.1502 118.146 69.8807C118.56 70.6112 88.3403 90.0216 88.7489 90.7403C89.1575 91.459 116.972 73.533 117.299 74.1045C117.708 74.8231 89.21 92.5841 89.6187 93.3028C89.9689 93.9155 120.282 74.4461 120.708 75.1884C121.21 76.0661 89.7121 95.1761 90.2024 96.0303C90.5526 96.6429 116.57 79.8598 116.92 80.4666C117.241 81.0262 91.545 98.0273 91.9069 98.6635C92.3622 99.4588 117.988 82.6227 118.35 83.2589C118.712 83.8951 91.831 101.244 92.1637 101.827C92.5665 102.534 120.808 84.113 121.245 84.8789C121.707 85.6859 95.3042 102.398 95.7479 103.17C96.1565 103.883 121.969 86.87 122.407 87.6358C122.822 88.3604 95.024 105.933 95.4618 106.699C95.8004 107.294 119.132 91.8537 119.588 92.643C119.985 93.3323 95.1116 109.408 95.4151 109.939C95.7946 110.604 123.674 92.6725 124.018 93.2734C124.549 94.1982 94.3352 112.595 94.8256 113.45C95.1992 114.098 121.099 97.2261 121.496 97.9095C121.963 98.7283 94.8256 116.295 95.1816 116.919C95.4969 117.467 123.61 99.5648 123.948 100.16C124.363 100.89 96.4542 118.245 96.9504 119.111C97.359 119.824 122.81 103.052 123.236 103.794C123.557 104.36 97.2189 121.597 97.5808 122.221C97.9135 122.804 124.293 105.762 124.678 106.434C125.104 107.176 98.8884 124.171 99.297 124.884C99.6589 125.514 126.487 108.248 126.826 108.843C127.141 109.391 101.212 126.186 101.533 126.751C101.959 127.499 125.921 111.835 126.225 112.366C126.692 113.185 99.7289 130.421 100.085 131.04C100.412 131.605 123.575 116.584 123.907 117.161C124.298 117.844 101.241 132.595 101.614 133.249C101.935 133.814 128.233 117.019 128.542 117.561C128.887 118.168 102.134 135.428 102.537 136.141C102.858 136.701 127.526 120.76 127.877 121.379C128.279 122.08 102.437 138.521 102.77 139.104C103.068 139.629 125.664 124.907 126.032 125.549C126.4 126.192 103.237 141.596 103.582 142.197C103.979 142.886 127.643 127.352 127.999 127.971C128.285 128.471 106.284 143.316 106.559 143.793C106.909 144.406 127.567 130.698 127.935 131.34C128.303 131.982 105.806 146.998 106.168 147.628C106.331 147.911 117.801 140.383 118 140.736C118.228 141.137 105.899 150.639 106.109 150.998C106.168 151.104 112.886 146.916 112.945 147.016" stroke="#2D29FF" stroke-width="1.75" stroke-linecap="round" stroke-linejoin="round"/>
<path d="M155.882 88.7529C155.969 88.9069 163.368 84.1518 163.456 84.3057C163.543 84.4597 157.35 88.4332 157.437 88.5931C157.577 88.8358 163.899 84.4775 164.038 84.7203C164.19 84.9808 153.638 90.7426 153.79 91.0091C153.941 91.2756 166.975 82.9141 167.126 83.1865C167.301 83.5004 154.891 90.3636 155.066 90.6716C155.241 90.9795 164.528 84.7203 164.697 85.0163C164.866 85.3124 153.172 91.5302 153.335 91.8204C153.51 92.1283 165.722 84.1399 165.897 84.4479C166.089 84.7854 152.671 92.4066 152.864 92.7442C153.056 93.0817 169.253 82.6536 169.451 83.0089C169.702 83.453 152.159 93.3304 152.409 93.7686C152.636 94.1654 165.932 85.3065 166.153 85.7033C166.375 86.1 150.195 95.6695 150.428 96.084C150.684 96.5341 171.683 83.0089 171.939 83.4648C172.23 83.9741 151.716 94.9115 152.007 95.4208C152.269 95.8827 170.628 83.8734 170.896 84.3413C171.205 84.8801 149.577 96.6525 149.886 97.1914C150.16 97.677 171.129 84.0807 171.403 84.5663C171.677 85.0519 152.159 95.9419 152.438 96.4275C152.718 96.9131 172.871 83.755 173.163 84.2643C173.454 84.7735 152.916 96.4275 153.213 96.9486C153.522 97.4993 173.716 84.1873 174.025 84.738C174.374 85.3539 149.665 98.4942 150.009 99.11C150.323 99.6667 171.048 86.023 171.362 86.5797C171.7 87.1778 148.022 100.709 148.366 101.307C148.709 101.905 173.658 85.6736 173.996 86.2658C174.334 86.858 150.848 99.8147 151.18 100.401C151.512 100.987 174.089 86.1415 174.439 86.7514C174.788 87.3613 149.904 100.573 150.253 101.189C150.603 101.804 176.891 84.7321 177.241 85.3539C177.637 86.0467 149.56 100.851 149.956 101.55C150.312 102.177 174.963 86.0408 175.318 86.6685C175.715 87.3613 148.068 102.941 148.465 103.64C148.838 104.297 175.627 86.8284 176 87.4798C176.373 88.1312 151.384 102.035 151.739 102.657C152.124 103.332 178.173 86.2421 178.558 86.9231C178.966 87.6397 150.073 103.19 150.486 103.913C150.9 104.635 175.499 88.3207 175.889 89.0076C176.28 89.6945 150.003 104.434 150.382 105.097C150.784 105.807 179.478 87.0771 179.88 87.7877C180.341 88.6049 147.62 106.293 148.08 107.104C148.488 107.827 177.078 89.126 177.486 89.8485C177.917 90.6124 147.119 106.749 147.55 107.513C147.958 108.235 176.583 89.5109 176.996 90.2334C177.387 90.9144 150.166 105.991 150.55 106.672C150.97 107.412 178.47 89.3037 178.89 90.0439C179.309 90.7841 150.987 106.82 151.395 107.537C151.826 108.295 181.319 88.9661 181.751 89.7241C182.182 90.4821 151.582 106.927 152.013 107.685C152.444 108.443 177.719 91.5776 178.156 92.3415C178.593 93.1054 147.655 109.959 148.092 110.734C148.529 111.51 181.698 89.9787 182.141 90.7545C182.607 91.5717 149.997 109.728 150.463 110.545C150.929 111.362 179.391 92.5191 179.834 93.3067C180.277 94.0943 148.599 111.925 149.053 112.718C149.508 113.512 178.698 94.2542 179.152 95.0536C179.554 95.7583 151.588 111.546 151.99 112.25C152.45 113.062 183.102 92.91 183.563 93.7213C184.023 94.5325 150.457 112.428 150.935 113.263C151.413 114.098 181.081 94.4852 181.541 95.3024C182.001 96.1195 149.915 113.689 150.37 114.495C150.824 115.3 182.362 94.6214 182.828 95.4445C183.324 96.3209 147.946 114.915 148.447 115.791C148.913 116.615 180.661 95.7879 181.133 96.611C181.605 97.4342 149.974 114.187 150.416 114.968C150.888 115.791 183.3 94.5681 183.772 95.3971C184.244 96.2261 151.389 114.358 151.856 115.182C152.322 116.005 181.809 96.4926 182.281 97.3276C182.729 98.1152 151.011 114.82 151.454 115.608C151.925 116.443 183.691 95.5807 184.163 96.4156C184.635 97.2506 152.561 114.382 153.015 115.176C153.469 115.969 181.587 97.292 182.065 98.127C182.508 98.9087 150.993 115.365 151.436 116.141C151.908 116.976 180.947 97.7125 181.419 98.5475C181.826 99.2699 152.986 115.223 153.4 115.945C153.877 116.786 185.147 96.1965 185.625 97.0374C186.144 97.9494 149.28 117.189 149.799 118.095C150.277 118.936 184.413 96.6643 184.891 97.5052C185.369 98.3461 151.809 116.04 152.281 116.869C152.753 117.698 182.939 97.7599 183.417 98.6007C183.895 99.4416 150.399 117.023 150.871 117.852C151.343 118.681 182.84 97.973 183.318 98.8139C183.796 99.6548 149.012 118.326 149.508 119.191C150.003 120.055 181.372 99.3706 181.85 100.211C182.258 100.934 153.207 116.348 153.615 117.071C154.093 117.911 182.281 99.1278 182.759 99.9687C183.178 100.715 153.248 116.692 153.668 117.438C154.145 118.279 184.71 98.0974 185.188 98.9383C185.666 99.7792 151.022 118.569 151.512 119.433C152.001 120.298 184.25 99.0922 184.734 99.9391C185.217 100.786 151.599 118.474 152.071 119.303C152.543 120.132 184.658 99.0567 185.136 99.8976C185.614 100.738 152.362 118.35 152.829 119.173C153.295 119.996 183.417 100.099 183.895 100.946C184.338 101.727 152.811 118.409 153.254 119.191C153.732 120.037 186.837 98.358 187.315 99.2048C187.845 100.14 150.02 120.233 150.556 121.168C151.034 122.015 184.046 100.389 184.53 101.236C185.013 102.083 151.692 119.682 152.164 120.505C152.636 121.328 186.639 99.1455 187.123 99.9924C187.606 100.839 153.335 119.362 153.819 120.215C154.303 121.068 186.889 99.6844 187.373 100.525C187.88 101.419 152.159 121.328 152.671 122.222C153.149 123.063 184.233 102.574 184.716 103.421C185.2 104.268 150.661 122.607 151.145 123.466C151.628 124.325 187.117 101.236 187.594 102.077C188.072 102.918 153.802 121.672 154.285 122.53C154.769 123.389 187.455 101.947 187.927 102.787C188.451 103.711 151.448 123.928 151.972 124.852C152.45 125.687 187.763 102.734 188.241 103.569C188.783 104.517 150.737 125.195 151.273 126.143C151.745 126.978 186.482 104.368 186.954 105.203C187.46 106.098 151.605 125.651 152.118 126.545C152.59 127.374 184.868 106.222 185.34 107.051C185.812 107.88 151.279 126.06 151.768 126.918C152.258 127.777 186.045 105.701 186.511 106.53C187.012 107.412 151.512 126.362 152.007 127.244C152.473 128.067 188.364 104.813 188.835 105.636C189.307 106.459 155.247 124.609 155.73 125.456C156.214 126.303 185.648 106.802 186.115 107.625C186.581 108.449 153.003 126.782 153.481 127.623C153.959 128.464 186.82 106.974 187.28 107.791C187.74 108.608 155.381 125.805 155.841 126.61C156.301 127.416 186.004 107.827 186.464 108.638C186.924 109.449 155.142 126.83 155.59 127.623C156.039 128.417 186.05 108.68 186.505 109.479C186.959 110.278 153.772 127.872 154.239 128.695C154.705 129.518 185.147 109.491 185.602 110.29C186.056 111.09 154.32 128.819 154.769 129.619C155.217 130.418 187.49 109.366 187.938 110.154C188.387 110.942 157.047 127.718 157.49 128.494C157.932 129.269 184.536 111.575 184.984 112.363C185.433 113.15 155.322 130.086 155.753 130.844C156.185 131.602 184.361 113.038 184.798 113.802C185.211 114.53 156.097 130.442 156.511 131.164C156.925 131.887 188.492 111.392 188.917 112.15C189.342 112.908 158.981 129.601 159.412 130.359C159.844 131.117 187.367 112.961 187.793 113.707C188.253 114.524 155.608 132.283 156.074 133.101C156.488 133.829 184.769 115.288 185.182 116.017C185.561 116.68 158.777 130.726 159.15 131.383C159.564 132.112 189.127 112.819 189.54 113.547C190.012 114.382 156.557 132.461 157.029 133.296C157.437 134.013 184.442 116.253 184.85 116.97C185.229 117.639 158.224 131.887 158.602 132.556C159.01 133.272 184.92 116.159 185.322 116.875C185.678 117.497 160.729 131.105 161.085 131.727C161.487 132.431 187.041 115.555 187.443 116.259C187.874 117.023 157.525 133.953 157.956 134.717C158.34 135.398 187.367 116.555 187.752 117.23C188.16 117.953 159.179 133.444 159.587 134.161C159.966 134.83 184.419 118.693 184.804 119.362C185.159 119.984 160.123 133.332 160.479 133.953C160.857 134.617 187.606 117.148 187.985 117.817C188.364 118.486 162.757 132.147 163.118 132.781C163.479 133.414 184.996 119.066 185.369 119.723C185.742 120.381 159.867 134.457 160.234 135.102C160.601 135.748 185.847 119.22 186.208 119.86C186.569 120.499 160.741 134.877 161.108 135.523C161.475 136.168 188.27 118.764 188.62 119.38C188.969 119.996 164.883 133.645 165.233 134.249C165.582 134.853 184.868 121.944 185.2 122.53C185.532 123.117 162.302 135.653 162.629 136.227C162.955 136.802 186.913 121.216 187.239 121.79C187.6 122.424 162.063 136.174 162.425 136.808C162.739 137.364 187.187 121.536 187.507 122.092C187.828 122.649 165.664 135.067 165.979 135.623C166.276 136.15 186.744 122.738 187.047 123.265C187.326 123.756 167.977 134.842 168.251 135.333C168.525 135.825 185.415 124.609 185.695 125.1C185.998 125.633 164.65 137.5 164.953 138.039C165.21 138.495 185.025 125.657 185.281 126.113C185.538 126.569 167.511 136.731 167.767 137.187C168.006 137.607 182.863 127.771 183.102 128.186C183.283 128.499 171.17 136.115 171.345 136.429C171.537 136.772 183.708 128.719 183.901 129.062C184.139 129.477 167.447 138.578 167.686 138.993C167.866 139.307 183.434 129.329 183.615 129.648C183.749 129.879 174.887 135.765 175.021 136.002C175.138 136.204 180.358 132.603 180.469 132.805C180.574 132.988 173.332 137.098 173.436 137.281C173.524 137.435 179.379 133.586 179.467 133.746" stroke="white" stroke-width="1.75" stroke-linecap="round" stroke-linejoin="round"/>
<path d="M205.028 93.0004C205.128 93.17 209.963 89.9347 210.057 90.1044C210.186 90.3267 201.366 95.3464 201.495 95.5629C201.636 95.8028 215.836 86.9861 215.971 87.2259C216.165 87.5653 202.81 95.5278 203.003 95.8613C203.197 96.1947 218.183 86.6584 218.383 87.0095C218.647 87.4599 200.269 97.517 200.533 97.9733C200.762 98.3711 217.309 87.7876 217.538 88.1854C217.767 88.5832 201.108 97.944 201.349 98.3594C201.607 98.8041 217.826 88.279 218.084 88.7237C218.395 89.2561 196.748 101.191 197.059 101.723C197.347 102.215 219.034 88.4136 219.322 88.905C219.609 89.3965 200.199 99.7869 200.474 100.261C200.774 100.776 220.578 87.9982 220.877 88.513C221.211 89.0864 197.623 101.484 197.957 102.057C198.268 102.589 221.563 87.7583 221.874 88.2907C222.185 88.8231 200.744 99.8338 201.044 100.354C201.343 100.875 222.191 87.4658 222.502 88.004C222.854 88.6125 198.028 101.993 198.386 102.601C198.714 103.169 222.889 87.7408 223.212 88.3083C223.582 88.9518 197.599 103.303 197.975 103.941C198.327 104.549 222.614 88.9518 222.966 89.5544C223.376 90.2623 194.712 106.117 195.123 106.825C195.499 107.469 223.535 89.6071 223.91 90.2506C224.286 90.8942 197.523 104.871 197.899 105.52C198.274 106.17 223.664 89.8177 224.04 90.473C224.474 91.2218 193.949 107.714 194.384 108.463C194.777 109.142 223.042 91.058 223.441 91.7367C223.84 92.4153 195.422 107.352 195.821 108.042C196.22 108.732 221.669 92.2398 222.068 92.936C222.402 93.5094 198.802 105.883 199.137 106.457C199.541 107.159 224.069 91.175 224.474 91.8712C224.879 92.5674 197.359 107.796 197.752 108.475C198.174 109.206 223.171 92.8717 223.594 93.603C224.016 94.3343 194.695 109.75 195.105 110.464C195.516 111.178 225.16 92.1813 225.589 92.9185C225.982 93.5971 197.934 108.106 198.327 108.785C198.755 109.528 225.882 91.9297 226.316 92.6727C226.75 93.4158 196.825 108.82 197.247 109.546C197.67 110.271 223.658 93.3455 224.092 94.0944C224.527 94.8433 195.317 110.253 195.733 110.967C196.173 111.722 228.481 91.1048 228.922 91.8654C229.42 92.7254 194.407 111.88 194.912 112.74C195.364 113.524 228.012 92.6435 228.464 93.4275C228.951 94.2641 194.624 112.33 195.111 113.167C195.569 113.957 226.023 94.3167 226.481 95.1066C226.962 95.9373 193.069 114.056 193.55 114.887C194.032 115.718 229.62 93.053 230.083 93.8545C230.588 94.7263 195.305 114.027 195.81 114.893C196.285 115.718 230.647 93.7434 231.122 94.5625C231.668 95.5044 193.416 116.221 193.961 117.163C194.448 118 227.443 96.7739 227.924 97.6106C228.405 98.4472 193.105 117.292 193.609 118.158C194.114 119.023 230.694 95.6799 231.186 96.5282C231.726 97.4585 193.691 117.888 194.231 118.824C194.73 119.679 231.456 96.2532 231.949 97.1133C232.507 98.0728 193.445 119.088 194.002 120.041C194.501 120.907 231.304 97.4116 231.808 98.2775C232.313 99.1434 197.646 117.122 198.133 117.964C198.62 118.807 229.385 98.8158 229.884 99.6875C230.359 100.507 196.907 118.333 197.376 119.146C197.881 120.018 231.55 98.3068 232.061 99.1844C232.601 100.115 194.695 120.428 195.235 121.358C195.745 122.235 232.518 98.7222 233.023 99.6056C233.569 100.548 194.994 121.182 195.54 122.124C196.05 123.008 232.73 99.5354 233.24 100.419C233.804 101.396 193.797 122.563 194.366 123.54C194.877 124.423 230.905 101.326 231.415 102.215C231.926 103.104 195.915 122.721 196.426 123.604C196.936 124.488 229.133 103.59 229.649 104.479C230.165 105.368 193.363 124.681 193.879 125.576C194.395 126.471 233.534 101.56 234.05 102.455C234.607 103.42 194.736 123.891 195.299 124.856C195.815 125.746 233.293 101.8 233.809 102.689C234.326 103.578 198.057 122.212 198.567 123.095C199.078 123.979 230.083 103.765 230.594 104.66C231.104 105.556 196.056 123.628 196.549 124.476C197.042 125.324 232.501 102.595 233.017 103.484C233.581 104.456 194.002 125.939 194.566 126.91C195.082 127.799 230.84 104.842 231.357 105.731C231.832 106.556 198.11 124.412 198.585 125.237C199.101 126.126 232.043 104.789 232.56 105.678C233.076 106.568 197.922 125.383 198.421 126.243C198.92 127.103 229.766 107.012 230.283 107.902C230.752 108.715 197.464 126.12 197.934 126.927C198.45 127.817 231.28 106.55 231.797 107.434C232.313 108.317 194.272 128.466 194.812 129.396C195.352 130.327 230.16 107.872 230.67 108.756C231.122 109.534 199.266 126.202 199.718 126.974C200.228 127.858 234.666 105.678 235.177 106.562C235.687 107.445 199.148 126.436 199.665 127.325C200.181 128.215 234.197 106.269 234.707 107.153C235.253 108.095 196.93 128.665 197.476 129.607C197.981 130.485 233.182 107.884 233.686 108.762C234.191 109.639 199.946 128.396 200.433 129.238C200.92 130.081 235.042 108.159 235.54 109.025C236.039 109.891 199.324 129.683 199.847 130.578C200.369 131.473 231.339 111.307 231.838 112.161C232.295 112.951 199.718 129.864 200.181 130.66C200.674 131.514 231.233 111.646 231.726 112.5C232.19 113.307 198.996 130.379 199.459 131.187C199.952 132.041 234.009 110.16 234.502 111.014C235.047 111.956 196.701 132.708 197.247 133.65C197.734 134.492 233.322 111.757 233.809 112.6C234.32 113.483 198.321 132.983 198.831 133.872C199.313 134.703 233.868 112.6 234.349 113.424C234.83 114.249 202.082 131.479 202.546 132.275C203.009 133.07 231.263 114.647 231.744 115.466C232.184 116.227 200.797 132.339 201.237 133.1C201.713 133.919 232.618 113.939 233.094 114.764C233.539 115.536 202.088 132.755 202.534 133.533C202.98 134.311 232.073 115.455 232.536 116.262C233 117.069 201.771 133.644 202.211 134.404C202.651 135.165 233.539 115.314 233.997 116.104C234.484 116.941 199.97 134.668 200.457 135.504C200.915 136.294 231.574 116.537 232.031 117.327C232.448 118.046 202.769 133.345 203.185 134.065C203.643 134.855 234.678 114.881 235.135 115.671C235.658 116.572 198.708 136.183 199.236 137.09C199.688 137.868 231.474 117.496 231.926 118.275C232.342 119 202.781 134.75 203.197 135.475C203.637 136.241 231.016 118.444 231.456 119.205C231.896 119.965 200.686 136.247 201.126 137.008C201.566 137.768 231.005 118.795 231.445 119.556C231.838 120.229 204.136 134.814 204.529 135.487C204.963 136.236 229.608 120.053 230.042 120.802C230.476 121.551 201.249 137.763 201.666 138.482C202.082 139.202 232.172 119.959 232.589 120.679C233.005 121.399 202.37 137.306 202.798 138.049C203.226 138.792 230.353 121.235 230.77 121.949C231.151 122.604 204.441 136.955 204.817 137.61C205.222 138.307 231.186 121.504 231.591 122.2C231.996 122.896 204.588 137.131 204.975 137.792C205.362 138.453 232.149 121.229 232.548 121.919C232.947 122.61 205.145 137.716 205.538 138.4C205.932 139.085 233.44 121.457 233.821 122.118C234.203 122.779 206.284 137.078 206.677 137.751C207.07 138.424 229.291 123.85 229.673 124.511C230.054 125.172 203.491 138.909 203.866 139.553C204.242 140.196 232.26 122.329 232.642 122.99C233.023 123.651 205.521 137.95 205.908 138.617C206.295 139.284 233.316 121.972 233.692 122.621C234.068 123.271 207.322 138.231 207.704 138.892C208.056 139.5 232.859 123.598 233.211 124.207C233.563 124.815 209.435 138.119 209.781 138.716C210.127 139.313 231.169 125.64 231.497 126.214C231.826 126.787 207.445 139.787 207.792 140.384C208.108 140.934 228.581 127.682 228.898 128.232C229.215 128.782 205.955 140.992 206.284 141.56C206.612 142.127 228.998 127.764 229.309 128.302C229.62 128.841 207.357 140.787 207.668 141.337C207.968 141.852 230.658 127.419 230.958 127.934C231.286 128.501 207.874 140.547 208.202 141.115C208.496 141.624 228.305 128.864 228.599 129.373C228.892 129.882 208.056 141.472 208.355 141.987C208.625 142.449 226.739 130.789 227.003 131.251C227.237 131.66 210.737 141.004 210.978 141.413C211.218 141.823 224.978 132.813 225.213 133.217C225.371 133.492 214.217 139.6 214.375 139.875C214.598 140.255 228.247 131.38 228.47 131.76C228.693 132.14 213.577 140.641 213.794 141.015C213.982 141.337 225.759 133.702 225.941 134.024C226.07 134.252 217.362 139.98 217.491 140.208C217.591 140.384 222.796 136.92 222.901 137.096C222.972 137.218 217.996 139.787 218.066 139.91C218.166 140.079 224.474 135.996 224.573 136.165" stroke="white" stroke-width="1.75" stroke-linecap="round" stroke-linejoin="round"/>
<path d="M205.346 105.887C205.435 106.041 213.073 101.2 213.162 101.354C213.244 101.495 207.753 105.072 207.836 105.213C207.977 105.456 212.62 102.116 212.761 102.358C212.903 102.601 203.169 108.831 203.316 109.085C203.51 109.422 216.969 100.721 217.163 101.058C217.358 101.395 203.769 109.593 203.963 109.936C204.193 110.338 219.635 100.313 219.871 100.715C220.088 101.093 204.722 109.18 204.94 109.558C205.176 109.966 221.165 99.6039 221.401 100.012C221.683 100.508 201.692 111.367 201.974 111.863C202.227 112.301 221.177 100.148 221.43 100.579C221.707 101.058 202.274 111.461 202.551 111.94C202.81 112.395 220.194 101.105 220.453 101.56C220.694 101.986 203.398 110.971 203.645 111.39C203.91 111.846 220.471 101.028 220.73 101.484C221.036 102.01 199.685 113.613 199.991 114.139C200.267 114.618 221.742 100.887 222.019 101.365C222.295 101.844 202.516 112.525 202.798 113.016C203.081 113.507 222.548 100.898 222.837 101.395C223.125 101.891 203.434 112.2 203.71 112.685C203.987 113.17 222.513 101.111 222.807 101.614C223.101 102.116 202.127 112.992 202.421 113.507C202.716 114.021 218.982 103.233 219.27 103.736C219.494 104.126 203.657 112.502 203.881 112.892C204.175 113.406 222.419 101.46 222.713 101.974C223.025 102.524 200.721 114.245 201.033 114.795C201.344 115.345 219.894 103.162 220.194 103.682C220.494 104.203 200.22 115.676 200.515 116.184C200.832 116.734 223.967 101.85 224.284 102.4C224.626 102.991 200.656 115.741 200.997 116.332C201.339 116.923 223.237 102.689 223.561 103.251C223.884 103.813 202.315 116.131 202.627 116.669C202.969 117.26 221.913 104.699 222.254 105.29C222.531 105.769 203.057 115.995 203.334 116.474C203.675 117.065 223.513 103.978 223.855 104.575C224.173 105.125 201.774 116.941 202.092 117.491C202.439 118.088 226.815 102.352 227.156 102.955C227.556 103.647 199.155 118.312 199.549 119.01C199.897 119.613 226.226 102.737 226.574 103.34C226.921 103.943 202.892 117.414 203.239 118.011C203.587 118.608 224.143 105.06 224.496 105.68C224.849 106.301 200.721 118.738 201.056 119.329C201.415 119.95 225.556 104.291 225.909 104.918C226.244 105.503 202.674 118.785 203.016 119.376C203.381 120.015 226.85 104.705 227.215 105.343C227.615 106.035 199.779 121.64 200.179 122.332C200.556 122.988 227.839 105.42 228.216 106.076C228.616 106.774 200.532 122.32 200.932 123.017C201.333 123.715 225.55 107.85 225.932 108.518C226.268 109.103 202.969 122.42 203.304 123.006C203.693 123.685 226.297 108.772 226.685 109.446C227.074 110.12 200.721 124.064 201.091 124.708C201.48 125.388 226.886 108.843 227.28 109.523C227.633 110.137 203.004 123.845 203.357 124.46C203.751 125.145 227.48 109.558 227.868 110.244C228.233 110.876 202.521 124.743 202.886 125.376C203.281 126.062 227.974 109.913 228.369 110.598C228.763 111.284 199.92 126.168 200.32 126.871C200.721 127.575 227.874 109.978 228.269 110.663C228.663 111.349 201.745 125.66 202.121 126.322C202.498 126.984 229.752 109.381 230.146 110.072C230.587 110.841 199.226 127.12 199.667 127.888C200.061 128.574 229.728 109.54 230.122 110.226C230.564 110.994 199.449 127.876 199.897 128.645C200.291 129.336 230.952 109.718 231.346 110.409C231.805 111.207 199.485 128.591 199.944 129.389C200.338 130.075 229.528 111.319 229.922 112.005C230.317 112.691 203.61 127.055 203.993 127.717C204.375 128.379 230.34 111.52 230.734 112.212C231.129 112.904 202.298 128.964 202.71 129.685C203.122 130.406 230.487 112.667 230.882 113.347C231.276 114.027 202.833 129.295 203.234 129.992C203.634 130.69 229.969 113.583 230.364 114.263C230.793 115.014 200.097 131.08 200.526 131.837C200.915 132.516 227.727 115.162 228.116 115.835C228.469 116.45 203.392 129.809 203.746 130.424C204.134 131.098 228.557 115.132 228.945 115.812C229.31 116.444 203.663 130.146 204.028 130.773C204.416 131.446 230.705 114.405 231.093 115.079C231.482 115.753 204.693 129.667 205.07 130.323C205.446 130.979 230.893 114.452 231.282 115.126C231.717 115.883 201.027 132.392 201.462 133.149C201.845 133.811 229.652 115.918 230.034 116.58C230.417 117.242 204.004 130.855 204.375 131.5C204.746 132.144 227.58 117.16 227.957 117.822C228.28 118.389 205.046 130.424 205.37 130.997C205.752 131.659 229.075 116.367 229.457 117.03C229.863 117.733 201.28 132.877 201.686 133.574C202.062 134.231 232.159 115.026 232.541 115.682C232.953 116.403 203.734 132.12 204.146 132.841C204.522 133.492 227.521 118.419 227.892 119.069C228.239 119.666 203.793 132.564 204.14 133.161C204.511 133.805 230.14 117.219 230.511 117.869C230.882 118.519 204.04 132.51 204.416 133.167C204.793 133.823 231.911 116.362 232.282 117.006C232.653 117.65 205.458 132.428 205.846 133.102C206.211 133.734 229.434 118.578 229.793 119.217C230.152 119.855 203.963 133.959 204.334 134.603C204.705 135.247 229.34 119.27 229.699 119.896C230.058 120.523 204.299 134.479 204.664 135.117C205.028 135.756 229.151 120.103 229.504 120.712C229.828 121.28 207.147 134.018 207.471 134.585C207.794 135.153 227.403 122.237 227.745 122.828C228.021 123.313 208.736 134.319 209.019 134.804C209.342 135.371 231.429 121.049 231.758 121.616C232.088 122.184 208.601 135.129 208.936 135.714C209.248 136.258 227.003 124.513 227.315 125.057C227.604 125.559 207.124 136.11 207.412 136.607C207.724 137.151 228.157 123.851 228.475 124.395C228.792 124.938 206.47 137.558 206.794 138.12C207.088 138.634 227.786 125.264 228.08 125.772C228.333 126.215 210.502 136.051 210.755 136.494C211.037 136.985 229.328 125.068 229.61 125.559C229.875 126.014 211.737 136.613 212.002 137.068C212.267 137.523 229.004 126.623 229.257 127.06C229.493 127.468 213.403 136.991 213.632 137.393C213.856 137.777 225.432 130.034 225.656 130.418C225.844 130.743 212.979 138.374 213.167 138.699C213.356 139.024 225.467 131.133 225.656 131.458C225.82 131.748 214.374 138.593 214.545 138.883C214.692 139.137 225.614 132.126 225.762 132.38C225.915 132.646 215.251 138.729 215.404 138.995C215.516 139.184 223.343 134.136 223.449 134.331C223.519 134.455 218.376 137.216 218.446 137.34C218.546 137.517 224.408 133.645 224.508 133.823C224.579 133.947 219.488 136.678 219.565 136.802C219.659 136.961 224.985 133.444 225.079 133.604C225.173 133.764 218.364 137.334 218.458 137.505C218.546 137.659 224.284 133.917 224.373 134.077" stroke="black" stroke-width="1.75" stroke-linecap="round" stroke-linejoin="round"/>
<path d="M162.591 98.7252C162.672 98.8679 167.252 95.7763 167.333 95.919C167.414 96.0616 162.115 99.4981 162.197 99.6408C162.318 99.8608 168.227 95.7822 168.349 96.0022C168.488 96.246 159.202 102.108 159.341 102.352C159.509 102.649 170.49 95.366 170.658 95.6574C170.827 95.9487 159.538 102.411 159.701 102.697C159.887 103.024 169.643 96.3768 169.829 96.7038C170.037 97.0724 155.725 105.741 155.934 106.109C156.143 106.478 172.266 95.9368 172.481 96.3232C172.696 96.7097 157.559 104.831 157.768 105.212C157.977 105.592 171.842 96.3649 172.063 96.7573C172.313 97.1972 154.803 106.674 155.052 107.114C155.278 107.519 175.29 94.605 175.516 95.0093C175.76 95.4374 158.923 105.337 159.167 105.771C159.411 106.205 172.342 97.3815 172.597 97.8274C172.864 98.2971 154.478 108.981 154.739 109.451C155 109.92 174.576 97.0783 174.849 97.5599C175.122 98.0415 156.497 108.678 156.764 109.148C157.049 109.653 177.095 96.4481 177.379 96.9535C177.722 97.5599 153.561 110.462 153.903 111.062C154.193 111.573 176.294 97.1378 176.584 97.6491C176.857 98.1307 157.896 108.779 158.163 109.255C158.459 109.784 177.965 96.8405 178.261 97.3696C178.592 97.9582 155.545 111.318 155.876 111.906C156.19 112.465 178.436 97.8215 178.749 98.3744C179.062 98.9273 156.404 111.199 156.724 111.769C157.043 112.34 175.243 100.063 175.563 100.628C175.859 101.157 154.808 112.685 155.11 113.214C155.435 113.785 176.288 99.9262 176.613 100.497C176.956 101.103 153.212 114.695 153.549 115.295C153.886 115.896 177.315 100.449 177.646 101.044C177.942 101.573 157.095 113.452 157.397 113.987C157.739 114.594 179.799 99.9262 180.142 100.533C180.525 101.216 153.294 116.104 153.677 116.793C154.025 117.406 179.881 100.473 180.229 101.091C180.595 101.74 155.087 116.353 155.453 117.001C155.818 117.65 181.233 100.913 181.587 101.543C181.941 102.174 155.981 116.02 156.346 116.669C156.712 117.317 182.028 100.64 182.382 101.27C182.736 101.9 157.014 116.538 157.379 117.192C157.745 117.846 181.57 102.031 181.929 102.673C182.324 103.375 154.35 118.393 154.745 119.088C155.11 119.73 179.068 103.844 179.434 104.486C179.753 105.051 157.693 117.804 158.012 118.363C158.378 119.017 181.32 103.707 181.691 104.361C182.063 105.015 155.435 119.267 155.812 119.933C156.19 120.598 183.131 102.905 183.496 103.559C183.862 104.213 158.709 117.519 159.063 118.143C159.417 118.767 180.072 104.849 180.438 105.503C180.757 106.074 158.308 118.886 158.627 119.457C158.999 120.117 181.012 105.342 181.384 105.996C181.755 106.65 156.01 120.824 156.375 121.472C156.741 122.121 185.069 103.618 185.441 104.278C185.847 105.004 157.298 121.062 157.71 121.788C158.082 122.448 180.624 107.352 180.995 108.018C181.343 108.636 156.973 122.572 157.321 123.191C157.693 123.851 183.026 107.102 183.404 107.768C183.746 108.381 159.504 121.788 159.846 122.394C160.217 123.054 183.015 107.81 183.386 108.47C183.717 109.058 160.647 122.257 160.978 122.84C161.349 123.5 182.968 108.957 183.34 109.611C183.711 110.265 158.105 124.297 158.471 124.945C158.836 125.593 182.249 110.01 182.614 110.664C182.945 111.252 159.266 123.732 159.602 124.32C159.974 124.974 183.879 109.088 184.245 109.742C184.611 110.396 159.388 123.732 159.742 124.356C160.096 124.98 182.678 109.92 183.044 110.574C183.409 111.228 158.041 125.391 158.401 126.027C158.761 126.663 183.827 110.123 184.193 110.771C184.559 111.419 159.103 126.062 159.469 126.71C159.834 127.358 182.556 112.204 182.922 112.84C183.229 113.387 161.285 125.242 161.599 125.795C161.959 126.431 184.715 111.276 185.075 111.912C185.435 112.548 160.061 126.27 160.421 126.907C160.78 127.543 186.033 110.913 186.387 111.55C186.741 112.186 161.454 125.866 161.808 126.502C162.162 127.138 182.678 113.321 183.032 113.951C183.322 114.469 162.649 125.402 162.939 125.92C163.293 126.55 186.004 111.442 186.358 112.073C186.747 112.762 159.318 127.691 159.707 128.381C160.055 129.005 182.939 113.815 183.287 114.433C183.618 115.016 160.618 128.131 160.949 128.714C161.28 129.297 184.03 114.249 184.373 114.861C184.715 115.474 160.432 128.649 160.775 129.261C161.117 129.873 184.663 114.332 185 114.932C185.336 115.533 161.43 129.207 161.773 129.814C162.115 130.42 182.44 116.811 182.771 117.394C183.061 117.911 162.58 129.243 162.87 129.76C163.195 130.337 183.212 116.966 183.531 117.537C183.816 118.036 163.827 128.904 164.106 129.41C164.425 129.974 187.217 114.98 187.542 115.551C187.901 116.193 162.394 130.284 162.754 130.926C163.067 131.479 182.974 118.232 183.282 118.785C183.549 119.255 165.087 130.01 165.354 130.48C165.65 131.009 183.131 119.261 183.433 119.79C183.671 120.218 166.932 129.861 167.176 130.284C167.461 130.789 185.441 118.803 185.725 119.314C185.986 119.778 167.948 130.498 168.209 130.961C168.47 131.425 182.353 121.966 182.62 122.442C182.864 122.87 165.917 132.525 166.161 132.959C166.404 133.393 182.991 122.412 183.247 122.852C183.502 123.292 166.811 132.953 167.049 133.375C167.286 133.797 185.922 121.663 186.155 122.073C186.439 122.572 166.445 133.369 166.729 133.869C166.956 134.267 183.096 123.66 183.316 124.059C183.508 124.398 170.165 132.008 170.357 132.347C170.566 132.715 180.978 125.569 181.187 125.943C181.326 126.187 171.877 131.8 172.011 132.043C172.202 132.382 182.498 125.391 182.69 125.729C182.881 126.068 170.229 133.667 170.415 133.994C170.571 134.273 184.373 125.367 184.529 125.646C184.686 125.926 173.897 132.121 174.054 132.394C174.187 132.632 181.366 127.757 181.5 127.989C181.593 128.155 175.301 132.15 175.394 132.317C175.487 132.483 180.629 128.999 180.722 129.166C180.832 129.368 172.893 133.702 173.003 133.898C173.084 134.041 181.413 128.732 181.494 128.875" stroke="black" stroke-width="1.75" stroke-linecap="round" stroke-linejoin="round"/>
<path d="M166.589 62.7427C166.722 62.9696 176.493 56.7792 176.625 57.0061C176.77 57.2568 166.402 62.7427 166.547 62.9935C166.667 63.2024 174.196 58.3373 174.323 58.5462C174.413 58.6954 168.349 62.1518 168.44 62.307C168.554 62.498 177.499 56.8748 177.608 57.0658C177.71 57.2389 170.971 61.5608 171.068 61.7339C171.164 61.907 177.855 57.6329 177.952 57.8C177.994 57.8776 174.95 59.7043 174.992 59.7819C175.082 59.9371 177.59 58.0866 177.68 58.2477C177.753 58.3731 172.605 61.2205 172.677 61.3519C172.768 61.5071 177.596 58.3373 177.686 58.4865C177.716 58.5402 175.854 60.3191 175.884 60.3729C175.968 60.5161 179.832 57.9314 179.911 58.0687C180.001 58.2298 173.382 61.6682 173.473 61.8294C173.551 61.9667 180.067 57.8776 180.146 58.0149C180.164 58.0388 179.561 59.0894 179.573 59.1193C179.627 59.2148 179.826 58.8447 179.887 58.9402C179.929 59.0118 177.415 61.0355 177.457 61.1011C177.493 61.1608 182.919 57.9015 182.955 57.9552C182.997 58.0269 180.212 59.6625 180.254 59.7282C180.284 59.7759 180.972 59.2566 180.996 59.3043C181.014 59.3401 179.694 60.2893 179.718 60.3251C179.742 60.3609 181.924 59.0178 181.948 59.0536C181.99 59.1312 178.922 60.9698 178.97 61.0474C178.982 61.0713 183.533 58.4089 183.545 58.4328" stroke="black" stroke-width="1.75" stroke-linecap="round" stroke-linejoin="round"/>
<path d="M158.336 65.0766C158.485 65.3374 164.441 61.1405 164.59 61.4013C164.769 61.7167 152.559 69.3766 152.744 69.6919C153.024 70.1832 169.7 59.0664 169.98 59.5576C170.29 60.1035 148.426 71.8086 148.735 72.3483C149.045 72.8881 171.04 58.5327 171.338 59.0603C171.66 59.6243 149.194 71.9966 149.51 72.5606C149.849 73.161 172.202 58.4174 172.541 59.0179C172.923 59.685 146.168 74.3497 146.549 75.0169C146.71 75.3019 161.636 65.7619 161.803 66.053C162.011 66.423 147.354 74.9744 147.568 75.3504C147.669 75.5324 158.14 68.8914 158.241 69.0733C158.372 69.3099 149.182 74.7379 149.313 74.9744C149.384 75.1018 154.215 71.9238 154.286 72.0512C154.358 72.1785 149.891 75.6173 149.962 75.7446C149.992 75.7992 152.005 74.4771 152.035 74.5256C152.065 74.5741 150.284 75.9508 150.314 75.9994C150.331 76.0236 151.35 75.3565 151.362 75.3807" stroke="black" stroke-width="1.75" stroke-linecap="round" stroke-linejoin="round"/>
<path d="M205.766 67.0914C205.766 67.0914 206.792 66.4757 206.803 66.4988C206.827 66.539 205.621 68.0753 205.644 68.1213C205.685 68.1903 210.52 65.2445 210.561 65.3193C210.666 65.4976 203.442 69.4504 203.547 69.6288C203.593 69.7151 208.405 66.7462 208.452 66.8325C208.51 66.9303 205.05 69.6805 205.102 69.7726C205.178 69.8992 208.825 67.4826 208.895 67.6092C208.918 67.6552 207.532 69.1512 207.561 69.1972C207.636 69.3238 211.412 66.8325 211.487 66.9591C211.528 67.0339 208.499 68.6046 208.539 68.6794C208.615 68.806 213.987 65.3998 214.062 65.5321C214.127 65.6415 209.909 68.4838 209.973 68.5931C210.043 68.7139 216.201 64.882 216.271 65.0028C216.335 65.1121 212.07 67.7243 212.134 67.8336C212.204 67.9487 213.666 66.8037 213.73 66.9245C213.783 67.0166 210.118 69.0764 210.171 69.1685C210.241 69.2835 215.496 65.9752 215.566 66.0902C215.647 66.2341 209.798 69.3814 209.879 69.5252C209.943 69.6403 214.01 67.0166 214.074 67.1317C214.109 67.195 212.117 69.3296 212.157 69.3929C212.221 69.4964 214.657 67.8279 214.721 67.9314C214.75 67.9775 213.358 69.5655 213.387 69.6115C213.445 69.7151 219.784 65.8313 219.842 65.9291C219.929 66.073 213.835 69.203 213.923 69.3468C213.981 69.4504 219.184 66.2111 219.242 66.3146C219.335 66.4757 213.084 70.5896 213.177 70.7507C213.235 70.8485 218.805 67.4136 218.863 67.5057C218.898 67.5632 216.579 68.9211 216.614 68.9786C216.673 69.0764 217.616 68.2824 217.669 68.3745C217.692 68.4147 216.195 69.5309 216.218 69.5712C216.271 69.6633 218.444 68.1788 218.496 68.2709C218.543 68.3457 215.997 70.6874 216.043 70.7622C216.096 70.8543 220.931 67.8566 220.984 67.9487C221.042 68.0523 216.853 70.3652 216.911 70.4688C216.964 70.5609 223.378 66.6599 223.431 66.7519C223.501 66.8727 218.683 69.7093 218.752 69.8301C218.805 69.9164 223.716 66.8843 223.769 66.9706C223.804 67.0281 221.753 68.829 221.788 68.8865C221.84 68.9728 222.394 68.4262 222.44 68.5125C222.51 68.6391 217.412 71.3951 217.488 71.516C217.541 71.6023 220.774 69.5252 220.826 69.6115C220.844 69.6403 220.087 70.7737 220.104 70.8025C220.151 70.8888 222.353 69.4101 222.405 69.4907C222.423 69.5194 221.357 70.394 221.374 70.4285C221.421 70.5091 224.666 68.4377 224.718 68.5241C224.794 68.6506 219.609 71.6598 219.685 71.7864C219.731 71.8669 226.886 67.5689 226.932 67.6552C227.002 67.7703 222.685 70.9406 222.749 71.0557C222.796 71.1362 225.924 69.1397 225.971 69.2203C226.035 69.3296 221.695 71.7634 221.759 71.8727C221.805 71.9533 224.182 70.3882 224.229 70.463C224.252 70.5091 226.227 70.0603 226.256 70.1063C226.303 70.1811 227.159 69.4849 227.206 69.5655C227.258 69.6575 223.769 71.9993 223.821 72.0913C223.868 72.1661 226.612 70.3998 226.658 70.4746C226.67 70.4918 227.573 70.6184 227.585 70.6414C227.631 70.7162 229.595 69.3929 229.641 69.4677C229.676 69.5309 227.55 71.3721 227.585 71.4297C227.625 71.5045 230.684 69.5597 230.731 69.6345C230.801 69.7496 226.39 72.7242 226.454 72.8393C226.495 72.9141 231.517 69.8532 231.558 69.928C231.628 70.043 226.88 72.6494 226.95 72.7645C226.99 72.8393 229.863 71.0039 229.909 71.0787C229.956 71.165 226.891 73.5413 226.938 73.6276C226.979 73.6966 229.548 72.0453 229.589 72.1144C229.612 72.1546 228.068 73.2996 228.097 73.3456C228.138 73.4147 230.958 71.6195 230.999 71.6943C231.01 71.7173 230.166 72.1892 230.177 72.2122C230.218 72.2812 232.379 70.8601 232.42 70.9348C232.508 71.0787 226.763 74.6862 226.851 74.8301C226.891 74.8991 231.121 72.3042 231.162 72.3733C231.173 72.3905 230.83 73.1097 230.841 73.127C230.882 73.196 233.096 71.7461 233.137 71.8209C233.178 71.8957 230.177 73.6448 230.218 73.7196C230.259 73.7887 232.076 72.5689 232.117 72.6379C232.152 72.6955 230.125 74.4619 230.154 74.5194C230.195 74.5884 232.915 72.8508 232.956 72.9199C232.991 72.9832 230.655 74.7898 230.696 74.8531C230.736 74.9222 233.434 73.2018 233.475 73.2708C233.539 73.3802 229.076 75.6874 229.134 75.7967C229.175 75.8658 234.354 72.73 234.395 72.799C234.471 72.9314 229.542 76.4411 229.618 76.5677C229.659 76.6367 234.308 73.8059 234.349 73.8692C234.389 73.9325 232.001 76.1247 232.042 76.1995C232.082 76.2743 232.688 75.7449 232.723 75.8082C232.741 75.8312 233.609 76.5274 233.626 76.5504C233.667 76.6137 236.032 75.0948 236.067 75.1581C236.143 75.2846 230.923 77.9716 230.999 78.0924C231.039 78.1557 237.157 74.4906 237.198 74.5597C237.232 74.6172 235.298 76.326 235.327 76.3778C235.368 76.4411 237.186 75.2329 237.221 75.2961C237.256 75.3537 235.333 77.1603 235.368 77.2179C235.409 77.2812 238.223 75.5033 238.264 75.5666C238.351 75.7104 232.513 79.2317 232.601 79.3813C232.642 79.4445 239.26 75.4975 239.301 75.5608C239.359 75.6586 235.642 78.4261 235.7 78.524C235.735 78.5872 236.51 77.9774 236.545 78.0406C236.557 78.0637 237.652 78.0234 237.664 78.0406C237.699 78.1039 238.077 77.7184 238.112 77.7817C238.153 77.8565 235.374 79.7495 235.415 79.8243C235.45 79.8876 237.78 78.3916 237.815 78.4549C237.827 78.4722 237.366 79.1511 237.378 79.1684C237.413 79.2317 237.774 78.8577 237.809 78.921C237.827 78.9497 237.052 80.1005 237.069 80.1292C237.104 80.1925 237.943 79.5481 237.978 79.6114C238.025 79.6862 235.263 81.9244 235.304 81.9992C235.333 82.051 239.353 79.6229 239.382 79.6747C239.406 79.715 237.739 80.6298 237.763 80.6701C237.786 80.7161 239.516 79.6114 239.545 79.6517" stroke="black" stroke-width="1.75" stroke-linecap="round" stroke-linejoin="round"/>
<path d="M170.954 107.943C171.001 108.017 178.008 103.916 178.061 104.001C178.203 104.239 169.389 111.885 169.548 112.146C169.706 112.406 180.656 105.653 180.803 105.896C180.933 106.111 172.637 113.531 172.76 113.729C172.884 113.927 180.162 109.357 180.28 109.555C180.35 109.674 176.132 114.843 176.22 114.996C176.32 115.16 184.434 110.189 184.545 110.375" stroke="white" stroke-width="1.75" stroke-linecap="round" stroke-linejoin="round"/>
<path d="M166.83 118.855C166.884 118.94 171.964 115.922 172.018 116.002C172.161 116.24 163.421 123.618 163.547 123.817C163.672 124.015 175.181 117.098 175.331 117.337C175.48 117.576 166.597 125.226 166.77 125.51C166.932 125.777 177.211 119.429 177.366 119.685C177.504 119.912 169.361 126.732 169.516 126.994C169.642 127.198 177.438 122.401 177.545 122.583" stroke="white" stroke-width="1.75" stroke-linecap="round" stroke-linejoin="round"/>
<path d="M221.022 112.892C221.075 112.985 226.041 109.909 226.1 110.002C226.236 110.23 216.399 118.706 216.547 118.963C216.683 119.197 225.739 113.464 225.857 113.662C225.993 113.902 219.311 120.236 219.412 120.411C219.583 120.703 230.385 113.826 230.533 114.077C230.651 114.275 222.933 121.754 223.075 121.993C223.217 122.232 232.421 116.383 232.545 116.599" stroke="white" stroke-width="1.75" stroke-linecap="round" stroke-linejoin="round"/>
<path d="M209.545 124.968C209.608 125.081 214.416 121.907 214.467 122.002C214.559 122.175 209.648 127.887 209.722 128.03C209.871 128.304 216.059 123.956 216.167 124.146C216.293 124.367 210.698 130.734 210.789 130.894C210.92 131.127 222.378 123.503 222.544 123.807C222.698 124.093 213.304 132.687 213.475 132.991C213.612 133.241 221.032 128.184 221.135 128.375" stroke="white" stroke-width="1.75" stroke-linecap="round" stroke-linejoin="round"/>
<path d="M234.912 27.5825L243.545 2" stroke="#2D29FF" stroke-width="8"/>
<path d="M261.341 27.9614L275.545 5" stroke="#2D29FF" stroke-width="8"/>
<path d="M271.027 47.8198L296.545 39" stroke="#2D29FF" stroke-width="8"/>
<path d="M63.0001 169.627L82.5454 151" stroke="#2D29FF" stroke-width="8"/>
<path d="M83.3977 191.113L95.5454 167" stroke="#2D29FF" stroke-width="8"/>
</svg>
