<svg width="360" height="181" viewBox="0 0 360 181" fill="none" xmlns="http://www.w3.org/2000/svg">
<path d="M231.629 40.0149C231.629 40.0149 236.808 36.9716 236.819 37.0002C236.887 37.1203 233.079 42.3031 233.164 42.4576C233.272 42.6521 241.521 37.3778 241.617 37.5437C241.839 37.9326 229.531 47.097 229.747 47.4745C229.952 47.8292 246.535 37.2462 246.739 37.6009C246.984 38.0299 232.828 48.0809 233.079 48.5214C233.403 49.0877 252.009 36.7657 252.333 37.332C252.737 38.0299 229.349 53.5154 229.668 54.0703C230.031 54.7053 255.443 38.1157 255.864 38.8479C256.284 39.5802 230.333 55.8094 230.765 56.5645C231.248 57.4054 260.94 37.8354 261.458 38.7335C261.975 39.6317 229.446 59.522 229.946 60.3972C230.486 61.3354 267.472 37.3892 267.995 38.293C268.518 39.1969 225.381 65.3341 225.887 66.215C226.461 67.2218 264.675 42.2574 265.289 43.3271C265.903 44.3969 225.074 68.9208 225.648 69.9219C226.154 70.8029 261.156 48.1438 261.651 49.0076C262.146 49.8714 225.717 71.8955 226.149 72.6506C226.751 73.6975 262.299 50.4034 262.833 51.3359C263.368 52.2683 223.096 76.3118 223.789 77.5188C224.398 78.5771 261.895 54.1733 262.418 55.0771C263.01 56.1125 223.056 80.196 223.602 81.1457C224.091 81.998 261.702 58.006 262.134 58.7612C262.72 59.7794 221.066 84.1604 221.783 85.4132C222.266 86.2598 256.347 63.9325 256.95 64.9851C257.444 65.8489 221.271 87.8272 221.743 88.6453C222.243 89.5148 257.916 66.3866 258.45 67.3191C259.059 68.3831 220.953 91.5456 221.43 92.3808C221.936 93.2675 257.905 69.7961 258.501 70.843C259.059 71.8154 220.714 94.5432 221.345 95.6358C221.777 96.3909 256.324 74.1666 256.819 75.0247C257.49 76.1917 218.872 98.9995 219.412 99.9376C219.952 100.876 252.271 79.7784 252.731 80.5793C253.328 81.6205 218.036 102.38 218.61 103.387C219.088 104.217 252.225 82.6158 252.76 83.5483C253.294 84.4807 217.78 105.509 218.389 106.568C218.957 107.552 253.692 84.7267 254.266 85.7221C254.778 86.6145 220.754 107.168 221.288 108.095C221.822 109.022 253.374 88.2906 253.874 89.1659C254.374 90.0411 218.525 111.865 219.105 112.866C219.537 113.621 248.325 94.8292 248.786 95.6244C249.366 96.6369 215.45 117.088 216.007 118.06C216.399 118.747 250.042 97.3234 250.457 98.0499C250.85 98.7306 218.269 119.027 218.838 120.011C219.304 120.823 249.047 101.476 249.468 102.214C250.003 103.147 217.047 123.255 217.462 123.981C217.877 124.708 249.548 104.24 250.02 105.063" stroke="#2D29FF" stroke-width="1.75" stroke-linecap="round" stroke-linejoin="round"/>
<path d="M181 86.1701C181.367 86.8045 203.521 72.3913 203.883 73.02C204.198 73.5686 183.072 87.336 183.434 87.9646C183.819 88.6276 206.162 74.0658 206.523 74.6945C206.931 75.3974 182.412 90.8621 182.705 91.3708C183.078 92.0109 204.767 77.9692 205.082 78.5121C205.415 79.0836 184.393 93.2453 184.686 93.7425C185.03 94.3311 206.759 80.3352 207.075 80.8781C207.488 81.5867 182.533 97.2915 182.883 97.8916C183.193 98.4231 208.05 82.5126 208.447 83.1984C208.843 83.8842 184.215 99.6118 184.634 100.338C184.978 100.926 205.26 87.6903 205.605 88.2847C205.972 88.9133 184.978 102.572 185.334 103.184C185.639 103.704 205.559 90.6964 205.932 91.3422C206.254 91.8908 182.114 107.544 182.458 108.139C182.757 108.653 208.355 92.4109 208.722 93.0453C209.055 93.6225 183.991 109.83 184.358 110.465C184.691 111.036 208.182 95.9428 208.544 96.5657C208.906 97.1886 185.983 112.145 186.304 112.699C186.683 113.356 207.385 99.7604 207.746 100.378C208.108 100.995 186.89 115.094 187.234 115.694C187.567 116.265 210.703 101.521 211.001 102.035C211.403 102.726 187.734 118.265 188.032 118.78C188.423 119.448 212.603 103.864 212.947 104.458C213.338 105.132 190.157 120.471 190.455 120.986C190.754 121.5 211.443 108.213 211.753 108.744C212.063 109.276 186.838 125.706 187.177 126.284C187.476 126.798 211.059 111.699 211.432 112.345C211.805 112.991 189.336 127.929 189.628 128.432C189.892 128.89 210.008 115.854 210.381 116.505C210.697 117.048 189.301 131.301 189.686 131.964C190.03 132.553 213.16 117.865 213.424 118.323C213.74 118.866 189.238 134.845 189.646 135.542C189.95 136.062 212.597 121.512 212.959 122.14C213.269 122.672 189.824 137.965 190.214 138.634C190.524 139.165 212.505 125.055 212.838 125.632C213.079 126.044 194.542 138.811 194.778 139.217C195.49 140.44 248.339 106.927 248.993 108.058C249.705 109.282 191.907 142.183 192.734 143.606C193.36 144.686 245.205 112.036 245.819 113.093C246.502 114.271 192.568 144.966 193.325 146.269C194.037 147.498 246.668 114.099 247.323 115.231C248.018 116.425 191.138 148.572 192.045 150.132C192.659 151.189 243.121 119.38 243.729 120.426C244.573 121.883 193.98 150.018 194.847 151.509C195.541 152.704 240.095 123.843 240.813 125.089C241.416 126.124 193.911 153.704 194.646 154.978C195.191 155.921 242.478 126.106 243.081 127.141C243.632 128.095 196.781 155.841 197.442 156.973C198.016 157.967 240.135 131.193 240.675 132.124C241.163 132.97 205.743 154.287 206.311 155.264C206.753 156.03 239.963 134.925 240.4 135.673C240.865 136.479 209.405 155.659 209.784 156.31C210.14 156.927 239.005 138.485 239.452 139.257C239.848 139.937 217.327 154.733 217.609 155.213C217.93 155.773 236.123 143.846 236.438 144.389C236.662 144.772 222.236 155.407 222.442 155.767C222.638 156.104 237.535 146.589 237.753 146.966C237.937 147.28 227.138 156.304 227.288 156.567C227.391 156.744 237.173 150.681 237.265 150.835" stroke="#2D29FF" stroke-width="1.75" stroke-linecap="round" stroke-linejoin="round"/>
<path d="M161.13 40.3293C161.13 40.3293 161.72 39.9475 161.737 39.976C161.783 40.0501 161.613 42.9847 161.658 43.0645C161.743 43.2127 166.983 39.7765 167.069 39.9247C167.193 40.1469 160.813 46.8995 160.915 47.0819C161.147 47.4922 174.181 39.0073 174.345 39.2922C174.578 39.7025 158.368 51.3044 158.635 51.7716C158.902 52.2389 182.019 37.4516 182.347 38.0157C182.71 38.6483 160.229 53.3843 160.558 53.9541C160.904 54.5582 186.981 37.8562 187.31 38.4317C187.724 39.1554 159.628 56.4785 160.11 57.3162C160.592 58.1538 190.066 38.8762 190.526 39.674C190.94 40.392 158.97 59.8178 159.525 60.7922C159.962 61.5501 195.67 38.7166 196.146 39.5486C196.668 40.4603 159.372 62.6385 159.968 63.6756C160.563 64.7127 197.11 40.7681 197.695 41.7881C198.194 42.6599 155.487 68.0918 156.111 69.1745C156.735 70.2572 198.698 43.3551 199.18 44.1928C199.861 45.3781 156.066 70.6789 156.735 71.8357C157.404 72.9924 199.005 45.7314 199.685 46.9223C200.309 48.0107 157.268 73.6307 157.886 74.7133C158.397 75.6023 199.351 49.5037 199.85 50.3698C200.388 51.3101 155.862 77.7335 156.605 79.0213C157.251 80.1496 196.753 54.4727 197.292 55.4186C197.831 56.3645 154.778 82.07 155.357 83.0729C155.964 84.1271 197.649 56.8717 198.369 58.1197C199.18 59.5329 150.258 88.1672 150.893 89.2727C151.461 90.2585 198.971 60.097 199.526 61.06C200.082 62.023 152.396 90.5663 152.992 91.6034C153.707 92.8456 199.748 62.6955 200.519 64.0346C201.222 65.2654 149.657 95.3187 150.287 96.4242C150.882 97.4613 200.82 65.4079 201.557 66.6843C202.294 67.9608 148.585 99.1594 149.237 100.293C150.06 101.724 202.322 67.9437 202.992 69.1118C203.786 70.4965 147.496 102.453 148.375 103.986C149.079 105.211 200.366 72.132 201.097 73.4027C201.886 74.776 149.277 105.251 149.952 106.425C150.4 107.2 176.619 90.0762 176.999 90.7372C177.442 91.5008 149.714 108.898 150.088 109.553C150.491 110.254 175.803 93.6662 176.222 94.3956C176.602 95.0623 145.398 114.528 145.789 115.206C146.22 115.958 178.984 95.1364 179.336 95.7461C179.773 96.504 147.916 116.306 148.426 117.195C148.801 117.844 175.128 100.897 175.474 101.507C175.933 102.305 148.086 119.668 148.421 120.243C148.846 120.99 175.088 103.616 175.587 104.487C176.046 105.285 146.135 124.192 146.526 124.876C146.991 125.691 174.317 107.604 174.81 108.471C175.304 109.337 141.813 129.577 142.364 130.535C142.829 131.35 171.288 112.665 171.759 113.485C172.269 114.374 143.084 132.746 143.492 133.452C143.901 134.159 172.615 115.559 173.046 116.306C173.54 117.161 143.759 135.937 144.139 136.604C144.519 137.27 169.621 120.762 170.08 121.554C170.596 122.449 139.431 141.481 139.862 142.222C140.293 142.963 168.702 124.711 169.037 125.298C169.536 126.164 138.887 145.385 139.29 146.08C139.658 146.724 170.693 126.728 171.18 127.577C171.708 128.495 138.717 148.337 139.233 149.237C139.579 149.841 171.322 129.697 171.719 130.392C172.173 131.184 140.152 151.049 140.583 151.801C140.98 152.491 168.401 134.649 168.838 135.413C169.326 136.262 136.584 156.252 137.004 156.975C137.452 157.762 165.6 139.544 165.963 140.176C166.263 140.695 145.732 154.382 146.061 154.958C146.39 155.534 164.42 143.715 164.675 144.16C164.93 144.604 148.506 156.394 148.772 156.861C148.965 157.198 167.363 145.55 167.59 145.943C167.766 146.245 157.915 154.212 158.074 154.485C158.215 154.736 163.796 150.815 163.944 151.077C164.023 151.22 159.202 156.571 159.31 156.759C159.355 156.838 163.83 154.018 163.881 154.109" stroke="#2D29FF" stroke-width="1.75" stroke-linecap="round" stroke-linejoin="round"/>
<path d="M95.0658 38.5803C95.0658 38.5803 95.6036 38.2425 95.6151 38.2654C95.6494 38.3226 96.582 41.2081 96.6106 41.2653C96.6964 41.4142 99.8433 39.1871 99.9349 39.3417C100.055 39.5478 93.8871 46.1374 94.0016 46.332C94.1389 46.5667 105.141 39.4791 105.325 39.794C105.468 40.0402 95.2947 48.519 95.4377 48.7595C95.7009 49.2175 113.844 37.6585 114.044 38.0078C114.296 38.4429 98.9164 49.7098 99.1567 50.1277C99.4199 50.5858 117.592 38.815 117.878 39.3131C118.164 39.8112 99.1224 52.8014 99.4657 53.3968C99.8548 54.0723 122.632 39.2215 122.976 39.8169C123.319 40.4123 100.118 55.3719 100.421 55.8929C100.879 56.683 129.081 38.3513 129.51 39.0898C129.939 39.8283 101.714 57.3356 102.069 57.9425C102.441 58.5837 129.447 41.1909 129.853 41.8951C130.351 42.7596 99.8433 61.3145 100.301 62.1046C100.759 62.8947 127.656 45.3817 128.051 46.0744C128.497 46.8473 102.029 63.4214 102.492 64.2172C102.956 65.013 129.493 47.4999 129.979 48.3415C130.339 48.9656 101.777 67.3488 102.155 68.0072C102.578 68.74 131.569 49.9903 132.016 50.7575C132.462 51.5247 101.525 70.8754 102 71.7056C102.338 72.2895 129.441 54.8853 129.859 55.6124C130.248 56.2822 104.661 72.3869 105.033 73.0338C105.405 73.6807 132.88 56.1792 133.212 56.7574C133.624 57.4787 107.024 74.2475 107.379 74.8601C107.831 75.6444 130.431 60.7363 130.78 61.3432C131.089 61.8756 107.115 77.8657 107.424 78.4039C107.733 78.9421 133.4 62.4538 133.807 63.1637C134.213 63.8737 104.592 82.7378 104.993 83.4363C105.393 84.1347 132.657 66.7133 132.977 67.2686C133.378 67.9671 105.445 85.2282 105.845 85.9267C106.189 86.5221 135.901 67.6007 136.318 68.322C136.81 69.1751 105.937 87.7472 106.417 88.5774C106.761 89.1728 132.262 72.862 132.605 73.4517C132.92 73.9956 107.733 90.5182 108.088 91.1365C108.534 91.9094 133.652 75.5471 134.007 76.1654C134.362 76.7837 108.014 93.6441 108.34 94.2108C108.735 94.8979 136.416 76.9955 136.845 77.7398C137.297 78.5241 111.418 94.7662 111.853 95.5162C112.253 96.2089 137.554 79.6749 137.983 80.4191C138.39 81.1233 111.143 98.2012 111.573 98.9455C111.904 99.5237 134.774 84.5183 135.22 85.2854C135.609 85.9553 111.229 101.579 111.527 102.094C111.899 102.741 139.225 85.3141 139.563 85.898C140.083 86.7969 110.468 104.676 110.949 105.506C111.315 106.136 136.702 89.7396 137.091 90.4037C137.549 91.1995 110.949 108.272 111.298 108.878C111.607 109.411 139.162 92.0124 139.494 92.5907C139.9 93.3006 112.545 110.167 113.032 111.008C113.432 111.701 138.378 95.4017 138.796 96.123C139.111 96.6726 113.295 113.424 113.649 114.031C113.976 114.598 139.831 98.0352 140.209 98.6879C140.627 99.4092 114.931 115.926 115.332 116.619C115.686 117.231 141.983 100.451 142.315 101.029C142.624 101.562 117.208 117.884 117.523 118.434C117.941 119.161 141.428 103.938 141.725 104.453C142.183 105.249 115.755 122 116.104 122.602C116.424 123.151 139.128 108.552 139.454 109.113C139.837 109.777 117.237 124.113 117.603 124.748C117.918 125.298 143.694 108.976 143.997 109.503C144.334 110.092 118.112 126.867 118.507 127.559C118.822 128.103 143.001 112.611 143.345 113.212C143.739 113.894 118.41 129.872 118.736 130.439C119.028 130.949 141.176 116.642 141.536 117.266C141.897 117.89 119.194 132.861 119.531 133.445C119.92 134.115 143.116 119.018 143.465 119.619C143.745 120.105 122.18 134.533 122.449 134.996C122.793 135.592 143.041 122.269 143.402 122.893C143.762 123.518 121.711 138.111 122.066 138.723C122.226 138.998 133.469 131.681 133.664 132.025C133.887 132.414 121.803 141.649 122.009 141.998C122.066 142.101 128.651 138.031 128.709 138.128" stroke="#2D29FF" stroke-width="1.75" stroke-linecap="round" stroke-linejoin="round"/>
<path d="M180.138 72.5475C180.223 72.6959 187.446 68.1106 187.532 68.2591C187.617 68.4076 181.571 72.2391 181.656 72.3933C181.793 72.6274 187.964 68.4247 188.1 68.6588C188.248 68.9101 177.948 74.4661 178.096 74.7231C178.244 74.98 190.967 66.9172 191.115 67.1799C191.285 67.4825 179.171 74.1007 179.341 74.3976C179.512 74.6945 188.578 68.6588 188.743 68.9443C188.908 69.2298 177.493 75.2256 177.652 75.5054C177.823 75.8023 189.744 68.0992 189.915 68.3961C190.102 68.7216 177.004 76.0707 177.192 76.3962C177.379 76.7217 193.191 66.6659 193.384 67.0086C193.629 67.4368 176.503 76.9615 176.748 77.384C176.97 77.7666 189.949 69.2241 190.165 69.6067C190.381 69.9893 174.587 79.217 174.814 79.6167C175.064 80.0507 195.563 67.0086 195.813 67.4483C196.097 67.9393 176.071 78.4861 176.355 78.9772C176.611 79.4226 194.533 67.8423 194.795 68.2934C195.096 68.813 173.984 80.1649 174.285 80.6845C174.552 81.1528 195.022 68.0421 195.29 68.5104C195.557 68.9786 176.503 79.4797 176.776 79.9479C177.049 80.4162 196.723 67.7281 197.007 68.2191C197.292 68.7102 177.243 79.9479 177.533 80.4504C177.834 80.9815 197.548 68.1449 197.849 68.676C198.19 69.2698 174.069 81.9408 174.405 82.5347C174.712 83.0714 194.943 69.9151 195.25 70.4518C195.58 71.0286 172.465 84.0764 172.801 84.6532C173.136 85.2299 197.491 69.5782 197.821 70.1492C198.15 70.7202 175.224 83.2142 175.548 83.7795C175.872 84.3448 197.912 70.0293 198.253 70.6174C198.594 71.2056 174.302 83.9451 174.643 84.5389C174.985 85.1328 200.647 68.6702 200.989 69.2698C201.375 69.9379 173.967 84.2135 174.353 84.8873C174.7 85.4925 198.765 69.9322 199.112 70.5375C199.498 71.2056 172.511 86.2292 172.897 86.903C173.261 87.5368 199.413 70.6917 199.777 71.3198C200.141 71.9479 175.747 85.3555 176.094 85.9551C176.469 86.606 201.899 70.1263 202.274 70.783C202.672 71.474 174.467 86.469 174.871 87.1656C175.275 87.8623 199.288 72.1306 199.669 72.793C200.05 73.4554 174.399 87.6681 174.769 88.3077C175.161 88.9929 203.173 70.9315 203.565 71.6167C204.014 72.4047 172.073 89.4612 172.522 90.2435C172.92 90.9401 200.829 72.9072 201.227 73.6039C201.648 74.3405 171.583 89.9008 172.004 90.6375C172.403 91.3341 200.346 73.2784 200.75 73.975C201.131 74.6317 174.558 89.1699 174.934 89.8266C175.343 90.5404 202.189 73.0785 202.598 73.7923C203.008 74.5061 175.36 89.9694 175.758 90.6603C176.179 91.3912 204.97 72.753 205.391 73.484C205.812 74.2149 175.94 90.0721 176.361 90.8031C176.782 91.534 201.455 75.2713 201.882 76.0079C202.308 76.7445 172.107 92.9958 172.533 93.7438C172.96 94.4919 205.34 73.7295 205.772 74.4775C206.227 75.2655 174.393 92.7731 174.848 93.5611C175.303 94.3491 203.087 76.1792 203.52 76.9386C203.952 77.6981 173.028 94.8916 173.472 95.6567C173.915 96.4219 202.41 77.8523 202.854 78.6232C203.247 79.3027 175.946 94.5261 176.338 95.2056C176.788 95.9879 206.71 76.5561 207.16 77.3384C207.609 78.1207 174.843 95.3769 175.309 96.1821C175.775 96.9872 204.737 78.075 205.186 78.863C205.635 79.651 174.314 96.5932 174.757 97.3698C175.201 98.1464 205.988 78.2063 206.443 79C206.926 79.8451 172.391 97.7752 172.88 98.6204C173.335 99.4141 204.327 79.3312 204.788 80.1249C205.249 80.9187 174.37 97.0729 174.803 97.8266C175.263 98.6204 206.904 78.1549 207.364 78.9543C207.825 79.7538 175.753 97.2385 176.208 98.0322C176.663 98.8259 205.448 80.0107 205.908 80.8159C206.346 81.5753 175.383 97.6839 175.815 98.4433C176.276 99.2485 207.285 79.1314 207.745 79.9365C208.206 80.7416 176.896 97.2613 177.339 98.0265C177.783 98.7917 205.232 80.7816 205.698 81.5868C206.13 82.3405 175.366 98.2092 175.798 98.9573C176.259 99.7624 204.606 81.187 205.067 81.9922C205.465 82.6888 177.311 98.0722 177.715 98.7688C178.181 99.5797 208.707 79.7252 209.173 80.5361C209.679 81.4155 173.694 99.968 174.2 100.842C174.666 101.652 207.99 80.1763 208.456 80.9872C208.923 81.798 176.162 98.8602 176.623 99.6596C177.083 100.459 206.551 81.2327 207.017 82.0436C207.484 82.8544 174.786 99.8081 175.246 100.608C175.707 101.407 206.454 81.4383 206.921 82.2491C207.387 83.06 173.432 101.064 173.915 101.898C174.399 102.732 205.021 82.7859 205.487 83.5968C205.886 84.2934 177.527 99.1571 177.925 99.8538C178.392 100.665 205.908 82.5518 206.375 83.3626C206.784 84.0821 177.567 99.4883 177.976 100.208C178.443 101.019 208.28 81.5582 208.747 82.3691C209.213 83.1799 175.394 101.298 175.872 102.132C176.35 102.966 207.831 82.5175 208.303 83.3341C208.775 84.1506 175.957 101.207 176.418 102.007C176.879 102.806 208.229 82.4833 208.695 83.2941C209.162 84.105 176.702 101.087 177.157 101.881C177.612 102.675 207.017 83.4883 207.484 84.3048C207.916 85.0586 177.14 101.144 177.573 101.898C178.039 102.715 210.356 81.8095 210.822 82.626C211.34 83.5282 174.416 102.903 174.939 103.805C175.406 104.622 207.632 83.7681 208.104 84.5846C208.576 85.4012 176.048 102.372 176.509 103.166C176.97 103.959 210.163 82.5689 210.635 83.3855C211.107 84.202 177.652 102.064 178.124 102.886C178.596 103.708 210.407 83.0885 210.879 83.8994C211.374 84.7616 176.503 103.959 177.004 104.822C177.47 105.633 207.814 85.8751 208.286 86.6917C208.758 87.5083 175.042 105.193 175.514 106.021C175.986 106.849 210.629 84.5846 211.096 85.3955C211.562 86.2063 178.107 104.291 178.579 105.119C179.051 105.947 210.959 85.2699 211.42 86.0807C211.932 86.9715 175.809 106.466 176.321 107.357C176.788 108.162 211.26 86.0293 211.727 86.8345C212.256 87.7481 175.116 107.688 175.639 108.602C176.099 109.407 210.009 87.6053 210.47 88.4105C210.965 89.2727 175.963 108.128 176.463 108.99C176.924 109.79 208.434 89.3926 208.894 90.1921C209.355 90.9915 175.644 108.522 176.122 109.35C176.6 110.178 209.583 88.8901 210.038 89.6896C210.527 90.5404 175.872 108.813 176.355 109.664C176.81 110.458 211.846 88.0336 212.307 88.8273C212.768 89.621 179.518 107.123 179.99 107.939C180.462 108.756 209.196 89.9522 209.651 90.746C210.106 91.5397 177.328 109.219 177.794 110.029C178.261 110.84 210.339 90.1178 210.788 90.9058C211.238 91.6939 179.649 108.276 180.098 109.053C180.547 109.83 209.543 90.9401 209.992 91.7224C210.441 92.5047 179.415 109.264 179.853 110.029C180.291 110.795 209.588 91.7624 210.032 92.5333C210.476 93.3041 178.079 110.269 178.534 111.063C178.989 111.857 208.707 92.5447 209.15 93.3156C209.594 94.0864 178.613 111.183 179.051 111.954C179.489 112.725 210.993 92.4248 211.431 93.1842C211.869 93.9437 181.275 110.121 181.707 110.869C182.14 111.617 208.109 94.5547 208.547 95.3141C208.985 96.0736 179.592 112.405 180.013 113.136C180.433 113.867 207.939 95.9651 208.365 96.7017C208.769 97.4041 180.348 112.747 180.752 113.444C181.156 114.141 211.971 94.3777 212.387 95.1086C212.802 95.8395 183.164 111.937 183.584 112.668C184.005 113.398 210.874 95.8909 211.289 96.6104C211.738 97.3984 179.87 114.523 180.325 115.311C180.729 116.014 208.337 98.135 208.741 98.8373C209.111 99.4769 182.964 113.022 183.328 113.655C183.732 114.358 212.591 95.7538 212.995 96.4562C213.456 97.2613 180.797 114.695 181.258 115.5C181.656 116.191 208.018 99.0658 208.417 99.7567C208.786 100.402 182.424 114.141 182.794 114.786C183.192 115.477 208.485 98.9744 208.877 99.6653C209.224 100.265 184.87 113.387 185.217 113.987C185.609 114.666 210.555 98.3919 210.948 99.0715C211.369 99.8081 181.742 116.134 182.162 116.87C182.538 117.527 210.874 99.357 211.249 100.008C211.647 100.705 183.357 115.643 183.755 116.333C184.125 116.979 207.996 101.418 208.371 102.064C208.718 102.663 184.278 115.534 184.625 116.134C184.995 116.773 211.107 99.928 211.477 100.573C211.846 101.219 186.849 114.392 187.202 115.003C187.554 115.614 208.559 101.778 208.923 102.412C209.287 103.046 184.028 116.619 184.386 117.241C184.745 117.864 209.389 101.927 209.742 102.543C210.094 103.16 184.881 117.024 185.24 117.647C185.598 118.269 211.755 101.487 212.097 102.081C212.438 102.675 188.925 115.837 189.266 116.419C189.608 117.002 208.434 104.553 208.758 105.119C209.082 105.684 186.405 117.772 186.724 118.326C187.042 118.88 210.43 103.851 210.743 104.405C211.095 105.016 186.167 118.275 186.519 118.886C186.826 119.423 210.692 104.159 211.004 104.696C211.317 105.233 189.682 117.207 189.989 117.744C190.279 118.252 210.259 105.318 210.555 105.827C210.828 106.301 191.94 116.99 192.207 117.464C192.474 117.938 208.963 107.123 209.236 107.597C209.531 108.111 188.692 119.554 188.988 120.074C189.238 120.513 208.582 108.134 208.832 108.573C209.082 109.013 191.485 118.812 191.735 119.251C191.968 119.657 206.471 110.172 206.705 110.572C206.881 110.874 195.056 118.218 195.227 118.52C195.415 118.852 207.296 111.086 207.484 111.417C207.717 111.817 191.422 120.593 191.655 120.993C191.831 121.296 207.029 111.674 207.205 111.982C207.336 112.205 198.685 117.881 198.816 118.109C198.93 118.303 204.026 114.832 204.134 115.026C204.236 115.203 197.166 119.166 197.269 119.343C197.354 119.491 203.07 115.78 203.156 115.934" stroke="white" stroke-width="1.75" stroke-linecap="round" stroke-linejoin="round"/>
<path d="M218.84 106.477C218.948 106.661 224.333 103.026 224.435 103.209C224.571 103.45 215.124 108.847 215.26 109.087C215.407 109.351 230.108 100.067 230.256 100.325C230.465 100.686 216.244 109.173 216.453 109.534C216.663 109.894 232.541 99.6324 232.756 100.01C233.033 100.491 213.682 111.182 213.959 111.663C214.202 112.092 231.772 100.686 232.015 101.115C232.258 101.544 214.355 111.668 214.609 112.121C214.886 112.607 232.32 101.126 232.597 101.613C232.925 102.185 210.033 114.914 210.356 115.486C210.661 116.018 233.531 101.235 233.836 101.767C234.142 102.299 213.286 113.58 213.58 114.095C213.897 114.656 235.035 100.817 235.358 101.372C235.709 101.99 210.768 115.263 211.119 115.881C211.447 116.459 236.003 100.577 236.331 101.155C236.659 101.733 213.766 113.654 214.089 114.221C214.411 114.788 236.608 100.296 236.942 100.874C237.315 101.527 211.074 115.812 211.447 116.465C211.798 117.077 237.304 100.548 237.654 101.155C238.045 101.842 210.548 117.151 210.944 117.838C211.34 118.525 237.066 101.704 237.439 102.362C237.869 103.118 207.646 119.973 208.076 120.728C208.472 121.427 237.966 102.34 238.367 103.032C238.769 103.725 210.327 118.765 210.729 119.469C211.13 120.173 238.096 102.546 238.497 103.25C238.955 104.051 206.814 121.593 207.267 122.394C207.686 123.126 237.502 103.753 237.92 104.486C238.339 105.218 208.195 121.255 208.625 121.999C209.054 122.743 236.178 104.915 236.602 105.659C236.964 106.289 211.436 119.836 211.792 120.465C212.222 121.221 238.486 103.868 238.916 104.623C239.346 105.379 209.948 121.759 210.372 122.491C210.819 123.275 237.609 105.539 238.056 106.317C238.503 107.096 207.346 123.682 207.787 124.454C208.229 125.227 239.515 104.858 239.968 105.653C240.387 106.392 210.452 122.079 210.876 122.817C211.328 123.613 240.211 104.617 240.664 105.413C241.116 106.208 209.377 122.783 209.818 123.567C210.259 124.351 238.056 106.002 238.514 106.804C238.972 107.605 207.884 124.202 208.325 124.975C208.789 125.788 242.695 103.816 243.158 104.629C243.684 105.545 206.933 125.839 207.454 126.755C207.929 127.591 242.202 105.339 242.678 106.18C243.187 107.073 207.109 126.297 207.618 127.19C208.099 128.037 240.268 106.993 240.749 107.834C241.229 108.675 205.564 128.014 206.068 128.901C206.571 129.788 243.701 105.768 244.194 106.632C244.72 107.559 207.669 128.02 208.195 128.941C208.721 129.863 244.646 106.477 245.149 107.353C245.715 108.349 205.808 130.189 206.373 131.185C206.882 132.078 241.501 109.476 242.01 110.369C242.519 111.262 205.479 131.254 206.006 132.175C206.532 133.096 244.606 108.423 245.121 109.328C245.681 110.312 206.017 131.854 206.577 132.845C207.097 133.755 245.28 109.019 245.8 109.929C246.377 110.936 205.751 133.039 206.328 134.046C206.854 134.962 245.07 110.192 245.596 111.108C246.122 112.023 209.796 131.122 210.305 132.015C210.814 132.908 243.192 111.577 243.718 112.493C244.216 113.363 209.066 132.307 209.564 133.177C210.09 134.098 245.246 111.102 245.772 112.023C246.332 113.002 206.922 134.367 207.482 135.346C208.014 136.273 246.105 111.548 246.632 112.475C247.197 113.471 207.205 135.105 207.77 136.095C208.302 137.028 246.241 112.378 246.773 113.311C247.356 114.336 206.051 136.462 206.633 137.486C207.165 138.419 244.425 114.17 244.957 115.102C245.489 116.035 208.087 136.622 208.619 137.555C209.151 138.488 242.621 116.447 243.153 117.38C243.684 118.313 205.632 138.545 206.17 139.484C206.707 140.422 246.818 114.496 247.35 115.429C247.927 116.436 206.956 137.772 207.533 138.78C208.065 139.712 246.575 114.73 247.107 115.663C247.638 116.596 210.158 136.13 210.684 137.057C211.21 137.984 243.469 116.665 244.001 117.598C244.533 118.531 208.234 137.515 208.743 138.408C209.252 139.3 245.789 115.526 246.32 116.459C246.897 117.472 206.266 139.77 206.843 140.783C207.374 141.71 244.069 117.798 244.601 118.725C245.093 119.589 210.237 138.276 210.729 139.14C211.255 140.067 245.161 117.792 245.693 118.72C246.224 119.647 210.073 139.22 210.582 140.119C211.091 141.017 242.876 120.024 243.402 120.946C243.882 121.793 209.637 139.936 210.124 140.783C210.65 141.704 244.295 119.595 244.821 120.517C245.347 121.438 206.583 142.231 207.131 143.192C207.68 144.154 243.141 120.94 243.662 121.856C244.126 122.663 211.413 140.01 211.877 140.817C212.398 141.727 247.44 118.828 247.961 119.738C248.481 120.648 211.306 140.239 211.826 141.155C212.347 142.07 246.954 119.424 247.474 120.334C248.023 121.301 209.207 142.402 209.756 143.364C210.271 144.262 245.857 121.078 246.371 121.976C246.886 122.875 212.177 142.099 212.675 142.969C213.173 143.839 247.486 121.455 247.995 122.337C248.504 123.218 211.645 143.335 212.166 144.251C212.686 145.167 243.786 124.62 244.284 125.49C244.742 126.297 212.036 143.518 212.499 144.325C212.997 145.195 243.639 124.975 244.137 125.845C244.606 126.663 211.345 144.016 211.815 144.835C212.307 145.699 246.309 123.533 246.801 124.397C247.344 125.347 209.23 146.248 209.773 147.193C210.259 148.04 245.478 125.204 245.958 126.057C246.439 126.91 210.887 146.472 211.391 147.359C211.866 148.189 245.817 126.143 246.292 126.972C246.767 127.802 214.564 144.978 215.022 145.773C215.48 146.569 243.221 128.214 243.684 129.033C244.114 129.788 213.337 145.825 213.766 146.58C214.23 147.399 244.505 127.533 244.974 128.352C245.41 129.119 214.7 146.163 215.141 146.93C215.582 147.696 243.769 129.153 244.222 129.943C244.652 130.693 214.485 146.987 214.915 147.737C215.345 148.486 245.059 129.096 245.5 129.868C245.964 130.687 212.771 147.988 213.235 148.807C213.676 149.579 243.141 130.309 243.583 131.082C243.984 131.786 215.48 146.689 215.882 147.393C216.323 148.16 246.105 128.712 246.547 129.479C247.05 130.355 211.674 149.413 212.177 150.295C212.607 151.045 242.87 131.368 243.294 132.118C243.69 132.81 215.695 147.96 216.091 148.652C216.51 149.385 242.276 132.381 242.695 133.114C243.113 133.846 213.733 149.402 214.151 150.123C214.57 150.844 242.191 132.782 242.604 133.503C242.966 134.144 217.149 147.948 217.511 148.589C217.913 149.299 240.732 134.081 241.139 134.785C241.546 135.489 214.621 150.69 215.011 151.365C215.401 152.04 242.859 134.212 243.238 134.876C243.617 135.54 215.769 150.226 216.159 150.913C216.55 151.6 241.043 135.506 241.416 136.158C241.756 136.754 217.935 149.791 218.275 150.381C218.631 151.01 241.625 135.901 241.982 136.53C242.338 137.16 218.156 149.917 218.495 150.518C218.835 151.119 242.463 135.695 242.819 136.313C243.175 136.931 218.965 150.358 219.31 150.959C219.655 151.56 243.379 136.13 243.713 136.708C244.046 137.286 220.079 149.734 220.413 150.323C220.747 150.913 239.38 138.476 239.708 139.049C240.036 139.621 217.443 151.497 217.76 152.052C218.077 152.607 242.168 137.04 242.491 137.606C242.813 138.173 219.474 150.518 219.802 151.09C220.13 151.663 243.085 136.748 243.402 137.303C243.718 137.858 221.737 150.501 222.053 151.056C222.331 151.542 242.05 138.728 242.327 139.215C242.587 139.672 224.344 150.106 224.605 150.564C224.842 150.982 239.793 141.132 240.03 141.555C240.268 141.979 222.8 151.548 223.049 151.983C223.264 152.361 236.902 143.381 237.117 143.765C237.332 144.148 221.618 152.601 221.838 152.99C222.042 153.345 237.021 143.65 237.225 144.005C237.428 144.36 223.575 152.08 223.773 152.43C223.943 152.727 238.022 143.707 238.192 144.005C238.39 144.354 224.18 151.8 224.384 152.155C224.548 152.447 235.641 145.195 235.805 145.482C235.957 145.745 225.476 151.915 225.628 152.178C225.736 152.361 232.931 147.668 233.039 147.851" stroke="white" stroke-width="1.75" stroke-linecap="round" stroke-linejoin="round"/>
<path d="M217.399 118.076C217.491 118.235 225.399 113.298 225.491 113.457C225.583 113.616 219.615 117.354 219.701 117.507C219.845 117.757 225.06 114.117 225.209 114.367C225.365 114.629 214.976 121.057 215.131 121.318C215.332 121.665 229.411 112.712 229.612 113.053C229.814 113.394 215.448 121.836 215.655 122.194C215.897 122.61 232.07 112.28 232.312 112.689C232.542 113.082 216.38 121.438 216.604 121.83C216.852 122.251 233.566 111.591 233.814 112.012C234.107 112.518 213.37 123.571 213.663 124.077C213.922 124.527 233.601 112.103 233.86 112.553C234.148 113.042 213.899 123.685 214.187 124.174C214.475 124.663 232.645 113.025 232.916 113.485C233.169 113.923 214.999 123.207 215.252 123.645C215.528 124.111 232.91 112.945 233.187 113.412C233.503 113.952 211.321 125.773 211.637 126.313C211.925 126.808 234.171 112.797 234.459 113.292C234.746 113.787 214.066 124.749 214.36 125.249C214.653 125.75 234.971 112.809 235.27 113.32C235.569 113.832 214.947 124.447 215.235 124.942C215.522 125.437 234.936 113.013 235.241 113.525C235.546 114.037 213.663 125.204 213.974 125.733C214.285 126.262 231.483 115.05 231.782 115.573C232.018 115.983 215.154 124.743 215.396 125.147C215.701 125.67 234.844 113.349 235.155 113.872C235.483 114.43 212.265 126.421 212.593 126.984C212.921 127.547 232.381 114.982 232.697 115.516C233.014 116.051 211.729 127.832 212.034 128.355C212.363 128.918 236.375 113.713 236.703 114.276C237.054 114.879 212.132 127.9 212.489 128.503C212.846 129.106 235.661 114.515 236.001 115.09C236.341 115.664 213.709 128.298 214.037 128.856C214.389 129.459 234.366 116.449 234.718 117.058C235.005 117.553 214.429 128.179 214.722 128.674C215.079 129.282 235.926 115.767 236.283 116.375C236.611 116.944 213.163 129.1 213.491 129.663C213.848 130.278 239.155 114.202 239.512 114.817C239.926 115.522 210.596 130.42 211.004 131.125C211.361 131.74 238.585 114.566 238.942 115.181C239.299 115.795 214.222 129.567 214.584 130.175C214.947 130.784 236.519 116.813 236.893 117.445C237.267 118.076 212.098 130.841 212.455 131.444C212.829 132.081 237.906 116.074 238.28 116.711C238.654 117.348 213.997 130.898 214.348 131.501C214.728 132.155 239.155 116.478 239.535 117.126C239.949 117.831 211.137 133.651 211.545 134.356C211.937 135.022 240.088 117.177 240.473 117.849C240.888 118.56 211.856 134.311 212.27 135.022C212.685 135.733 237.808 119.544 238.205 120.221C238.557 120.818 214.233 134.413 214.584 135.011C214.987 135.699 238.499 120.448 238.902 121.136C239.305 121.825 212.034 135.995 212.42 136.655C212.806 137.314 239.057 120.539 239.46 121.227C239.823 121.853 214.268 135.79 214.636 136.416C215.039 137.11 239.587 121.256 239.99 121.95C240.364 122.593 213.807 136.649 214.181 137.297C214.584 137.991 240.047 121.614 240.45 122.308C240.853 123.002 211.257 138.025 211.672 138.737C212.086 139.448 239.944 121.677 240.352 122.371C240.761 123.065 213.047 137.536 213.439 138.207C213.83 138.879 241.762 121.119 242.165 121.813C242.614 122.581 210.584 138.941 211.033 139.709C211.442 140.403 241.722 121.273 242.131 121.967C242.58 122.741 210.814 139.664 211.263 140.437C211.666 141.131 242.868 121.478 243.276 122.172C243.742 122.968 210.855 140.346 211.321 141.148C211.724 141.842 241.429 123.048 241.831 123.736C242.234 124.424 214.901 138.862 215.292 139.527C215.684 140.193 242.183 123.264 242.585 123.952C242.988 124.641 213.652 140.682 214.066 141.399C214.481 142.115 242.252 124.407 242.649 125.09C243.046 125.773 214.193 140.983 214.602 141.683C215.01 142.383 241.699 125.317 242.096 125.994C242.534 126.74 211.522 142.701 211.96 143.452C212.357 144.129 239.489 126.842 239.88 127.519C240.243 128.133 214.768 141.467 215.131 142.087C215.522 142.758 240.266 126.848 240.663 127.519C241.031 128.15 215.062 141.786 215.43 142.411C215.822 143.077 242.338 126.171 242.724 126.836C243.109 127.502 216.075 141.325 216.455 141.973C216.835 142.622 242.505 126.222 242.891 126.887C243.328 127.633 212.518 143.924 212.955 144.67C213.341 145.324 241.227 127.661 241.607 128.321C241.987 128.981 215.425 142.445 215.799 143.088C216.173 143.731 239.184 128.867 239.57 129.527C239.898 130.09 216.449 142.042 216.777 142.605C217.157 143.259 240.646 128.11 241.026 128.77C241.429 129.464 212.794 144.379 213.197 145.073C213.577 145.722 243.616 126.853 243.996 127.502C244.41 128.207 215.223 143.646 215.638 144.351C216.012 144.988 239.011 130.164 239.38 130.801C239.725 131.393 215.309 144.055 215.655 144.647C216.023 145.278 241.544 129.026 241.918 129.663C242.292 130.301 215.563 144.004 215.937 144.653C216.311 145.301 243.265 128.219 243.633 128.85C244.001 129.481 217.002 143.907 217.381 144.561C217.744 145.182 240.749 130.403 241.112 131.023C241.475 131.643 215.591 145.352 215.954 145.978C216.317 146.604 240.588 131.114 240.939 131.723C241.29 132.331 215.977 145.824 216.334 146.439C216.691 147.053 240.312 131.973 240.657 132.559C240.974 133.099 218.878 145.318 219.195 145.858C219.511 146.399 238.453 134.117 238.781 134.681C239.046 135.136 220.57 145.534 220.835 145.989C221.146 146.518 242.206 133.088 242.516 133.617C242.827 134.146 220.564 146.245 220.881 146.791C221.174 147.298 237.71 136.518 238.004 137.019C238.275 137.479 219.12 147.19 219.39 147.65C219.684 148.157 238.839 135.881 239.132 136.387C239.426 136.893 218.694 148.475 218.993 148.987C219.264 149.448 238.223 137.4 238.493 137.86C238.723 138.247 222.798 146.945 223.028 147.337C223.281 147.77 239.564 137.326 239.817 137.758C240.047 138.145 224.403 147.281 224.628 147.673C224.841 148.037 238.81 139.095 239.023 139.459C239.207 139.772 226.671 147.315 226.855 147.628C227.016 147.901 234.648 142.815 234.81 143.088C234.925 143.282 227.385 148.066 227.5 148.259C227.598 148.424 233.566 144.579 233.664 144.744C233.762 144.908 227.166 148.265 227.258 148.424C227.35 148.583 234.746 143.936 234.844 144.095" stroke="black" stroke-width="1.75" stroke-linecap="round" stroke-linejoin="round"/>
<path d="M187.046 82.6297C187.127 82.7687 191.706 79.7564 191.787 79.8954C191.869 80.0344 186.57 83.3828 186.651 83.5218C186.773 83.7361 192.681 79.7621 192.803 79.9765C192.942 80.214 183.656 85.9259 183.796 86.1634C183.964 86.4531 194.945 79.3566 195.113 79.6405C195.281 79.9244 183.993 86.2213 184.156 86.4994C184.341 86.818 194.097 80.3415 194.283 80.6601C194.492 81.0192 180.18 89.4654 180.389 89.8246C180.598 90.1837 196.721 79.9128 196.935 80.2893C197.15 80.6659 182.014 88.5791 182.223 88.9498C182.432 89.3206 196.297 80.3299 196.518 80.7122C196.767 81.1409 179.257 90.3749 179.507 90.8036C179.733 91.1975 199.744 78.6151 199.971 79.0091C200.215 79.4262 183.378 89.0715 183.622 89.4944C183.865 89.9173 196.796 81.3205 197.052 81.7549C197.318 82.2126 178.932 92.6226 179.193 93.0802C179.454 93.5379 199.031 81.025 199.303 81.4943C199.576 81.9635 180.952 92.3272 181.219 92.7848C181.503 93.2772 201.549 80.411 201.834 80.9034C202.176 81.4943 178.015 94.0651 178.358 94.6501C178.648 95.1483 200.749 81.083 201.039 81.5812C201.311 82.0504 182.351 92.4256 182.618 92.8891C182.914 93.4047 202.42 80.7933 202.716 81.3089C203.047 81.8824 180 94.8992 180.331 95.4727C180.644 96.0173 202.89 81.7492 203.204 82.2879C203.517 82.8266 180.859 94.7834 181.178 95.3395C181.497 95.8956 199.698 83.9331 200.017 84.4834C200.313 84.999 179.263 96.2316 179.565 96.7472C179.89 97.3033 200.743 83.7999 201.068 84.356C201.41 84.9469 177.667 98.1897 178.004 98.7748C178.34 99.3599 201.77 84.3097 202.101 84.889C202.397 85.4045 181.55 96.9789 181.851 97.5003C182.194 98.0912 204.254 83.7999 204.596 84.3908C204.979 85.057 177.748 99.5626 178.131 100.235C178.479 100.831 204.335 84.3328 204.683 84.9353C205.049 85.5667 179.542 99.8059 179.907 100.437C180.273 101.069 205.688 84.7615 206.042 85.3756C206.396 85.9896 180.435 99.4815 180.801 100.113C181.167 100.744 206.483 84.495 206.837 85.1091C207.191 85.7231 181.468 99.9855 181.834 100.623C182.2 101.26 206.024 85.8506 206.384 86.4762C206.779 87.1598 178.804 101.793 179.199 102.471C179.565 103.096 203.523 87.6175 203.888 88.2431C204.208 88.7934 182.147 101.219 182.467 101.764C182.832 102.401 205.775 87.4842 206.146 88.1214C206.517 88.7587 179.89 102.644 180.267 103.293C180.644 103.942 207.585 86.7022 207.951 87.3394C208.317 87.9766 183.163 100.941 183.517 101.55C183.871 102.158 204.527 88.5965 204.892 89.2337C205.212 89.7898 182.763 102.274 183.082 102.83C183.453 103.473 205.467 89.0773 205.838 89.7145C206.21 90.3517 180.464 104.162 180.83 104.794C181.196 105.425 209.524 87.3973 209.895 88.0403C210.302 88.7471 181.753 104.394 182.165 105.101C182.536 105.744 205.078 91.0353 205.45 91.6841C205.798 92.2866 181.428 105.865 181.776 106.468C182.147 107.111 207.481 90.792 207.858 91.4408C208.201 92.0375 183.958 105.101 184.301 105.692C184.672 106.335 207.469 91.4814 207.841 92.1244C208.172 92.6979 185.102 105.558 185.432 106.126C185.804 106.769 207.423 92.5994 207.794 93.2367C208.166 93.8739 182.56 107.545 182.925 108.177C183.291 108.808 206.703 93.6248 207.069 94.262C207.4 94.8355 183.72 106.995 184.057 107.569C184.428 108.206 208.334 92.7269 208.7 93.3641C209.065 94.0013 183.842 106.995 184.196 107.603C184.55 108.212 207.133 93.5379 207.498 94.1751C207.864 94.8124 182.496 108.611 182.855 109.231C183.215 109.851 208.282 93.7349 208.647 94.3663C209.013 94.9977 183.558 109.266 183.923 109.897C184.289 110.529 207.011 95.7624 207.376 96.3823C207.684 96.9152 185.74 108.466 186.053 109.005C186.413 109.625 209.17 94.8587 209.53 95.4785C209.889 96.0984 184.515 109.469 184.875 110.088C185.235 110.708 210.487 94.5053 210.841 95.1252C211.195 95.745 185.908 109.075 186.262 109.695C186.616 110.314 207.133 96.8515 207.487 97.4655C207.777 97.9695 187.104 108.623 187.394 109.127C187.748 109.741 210.458 95.0209 210.812 95.635C211.201 96.3069 183.772 110.853 184.161 111.525C184.51 112.133 207.394 97.3323 207.742 97.9348C208.073 98.5025 185.073 111.282 185.403 111.85C185.734 112.417 208.485 97.7552 208.827 98.3519C209.17 98.9485 184.887 111.786 185.229 112.383C185.572 112.979 209.118 97.8363 209.454 98.4214C209.791 99.0065 185.885 112.33 186.227 112.921C186.57 113.512 206.895 100.252 207.226 100.82C207.516 101.324 187.034 112.365 187.324 112.869C187.649 113.431 207.667 100.403 207.986 100.959C208.27 101.445 188.282 112.035 188.561 112.527C188.88 113.078 211.671 98.4677 211.996 99.0239C212.356 99.6495 186.848 113.379 187.208 114.005C187.522 114.543 207.429 101.636 207.736 102.175C208.003 102.633 189.541 113.112 189.808 113.57C190.104 114.086 207.585 102.639 207.887 103.154C208.125 103.571 191.387 112.968 191.631 113.379C191.915 113.871 209.895 102.193 210.18 102.691C210.441 103.143 192.403 113.587 192.664 114.039C192.925 114.491 206.808 105.274 207.075 105.738C207.318 106.155 190.371 115.563 190.615 115.986C190.859 116.409 207.446 105.709 207.701 106.138C207.957 106.566 191.265 115.98 191.503 116.391C191.741 116.803 210.377 104.979 210.609 105.379C210.894 105.865 190.9 116.385 191.184 116.872C191.41 117.26 207.551 106.926 207.771 107.314C207.963 107.644 194.62 115.059 194.811 115.389C195.02 115.748 205.432 108.785 205.641 109.15C205.78 109.388 196.332 114.856 196.465 115.094C196.657 115.424 206.953 108.611 207.144 108.941C207.336 109.272 194.684 116.675 194.869 116.994C195.026 117.266 208.827 108.588 208.984 108.86C209.141 109.133 198.352 115.169 198.508 115.435C198.642 115.667 205.821 110.917 205.955 111.143C206.047 111.305 199.756 115.198 199.849 115.36C199.942 115.522 205.084 112.128 205.177 112.29C205.287 112.487 197.348 116.71 197.458 116.901C197.539 117.04 205.867 111.867 205.949 112.006" stroke="black" stroke-width="1.75" stroke-linecap="round" stroke-linejoin="round"/>
<path d="M205.61 51.2756C205.628 51.3105 207.867 49.9714 207.885 50.0005C207.945 50.0994 203.918 52.3119 203.978 52.4109C204.008 52.4575 205.232 51.6424 205.262 51.6889C205.292 51.7413 203.216 53.1503 203.252 53.2027C203.3 53.2843 207.951 50.4604 207.999 50.5419C208.101 50.7166 200.899 54.8214 201.001 54.996C201.085 55.1358 206.841 51.5434 206.925 51.6773" stroke="black" stroke-width="1.75" stroke-linecap="round" stroke-linejoin="round"/>
<path d="M174.687 62.2195C174.687 62.2195 175.466 61.7479 175.478 61.7652C175.495 61.7939 175.31 63.0822 175.328 63.111C175.368 63.1857 176.211 62.5071 176.252 62.5819C176.315 62.6911 171.937 65.2044 172.001 65.3137C172.047 65.4 177.136 62.2483 177.187 62.3345C177.239 62.4266 173.837 64.7731 173.889 64.8593C173.953 64.9686 177.655 62.5473 177.725 62.6566C177.794 62.7774 173.023 65.8773 173.098 65.9981C173.167 66.1131 181.56 60.9773 181.629 61.0923C181.722 61.2476 175.744 65.1469 175.836 65.3022C175.905 65.423 184.107 60.3849 184.176 60.5056C184.269 60.6667 177.956 64.4855 178.048 64.6465C178.123 64.7788 183.137 61.5466 183.212 61.6789C183.235 61.7192 182.161 63.318 182.184 63.364C182.27 63.5078 184.615 61.7709 184.696 61.9205C184.725 61.9722 182.888 63.3583 182.917 63.4043C183.01 63.5596 187.301 60.6782 187.388 60.8335C187.498 61.0233 179.59 65.1642 179.7 65.354C179.792 65.5092 186.914 60.9945 187.007 61.1555C187.122 61.3511 179.18 65.676 179.296 65.8716C179.394 66.0384 187.752 60.7932 187.85 60.9542C187.919 61.0693 183.31 63.7494 183.374 63.8644C183.478 64.0369 190.16 59.7292 190.259 59.9075C190.403 60.1548 180.266 65.5437 180.41 65.7911C180.514 65.9751 189.785 60.1606 189.889 60.3389C189.987 60.5056 183.737 64.8076 183.83 64.9686C184.165 65.5437 206.021 51.4474 206.356 52.0168C206.622 52.4769 187.867 62.8119 188.139 63.2778C188.451 63.8184 206.685 51.896 206.997 52.4366C207.251 52.8737 189.768 62.9614 190.022 63.3928C190.253 63.7896 205.472 53.9837 205.703 54.3806C205.848 54.6336 195.734 60.5402 195.884 60.7932C196.034 61.0463 203.231 56.2382 203.376 56.4855" stroke="black" stroke-width="1.75" stroke-linecap="round" stroke-linejoin="round"/>
<path d="M225.983 80.6436C226.018 80.7068 227.31 79.7993 227.345 79.8624C227.374 79.9084 225.971 81.5396 226 81.5913C226.035 81.6545 230.485 78.9435 230.52 79.0009C230.619 79.1675 223.903 82.8721 224.001 83.0387C224.036 83.1018 227.93 80.7068 227.965 80.7699C228.005 80.8389 225.815 82.941 225.855 83.01C225.89 83.0731 226.951 82.3035 226.985 82.3609C226.997 82.3782 227.345 82.9583 227.356 82.9755C227.391 83.0387 228.509 82.2346 228.544 82.2977C228.544 82.3035 228.266 82.4873 228.266 82.493C228.301 82.5562 231.024 80.8331 231.059 80.8963C231.1 80.9652 228.521 82.9812 228.562 83.0502C228.596 83.1133 232.392 80.7757 232.427 80.8389C232.496 80.9595 227.652 83.8772 227.727 83.9978C227.762 84.061 230.173 82.516 230.207 82.5792C230.242 82.6424 227.768 84.107 227.802 84.1702C227.837 84.2333 230.972 82.2748 231.007 82.3322C231.065 82.4298 227.2 84.578 227.252 84.6756C227.287 84.7388 229.298 83.4235 229.332 83.4867C229.361 83.5326 228.075 85.3074 228.104 85.3533C228.139 85.4165 228.834 84.8536 228.869 84.9168C228.886 84.9455 228.318 86.1115 228.336 86.1402C228.37 86.2034 233.145 83.3086 233.18 83.3661C233.244 83.4752 228.764 85.7956 228.822 85.9047C228.857 85.9679 232.514 83.7107 232.548 83.7738C232.635 83.9174 227.061 87.6967 227.148 87.8403C227.182 87.9035 231.384 85.3304 231.424 85.3936C231.453 85.4395 229.541 86.5997 229.57 86.6457C229.605 86.7088 232.033 85.1523 232.067 85.2155C232.102 85.2787 229.645 86.8869 229.68 86.9501C229.715 87.0133 230.625 86.324 230.659 86.3872C230.7 86.4504 228.585 88.5755 228.62 88.6444C228.654 88.7134 232.375 86.4102 232.409 86.4734C232.456 86.5538 229.28 88.3573 229.326 88.4377C229.361 88.5009 234.692 85.2844 234.727 85.3476C234.785 85.4452 230.81 87.8633 230.868 87.9609C230.903 88.0241 234.779 85.6405 234.814 85.7037C234.872 85.8071 231.082 88.4894 231.14 88.5927C231.175 88.6559 233.632 87.0822 233.667 87.1454C233.736 87.266 228.886 89.9023 228.956 90.0229C228.99 90.0861 231.326 88.5813 231.36 88.6444C231.372 88.6674 231.071 89.5634 231.082 89.5864C231.117 89.6496 232.502 88.6904 232.543 88.7536C232.554 88.7708 232.137 89.3107 232.143 89.3279C232.178 89.3911 234.64 87.8174 234.675 87.8805C234.745 87.9954 230.173 90.7007 230.236 90.8155C230.271 90.8787 236.668 87.0477 236.709 87.1109C236.773 87.22 232.716 90.2641 232.78 90.3733C232.815 90.4364 235.307 88.8455 235.341 88.9086C235.394 89.0005 231.627 91.1601 231.679 91.252C231.714 91.3152 233.476 90.1378 233.516 90.201C233.545 90.2527 235.776 89.6323 235.811 89.684C235.846 89.7472 236.17 89.3969 236.205 89.46C236.251 89.5404 233.105 91.7173 233.151 91.8034C233.186 91.8666 235.44 90.4077 235.475 90.4709C235.492 90.4939 236.634 90.4709 236.645 90.4939C236.68 90.5571 238.21 89.5117 238.245 89.5749C238.279 89.6323 236.356 91.3669 236.39 91.4244C236.431 91.4875 239.108 89.7817 239.143 89.8506C239.207 89.9597 234.994 92.843 235.058 92.9522C235.098 93.0153 239.786 90.1608 239.827 90.2239C239.89 90.3331 235.44 92.7971 235.504 92.9062C235.544 92.9694 238.111 91.3267 238.146 91.3899C238.192 91.4703 235.249 93.7907 235.301 93.8711C235.341 93.9401 237.671 92.4237 237.712 92.4927C237.735 92.5329 236.367 93.5897 236.39 93.6242C236.431 93.6931 239.027 92.0274 239.068 92.0906C239.079 92.1078 238.442 92.4754 238.453 92.4927C238.494 92.5616 240.441 91.2693 240.481 91.3325C240.563 91.476 234.942 95.0313 235.029 95.1749C235.069 95.2439 239.131 92.7396 239.172 92.8028C239.183 92.82 238.923 93.4978 238.928 93.5093C238.969 93.5782 241.067 92.194 241.107 92.2629C241.148 92.3376 238.245 94.0377 238.285 94.1124C238.326 94.1813 240.047 93.0153 240.087 93.0843C240.122 93.1417 238.135 94.8878 238.169 94.9452C238.21 95.0141 240.881 93.3025 240.922 93.3714C240.957 93.4346 238.639 95.2324 238.679 95.2956C238.72 95.3645 241.409 93.6414 241.449 93.7103C241.513 93.8194 237.063 96.1284 237.126 96.2375C237.167 96.3064 242.33 93.1704 242.365 93.2393C242.44 93.3714 237.526 96.8808 237.601 97.0129C237.642 97.0818 242.347 94.2043 242.388 94.2732C242.428 94.3421 240.018 96.5477 240.058 96.6166C240.099 96.6855 240.852 96.0652 240.893 96.1399C240.91 96.1628 241.751 96.875 241.762 96.898C241.803 96.9727 244.399 95.2898 244.439 95.3645C244.515 95.4966 239.073 98.3052 239.149 98.4373C239.189 98.512 245.529 94.6925 245.569 94.7614C245.604 94.8188 243.541 96.5994 243.576 96.6568C243.616 96.7315 245.726 95.33 245.772 95.3989C245.807 95.4621 243.756 97.3403 243.79 97.4035C243.831 97.4781 247.001 95.4679 247.047 95.5425C247.134 95.6976 241.084 99.3333 241.171 99.4884C241.217 99.5631 248.217 95.353 248.264 95.4334C248.328 95.5368 244.439 98.3914 244.503 98.4947C244.549 98.5694 245.801 97.6504 245.847 97.7251C245.859 97.7423 246.641 97.8859 246.653 97.9032C246.699 97.9836 247.615 97.2484 247.661 97.3231C247.708 97.4035 244.544 99.4999 244.59 99.586C244.636 99.6722 247.534 97.794 247.58 97.8744C247.597 97.9032 246.693 98.8106 246.711 98.8394C246.757 98.9198 247.742 98.1444 247.789 98.2191C247.812 98.2593 246.693 99.5803 246.717 99.6205C246.763 99.7009 248.299 98.6039 248.345 98.69C248.391 98.7762 245.297 101.183 245.349 101.269C245.401 101.355 250.686 98.1042 250.732 98.1903C250.756 98.2363 249.011 99.3103 249.035 99.3563C249.081 99.4424 249.544 98.9542 249.591 99.0404C249.631 99.1151 247.087 101.326 247.134 101.395C247.186 101.481 253.3 97.7538 253.352 97.84C253.375 97.8802 252.112 99.2644 252.141 99.3046C252.193 99.3908 252.888 98.7589 252.94 98.8508C252.958 98.8853 251.648 99.6377 251.665 99.6722C251.718 99.7583 252.604 99.0174 252.656 99.1036C252.72 99.2127 248.362 101.883 248.426 101.998C248.478 102.09 254.684 98.2995 254.737 98.3856C254.795 98.4833 250.802 100.827 250.86 100.924C250.912 101.016 252.546 99.8388 252.604 99.9249C252.645 99.9881 250.286 101.838 250.327 101.901C250.379 101.993 257.814 97.4896 257.866 97.5873C257.97 97.7653 250.64 101.631 250.744 101.809C250.796 101.895 257.947 97.57 257.999 97.6562C258.086 97.8055 252.048 101.114 252.135 101.257C252.181 101.338 256.093 98.8853 256.139 98.9657C256.18 99.0404 253.844 101.447 253.891 101.522C253.914 101.556 255.281 100.677 255.299 100.712C255.299 100.718 255.536 101.005 255.536 101.01C255.548 101.028 255.867 100.798 255.878 100.815" stroke="black" stroke-width="1.75" stroke-linecap="round" stroke-linejoin="round"/>
<path d="M225.182 32.9828C224.827 32.9828 224.489 32.7541 224.381 32.3882C222.784 27.2138 226.441 21.988 231.049 19.5637C231.455 17.5626 232.531 15.5786 234.157 13.8748C237.265 10.6329 241.97 9.08919 246.44 9.46655C246.903 8.38021 247.51 7.32246 248.26 6.33333C253.274 -0.259011 263.725 -2.02002 270.622 2.54831C271.012 2.81132 271.115 3.33161 270.863 3.71469C270.605 4.10348 270.084 4.2064 269.695 3.95483C263.496 -0.156095 254.11 1.43338 249.611 7.35105C249.038 8.10577 248.563 8.89479 248.174 9.7124C249.714 10.0269 251.202 10.5758 252.547 11.3876C254.482 12.5426 255.798 13.9548 256.462 15.59C257.315 17.6827 256.926 20.0383 255.477 21.4448C254.064 22.8228 251.711 23.1658 249.748 22.2739C248.117 21.5306 246.76 19.9811 246.022 18.0314C245.221 15.9102 245.186 13.4917 245.85 11.1189C241.998 10.9017 238.026 12.2796 235.359 15.0583C234.283 16.1847 233.481 17.4425 233.018 18.729C234.998 18.06 236.807 17.9114 238.409 18.2945C240.739 18.8605 242.536 20.6386 242.897 22.7313C243.149 24.1892 242.639 25.7158 241.489 26.9108C240.224 28.2316 238.404 28.9119 236.727 28.7061C233.676 28.3173 231.158 25.4814 230.866 22.1081C230.848 21.9537 230.843 21.7936 230.837 21.6392C227.317 23.9205 224.776 28.0486 225.966 31.9022C226.098 32.3482 225.857 32.817 225.411 32.96C225.331 32.9828 225.245 33 225.165 33H225.188L225.182 32.9828ZM232.577 20.6958C232.543 21.1189 232.531 21.5363 232.571 21.948C232.789 24.5037 234.723 26.7278 236.961 27.0194C238.112 27.1681 239.394 26.6764 240.293 25.733C241.06 24.9268 241.414 23.9377 241.254 23.0057C241.014 21.5935 239.692 20.3242 238.032 19.924C236.584 19.5752 234.884 19.781 232.966 20.5357C232.835 20.5872 232.709 20.6386 232.571 20.7015H232.577V20.6958ZM247.556 11.3076C246.909 13.4174 246.909 15.5615 247.607 17.4197C248.186 18.9634 249.227 20.1698 250.458 20.7244C251.774 21.3305 253.394 21.1189 254.304 20.227C255.243 19.3122 255.489 17.6598 254.899 16.219C254.247 14.6181 252.787 13.4917 251.677 12.8285C250.406 12.068 249.004 11.5649 247.55 11.2962H247.556V11.3076Z" fill="#2D29FF"/>
<path d="M79.6192 142.101C78.3678 142.118 69.6593 142.118 70.8026 144.614C71.9801 147.178 74.1871 149.328 76.4566 150.939C77.9867 152.028 78.0493 150.859 78.3849 149.288C78.6238 148.176 80.5066 140.842 78.8286 140.286C75.9447 139.338 71.8663 147.558 72.0824 149.657C72.4522 153.174 78.8172 152.93 81.155 152.38C83.6237 151.795 85.8534 149.901 87.5769 148.125C88.2766 147.399 88.3334 146.917 88.1344 144.892C87.2413 135.85 79.113 142.299 79.3917 148.426C79.5055 150.979 81.7523 154.116 84.602 152.822C87.2755 151.608 89.0217 147.235 89.3459 144.568C89.983 139.327 85.3187 134.448 81.064 132.174C75.3304 129.105 66.5706 129.139 61.2466 133.218C51.1558 140.955 67.0143 154.048 75.8082 150.264C78.5328 149.09 79.659 145.465 78.6011 142.753C77.0482 138.777 71.0245 143.44 69.6479 145.011C67.111 147.898 65.0348 152.981 68.3681 156.152C71.4795 159.107 78.1517 160.095 81.6044 157.173C84.9263 154.359 83.436 148.681 80.791 146.009C77.4805 142.662 71.0074 140.615 66.3943 141.891C61.9234 143.133 58.2887 147.314 58.2546 152.056C58.2091 158.818 65.6094 163.339 71.6274 163.918C75.5636 164.298 79.2609 163.328 82.7932 161.638C87.1105 159.573 93.2537 155.761 95.3071 151.103C96.8486 147.603 95.7678 139.185 92.5654 136.661C87.0821 132.338 77.5487 134.721 79.7273 142.94C81.2517 148.693 88.6292 156.872 93.4471 149.64" stroke="#2D29FF" stroke-width="1.75" stroke-linecap="round"/>
<path d="M263 27C266.389 25.1973 273.081 22.2221 282 22.012C290.794 21.802 297.537 24.3864 301 26.0024" stroke="#2D29FF" stroke-width="1.75" stroke-miterlimit="10" stroke-linecap="round"/>
<path d="M102 159L96 169" stroke="#2D29FF" stroke-width="1.75" stroke-miterlimit="10" stroke-linecap="round"/>
<path d="M108 162L106 180" stroke="#2D29FF" stroke-width="1.75" stroke-miterlimit="10" stroke-linecap="round"/>
</svg>
