<svg width="360" height="181" viewBox="0 0 360 182" fill="none" xmlns="http://www.w3.org/2000/svg">
<path d="M204.028 32.3811C204.028 32.3811 208.804 28.2189 208.822 28.246C208.916 28.3557 205.986 34.4412 206.105 34.5827C206.256 34.7609 213.779 27.6929 213.913 27.8439C214.22 28.1991 203.251 40.0748 203.55 40.4193C203.833 40.7426 218.961 26.5543 219.244 26.8776C219.582 27.2693 206.87 40.4255 207.217 40.8278C207.666 41.3446 224.552 24.9651 225 25.4819C225.558 26.1179 204.332 46.7034 204.773 47.2097C205.276 47.789 228.385 25.6645 228.967 26.3324C229.549 27.0003 205.808 48.8627 206.406 49.5518C207.074 50.3188 234.039 24.2764 234.754 25.0954C235.469 25.9143 205.621 52.8533 206.314 53.6522C207.061 54.5077 240.735 22.5109 241.457 23.3346C242.179 24.1582 202.55 59.6363 203.25 60.4399C204.046 61.359 238.793 28.0707 239.643 29.0465C240.492 30.0224 202.941 63.3817 203.736 64.295C204.435 65.0985 236.303 34.8208 236.988 35.609C237.673 36.3972 204.197 66.3083 204.795 66.9974C205.628 67.952 237.937 36.9129 238.677 37.7637C239.417 38.6144 202.349 71.3687 203.308 72.4696C204.15 73.4348 238.264 40.8656 238.986 41.6893C239.805 42.6344 203.077 75.3661 203.831 76.2322C204.508 77.0098 238.822 44.8409 239.42 45.53C240.23 46.4586 201.795 79.836 202.787 80.9794C203.456 81.7522 234.433 51.9996 235.267 52.9601C235.952 53.7483 202.733 83.5612 203.385 84.307C204.077 85.0999 236.549 54.2062 237.288 55.0569C238.13 56.028 203.138 87.444 203.8 88.2062C204.501 89.0157 237.212 57.7102 238.039 58.666C238.81 59.5533 203.484 90.5705 204.355 91.5665C204.953 92.2556 236.435 62.5154 237.119 63.2977C238.046 64.3621 202.453 95.5161 203.199 96.3716C203.946 97.2271 233.336 69.0904 233.973 69.8208C234.799 70.7707 202.254 99.1558 203.049 100.075C203.709 100.831 233.85 72.0138 234.59 72.8645C235.329 73.7153 202.607 102.421 203.449 103.386C204.234 104.283 235.791 73.8883 236.585 74.7957C237.293 75.6099 206.024 103.53 206.762 104.375C207.5 105.219 236.166 77.6124 236.859 78.4112C237.552 79.2101 204.639 108.799 205.439 109.712C206.037 110.401 232.217 85.3384 232.853 86.0629C233.655 86.9868 202.478 114.779 203.249 115.667C203.793 116.293 234.494 87.5565 235.069 88.2196C235.611 88.8403 205.79 116.207 206.576 117.104C207.221 117.845 234.283 92.0212 234.866 92.6949C235.605 93.5457 205.358 120.793 205.933 121.456C206.507 122.12 235.349 94.7589 236.002 95.5105" stroke="#2D29FF" stroke-width="1.75" stroke-linecap="round" stroke-linejoin="round"/>
<path d="M160.81 89.9604C161.312 90.5404 181.168 71.3369 181.664 71.9122C182.096 72.4142 163.166 90.7503 163.661 91.3255C164.187 91.9315 184.208 72.5378 184.703 73.113C185.26 73.7556 163.188 94.508 163.589 94.9734C164.098 95.5581 183.551 76.8287 183.983 77.3248C184.437 77.8469 165.691 96.5683 166.09 97.0219C166.559 97.5594 186.063 78.869 186.494 79.3652C187.058 80.0125 164.586 101.098 165.064 101.646C165.487 102.132 187.818 80.8537 188.361 81.4809C188.903 82.1082 166.77 103.153 167.344 103.816C167.814 104.354 185.984 86.7313 186.455 87.2746C186.957 87.8487 168.14 106.047 168.626 106.606C169.041 107.081 186.886 89.7646 187.397 90.3552C187.835 90.8561 166.189 111.728 166.66 112.271C167.068 112.741 190.093 90.976 190.595 91.556C191.051 92.084 168.566 113.708 169.069 114.288C169.523 114.811 190.616 94.6432 191.11 95.2126C191.605 95.7819 171.067 115.696 171.507 116.203C172.026 116.804 190.555 98.728 191.048 99.2915C191.541 99.855 172.582 118.55 173.054 119.099C173.509 119.622 194.306 99.8832 194.714 100.353C195.263 100.985 174.076 121.646 174.484 122.116C175.017 122.727 196.718 101.918 197.189 102.462C197.723 103.078 176.997 123.437 177.405 123.907C177.813 124.377 196.391 106.621 196.815 107.107C197.238 107.592 174.633 129.478 175.094 130.005C175.502 130.475 196.688 110.283 197.199 110.874C197.709 111.465 177.634 131.271 178.034 131.731C178.395 132.149 196.435 114.765 196.946 115.361C197.378 115.857 178.267 134.747 178.793 135.353C179.262 135.89 200.065 116.212 200.426 116.63C200.857 117.126 178.904 138.404 179.46 139.041C179.876 139.516 200.211 120.074 200.706 120.649C201.129 121.134 180.123 141.498 180.656 142.109C181.079 142.594 200.819 123.737 201.275 124.265C201.603 124.64 185.129 141.436 185.451 141.807C186.423 142.924 233.964 98.0092 234.859 99.0439C235.832 100.161 183.096 145.425 184.225 146.726C185.081 147.713 231.763 103.884 232.603 104.85C233.536 105.927 184.324 148.158 185.36 149.349C186.333 150.472 233.673 105.717 234.568 106.752C235.517 107.843 183.574 152.15 184.813 153.576C185.652 154.542 231.083 111.85 231.914 112.806C233.068 114.138 186.774 153.076 187.958 154.439C188.907 155.53 228.865 117.04 229.848 118.179C230.671 119.124 187.434 156.881 188.44 158.047C189.186 158.91 231.757 118.897 232.58 119.842C233.334 120.715 190.8 158.513 191.702 159.547C192.487 160.456 230.364 124.592 231.101 125.444C231.769 126.217 199.68 155.144 200.456 156.037C201.061 156.737 230.927 128.465 231.522 129.149C232.159 129.886 203.707 155.831 204.224 156.426C204.712 156.991 230.65 132.317 231.262 133.022C231.802 133.643 211.646 153.313 212.029 153.752C212.47 154.264 228.758 138.401 229.189 138.897C229.494 139.247 216.812 153.037 217.095 153.367C217.362 153.675 230.749 140.944 231.048 141.289C231.298 141.576 222.016 152.992 222.221 153.233C222.362 153.395 231.189 145.224 231.314 145.365" stroke="#2D29FF" stroke-width="1.75" stroke-linecap="round" stroke-linejoin="round"/>
<path d="M131.796 46.9916C131.796 46.9916 132.334 46.4762 132.358 46.5024C132.42 46.5704 132.831 49.6557 132.894 49.7295C133.012 49.8665 137.781 45.2423 137.9 45.3792C138.074 45.5853 132.782 53.8863 132.925 54.0554C133.249 54.4354 145.123 42.9981 145.351 43.2614C145.675 43.6413 131.119 58.9566 131.49 59.3889C131.861 59.8213 152.974 39.8078 153.429 40.3283C153.934 40.9131 133.473 60.7458 133.93 61.2722C134.411 61.8308 158.223 39.2325 158.681 39.7649C159.257 40.4342 133.467 64.0835 134.137 64.8576C134.806 65.6318 161.641 39.6739 162.279 40.4111C162.854 41.0745 133.451 67.6873 134.225 68.5889C134.831 69.2892 167.444 38.3835 168.107 39.1529C168.833 39.9961 134.435 70.5392 135.263 71.4979C136.091 72.4567 169.356 40.2272 170.168 41.1705C170.863 41.9768 131.482 76.9886 132.348 77.9891C133.215 78.9896 171.528 42.5983 172.198 43.3725C173.144 44.4682 132.602 79.5623 133.531 80.6307C134.46 81.6991 172.323 45.0074 173.27 46.1091C174.138 47.1155 134.446 82.39 135.307 83.3916C136.016 84.2134 173.439 48.8601 174.132 49.6604C174.882 50.5299 133.803 86.9379 134.835 88.1278C135.734 89.1711 171.729 54.5476 172.48 55.4229C173.23 56.2983 133.544 91.6639 134.347 92.5906C135.19 93.5648 173.143 56.862 174.143 58.0149C175.271 59.3215 130.058 98.9104 130.941 99.9323C131.729 100.843 175.165 59.9501 175.937 60.8398C176.709 61.7296 132.765 100.976 133.593 101.934C134.586 103.082 176.495 62.4958 177.567 63.7333C178.546 64.8719 130.864 106.466 131.742 107.489C132.569 108.448 178.155 65.1008 179.178 66.28C180.202 67.4591 130.518 110.675 131.424 111.723C132.567 113.045 180.228 67.4356 181.159 68.5159C182.263 69.7962 130.043 114.318 131.266 115.735C132.244 116.868 179.029 72.1829 180.046 73.3572C181.142 74.6269 132.459 116.869 133.397 117.954C134.018 118.67 157.894 95.6049 158.422 96.2159C159.036 96.921 133.644 120.573 134.165 121.18C134.725 121.827 157.763 99.5013 158.346 100.175C158.875 100.792 130.277 127.293 130.82 127.919C131.42 128.615 161.371 100.391 161.859 100.955C162.466 101.655 133.256 128.636 133.965 129.458C134.485 130.058 158.508 107.155 158.991 107.72C159.629 108.457 134.107 132.097 134.57 132.629C135.163 133.319 159.012 109.989 159.706 110.795C160.344 111.533 132.981 137.193 133.526 137.826C134.173 138.579 159.007 114.291 159.695 115.093C160.382 115.894 129.559 143.659 130.324 144.544C130.972 145.298 156.867 120.16 157.522 120.919C158.231 121.74 131.517 146.698 132.084 147.351C132.651 148.004 158.829 122.903 159.428 123.593C160.113 124.383 132.859 149.881 133.389 150.498C133.918 151.114 156.753 128.913 157.39 129.645C158.107 130.471 129.463 156.514 130.061 157.197C130.658 157.881 156.587 133.203 157.053 133.747C157.747 134.547 129.678 160.681 130.237 161.323C130.75 161.919 159.065 134.901 159.743 135.686C160.476 136.534 130.093 163.784 130.81 164.617C131.292 165.175 160.315 137.862 160.868 138.505C161.499 139.237 132.13 166.316 132.73 167.012C133.281 167.649 158.265 143.596 158.873 144.303C159.551 145.087 129.457 172.442 130.039 173.11C130.664 173.837 156.328 149.248 156.833 149.833C157.25 150.311 138.61 168.662 139.068 169.195C139.526 169.727 155.935 153.821 156.29 154.232C156.645 154.643 141.901 170.197 142.273 170.63C142.541 170.94 159.368 155.138 159.683 155.502C159.927 155.78 151.263 166.04 151.483 166.292C151.681 166.525 156.708 161.329 156.914 161.571C157.025 161.704 153.077 168.234 153.227 168.408C153.29 168.482 157.385 164.651 157.456 164.736" stroke="#2D29FF" stroke-width="1.75" stroke-linecap="round" stroke-linejoin="round"/>
<path d="M62.4239 57.7958C62.4239 57.7958 62.9168 57.3402 62.9333 57.3615C62.9804 57.4135 64.5236 60.1963 64.5647 60.2495C64.6836 60.3855 67.5181 57.462 67.644 57.6027C67.81 57.7907 62.6956 65.8104 62.8534 65.9878C63.0429 66.2019 73.0919 56.6996 73.3449 56.987C73.5427 57.2116 64.6333 67.9794 64.8299 68.1982C65.1948 68.6168 81.7909 53.0799 82.0687 53.3992C82.417 53.7965 68.6401 68.4785 68.9732 68.8604C69.338 69.279 85.9219 53.5184 86.3185 53.9737C86.7151 54.4289 69.4617 71.6203 69.9361 72.1584C70.4751 72.7756 91.2433 52.9208 91.7188 53.4647C92.1943 54.0087 71.008 74.0663 71.4259 74.5358C72.0592 75.2572 97.7839 50.7315 98.3771 51.4056C98.9703 52.0796 73.0583 75.7614 73.5431 76.3218C74.0575 76.9072 98.7235 53.5878 99.2861 54.2311C99.9757 55.021 71.8948 80.2391 72.528 80.9604C73.1612 81.6818 97.6902 58.2604 98.2386 58.8943C98.8565 59.6002 74.5881 81.9691 75.2284 82.6952C75.8687 83.4213 100.022 60.0723 100.696 60.8409C101.195 61.4109 75.1049 86.0619 75.6286 86.6638C76.2148 87.3331 102.679 62.2189 103.295 62.9189C103.912 63.619 75.5411 89.7363 76.1991 90.4896C76.6663 91.0229 101.431 67.6722 102.01 68.3368C102.548 68.9482 79.104 90.6571 79.6195 91.2483C80.135 91.8396 105.268 68.3141 105.728 68.8427C106.3 69.5025 81.9332 92.0981 82.424 92.6574C83.0501 93.3741 103.622 73.4959 104.106 74.0505C104.533 74.5365 82.7461 95.8039 83.1745 96.2958C83.6029 96.7877 107.054 74.6679 107.618 75.3171C108.182 75.9663 81.0855 101.325 81.641 101.963C82.1965 102.602 107.125 79.2012 107.569 79.7085C108.124 80.3471 82.467 103.717 83.0225 104.355C83.4979 104.899 110.678 79.4638 111.256 80.1224C111.938 80.9017 83.4788 106.211 84.1438 106.969C84.6193 107.513 107.933 85.609 108.408 86.1471C108.843 86.6438 85.8988 108.702 86.3908 109.268C87.0087 109.974 109.913 88.0937 110.405 88.659C110.897 89.2242 86.8107 111.864 87.2626 112.382C87.8099 113.009 113.078 89.0302 113.672 89.7101C114.298 90.4267 90.5774 112.336 91.1789 113.02C91.7333 113.653 114.794 91.5595 115.389 92.2394C115.951 92.8827 90.9728 115.926 91.5672 116.606C92.0273 117.135 112.86 97.1024 113.477 97.8025C114.015 98.4139 91.7321 119.386 92.144 119.856C92.6595 120.448 117.652 97.0285 118.12 97.5618C118.84 98.3825 91.5541 122.726 92.2191 123.484C92.7253 124.059 115.903 102.09 116.44 102.695C117.074 103.422 92.7676 126.33 93.2513 126.885C93.6785 127.371 118.915 103.935 119.375 104.464C119.939 105.113 94.8053 127.961 95.4786 128.729C96.0329 129.362 118.771 107.581 119.349 108.24C119.786 108.742 96.2317 131.163 96.7214 131.716C97.1734 132.234 120.807 110 121.329 110.596C121.907 111.255 98.4316 133.41 98.9859 134.042C99.4767 134.602 123.526 112.055 123.986 112.584C124.413 113.07 101.191 134.968 101.627 135.471C102.206 136.135 123.639 115.755 124.051 116.226C124.686 116.953 100.494 139.497 100.977 140.045C101.419 140.547 122.16 120.966 122.611 121.478C123.141 122.085 102.456 141.374 102.963 141.954C103.4 142.457 126.997 120.486 127.418 120.967C127.886 121.507 103.913 144.032 104.462 144.666C104.897 145.163 126.998 124.367 127.474 124.917C128.02 125.539 104.819 147.066 105.271 147.584C105.676 148.05 125.897 128.881 126.396 129.451C126.895 130.021 106.228 149.985 106.695 150.518C107.233 151.13 128.387 130.938 128.87 131.486C129.258 131.931 109.669 151.106 110.041 151.53C110.516 152.074 128.955 134.3 129.454 134.869C129.953 135.439 109.89 154.883 110.381 155.443C110.602 155.693 120.856 145.907 121.127 146.222C121.436 146.578 110.687 158.507 110.971 158.825C111.051 158.919 117.1 153.409 117.179 153.497" stroke="#2D29FF" stroke-width="1.75" stroke-linecap="round" stroke-linejoin="round"/>
<path d="M154.688 103.547C154.805 103.684 161.328 97.4983 161.446 97.6352C161.563 97.7722 156.102 102.943 156.221 103.086C156.408 103.302 161.924 97.7211 162.111 97.9367C162.314 98.1677 152.816 105.971 153.019 106.208C153.223 106.445 164.716 95.5626 164.92 95.8056C165.156 96.0854 154.002 105.349 154.237 105.623C154.472 105.897 162.603 97.8419 162.83 98.1051C163.057 98.3683 152.499 106.848 152.719 107.106C152.954 107.38 163.692 97.0305 163.927 97.3044C164.186 97.6045 152.164 107.821 152.422 108.121C152.681 108.421 166.956 94.8609 167.223 95.1776C167.561 95.573 151.826 108.844 152.163 109.233C152.468 109.586 164.128 98.1558 164.427 98.5094C164.726 98.8631 150.303 111.562 150.617 111.931C150.962 112.331 169.466 94.7454 169.812 95.1514C170.203 95.604 151.686 110.51 152.077 110.962C152.429 111.373 168.573 95.8138 168.932 96.2294C169.347 96.7082 149.871 112.664 150.286 113.143C150.654 113.575 169.116 95.9239 169.485 96.3561C169.854 96.7884 152.329 111.454 152.704 111.885C153.079 112.316 170.805 95.2609 171.196 95.7134C171.587 96.166 153.184 111.792 153.583 112.256C154 112.746 171.738 95.5293 172.154 96.0199C172.624 96.5677 150.314 114.488 150.778 115.037C151.202 115.532 169.409 97.881 169.832 98.3763C170.287 98.9087 149.089 117.02 149.55 117.551C150.01 118.082 171.965 97.0261 172.419 97.5525C172.873 98.0789 151.757 115.578 152.204 116.1C152.651 116.622 172.489 97.4101 172.958 97.952C173.427 98.4939 150.954 116.519 151.425 117.067C151.895 117.614 175.035 95.4586 175.506 96.0124C176.038 96.6281 150.662 116.864 151.195 117.485C151.674 118.044 173.348 97.1402 173.826 97.6987C174.358 98.3145 149.566 119.242 150.098 119.863C150.6 120.448 174.168 97.7987 174.668 98.3775C175.168 98.9563 152.724 117.694 153.201 118.247C153.718 118.847 176.614 96.7196 177.132 97.3257C177.68 97.9628 151.628 119.102 152.183 119.744C152.738 120.386 174.326 99.315 174.851 99.926C175.376 100.537 151.798 120.359 152.306 120.948C152.847 121.58 178.087 97.3013 178.628 97.9336C179.248 98.6612 149.76 122.679 150.379 123.4C150.928 124.043 176.068 99.8141 176.618 100.457C177.198 101.137 149.344 123.231 149.925 123.911C150.474 124.554 175.645 100.295 176.2 100.937C176.723 101.542 152.262 121.884 152.779 122.49C153.344 123.148 177.503 99.7219 178.067 100.38C178.631 101.039 153.247 122.553 153.795 123.19C154.375 123.864 180.302 98.8326 180.881 99.5067C181.461 100.181 153.865 122.544 154.445 123.219C155.024 123.893 177.185 102.14 177.771 102.819C178.358 103.498 150.501 126.335 151.09 127.026C151.679 127.717 180.878 99.7713 181.472 100.461C182.098 101.187 152.811 125.651 153.437 126.377C154.063 127.104 179.047 102.757 179.644 103.459C180.241 104.16 151.829 128.118 152.438 128.823C153.048 129.528 178.684 104.626 179.295 105.337C179.835 105.963 154.761 127.16 155.3 127.786C155.919 128.508 182.854 102.429 183.473 103.151C184.092 103.872 153.794 128.261 154.435 129.003C155.076 129.745 181.125 104.395 181.745 105.123C182.365 105.85 153.492 129.626 154.104 130.343C154.716 131.06 182.439 104.283 183.067 105.015C183.733 105.795 151.749 131.233 152.421 132.012C153.048 132.744 180.954 105.778 181.587 106.51C182.22 107.241 153.647 130.112 154.242 130.808C154.875 131.539 183.372 104.048 184.006 104.785C184.64 105.522 155.103 130.01 155.73 130.742C156.357 131.474 182.243 106.26 182.879 107.003C183.481 107.704 154.811 130.545 155.408 131.246C156.043 131.989 183.96 104.984 184.595 105.727C185.23 106.47 156.285 129.806 156.895 130.511C157.504 131.216 182.175 107.102 182.816 107.844C183.412 108.54 154.899 131.092 155.493 131.782C156.129 132.525 181.611 107.647 182.247 108.39C182.796 109.033 156.875 130.564 157.43 131.206C158.072 131.954 185.543 105.318 186.185 106.066C186.882 106.877 153.528 133.247 154.224 134.052C154.866 134.8 184.895 105.927 185.537 106.675C186.179 107.423 155.849 131.609 156.483 132.346C157.117 133.083 183.624 107.308 184.266 108.056C184.908 108.804 154.621 132.865 155.255 133.602C155.889 134.339 183.565 107.54 184.208 108.288C184.85 109.036 153.477 134.435 154.142 135.204C154.806 135.972 182.358 109.221 183.001 109.969C183.55 110.612 157.314 131.646 157.863 132.289C158.505 133.037 183.225 108.803 183.868 109.551C184.433 110.215 157.421 131.981 157.986 132.646C158.629 133.394 185.469 107.302 186.112 108.05C186.754 108.798 155.545 134.289 156.204 135.058C156.862 135.827 185.198 108.386 185.848 109.138C186.497 109.891 156.107 134.082 156.741 134.819C157.375 135.557 185.601 108.271 186.244 109.019C186.886 109.767 156.85 133.81 157.477 134.543C158.104 135.275 184.555 109.553 185.198 110.307C185.794 111.002 157.312 133.782 157.908 134.478C158.551 135.232 187.658 107.151 188.301 107.904C189.014 108.737 154.858 136.146 155.577 136.977C156.22 137.731 185.243 109.721 185.892 110.474C186.542 111.227 156.433 135.272 157.066 136.003C157.699 136.734 187.61 107.976 188.259 108.729C188.909 109.482 158.023 134.634 158.674 135.392C159.324 136.151 187.966 108.466 188.614 109.213C189.296 110.008 157.219 136.827 157.906 137.621C158.549 138.369 185.851 111.869 186.501 112.622C187.15 113.375 155.96 138.395 156.611 139.16C157.263 139.924 188.493 109.973 189.135 110.721C189.777 111.469 158.937 136.852 159.588 137.616C160.24 138.381 188.97 110.618 189.606 111.367C190.311 112.188 157.005 139.563 157.71 140.384C158.351 141.126 189.432 111.345 190.073 112.087C190.8 112.929 156.534 140.967 157.256 141.81C157.891 142.553 188.458 113.227 189.093 113.97C189.775 114.765 157.495 141.254 158.182 142.049C158.817 142.786 187.192 115.392 187.826 116.129C188.461 116.866 157.245 141.726 157.903 142.489C158.56 143.253 188.275 114.643 188.903 115.381C189.577 116.166 157.538 141.983 158.206 142.769C158.833 143.501 190.435 113.306 191.068 114.037C191.701 114.769 160.955 139.507 161.604 140.26C162.253 141.013 188.089 115.821 188.716 116.553C189.343 117.286 159.118 142.114 159.761 142.862C160.403 143.61 189.299 115.766 189.919 116.493C190.54 117.221 161.32 140.677 161.938 141.393C162.556 142.108 188.644 116.776 189.263 117.498C189.882 118.219 161.277 141.747 161.881 142.453C162.485 143.16 188.855 117.619 189.465 118.33C190.076 119.041 160.101 143.054 160.728 143.786C161.356 144.519 188.103 118.605 188.714 119.316C189.325 120.027 160.834 143.895 161.439 144.607C162.044 145.319 190.434 118.027 191.036 118.727C191.639 119.427 163.364 142.266 163.958 142.955C164.553 143.645 187.889 120.807 188.492 121.507C189.095 122.207 162.086 144.967 162.665 145.641C163.245 146.315 187.995 122.302 188.582 122.981C189.138 123.629 162.933 145.172 163.488 145.814C164.043 146.456 191.831 119.857 192.405 120.532C192.978 121.207 165.671 143.773 166.25 144.447C166.83 145.121 191.003 121.643 191.574 122.306C192.194 123.034 162.796 147.108 163.422 147.834C163.978 148.482 188.839 124.473 189.395 125.12C189.903 125.71 165.683 144.937 166.184 145.522C166.74 146.17 192.745 121.16 193.301 121.808C193.936 122.551 163.785 147.101 164.42 147.845C164.968 148.482 188.697 125.5 189.245 126.138C189.754 126.733 165.35 146.205 165.859 146.8C166.407 147.437 189.159 125.313 189.701 125.951C190.178 126.504 167.718 144.938 168.195 145.491C168.735 146.117 191.174 124.299 191.714 124.925C192.295 125.605 165.045 148.406 165.625 149.086C166.143 149.692 191.695 125.236 192.212 125.836C192.761 126.479 166.61 147.576 167.158 148.213C167.668 148.809 189.143 127.943 189.659 128.538C190.136 129.09 167.537 147.281 168.014 147.833C168.523 148.423 192.049 125.781 192.559 126.377C193.069 126.972 169.957 145.587 170.442 146.15C170.927 146.713 189.795 128.205 190.296 128.789C190.798 129.374 167.496 148.455 167.99 149.029C168.483 149.603 190.68 128.194 191.166 128.763C191.652 129.332 168.456 148.706 168.949 149.28C169.443 149.854 193.029 127.268 193.499 127.816C193.969 128.364 172.383 146.672 172.851 147.208C173.319 147.744 190.22 131.106 190.667 131.627C191.114 132.149 170.175 149.179 170.614 149.69C171.052 150.2 192.136 129.982 192.575 130.493C193.06 131.056 170.035 149.746 170.52 150.309C170.944 150.804 192.473 130.248 192.902 130.742C193.332 131.237 173.442 147.941 173.865 148.437C174.266 148.906 192.259 131.535 192.665 132.004C193.041 132.441 175.724 147.269 176.094 147.707C176.464 148.145 191.284 133.663 191.66 134.1C192.067 134.574 172.891 150.57 173.3 151.05C173.645 151.456 191.094 134.786 191.439 135.192C191.785 135.598 175.619 149.247 175.965 149.653C176.286 150.027 189.328 137.318 189.648 137.686C189.89 137.965 179.179 147.922 179.415 148.202C179.674 148.508 190.359 138.101 190.619 138.407C190.939 138.775 175.911 151.106 176.23 151.474C176.473 151.753 190.202 138.764 190.445 139.049C190.624 139.253 182.849 146.853 183.029 147.064C183.185 147.243 187.74 142.633 187.89 142.813C188.03 142.976 181.541 148.486 181.682 148.649C181.8 148.786 186.945 143.805 187.064 143.948" stroke="white" stroke-width="1.75" stroke-linecap="round" stroke-linejoin="round"/>
<path d="M201.899 86.1871C202.032 86.3374 206.269 82.1661 206.396 82.3175C206.569 82.5148 198.67 89.2419 198.841 89.4334C199.029 89.6459 211.606 78.0802 211.788 78.2939C212.048 78.5956 200.156 89.1436 200.415 89.4395C200.674 89.7354 213.902 77.298 214.171 77.6103C214.523 78.0095 197.985 91.6246 198.338 92.0297C198.645 92.3831 213.241 78.5963 213.548 78.9497C213.854 79.3031 198.911 91.889 199.233 92.2577C199.578 92.6523 213.855 78.9876 214.2 79.3821C214.615 79.8541 195.153 95.9799 195.568 96.452C195.952 96.8876 215.096 78.8879 215.48 79.3236C215.863 79.7592 198.351 93.9077 198.72 94.3281C199.12 94.7849 216.567 78.1737 216.967 78.6305C217.414 79.1389 196.089 96.103 196.535 96.6115C196.95 97.0835 217.512 77.7429 217.927 78.2149C218.343 78.687 198.909 93.8488 199.31 94.3114C199.711 94.774 218.087 77.3288 218.503 77.8067C218.974 78.3468 196.594 96.5335 197.071 97.0725C197.51 97.5762 218.842 77.4685 219.276 77.9733C219.771 78.5451 196.415 97.9267 196.916 98.4915C197.387 99.0317 218.798 78.7327 219.268 79.267C219.817 79.8951 194.055 101.299 194.605 101.928C195.106 102.498 219.85 79.2093 220.352 79.78C220.853 80.3507 196.641 99.5091 197.144 100.086C197.646 100.662 220.021 79.3949 220.524 79.9773C221.105 80.6419 193.596 103.044 194.177 103.709C194.703 104.311 219.634 80.7554 220.166 81.3567C220.698 81.9579 195.007 102.396 195.541 103.009C196.075 103.622 218.482 82.203 219.017 82.8217C219.464 83.3302 198.122 100.273 198.569 100.782C199.111 101.405 220.689 80.6735 221.23 81.2911C221.772 81.9088 197.039 102.466 197.565 103.068C198.131 103.717 220.114 82.5437 220.679 83.193C221.245 83.8423 194.738 104.935 195.288 105.569C195.838 106.203 221.98 81.4681 222.553 82.1222C223.079 82.7245 197.677 102.664 198.203 103.267C198.777 103.926 222.657 81.0768 223.237 81.7356C223.817 82.3943 196.7 103.593 197.264 104.236C197.829 104.88 220.694 82.9231 221.275 83.5877C221.856 84.2523 195.46 105.318 196.016 105.951C196.604 106.62 225.112 79.7485 225.701 80.4237C226.368 81.1869 194.859 107.12 195.532 107.882C196.137 108.578 224.936 81.3778 225.542 82.0741C226.192 82.8162 195.164 107.528 195.815 108.271C196.427 108.972 223.259 83.436 223.871 84.137C224.515 84.8744 193.933 109.555 194.577 110.293C195.221 111.03 226.631 81.4758 227.252 82.1873C227.927 82.9611 196.175 109.093 196.849 109.861C197.486 110.593 227.797 81.9671 228.432 82.6939C229.162 83.5299 194.698 111.652 195.428 112.488C196.079 113.23 225.16 85.6176 225.805 86.3609C226.45 87.1041 194.592 112.783 195.266 113.551C195.94 114.319 228.217 83.8941 228.876 84.6468C229.598 85.4722 195.297 113.266 196.02 114.097C196.686 114.855 229.094 84.3196 229.756 85.0839C230.501 85.9352 195.28 114.513 196.024 115.358C196.692 116.127 229.164 85.5073 229.838 86.2752C230.512 87.0431 199.125 111.734 199.777 112.482C200.429 113.229 227.506 87.2828 228.175 88.0577C228.811 88.7845 198.615 113.088 199.244 113.81C199.919 114.584 229.584 86.3545 230.267 87.133C230.989 87.9584 196.795 115.61 197.517 116.436C198.199 117.214 230.638 86.5822 231.315 87.3677C232.045 88.2037 197.241 116.307 197.971 117.143C198.654 117.927 231.007 87.3543 231.69 88.1387C232.445 89.0064 196.303 117.919 197.064 118.786C197.747 119.57 229.517 89.4977 230.202 90.2879C230.886 91.0781 198.463 117.667 199.147 118.451C199.83 119.235 228.172 92.1047 228.862 92.8937C229.553 93.6828 196.275 120.121 196.967 120.916C197.658 121.71 232.205 89.2224 232.897 90.0173C233.643 90.8745 197.503 119.065 198.255 119.921C198.946 120.71 232.009 89.5089 232.7 90.2979C233.39 91.087 200.518 116.743 201.202 117.527C201.885 118.312 229.161 92.096 229.847 92.892C230.533 93.6881 198.78 118.546 199.439 119.299C200.098 120.051 231.366 90.4578 232.057 91.2469C232.81 92.1087 197.16 121.254 197.914 122.116C198.604 122.905 230.13 93.0256 230.82 93.8147C231.457 94.5474 200.995 118.932 201.632 119.665C202.323 120.454 231.329 92.74 232.019 93.529C232.71 94.3181 200.994 119.939 201.661 120.703C202.328 121.466 229.468 95.4037 230.159 96.1928C230.787 96.9149 200.676 120.765 201.303 121.481C201.993 122.27 230.901 94.6484 231.59 95.4316C232.28 96.2148 197.919 123.729 198.64 124.554C199.362 125.38 230.029 96.1874 230.713 96.9718C231.317 97.6622 202.502 120.498 203.105 121.182C203.789 121.967 234.137 93.1209 234.82 93.9053C235.504 94.6896 202.429 120.755 203.12 121.544C203.81 122.333 233.779 93.8027 234.462 94.587C235.192 95.423 200.629 123.413 201.359 124.249C202.036 125.029 233.069 95.6137 233.746 96.3933C234.422 97.173 203.609 122.56 204.261 123.307C204.913 124.055 234.992 95.5283 235.661 96.2974C236.329 97.0664 203.232 123.967 203.929 124.761C204.627 125.554 231.877 99.3925 232.542 100.15C233.155 100.851 203.662 124.072 204.281 124.778C204.942 125.536 231.836 99.7522 232.496 100.511C233.117 101.228 203.036 124.727 203.657 125.444C204.317 126.202 234.34 97.7288 235 98.4873C235.73 99.3233 201.178 127.499 201.908 128.335C202.56 129.083 233.957 99.4586 234.609 100.207C235.292 100.991 202.859 127.46 203.544 128.25C204.187 128.988 234.668 100.195 235.311 100.927C235.953 101.658 206.351 125.228 206.97 125.934C207.589 126.64 232.443 102.747 233.085 103.473C233.674 104.148 205.224 126.337 205.813 127.012C206.449 127.739 233.67 101.777 234.306 102.509C234.904 103.195 206.602 126.502 207.2 127.194C207.799 127.885 233.413 103.397 234.035 104.115C234.656 104.832 206.455 127.453 207.044 128.128C207.633 128.803 234.861 102.973 235.473 103.674C236.124 104.416 204.841 128.825 205.492 129.567C206.104 130.268 233.12 104.576 233.732 105.277C234.29 105.916 207.4 126.961 207.958 127.6C208.57 128.301 235.922 102.32 236.534 103.021C237.233 103.82 203.865 130.585 204.57 131.389C205.175 132.08 233.205 105.555 233.809 106.245C234.367 106.89 207.683 128.363 208.241 129.007C208.831 129.688 232.927 106.591 233.516 107.266C234.105 107.941 205.865 130.266 206.454 130.941C207.043 131.616 232.983 106.944 233.572 107.619C234.097 108.216 209.058 128.165 209.583 128.761C210.163 129.426 231.821 108.472 232.402 109.137C232.983 109.802 206.723 131.672 207.281 132.311C207.838 132.949 234.381 107.882 234.939 108.521C235.496 109.16 207.762 130.999 208.336 131.658C208.91 132.318 232.798 109.51 233.355 110.143C233.864 110.724 209.777 130.246 210.281 130.829C210.822 131.446 233.688 109.617 234.229 110.235C234.77 110.853 209.958 130.393 210.475 130.979C210.992 131.565 234.602 109.156 235.136 109.769C235.67 110.382 210.631 130.87 211.158 131.478C211.686 132.087 235.944 109.134 236.455 109.721C236.966 110.308 211.653 130.012 212.178 130.609C212.703 131.205 232.234 112.33 232.745 112.917C233.256 113.504 209.198 132.384 209.699 132.955C210.201 133.525 234.926 110.234 235.437 110.821C235.948 111.408 211.054 131.032 211.572 131.623C212.09 132.215 235.919 109.673 236.422 110.249C236.925 110.826 212.919 130.963 213.43 131.55C213.901 132.091 235.772 111.387 236.244 111.927C236.715 112.468 215.021 130.443 215.484 130.973C215.947 131.502 234.467 113.756 234.908 114.266C235.349 114.775 213.343 132.495 213.806 133.025C214.23 133.513 232.259 116.299 232.683 116.787C233.108 117.276 212.077 133.989 212.516 134.493C212.956 134.996 232.693 116.3 233.11 116.778C233.526 117.256 213.447 133.513 213.866 134.002C214.266 134.459 234.296 115.633 234.696 116.09C235.136 116.594 213.92 133.173 214.36 133.676C214.753 134.129 232.209 117.534 232.602 117.986C232.995 118.438 214.281 134.062 214.681 134.518C215.041 134.928 231.005 119.762 231.36 120.173C231.674 120.537 216.887 133.074 217.207 133.437C217.528 133.8 229.625 122.127 229.939 122.485C230.151 122.729 220.114 130.996 220.326 131.241C220.624 131.578 232.635 120.06 232.932 120.397C233.23 120.734 219.672 132.161 219.962 132.494C220.213 132.779 230.581 122.864 230.826 123.151C231 123.354 223.349 130.767 223.523 130.97C223.657 131.127 228.222 126.656 228.362 126.811C228.457 126.92 223.949 130.452 224.044 130.561C224.177 130.711 229.731 125.406 229.864 125.557" stroke="white" stroke-width="1.75" stroke-linecap="round" stroke-linejoin="round"/>
<path d="M204.21 99.2106C204.33 99.3482 211.118 92.9835 211.237 93.1211C211.348 93.2479 206.487 97.9199 206.598 98.0467C206.788 98.2632 210.838 93.9945 211.027 94.2111C211.217 94.4276 202.579 102.6 202.777 102.827C203.039 103.129 214.967 91.7418 215.229 92.0433C215.49 92.3447 203.334 103.251 203.597 103.558C203.907 103.918 217.585 90.8113 217.901 91.1702C218.195 91.5088 204.218 102.648 204.512 102.987C204.829 103.352 218.995 89.7987 219.312 90.1635C219.694 90.6085 201.576 105.442 201.959 105.887C202.299 106.278 219.112 90.344 219.452 90.7293C219.825 91.1576 202.184 105.423 202.557 105.852C202.907 106.259 218.304 91.5 218.654 91.9079C218.981 92.2895 203.226 104.71 203.558 105.085C203.914 105.491 218.569 91.3687 218.919 91.7766C219.331 92.2468 199.982 108.095 200.394 108.565C200.767 108.993 219.827 90.978 220.2 91.4063C220.573 91.8346 202.635 106.448 203.016 106.887C203.397 107.326 220.645 90.8328 221.033 91.2766C221.422 91.7204 203.501 105.941 203.874 106.376C204.248 106.81 220.651 91.054 221.046 91.5026C221.441 91.9512 202.332 106.994 202.73 107.454C203.127 107.915 217.49 93.8795 217.88 94.3293C218.182 94.6786 203.785 106.201 204.087 106.551C204.485 107.011 220.623 91.4235 221.021 91.8841C221.443 92.3769 201.153 108.53 201.575 109.023C201.997 109.516 218.4 93.6302 218.804 94.0956C219.209 94.5609 200.924 110.068 201.321 110.523C201.749 111.014 222.265 91.5147 222.693 92.0064C223.153 92.5351 201.377 110.049 201.837 110.578C202.298 111.106 221.69 92.5023 222.126 93.0047C222.562 93.5072 203.132 110.118 203.552 110.599C204.012 111.128 220.74 94.7845 221.2 95.3132C221.573 95.7415 203.856 109.837 204.229 110.265C204.689 110.794 222.219 93.7461 222.681 94.2809C223.109 94.7725 202.742 111.039 203.17 111.531C203.637 112.064 225.244 91.4654 225.706 92.0061C226.246 92.6246 200.358 112.931 200.892 113.556C201.361 114.096 224.723 91.9671 225.192 92.5066C225.66 93.0461 203.965 111.298 204.432 111.831C204.899 112.365 223.066 94.7128 223.544 95.269C224.022 95.8253 202.025 113.054 202.479 113.584C202.962 114.139 224.346 93.6636 224.825 94.2257C225.278 94.7497 204.01 112.721 204.47 113.25C204.963 113.822 225.736 93.8279 226.229 94.3997C226.768 95.0181 201.635 116.161 202.174 116.779C202.683 117.367 226.875 94.3554 227.384 94.9428C227.924 95.5672 202.529 116.699 203.069 117.323C203.61 117.947 225.031 97.2484 225.547 97.8466C226 98.3705 205.014 116.325 205.466 116.849C205.991 117.458 225.966 98.0314 226.49 98.6343C227.013 99.2373 203.058 118.418 203.558 118.995C204.083 119.604 226.575 97.9881 227.106 98.5958C227.582 99.1461 205.326 117.753 205.802 118.303C206.334 118.917 227.315 98.5926 227.841 99.2074C228.333 99.7732 205.012 118.752 205.504 119.317C206.036 119.931 227.884 98.8534 228.416 99.4671C228.948 100.081 202.657 120.693 203.198 121.324C203.739 121.954 227.796 98.9384 228.328 99.552C228.86 100.166 204.404 119.826 204.913 120.419C205.423 121.012 229.579 97.9711 230.112 98.5908C230.708 99.2786 202.139 121.787 202.735 122.475C203.267 123.089 229.586 98.1364 230.118 98.7501C230.714 99.438 202.512 122.506 203.114 123.192C203.647 123.812 230.859 98.0764 231.392 98.696C232.011 99.4102 202.686 123.219 203.306 123.933C203.838 124.547 229.729 99.9673 230.261 100.581C230.793 101.195 206.562 120.867 207.077 121.459C207.593 122.051 230.59 100.011 231.123 100.631C231.656 101.251 205.605 123.046 206.161 123.692C206.718 124.338 230.961 101.138 231.492 101.745C232.023 102.353 206.211 123.275 206.751 123.899C207.291 124.524 230.615 102.161 231.146 102.769C231.726 103.441 203.789 125.606 204.37 126.284C204.895 126.893 228.653 104.188 229.177 104.791C229.653 105.341 206.876 123.684 207.353 124.234C207.876 124.837 229.487 103.996 230.011 104.605C230.503 105.171 207.215 123.97 207.706 124.53C208.23 125.133 231.519 102.845 232.042 103.448C232.566 104.051 208.164 123.287 208.673 123.874C209.181 124.462 231.718 102.856 232.242 103.459C232.829 104.136 204.984 126.746 205.571 127.423C206.087 128.016 230.747 104.575 231.262 105.167C231.777 105.759 207.698 124.618 208.199 125.195C208.699 125.771 228.892 106.229 229.401 106.822C229.839 107.33 208.668 123.98 209.107 124.495C209.623 125.087 230.25 105.14 230.766 105.732C231.313 106.361 205.334 127.185 205.88 127.808C206.389 128.396 233.11 103.187 233.624 103.773C234.181 104.419 207.67 125.945 208.227 126.591C208.734 127.172 229.076 107.508 229.578 108.091C230.045 108.624 207.816 126.38 208.283 126.913C208.783 127.49 231.493 105.789 231.994 106.372C232.496 106.954 208.055 126.278 208.564 126.865C209.072 127.453 233.119 104.581 233.619 105.157C234.119 105.734 209.474 125.918 209.998 126.521C210.49 127.087 231.042 107.296 231.53 107.869C232.017 108.442 208.259 127.751 208.759 128.328C209.259 128.905 231.081 108.011 231.566 108.572C232.051 109.133 208.699 128.21 209.192 128.782C209.685 129.353 231.053 108.887 231.528 109.431C231.966 109.94 211.491 127.19 211.929 127.699C212.367 128.207 229.698 111.377 230.158 111.906C230.532 112.34 213.158 127.184 213.537 127.617C213.975 128.125 233.54 109.395 233.984 109.903C234.427 110.41 213.178 128.026 213.631 128.55C214.052 129.037 229.735 113.747 230.156 114.234C230.546 114.683 211.874 129.302 212.262 129.746C212.683 130.233 230.774 112.855 231.201 113.341C231.628 113.827 211.494 130.888 211.93 131.39C212.328 131.851 230.673 114.35 231.069 114.805C231.411 115.202 215.28 128.584 215.622 128.981C216.003 129.42 232.195 113.853 232.576 114.292C232.932 114.699 216.639 128.909 216.995 129.315C217.352 129.722 232.169 115.482 232.51 115.873C232.827 116.238 218.397 128.965 218.708 129.325C219.008 129.668 229.217 119.613 229.518 119.957C229.771 120.247 218.237 130.441 218.491 130.731C218.744 131.022 229.466 120.714 229.72 121.004C229.943 121.264 219.691 130.389 219.92 130.647C220.118 130.875 229.808 121.685 230.006 121.912C230.212 122.15 220.604 130.355 220.811 130.593C220.96 130.762 227.899 124.152 228.044 124.328C228.14 124.439 223.472 128.222 223.568 128.333C223.703 128.492 228.882 123.45 229.017 123.609C229.113 123.72 224.493 127.463 224.594 127.573C224.721 127.716 229.426 123.135 229.553 123.278C229.679 123.42 223.483 128.343 223.612 128.497C223.731 128.635 228.81 123.748 228.93 123.892" stroke="black" stroke-width="1.75" stroke-linecap="round" stroke-linejoin="round"/>
<path d="M163.048 112.308C163.157 112.433 167.201 108.505 167.31 108.629C167.419 108.753 162.713 113.16 162.822 113.284C162.987 113.477 168.187 108.321 168.352 108.513C168.539 108.725 160.262 116.29 160.449 116.503C160.675 116.762 170.397 107.471 170.622 107.725C170.847 107.978 160.659 116.523 160.878 116.771C161.127 117.056 169.731 108.629 169.981 108.914C170.262 109.235 157.435 120.535 157.716 120.856C157.997 121.177 172.3 107.686 172.59 108.023C172.88 108.361 159.117 119.284 159.4 119.617C159.683 119.95 171.952 108.189 172.25 108.531C172.585 108.914 156.679 121.631 157.014 122.014C157.32 122.367 175.104 105.789 175.409 106.142C175.737 106.515 160.591 119.515 160.92 119.893C161.248 120.272 172.649 109.09 172.992 109.478C173.351 109.887 156.787 123.959 157.14 124.37C157.493 124.78 174.851 108.357 175.217 108.777C175.584 109.196 158.771 123.268 159.13 123.677C159.513 124.118 177.277 107.247 177.66 107.688C178.121 108.217 156.14 125.592 156.6 126.115C156.99 126.56 176.598 108.081 176.988 108.526C177.355 108.946 160.204 123.095 160.564 123.51C160.963 123.972 178.232 107.463 178.631 107.925C179.077 108.439 158.308 126.046 158.754 126.559C159.177 127.047 178.892 108.335 179.314 108.817C179.735 109.299 159.154 125.762 159.585 126.26C160.015 126.758 176.09 111.157 176.519 111.65C176.919 112.112 157.822 127.532 158.227 127.993C158.664 128.49 177.12 110.82 177.557 111.317C178.017 111.846 156.589 129.816 157.043 130.34C157.497 130.864 178.257 111.133 178.704 111.653C179.104 112.115 160.279 127.84 160.685 128.306C161.146 128.835 180.669 110.136 181.13 110.665C181.647 111.261 156.938 131.184 157.455 131.787C157.923 132.32 180.855 110.657 181.324 111.196C181.816 111.762 158.798 131.08 159.29 131.645C159.782 132.21 182.305 110.826 182.782 111.376C183.259 111.925 159.638 130.579 160.13 131.144C160.623 131.709 183.057 110.402 183.534 110.952C184.011 111.502 160.78 130.885 161.274 131.456C161.767 132.027 182.857 111.858 183.342 112.418C183.874 113.03 158.439 133.226 158.969 133.832C159.46 134.391 180.671 114.126 181.163 114.685C181.592 115.177 161.706 131.997 162.135 132.483C162.628 133.054 182.922 113.553 183.421 114.122C183.92 114.692 159.701 133.873 160.208 134.453C160.716 135.033 184.6 112.412 185.094 112.983C185.587 113.554 162.679 131.519 163.155 132.063C163.631 132.607 181.876 114.917 182.37 115.488C182.8 115.986 162.533 132.939 162.964 133.438C163.464 134.013 182.92 115.218 183.419 115.788C183.919 116.358 160.577 135.29 161.069 135.855C161.561 136.421 186.695 112.735 187.195 113.31C187.743 113.944 161.924 135.273 162.478 135.905C162.978 136.48 182.907 117.267 183.409 117.848C183.878 118.388 161.881 136.819 162.35 137.358C162.85 137.934 185.289 116.554 185.796 117.134C186.258 117.669 164.29 135.555 164.751 136.084C165.252 136.66 185.411 117.251 185.911 117.826C186.357 118.34 165.535 135.794 165.98 136.302C166.48 136.877 185.581 118.387 186.08 118.956C186.58 119.526 163.351 138.292 163.844 138.857C164.336 139.422 185.053 119.56 185.546 120.131C185.992 120.645 164.418 137.511 164.869 138.023C165.369 138.593 186.527 118.338 187.02 118.908C187.514 119.479 164.541 137.487 165.017 138.031C165.493 138.575 185.47 119.389 185.964 119.96C186.457 120.531 163.494 139.378 163.978 139.933C164.462 140.487 186.67 119.364 187.162 119.929C187.654 120.494 164.695 139.831 165.187 140.396C165.679 140.961 185.779 121.654 186.269 122.208C186.683 122.685 166.745 138.6 167.167 139.082C167.651 139.637 187.786 120.323 188.27 120.878C188.754 121.432 165.702 139.849 166.186 140.403C166.67 140.958 189.049 119.71 189.527 120.266C190.005 120.822 167.033 139.181 167.512 139.736C167.99 140.292 186.114 122.728 186.591 123.278C186.982 123.729 168.154 138.492 168.545 138.944C169.022 139.494 189.12 120.236 189.597 120.786C190.12 121.387 165.22 141.389 165.743 141.99C166.214 142.535 186.471 123.162 186.94 123.701C187.385 124.209 166.617 141.568 167.062 142.075C167.506 142.583 187.656 123.376 188.118 123.91C188.58 124.445 166.527 142.112 166.989 142.646C167.451 143.181 188.311 123.334 188.765 123.858C189.219 124.382 167.642 142.466 168.103 142.995C168.564 143.524 186.533 126.201 186.978 126.709C187.369 127.161 168.81 142.277 169.202 142.729C169.639 143.232 187.343 126.203 187.774 126.701C188.156 127.136 170.008 141.701 170.385 142.143C170.814 142.636 191.015 123.473 191.452 123.97C191.937 124.531 168.82 143.335 169.305 143.896C169.726 144.377 187.342 127.493 187.758 127.976C188.116 128.385 171.49 142.542 171.849 142.951C172.248 143.413 187.695 128.472 188.1 128.933C188.422 129.307 173.327 142.037 173.654 142.404C174.037 142.844 189.943 127.573 190.328 128.019C190.679 128.424 174.474 142.463 174.826 142.868C175.178 143.272 187.421 131.28 187.781 131.695C188.108 132.068 172.805 144.85 173.133 145.229C173.462 145.607 188.151 131.594 188.492 131.976C188.833 132.358 173.789 145.096 174.11 145.464C174.43 145.832 190.971 130.287 191.284 130.645C191.666 131.08 173.498 145.576 173.88 146.011C174.184 146.358 188.492 132.799 188.791 133.147C189.048 133.443 177.001 143.514 177.259 143.81C177.54 144.131 186.712 135.086 186.994 135.413C187.181 135.625 178.692 142.977 178.873 143.19C179.131 143.485 188.215 134.614 188.473 134.91C188.731 135.205 177.38 145.131 177.629 145.416C177.84 145.66 190.106 134.226 190.317 134.47C190.528 134.714 180.795 142.898 181.005 143.136C181.185 143.344 187.519 137.158 187.698 137.36C187.823 137.506 182.22 142.654 182.345 142.799C182.471 142.945 187.009 138.522 187.135 138.668C187.284 138.845 180.079 144.647 180.228 144.818C180.337 144.942 187.751 138.107 187.86 138.231" stroke="black" stroke-width="1.75" stroke-linecap="round" stroke-linejoin="round"/>
<path d="M174.968 68.7925C174.992 68.8234 176.931 67.086 176.96 67.1101C177.037 67.1959 173.502 70.1304 173.579 70.2163C173.618 70.2563 174.666 69.2243 174.704 69.2643C174.743 69.3101 172.97 71.0808 173.016 71.1312C173.079 71.2022 177.113 67.555 177.174 67.6202C177.307 67.7724 171.012 73.1657 171.146 73.3179C171.255 73.4392 176.226 68.8227 176.328 68.9395" stroke="black" stroke-width="1.75" stroke-linecap="round" stroke-linejoin="round"/>
<path d="M145.984 86.6397C145.984 86.6397 146.676 85.9916 146.691 86.0075C146.714 86.0344 146.789 87.4262 146.812 87.4531C146.868 87.5239 147.582 86.6455 147.638 86.7164C147.725 86.819 143.813 90.3163 143.899 90.4189C143.963 90.5007 148.463 86.1933 148.533 86.274C148.605 86.3607 145.644 89.4925 145.714 89.5732C145.801 89.6758 149.049 86.4069 149.141 86.5084C149.236 86.622 145.046 90.8132 145.146 90.9257C145.239 91.0332 152.674 83.9945 152.768 84.1021C152.892 84.2475 147.645 89.515 147.77 89.6604C147.865 89.774 155.127 82.8753 155.221 82.9889C155.347 83.1404 149.746 88.3883 149.871 88.5398C149.974 88.6644 154.382 84.2869 154.485 84.4115C154.516 84.4493 153.756 86.3412 153.788 86.3851C153.905 86.5196 155.921 84.2352 156.033 84.3768C156.073 84.4257 154.499 86.2419 154.537 86.2847C154.662 86.4302 158.412 82.5623 158.531 82.7089C158.681 82.8873 151.534 88.7845 151.683 88.9629C151.808 89.1083 158.086 82.9706 158.212 83.1221C158.368 83.3054 151.224 89.403 151.38 89.5863C151.513 89.7427 158.889 82.5897 159.022 82.7461C159.116 82.8537 155.004 86.5715 155.092 86.6802C155.232 86.8415 161.107 81.0071 161.243 81.1757C161.439 81.4079 152.294 89.0524 152.49 89.2846C152.632 89.4581 160.816 81.5342 160.957 81.7016C161.09 81.858 155.65 87.602 155.776 87.7535C156.231 88.2937 175.447 69.2039 175.902 69.744C176.264 70.1765 159.418 84.7039 159.786 85.1414C160.211 85.6497 176.21 69.5528 176.635 70.0611C176.98 70.4716 161.367 84.4915 161.712 84.896C162.025 85.2687 175.408 71.9861 175.722 72.3588C175.919 72.5971 166.903 80.7819 167.106 81.019C167.309 81.2561 173.602 74.7951 173.798 75.0273" stroke="black" stroke-width="1.75" stroke-linecap="round" stroke-linejoin="round"/>
<path d="M195.86 51.1549C195.86 51.1549 196.771 50.3154 196.787 50.337C196.819 50.3744 195.91 52.2061 195.942 52.2495C195.997 52.3133 200.287 48.3101 200.343 48.3799C200.485 48.545 193.986 54.0596 194.128 54.2246C194.192 54.3053 198.454 50.2827 198.518 50.3634C198.597 50.4537 195.655 53.9862 195.726 54.0717C195.828 54.1886 199.025 50.9668 199.121 51.0848C199.153 51.1282 198.054 52.9532 198.092 52.9954C198.194 53.1122 201.505 49.7878 201.607 49.9047C201.663 49.9745 198.92 52.1968 198.976 52.2666C199.078 52.3835 203.817 47.7975 203.92 47.9204C204.006 48.0216 200.319 51.797 200.405 51.8982C200.5 52.0102 205.947 46.8286 206.042 46.9406C206.129 47.0418 202.348 50.587 202.435 50.6882C202.528 50.7943 203.775 49.3194 203.864 49.4326C203.935 49.5181 200.649 52.3724 200.721 52.4579C200.814 52.5639 205.455 48.1023 205.549 48.2083C205.66 48.342 200.387 52.7517 200.498 52.8854C200.586 52.9926 204.164 49.4739 204.252 49.5811C204.3 49.6401 202.717 52.247 202.771 52.3048C202.856 52.4 204.979 50.1916 205.065 50.2869C205.103 50.329 204.016 52.2509 204.055 52.2931C204.135 52.3894 209.754 47.1188 209.832 47.2092C209.949 47.3418 204.426 51.7811 204.543 51.9137C204.622 52.01 209.224 47.6303 209.304 47.7267C209.43 47.8761 203.945 53.369 204.072 53.5183C204.15 53.6087 209.083 48.9542 209.16 49.0386C209.207 49.0917 207.139 50.9544 207.186 51.0074C207.264 51.0977 208.057 50.0887 208.129 50.1742C208.16 50.2115 206.873 51.6632 206.904 51.7006C206.976 51.7861 208.872 49.8201 208.943 49.9056C209.005 49.9743 206.905 52.9042 206.967 52.9729C207.038 53.0584 211.318 49.0013 211.389 49.0868C211.469 49.1832 207.704 52.4026 207.784 52.499C207.855 52.5845 213.547 47.2812 213.619 47.3667C213.713 47.4787 209.419 51.3649 209.514 51.4769C209.584 51.5565 213.933 47.4488 214.003 47.5283C214.05 47.5813 212.341 49.8526 212.388 49.9056C212.458 49.9851 212.908 49.3092 212.972 49.3898C213.068 49.5079 208.475 53.3646 208.576 53.4755C208.646 53.5551 211.493 50.7667 211.563 50.8463C211.587 50.8728 211.049 52.1985 211.073 52.225C211.137 52.3057 213.063 50.34 213.133 50.4136C213.156 50.4401 212.255 51.5567 212.28 51.5892C212.343 51.6639 215.203 48.8793 215.273 48.9588C215.375 49.0757 210.745 53.2127 210.847 53.3296C210.91 53.4042 217.269 47.5443 217.333 47.625C217.427 47.731 213.705 51.8667 213.793 51.9739C213.856 52.0486 216.614 49.3644 216.677 49.4391C216.763 49.5402 212.871 52.9147 212.957 53.0159C213.02 53.0906 215.106 51.0012 215.168 51.0699C215.2 51.1133 217.104 50.2626 217.142 50.3048C217.204 50.3735 217.929 49.4831 217.992 49.5578C218.064 49.6433 215.011 52.7567 215.082 52.8422C215.144 52.9109 217.56 50.5407 217.622 50.6095C217.637 50.6251 218.574 50.5811 218.59 50.6028C218.652 50.6715 220.368 48.9138 220.43 48.9825C220.478 49.0415 218.701 51.3693 218.748 51.4223C218.804 51.4922 221.501 48.8754 221.563 48.9441C221.657 49.0502 217.802 53.0006 217.89 53.1077C217.946 53.1776 222.401 49.0185 222.457 49.0883C222.551 49.1944 218.281 52.8276 218.375 52.9337C218.431 53.0035 220.962 50.5367 221.024 50.6054C221.088 50.686 218.471 53.7526 218.536 53.8333C218.591 53.8971 220.853 51.6806 220.908 51.7445C220.939 51.7818 219.611 53.2725 219.649 53.3147C219.704 53.3785 222.19 50.9637 222.247 51.0336C222.263 51.0552 221.505 51.7101 221.521 51.7317C221.576 51.7956 223.473 49.8977 223.529 49.9675C223.646 50.1001 218.571 54.9679 218.688 55.1005C218.743 55.1644 222.492 51.6439 222.547 51.7077C222.562 51.7234 222.36 52.538 222.375 52.5537C222.43 52.6176 224.374 50.6795 224.43 50.7494C224.486 50.8192 221.808 53.2213 221.864 53.2911C221.919 53.355 223.509 51.7333 223.564 51.7971C223.611 51.8501 221.919 54.0809 221.96 54.1351C222.015 54.1989 224.413 51.8632 224.468 51.9271C224.516 51.9861 222.52 54.3188 222.574 54.3767C222.629 54.4405 225.006 52.1273 225.061 52.1912C225.148 52.2924 221.106 55.559 221.187 55.6614C221.242 55.7252 225.841 51.4578 225.896 51.5216C225.999 51.6445 221.728 56.252 221.829 56.3689C221.884 56.4328 226.009 52.5855 226.063 52.6433C226.117 52.7012 224.145 55.4449 224.202 55.5148C224.258 55.5846 224.763 54.9164 224.811 54.9754C224.833 54.9959 225.849 55.551 225.871 55.5715C225.925 55.6294 228.008 53.5901 228.056 53.6491C228.158 53.766 223.428 57.5748 223.528 57.6857C223.582 57.7435 229.022 52.7433 229.077 52.8072C229.123 52.8602 227.514 55.013 227.553 55.0612C227.607 55.1191 229.2 53.5093 229.248 53.5683C229.294 53.6214 227.716 55.8736 227.763 55.9266C227.817 55.9845 230.3 53.5888 230.354 53.6467C230.471 53.7793 225.285 58.5755 225.403 58.7141C225.457 58.772 231.346 53.3812 231.4 53.439C231.478 53.5294 228.281 57.1296 228.36 57.22C228.408 57.279 229.067 56.4942 229.115 56.5532C229.132 56.5749 230.229 56.32 230.244 56.3357C230.292 56.3947 230.597 55.9202 230.645 55.9793C230.701 56.0491 228.276 58.5576 228.332 58.6275C228.38 58.6865 230.432 56.6779 230.48 56.7369C230.495 56.7526 230.167 57.548 230.182 57.5637C230.23 57.6227 230.52 57.1636 230.568 57.2226C230.591 57.2491 230.04 58.5962 230.063 58.6228C230.111 58.6818 230.829 57.8486 230.877 57.9076C230.939 57.9763 228.6 60.8404 228.656 60.9102C228.696 60.9584 232.266 57.6522 232.306 57.7004C232.338 57.7377 230.839 59.0129 230.871 59.0502C230.904 59.0936 232.429 57.6085 232.466 57.6447" stroke="black" stroke-width="1.75" stroke-linecap="round" stroke-linejoin="round"/>
<path d="M257.481 48.8751C257.523 48.9232 259.769 46.8565 259.818 46.9094C259.893 46.9948 260.101 50.8521 260.166 50.9207C260.197 50.9519 262.6 48.824 262.625 48.8505C262.699 48.9359 262.717 53.048 262.776 53.1177C262.801 53.1502 264.16 51.897 264.186 51.9294C264.3 52.057 262.359 57.482 262.465 57.5987C262.508 57.6528 265.715 54.7775 265.757 54.8256" stroke="#2D29FF" stroke-width="1.75" stroke-linecap="round" stroke-linejoin="round"/>
<path d="M250.895 52.8793C250.969 52.9609 255.007 49.3813 255.095 49.472C255.193 49.5788 252.21 55.5473 252.324 55.669C252.365 55.715 253.825 54.3742 253.866 54.4201C253.964 54.5269 251.964 59.9348 252.055 60.0371C252.08 60.0681 253.432 58.8737 253.45 58.9001C253.516 58.9714 253.993 62.2498 254.047 62.2991C254.079 62.329 256.032 60.6356 256.064 60.6654C256.138 60.747 255.693 64.5382 255.766 64.614C255.815 64.6703 258.545 62.2466 258.603 62.3133" stroke="#2D29FF" stroke-width="1.75" stroke-linecap="round" stroke-linejoin="round"/>
<path d="M270.447 26.6975C270.512 26.7723 272.427 24.9166 272.477 24.9757C272.551 25.0614 273.143 28.5641 273.216 28.6438C273.248 28.6751 274.641 27.3697 274.674 27.4071C274.73 27.465 276.542 29.3958 276.592 29.4549C276.625 29.4923 280.616 25.9872 280.648 26.0186C280.713 26.0934 279.74 30.5412 279.813 30.6208C279.846 30.6582 281.18 29.414 281.205 29.4406C281.263 29.5106 281.318 33.3853 281.385 33.4661C281.419 33.5095 282.684 32.2977 282.716 32.3351C282.872 32.5112 277.711 40.0772 277.849 40.2316C277.899 40.2907 283.291 35.485 283.357 35.5598" stroke="#2D29FF" stroke-width="1.75" stroke-linecap="round" stroke-linejoin="round"/>
<path d="M263.139 31.8278C263.246 31.9516 266.832 28.4087 266.916 28.5068C267.037 28.6459 263.285 35.47 263.392 35.5997C263.431 35.6464 263.925 35.0458 263.965 35.0983C264.034 35.1812 264.284 38.9959 264.337 39.0578C264.369 39.0998 265.646 37.861 265.668 37.8867C265.729 37.9533 266.328 40.8162 266.381 40.8781C266.405 40.9097 268.98 38.5422 269.004 38.5737C269.073 38.6567 268.248 43.3463 268.333 43.4502C268.364 43.4864 269.669 42.212 269.7 42.2482C269.762 42.3265 269.832 46.1879 269.893 46.2604C269.93 46.3013 273.883 42.6636 273.928 42.715" stroke="#2D29FF" stroke-width="1.75" stroke-linecap="round" stroke-linejoin="round"/>
<path d="M285.826 5.66323C285.889 5.73638 290.822 1.26283 290.876 1.31948C290.931 1.38201 290.957 4.70501 291.012 4.76754C291.051 4.81473 292.453 3.44746 292.493 3.49464C292.54 3.54656 295.656 4.37847 295.718 4.44574C295.757 4.48705 298.533 1.95902 298.564 1.99559C298.619 2.05812 300.015 4.80623 300.062 4.85815C300.094 4.89473 300.839 4.1356 300.863 4.16744C300.98 4.29724 298.8 9.8191 298.888 9.92408C298.918 9.95477 303.213 6.15875 303.237 6.18471C303.379 6.34634 300.023 12.7224 300.126 12.8428C300.157 12.8735 301.369 11.7012 301.407 11.7425C301.502 11.8523 299.878 16.7854 299.958 16.8798C300.005 16.9317 302.557 14.5504 302.604 14.6023" stroke="#2D29FF" stroke-width="1.75" stroke-linecap="round" stroke-linejoin="round"/>
<path d="M282.133 7.07334C282.244 7.20596 284.679 4.65473 284.774 4.76586C284.954 4.97143 279.789 13.038 279.946 13.2232C279.985 13.2651 280.528 12.6368 280.567 12.6786C280.684 12.8101 278.366 18.092 278.476 18.2187C278.5 18.2509 281.753 15.2897 281.784 15.3267C281.831 15.3793 283.264 17.9736 283.319 18.0369C283.343 18.0692 283.319 17.9753 283.351 18.0123C283.445 18.1235 282.42 23.021 282.498 23.1106C282.522 23.1428 284.399 21.3953 284.423 21.4275C284.494 21.5064 284.135 25.185 284.19 25.2483C284.215 25.2806 284.858 24.6022 284.889 24.6333C284.928 24.6811 287.213 26.3166 287.261 26.3752C287.293 26.4122 290.826 23.1997 290.856 23.2308C290.903 23.2834 292.533 25.6056 292.58 25.6582C292.643 25.7322 295.624 22.8788 295.68 22.9481" stroke="#2D29FF" stroke-width="1.75" stroke-linecap="round" stroke-linejoin="round"/>
</svg>
