<svg width="228" height="211" viewBox="0 0 228 211" fill="none" xmlns="http://www.w3.org/2000/svg">
<g id="Group 2088">
<path id="Vector" d="M91.0976 69.9668C90.1999 65.7148 91.3608 59.5933 94.101 55.6179C96.0515 52.79 100.074 50.691 102.463 51.0622C104.589 49.1589 106.79 48.2613 109.928 48.187C113.066 48.1128 116.839 48.8147 119.633 49.8271C122.509 50.8732 123.737 51.6899 125.681 53.5594C127.625 55.4222 129.413 59.384 130.088 62.5157C130.763 65.6541 130.311 68.7857 130.162 70.2031C129.292 70.608 128.313 72.3291 127.989 73.5642C127.786 74.3336 127.152 74.3066 127.118 73.6047C127.071 72.4101 127.024 69.5484 126.95 68.806C126.875 68.0568 126.437 66.8284 125.917 66.4572C125.208 64.9184 124.797 62.2862 124.864 60.4302C121.354 60.7271 116.131 59.2355 115.307 56.9948C111.204 58.1152 105.305 57.069 102.767 54.5313C101.053 56.934 98.488 59.5393 96.0515 60.3559C96.5375 62.6304 95.9773 65.0601 95.5318 66.1063C94.6342 67.5236 94.1887 69.3189 94.1887 70.3583C94.1887 71.3977 94.0672 72.9703 94.02 73.6452C93.9795 74.2256 93.4801 74.1716 93.3451 73.6249C93.0819 72.5451 92.2449 70.4123 91.1043 69.9668H91.0976Z" fill="#2D29FF"/>
<path id="Vector_2" d="M110.893 116.963C108.092 117.746 106.041 119.129 103.874 121.066C105.892 122.295 107.606 125.953 108.281 127.188C105.966 137.528 104.063 153.429 103.429 166.901C105.744 174.365 107.836 181.155 111.643 190.489C114.929 179.292 116.941 171.605 118.513 165.854C118.513 152.194 114.97 132.243 113.735 127.04C114.518 125.696 116.462 122.302 117.913 121.519C116.644 119.204 113.357 117.354 110.893 116.963Z" fill="#2D29FF"/>
<path id="Vector_3" d="M58.6935 145.878C59.0647 145.878 59.3684 145.574 59.3684 145.203C59.3684 139.378 60.9545 128.951 61.4539 126.44C61.8994 124.226 62.4191 122.121 63.229 121.668C63.5529 121.486 63.6744 121.074 63.4922 120.751C63.31 120.427 62.8983 120.305 62.5743 120.487C61.3392 121.169 60.7655 123.012 60.1311 126.17C59.6249 128.715 58.0186 139.277 58.0186 145.203C58.0186 145.574 58.3223 145.878 58.6935 145.878Z" fill="#767E83"/>
<path id="Vector_4" d="M74.1499 185.11C73.7855 184.881 73.3063 184.988 73.0768 185.353C72.6314 186.055 72.3141 186.392 71.673 187.067C71.4097 187.337 71.106 187.661 70.7213 188.08C67.5087 191.583 63.4119 191.333 60.422 191.151C59.3016 191.083 58.3432 191.022 57.6075 191.184C55.9135 191.556 51.3442 192.028 47.3149 192.453C46.9977 192.487 46.6872 192.521 46.3768 192.554C46.7007 192.197 46.9977 191.798 47.2677 191.353C49.144 188.262 49.0495 184.988 48.7255 181.027C48.4218 177.288 47.1124 173.832 45.1552 171.503C45.7491 171.483 46.3498 171.503 46.9505 171.571C47.2474 171.605 47.7536 171.699 48.3341 171.814C50.1429 172.158 52.8763 172.685 54.9078 172.408C55.6097 172.313 56.1159 172.435 56.6491 172.556C57.2836 172.705 57.945 172.86 58.8021 172.624C59.6458 172.394 60.0035 171.881 60.152 171.483C60.3545 170.95 60.4152 170.025 59.5378 168.642C58.6604 167.265 58.6604 166.185 58.6604 164.383C58.6604 163.742 58.7549 161.812 58.8696 159.362C58.9911 156.797 59.1396 153.604 59.2408 150.682C59.2543 150.311 58.9641 149.994 58.5929 149.987C58.2217 149.953 57.9045 150.264 57.8977 150.635C57.7965 153.55 57.648 156.736 57.5265 159.301C57.4118 161.764 57.3173 163.715 57.3173 164.39C57.3173 166.219 57.3173 167.663 58.4039 169.371C59.0519 170.39 58.9506 170.876 58.9034 171.004C58.8831 171.058 58.8156 171.227 58.4579 171.328C57.9247 171.47 57.5265 171.375 56.9663 171.247C56.3927 171.112 55.684 170.943 54.7391 171.072C52.9235 171.315 50.3251 170.815 48.5973 170.484C47.9628 170.363 47.4567 170.268 47.1057 170.228C46.0866 170.113 45.0742 170.127 44.0955 170.241C43.7783 169.904 43.4948 169.506 43.2046 169.074C42.7119 168.345 42.145 167.521 41.2406 166.847C40.3902 166.212 39.1348 165.537 37.9132 164.889L37.7917 164.822C37.4138 164.619 36.9413 164.768 36.7388 165.146C36.5364 165.524 36.6781 165.996 37.0628 166.199L37.1843 166.266C38.2979 166.853 39.5533 167.528 40.3092 168.088C41.0044 168.615 41.4498 169.263 41.9155 169.951C42.2867 170.498 42.6714 171.058 43.1844 171.537C43.2721 171.625 43.3801 171.672 43.4948 171.706C43.5758 171.787 43.6636 171.875 43.7446 171.962C44.5545 173.744 45.3644 176.7 45.3914 179.096C45.4049 180.109 45.3239 181.141 45.1957 182.228C44.9932 182.093 44.7367 182.046 44.4937 182.14C42.3812 182.95 39.0336 183.618 35.9627 183.841C34.1606 183.976 33.3507 183.841 32.3248 183.686C31.7714 183.598 31.137 183.497 30.2798 183.423C27.9513 183.22 27.3709 183.051 25.8591 182.134L25.3461 181.816C24.1515 181.081 23.6521 180.777 21.8095 180.014C21.4113 179.852 20.9591 180.041 20.7904 180.44C20.6284 180.838 20.8174 181.29 21.2156 181.459C22.9501 182.174 23.3483 182.424 24.5362 183.146L25.0559 183.463C26.7837 184.516 27.5936 184.752 30.1516 184.975C30.9547 185.042 31.5352 185.137 32.0886 185.225C32.858 185.346 33.5599 185.454 34.6128 185.454C35.038 185.454 35.5172 185.434 36.0842 185.393C36.6849 185.353 37.3463 185.285 38.0415 185.198C38.2709 186.197 38.5139 187.094 38.8041 187.897C38.7771 187.897 38.7501 187.891 38.7231 187.897C38.3519 187.951 38.1022 188.296 38.1562 188.667C38.3992 190.273 39.2428 192.055 40.4104 193.439C40.9369 194.059 41.7333 194.41 42.6309 194.417C42.7254 194.458 42.8334 194.491 42.9414 194.491C42.9684 194.491 43.0021 194.491 43.0291 194.491C44.325 194.343 45.8706 194.181 47.4769 194.012C51.7424 193.567 56.1564 193.108 57.9382 192.716C58.4647 192.602 59.3286 192.656 60.3275 192.716C63.4456 192.905 68.1499 193.189 71.8687 189.139C72.2399 188.734 72.5436 188.417 72.8001 188.154C73.4683 187.452 73.8732 187.034 74.3997 186.197C74.6291 185.832 74.5211 185.353 74.1567 185.123L74.1499 185.11ZM47.3824 181.128C47.6659 184.617 47.7604 187.357 46.5185 189.902H44.568C45.1687 189.072 45.6344 187.897 45.8841 186.494C46.3835 183.686 46.7615 181.357 46.7345 179.069C46.7277 178.394 46.6535 177.652 46.5388 176.889C46.9707 178.206 47.2609 179.643 47.3757 181.128H47.3824ZM44.9999 183.605C44.8717 184.449 44.7232 185.326 44.5545 186.264C44.1563 188.518 43.1641 189.828 42.4352 189.909C41.713 189.99 41.0989 189.774 40.4712 188.451C40.0662 187.594 39.7423 186.595 39.3643 185.002C41.2743 184.698 43.3126 184.239 44.9932 183.605H44.9999ZM39.9987 190.206C40.5994 190.921 41.3081 191.272 42.1787 191.272C42.2867 191.272 42.4015 191.265 42.523 191.252H45.7019C45.1349 191.987 44.4735 192.534 43.7783 192.824C43.4611 192.858 43.1506 192.892 42.8537 192.926C42.7322 192.939 42.6242 192.986 42.523 193.047C42.0708 193.013 41.686 192.851 41.4363 192.554C40.8424 191.852 40.3497 191.036 39.9987 190.206Z" fill="#767E83"/>
<path id="Vector_5" d="M19.8593 179.286C18.5904 178.84 16.7884 178.044 15.7827 177.592C15.1685 177.146 14.8041 176.579 14.8648 176.127C14.9121 175.749 15.2495 175.553 15.5263 175.452C15.8975 175.317 17.1596 175.715 18.7929 177.025C18.9144 177.119 19.0629 177.173 19.2113 177.173C19.4408 177.173 19.839 177.288 20.2642 177.403C20.6354 177.511 21.0606 177.625 21.5601 177.727L21.965 177.787C22.9639 177.929 24.82 178.199 25.6974 178.645C26.0281 178.813 26.433 178.678 26.6018 178.341C26.7705 178.01 26.6355 177.605 26.2981 177.437C25.2182 176.897 23.3014 176.62 22.154 176.451L21.7896 176.397C21.3711 176.316 20.9729 176.201 20.6219 176.107C20.19 175.985 19.8053 175.877 19.4543 175.844C19.1304 175.594 18.6849 175.27 18.1922 174.973C19.2856 175 20.433 175.122 21.2429 175.277C21.6073 175.344 21.965 175.108 22.0325 174.737C22.1 174.372 21.8638 174.015 21.4926 173.947C20.109 173.684 17.8143 173.508 16.2214 173.684C14.5814 173.481 13.3125 173.394 12.4351 173.434C11.6117 173.137 9.45193 172.469 8.16958 173.151C7.70388 173.4 7.38666 173.799 7.26518 174.312C7.23143 174.453 7.21793 174.602 7.21118 174.744C6.03006 174.771 4.24151 174.744 3.24937 174.669C2.91866 174.649 2.60144 174.48 2.40572 174.224C2.28423 174.069 2.23024 173.9 2.25048 173.772C2.32472 173.38 2.5272 172.921 3.47885 172.793C4.32925 172.678 6.597 172.375 8.43955 172.651C8.52729 172.665 8.62178 172.665 8.70952 172.651C9.69491 172.456 12.0841 172.246 13.6972 172.172C15.2158 172.105 17.3958 172.125 18.6039 172.327C19.4273 172.462 20.082 172.577 20.298 171.868C20.5072 171.173 19.8863 170.896 19.3396 170.647L19.1641 170.566C18.3542 170.195 17.5848 170.08 16.6129 169.925L16.3834 169.891C15.9852 169.83 15.263 169.661 14.4936 169.479C13.5892 169.27 12.6511 169.054 11.9627 168.939C11.6522 168.885 11.335 168.831 11.0178 168.77C10.0256 168.588 9.00648 168.399 7.97385 168.372C6.6375 168.339 4.93668 168.089 3.74207 167.893C2.75668 167.731 2.25723 167.421 2.25723 166.982C2.25723 166.469 2.82417 166.037 3.72857 165.855C4.90969 165.619 6.87372 165.727 8.50029 166.125C8.56103 166.138 8.62178 166.145 8.68252 166.145C8.93224 166.145 9.26295 166.145 9.65441 166.132C10.7275 166.111 12.1989 166.091 13.7647 166.145C15.5465 166.199 17.551 166.516 19.8998 167.103C20.0145 167.13 20.1292 167.137 20.244 167.11C20.8784 166.982 22.5725 166.779 23.5376 166.847C24.307 166.901 25.5219 166.881 26.4938 166.86C26.892 166.86 27.243 166.847 27.5129 166.847C28.2283 166.847 28.7885 166.543 29.0653 166.01C29.3217 165.517 29.261 164.91 28.9168 164.424C28.4916 163.83 27.7761 163.277 26.8583 162.568C26.0011 161.906 23.9898 160.361 23.0247 158.559C21.9245 156.5 22.6062 155.231 22.8357 154.894C22.9504 154.732 23.0922 154.658 23.2879 154.658C23.5444 154.658 23.9156 154.833 24.199 155.279C24.9145 156.426 25.1709 156.77 26.0146 157.54C26.7705 158.228 29.261 160.719 30.3274 161.785C31.171 162.629 32.5479 163.499 33.7695 164.269C34.1677 164.518 34.5389 164.755 34.8561 164.964C35.2138 165.2 35.6998 165.106 35.936 164.748C36.1722 164.39 36.0777 163.904 35.72 163.668C35.3893 163.452 35.0046 163.209 34.5996 162.953C33.5063 162.264 32.1497 161.407 31.4275 160.692C30.3544 159.618 27.8436 157.108 27.0607 156.399C26.3723 155.778 26.2036 155.555 25.5151 154.462C24.9955 153.632 24.1788 153.126 23.3216 153.105C22.5995 153.105 21.965 153.416 21.5533 154.01C20.5882 155.407 20.6219 157.384 21.6478 159.301C22.775 161.4 24.9685 163.088 25.9201 163.823C26.676 164.404 27.2835 164.876 27.6074 165.288C27.5804 165.288 27.5534 165.288 27.5129 165.288C27.243 165.288 26.8785 165.288 26.4668 165.301C25.5219 165.315 24.3475 165.335 23.6456 165.288C22.5657 165.214 20.9054 165.409 20.1157 165.544C17.7333 164.957 15.668 164.64 13.8187 164.586C12.2191 164.532 10.66 164.559 9.63416 164.572C9.2967 164.572 9.00648 164.579 8.77701 164.586C7.23818 164.221 5.01093 164.006 3.42485 164.323C1.41358 164.728 0.698155 165.956 0.698155 166.975C0.698155 167.718 1.06262 169.02 3.4856 169.425C4.72746 169.634 6.50926 169.884 7.93335 169.925C8.8445 169.952 9.80289 170.127 10.7343 170.303C11.065 170.363 11.389 170.424 11.7129 170.478C11.9829 170.525 12.3069 170.586 12.6511 170.66C11.1797 170.755 9.45868 170.917 8.52729 171.085C6.49576 170.809 4.15377 171.126 3.26287 171.241C1.84553 171.43 0.941128 172.226 0.711654 173.481C0.603666 174.048 0.772397 174.669 1.1706 175.176C1.6363 175.776 2.37872 176.168 3.14138 176.222C3.94454 176.276 5.20665 176.309 6.30678 176.309C6.71849 176.309 7.11669 176.309 7.4474 176.296C7.52165 176.296 7.58239 176.269 7.64988 176.249C8.21682 177.052 9.30345 177.659 10.5183 177.848C12.1584 178.604 14.2237 178.759 15.236 178.84C16.2687 179.313 18.0842 180.109 19.3801 180.561C19.4543 180.588 19.5286 180.602 19.6028 180.602C19.8795 180.602 20.1427 180.426 20.2372 180.15C20.3587 179.799 20.1765 179.414 19.8255 179.293L19.8593 179.286ZM10.8423 176.519C9.96488 176.397 9.12797 175.965 8.77026 175.445C8.58803 175.182 8.53403 174.912 8.60828 174.615C8.64202 174.48 8.70277 174.399 8.831 174.339C9.37094 174.055 10.7545 174.224 12.1246 174.744C12.2124 174.777 12.3069 174.791 12.4081 174.784C12.8266 174.757 13.3935 174.771 14.0752 174.818C13.7782 175.128 13.5892 175.513 13.5352 175.945C13.4745 176.404 13.5757 176.876 13.7985 177.322C12.9075 177.194 11.8884 176.984 11.0448 176.579C10.984 176.552 10.9165 176.532 10.8423 176.519Z" fill="#767E83"/>
<path id="Vector_6" d="M28.3025 168.527C28.0797 168.231 27.6545 168.163 27.3576 168.386C27.0606 168.608 26.9931 169.034 27.2158 169.331C28.6197 171.22 32.0888 174.642 36.2328 175.472C36.2801 175.479 36.3206 175.486 36.3678 175.486C36.685 175.486 36.9618 175.263 37.0292 174.946C37.1035 174.582 36.8673 174.224 36.5028 174.15C32.757 173.4 29.5038 170.147 28.3025 168.527Z" fill="#767E83"/>
<path id="Vector_7" d="M152.09 113.392C153.42 113.662 154.574 113.891 154.959 114.438C155.107 114.654 155.35 114.769 155.6 114.769C155.755 114.769 155.91 114.722 156.045 114.627C156.396 114.377 156.484 113.891 156.234 113.541C155.492 112.481 154.054 112.191 152.394 111.86C151.935 111.765 151.449 111.671 150.943 111.549C149.168 111.124 146.866 110.456 144.632 109.808L142.607 109.221C139.766 108.404 135.487 107.176 131.113 105.435C129.345 103.7 126.632 101.858 124.378 100.859C124.351 100.521 124.33 100.184 124.303 99.8125C124.276 99.3941 124.249 98.9486 124.209 98.4424L124.195 98.294C124.067 96.6404 123.979 95.547 125.093 93.448C126.112 91.5245 126.429 89.3782 126.713 87.4817C126.794 86.9215 126.875 86.3748 126.976 85.8618L126.996 85.7674C127.037 85.5649 127.064 85.3894 127.098 85.2139C127.334 85.2882 127.584 85.3354 127.833 85.3354C127.995 85.3354 128.157 85.3219 128.319 85.2882C129.352 85.0924 130.357 84.2555 130.951 83.1014C131.37 82.2915 131.518 80.9754 131.694 79.4501C131.809 78.4444 131.93 77.405 132.133 76.5276L132.214 76.1699C132.828 73.5512 133.273 71.108 131.998 69.9741C131.809 69.8054 131.599 69.6974 131.39 69.6231C131.404 69.5287 131.417 69.4409 131.431 69.3329C131.586 68.2665 131.829 66.6602 131.579 63.1304C131.302 59.0808 129.946 56.1449 127.989 52.993C127.759 52.6285 127.28 52.5138 126.915 52.7433C126.551 52.9727 126.436 53.4519 126.666 53.8164C128.549 56.8603 129.764 59.4925 130.027 63.2384C130.256 66.5995 130.047 68.0438 129.885 69.1035C129.858 69.2924 129.831 69.4612 129.811 69.6299C129.804 69.6974 129.811 69.7581 129.824 69.8189C128.778 70.4668 128.029 71.9921 127.604 73.477C127.638 71.6277 127.671 68.9145 127.604 68.3003C127.482 67.3082 127.111 66.7547 126.571 66.0933C126.099 64.3992 125.849 62.9886 125.822 61.794C125.822 61.5375 125.68 61.3283 125.491 61.1933C126.004 61.1393 126.483 61.0449 126.888 60.9031C127.293 60.7614 127.516 60.3227 127.374 59.911C127.233 59.506 126.794 59.2833 126.382 59.425C124.054 60.2214 118.533 59.1821 116.549 57.569C116.515 57.542 116.481 57.5352 116.447 57.515C116.879 57.3328 117.304 57.1438 117.73 56.9481C118.121 56.7658 118.29 56.3001 118.108 55.9154C117.925 55.524 117.466 55.3552 117.075 55.5375C114.989 56.5026 113.032 57.2788 110.117 57.0223C107.613 56.7996 106.04 55.8817 104.022 54.2551C103.684 53.9851 103.199 54.0391 102.929 54.3698C102.659 54.7073 102.713 55.1933 103.05 55.4632C105.257 57.2383 107.093 58.3114 109.982 58.5679C110.407 58.6084 110.818 58.6219 111.217 58.6219C112.782 58.6219 114.105 58.3384 115.327 57.9267C115.232 58.2237 115.313 58.5611 115.577 58.7704C117.392 60.2417 121.239 61.2473 124.249 61.2473C124.337 61.2473 124.425 61.2473 124.513 61.2406C124.357 61.3891 124.263 61.5915 124.27 61.821C124.303 63.1911 124.58 64.7772 125.12 66.667C125.147 66.7682 125.201 66.8695 125.269 66.9504C125.782 67.5646 125.984 67.8548 126.058 68.4825C126.132 69.0697 126.072 72.8695 126.018 75.1305C126.018 75.387 126.132 75.63 126.342 75.7785C126.551 75.9269 126.821 75.9674 127.057 75.8865L128.38 75.4208C128.643 75.3263 128.832 75.1035 128.886 74.8336C129.318 72.5591 130.277 71.243 130.783 71.0675C130.837 71.0472 130.877 71.0337 130.972 71.1215C131.66 71.7289 130.972 74.6851 130.708 75.7987L130.621 76.1632C130.398 77.1283 130.277 78.2082 130.155 79.2611C130.013 80.5164 129.865 81.819 129.575 82.3725C129.203 83.1014 128.596 83.6346 128.043 83.7426C127.806 83.7831 127.59 83.7426 127.381 83.6278C127.489 82.9057 127.53 82.3455 127.53 81.5491C127.53 81.1171 127.179 80.7662 126.753 80.7662C126.328 80.7662 125.977 81.1171 125.977 81.5491C125.977 82.8044 125.883 83.3106 125.478 85.4569L125.458 85.5514C125.356 86.0846 125.275 86.6448 125.188 87.2319C124.911 89.088 124.621 91.0115 123.73 92.6988C123.507 93.124 123.338 93.5087 123.19 93.8732C122.873 93.8125 122.542 93.9474 122.373 94.2377C120.922 96.7214 117.46 99.6438 115.381 100.137C113.66 100.541 109.577 100.609 107.444 100.103C106.438 99.8665 101.255 98.3817 97.6506 92.6786C96.7665 90.9913 96.4763 89.0812 96.2063 87.2319C96.1186 86.6515 96.0376 86.0846 95.9363 85.5581C95.5381 83.4186 95.4976 82.6694 95.4571 81.5288C95.4436 81.0969 95.0792 80.7324 94.654 80.7729C94.222 80.7864 93.8846 81.1441 93.8981 81.5761C93.9183 82.1633 93.9385 82.6627 94.006 83.2971C93.7766 83.5199 93.5201 83.6076 93.2299 83.5671C92.7034 83.4929 92.15 83.0204 91.8125 82.3725C91.5291 81.819 91.3806 80.5164 91.2321 79.2611C91.1106 78.2149 90.9891 77.1283 90.7664 76.1632L90.6854 75.7987C90.4222 74.6851 89.7338 71.7289 90.4222 71.1215C90.5167 71.0405 90.5504 71.0472 90.6112 71.0675C91.1174 71.243 92.0758 72.5591 92.5077 74.8336C92.5617 75.1035 92.7507 75.333 93.0139 75.4208L94.3368 75.8865C94.5797 75.9674 94.8497 75.9337 95.0522 75.7785C95.2614 75.63 95.3761 75.3803 95.3694 75.1238C95.3154 73.3352 95.2547 70.2778 95.3289 69.6974C95.4774 68.4893 95.8216 67.3082 96.1186 66.9504C96.1861 66.8695 96.24 66.7682 96.267 66.667C96.807 64.7704 97.0905 63.1844 97.1174 61.821C97.1242 61.4431 96.861 61.1393 96.51 61.0583C98.4943 60.2687 100.708 58.4261 102.179 56.2259C102.416 55.8682 102.321 55.3822 101.963 55.146C101.606 54.903 101.12 55.0043 100.884 55.362C99.0815 58.0684 96.2805 59.83 94.7215 59.9177C94.2895 59.9447 93.9655 60.3092 93.9858 60.7411C94.006 61.1596 94.3503 61.4768 94.762 61.4768C94.7755 61.4768 94.789 61.4768 94.8025 61.4768C95.0994 61.4633 95.4166 61.4026 95.7406 61.3216C95.6326 61.4498 95.5584 61.6118 95.5516 61.794C95.5246 62.9954 95.2749 64.406 94.7957 66.1135C94.114 67.0787 93.8373 68.9482 93.7631 69.5219C93.6956 70.0821 93.7158 71.9921 93.7496 73.45C93.3244 71.9719 92.582 70.4601 91.5358 69.8189C91.5426 69.7581 91.5561 69.6974 91.5493 69.6299C91.5291 69.4612 91.5021 69.2924 91.4751 69.1035C91.3198 68.0438 91.1039 66.5995 91.3333 63.2384C91.6236 59.0201 92.8114 55.5645 94.762 53.263C96.5505 51.1504 99.2367 49.6791 100.87 49.9153C101.302 49.9761 101.693 49.6791 101.754 49.2539C101.815 48.8287 101.518 48.4305 101.093 48.3698C98.9127 48.0593 95.7473 49.6926 93.5741 52.2506C91.4076 54.8085 90.0915 58.5679 89.7743 63.1236C89.5313 66.6535 89.7743 68.2598 89.9227 69.3262C89.9362 69.4274 89.9498 69.5152 89.9632 69.6096C89.7473 69.6839 89.5448 69.7919 89.3558 69.9606C88.0802 71.0945 88.5257 73.5377 89.1398 76.1564L89.2208 76.5141C89.4233 77.3915 89.538 78.4309 89.6528 79.4366C89.8283 80.9619 89.9767 82.278 90.3952 83.0879C90.9621 84.188 91.9475 84.9642 92.9734 85.1127C93.0949 85.1329 93.2164 85.1397 93.3311 85.1397C93.6348 85.1397 93.9318 85.0722 94.2085 84.9642C94.2558 85.2342 94.303 85.5176 94.3638 85.8416C94.4582 86.3545 94.5392 86.9012 94.627 87.4614C94.9104 89.358 95.2277 91.5042 96.2468 93.4278C97.3537 95.5268 97.2727 96.6202 97.1445 98.2737L97.1309 98.4289C97.0905 98.9284 97.0635 99.3806 97.0365 99.799C96.9757 100.771 96.9217 101.561 96.7732 102.485C94.4447 104.044 91.6573 106.488 90.132 108.121C86.2512 109.552 81.3917 111.57 78.1656 112.92C76.5997 113.568 75.3646 114.087 74.7639 114.317C73.0429 114.971 70.5119 115.754 69.2296 116.112C67.8055 116.517 65.9562 117.232 65.2542 118.353C65.0248 118.717 65.1395 119.196 65.504 119.426C65.6322 119.507 65.7739 119.547 65.9157 119.547C66.1721 119.547 66.4286 119.419 66.5771 119.183C66.9011 118.663 68.0822 118.063 69.6548 117.617C70.9641 117.246 73.5491 116.449 75.3174 115.775C75.9383 115.538 77.1869 115.019 78.7595 114.364C81.358 113.284 85.0025 111.765 88.3434 110.47C87.817 111.03 87.0476 111.806 86.1499 112.704C82.7955 116.058 79.9744 118.96 79.3669 120.479C79.2252 120.83 79.3602 121.235 79.6841 121.43C80.521 121.943 82.3568 122.159 85.0565 122.423C85.421 122.456 85.799 122.497 86.1634 122.531C83.7742 123.374 80.7978 124.393 79.7381 124.744C79.4142 124.852 79.1982 125.163 79.2049 125.5C79.4209 134.274 85.2995 149.831 88.9509 157.579C92.6495 165.422 99.7159 178.617 105.534 187.641C105.682 187.87 105.932 187.998 106.188 187.998C106.33 187.998 106.479 187.958 106.607 187.877C106.971 187.641 107.073 187.161 106.836 186.797C101.052 177.834 94.0263 164.713 90.3547 156.918C86.5819 148.907 81.2162 134.24 80.7843 126.04C82.8563 125.338 87.736 123.658 89.4571 122.989C89.754 122.875 89.9497 122.591 89.9565 122.274C89.9565 121.957 89.7743 121.667 89.484 121.545C88.7079 121.214 87.0881 121.052 85.205 120.87C83.8957 120.742 82.2151 120.573 81.2162 120.344C82.3433 118.71 85.2388 115.815 87.25 113.804C88.3097 112.744 89.2208 111.826 89.754 111.232C90.0442 110.908 90.0105 110.416 89.6933 110.132C89.6325 110.078 89.5718 110.051 89.5043 110.017C89.9632 109.842 90.4087 109.68 90.8406 109.518C90.9554 109.477 91.0634 109.403 91.1444 109.315C92.6292 107.696 95.5651 105.111 97.9071 103.599C97.9206 103.592 97.9274 103.579 97.9341 103.572C97.9881 103.531 98.0286 103.484 98.0758 103.437C98.0961 103.41 98.1231 103.39 98.1366 103.363C98.1703 103.309 98.1906 103.248 98.2108 103.187C98.2243 103.153 98.2378 103.126 98.2446 103.099C98.2446 103.099 98.2446 103.093 98.2446 103.086C98.4538 101.932 98.5145 100.994 98.582 99.907C98.609 99.4953 98.636 99.0566 98.6698 98.5572L98.6833 98.402C98.7305 97.808 98.771 97.2478 98.7575 96.6809C102.125 100.197 105.79 101.331 107.032 101.628C108.22 101.912 109.847 102.033 111.433 102.033C113.093 102.033 114.699 101.898 115.691 101.662C117.885 101.142 120.72 98.8609 122.542 96.6337C122.528 97.2208 122.569 97.7878 122.616 98.402L122.63 98.5504C122.67 99.0431 122.697 99.4818 122.717 99.8935C122.785 100.98 122.846 101.925 123.055 103.072C123.062 103.12 123.089 103.153 123.102 103.201C123.109 103.228 123.109 103.255 123.122 103.282C123.521 104.078 123.878 105.03 124.202 106.123C124.06 106.157 123.925 106.218 123.817 106.332C121.273 109.079 115.347 113.757 111.014 116.112C105.514 113.109 100.391 108.458 98.8992 106.332C98.6495 105.981 98.1636 105.894 97.8126 106.143C97.4617 106.393 97.3739 106.879 97.6236 107.23C99.2637 109.572 103.954 113.682 108.706 116.578C107.127 117.111 105.824 118.137 104.866 118.893L104.454 119.217C103.374 120.047 102.571 121.025 101.862 121.889C101.633 122.173 101.41 122.443 101.201 122.679C101.174 122.713 101.147 122.74 101.12 122.767C101.012 122.558 100.884 122.294 100.816 122.132C100.722 121.923 100.58 121.633 100.404 121.282C99.5134 119.453 97.6506 115.653 97.3132 113.014C97.2592 112.589 96.8677 112.285 96.4425 112.339C96.0173 112.393 95.7136 112.785 95.7676 113.21C96.1388 116.098 98.0084 119.912 99.0072 121.964C99.176 122.301 99.311 122.578 99.4054 122.78C99.8239 123.678 100.148 124.393 100.877 124.501C100.931 124.508 100.992 124.515 101.046 124.515C101.579 124.515 101.997 124.13 102.375 123.712C102.598 123.455 102.834 123.178 103.077 122.875C103.32 122.585 103.576 122.274 103.846 121.97C104.616 123.28 105.608 124.555 106.411 125.588C106.863 126.168 107.262 126.681 107.552 127.107C104.994 136.65 103.219 154.319 103.023 163.816C98.9195 150.202 95.0522 135.145 94.168 128.753C92.8384 119.149 93.9993 111.799 97.8396 105.617C98.0691 105.252 97.9544 104.773 97.5899 104.544C97.2254 104.321 96.7462 104.429 96.5168 104.793C92.4807 111.3 91.2456 118.98 92.6292 128.963C94.1613 140.018 103.934 174.77 109.381 186.925C109.509 187.215 109.793 187.384 110.09 187.384C110.197 187.384 110.305 187.364 110.407 187.317C110.798 187.141 110.974 186.682 110.798 186.284C108.908 182.066 106.431 174.864 103.961 166.873C104.312 166.792 104.575 166.495 104.569 166.117C104.467 157.492 106.35 137.332 109.151 127.174C109.212 126.965 109.178 126.742 109.064 126.56C108.733 126.02 108.227 125.379 107.646 124.63C106.796 123.536 105.831 122.294 105.102 121.019C105.061 120.951 105.007 120.904 104.953 120.85C105.109 120.715 105.257 120.573 105.426 120.445L105.858 120.108C107.154 119.088 108.922 117.691 110.96 117.766C113.046 117.995 114.591 119.19 115.61 119.973C115.867 120.175 116.096 120.344 116.285 120.472C116.515 120.627 116.738 120.836 116.947 121.073C116.218 122.335 115.28 123.556 114.45 124.636C113.876 125.379 113.383 126.02 113.052 126.553C112.944 126.729 112.911 126.945 112.958 127.154C115.489 137.345 117.608 157.431 117.507 166.117C117.507 166.239 117.534 166.347 117.588 166.455C116.474 170.572 115.367 174.635 114.342 178.381C112.816 183.969 111.493 188.801 110.71 191.866C109.975 194.721 110.015 203.326 110.042 206.437C110.042 207.024 110.056 207.591 110.056 208.125C110.056 208.61 110.056 209.076 110.069 209.535C110.076 209.96 110.427 210.298 110.845 210.298C110.845 210.298 110.859 210.298 110.866 210.298C111.298 210.291 111.635 209.933 111.628 209.501C111.622 209.056 111.615 208.597 111.615 208.125C111.615 207.591 111.615 207.018 111.601 206.424C111.574 203.4 111.541 194.909 112.222 192.25C113.005 189.193 114.328 184.374 115.853 178.786C120.321 162.425 126.443 140.025 127.152 133.134C128.42 120.843 127.374 108.364 124.607 102.688C124.607 102.681 124.607 102.674 124.607 102.661C126.551 103.66 128.704 105.185 130.135 106.616C130.209 106.69 130.297 106.751 130.398 106.791C130.688 106.906 130.978 107.014 131.269 107.129C130.931 107.392 130.864 107.885 131.127 108.222L131.188 108.303C135.473 113.851 138.214 117.583 139.348 119.446C137.309 119.986 134.387 120.56 132.504 120.836C132.133 120.89 131.856 121.201 131.836 121.572C131.822 121.943 132.072 122.281 132.436 122.362C134.387 122.827 137.991 123.536 139.921 123.847C139.725 128.821 138.403 135.131 135.892 143.116C135.764 143.527 135.993 143.966 136.398 144.094C136.479 144.121 136.553 144.128 136.634 144.128C136.965 144.128 137.275 143.912 137.377 143.581C140.049 135.084 141.399 128.416 141.501 123.192C141.507 122.794 141.217 122.456 140.826 122.402C139.982 122.288 138.342 121.997 136.668 121.667C138.173 121.356 139.665 120.998 140.745 120.668C140.961 120.6 141.136 120.445 141.231 120.236C141.318 120.027 141.318 119.79 141.224 119.588C140.191 117.415 134.758 110.355 132.659 107.642C136.344 108.992 139.786 109.984 142.202 110.679L144.227 111.266C146.475 111.921 148.796 112.596 150.612 113.028C151.132 113.149 151.638 113.25 152.117 113.352L152.09 113.392ZM116.562 118.778C115.793 118.184 114.645 117.307 113.127 116.746C117.223 114.276 122.164 110.348 124.661 107.763C124.972 109.093 125.242 110.578 125.458 112.17C125.086 112.211 124.789 112.494 124.756 112.879C124.654 114.249 124.58 114.492 124.06 116.051C123.595 117.455 121.341 120.526 120.51 121.592C120.207 121.984 119.903 122.153 119.727 122.153C119.694 122.153 119.64 122.153 119.552 122.038C119.457 121.903 119.356 121.754 119.248 121.592C118.742 120.843 118.04 119.811 117.142 119.217C116.98 119.109 116.785 118.953 116.555 118.778H116.562ZM125.599 133.012C125.127 137.581 122.191 149.251 118.965 161.366C118.506 151.498 116.684 135.914 114.558 127.14C114.848 126.715 115.239 126.202 115.691 125.622C116.393 124.711 117.237 123.604 117.959 122.45C117.959 122.45 117.959 122.456 117.966 122.463C118.081 122.632 118.189 122.794 118.29 122.935C118.634 123.421 119.133 123.691 119.694 123.705C120.443 123.718 121.158 123.293 121.745 122.544C121.874 122.375 124.897 118.474 125.545 116.537C125.66 116.186 125.755 115.903 125.836 115.646C126.274 120.924 126.22 127.039 125.606 133.012H125.599Z" fill="#767E83"/>
<path id="Vector_8" d="M158.893 115.586C159.339 115.788 160.493 117.894 161.033 121.012C161.397 123.118 161.431 128.632 161.458 132.661C161.471 134.382 161.478 135.867 161.512 136.9C161.606 140.106 162.052 146.18 162.889 149.784C163.273 151.445 163.78 153.517 164.347 155.784C164.434 156.135 164.751 156.371 165.102 156.371C165.163 156.371 165.231 156.365 165.291 156.344C165.71 156.243 165.966 155.818 165.858 155.4C165.291 153.139 164.792 151.073 164.407 149.42C163.678 146.302 163.186 140.733 163.071 136.846C163.044 135.834 163.03 134.355 163.017 132.648C162.99 128.342 162.956 122.983 162.571 120.749C162.261 118.96 161.039 114.263 159.123 114.054C158.697 114.006 158.279 114.31 158.232 114.735C158.184 115.161 158.468 115.545 158.893 115.592V115.586Z" fill="#767E83"/>
<path id="Vector_9" d="M160.061 188.08C160.149 188.08 160.217 188.074 160.27 188.067C161.242 187.912 161.951 186.818 161.951 185.455V184.578C161.938 183.261 161.931 182.222 162.147 181.203C162.235 180.785 161.965 180.366 161.546 180.278C161.121 180.184 160.709 180.461 160.621 180.879C160.372 182.06 160.378 183.228 160.392 184.584V185.448C160.392 186.015 160.196 186.373 160.068 186.488C160.014 186.427 159.913 186.278 159.818 185.981C159.278 184.294 159.535 181.554 160.426 179.455C161.83 176.161 165.197 172.375 167.654 170.613C168.005 170.364 168.086 169.878 167.836 169.527C167.587 169.176 167.101 169.095 166.75 169.351C163.706 171.538 160.372 175.621 158.995 178.847C157.956 181.291 157.686 184.422 158.34 186.461C158.792 187.878 159.629 188.08 160.075 188.08H160.061Z" fill="#767E83"/>
<path id="Vector_10" d="M225.596 168.966C224.03 168.015 222.187 167.434 219.953 167.191C218.9 166.786 215.458 165.517 213.575 164.89C213.825 164.66 214.034 164.465 214.156 164.336C214.709 163.783 214.972 163.25 214.945 162.716C214.925 162.258 214.696 161.853 214.264 161.502C213.44 160.827 211.631 160.739 210.255 161.677C209.856 161.947 209.546 162.17 209.283 162.372C208.527 161.603 207.359 160.847 206.407 160.55C205.982 160.415 205.476 160.294 204.99 160.172C204.97 160.172 204.95 160.159 204.929 160.159C205.388 160.226 205.82 160.314 206.117 160.368C206.367 160.415 206.59 160.462 206.752 160.489C207.022 160.53 207.413 160.55 207.879 160.55C209.343 160.55 211.55 160.374 212.907 160.233C213.94 160.125 214.662 159.551 214.885 158.66C215.148 157.614 214.621 156.365 213.636 155.697C212.131 154.671 209.559 154.381 207.832 154.428L207.217 154.449C205.584 154.503 203.559 154.57 202.257 154.435C201.656 154.374 201.109 154.246 200.529 154.118C199.699 153.929 198.842 153.733 197.748 153.699C196.736 153.672 195.103 153.72 193.388 153.834C193.017 153.861 192.734 154.179 192.761 154.55C192.787 154.921 193.098 155.198 193.476 155.178C195.123 155.07 196.749 155.016 197.708 155.043C198.673 155.07 199.429 155.245 200.225 155.427C200.819 155.562 201.433 155.704 202.115 155.772C203.512 155.913 205.591 155.846 207.258 155.792L207.872 155.772C209.532 155.711 211.719 156.021 212.88 156.811C213.386 157.155 213.703 157.837 213.582 158.329C213.555 158.451 213.46 158.815 212.772 158.89C210.619 159.119 207.791 159.288 206.968 159.16C206.812 159.133 206.617 159.092 206.387 159.052C205.112 158.795 203.269 158.431 202.088 158.998C202.027 158.95 201.96 158.91 201.892 158.863C201.359 158.485 200.752 158.066 200.036 157.688C199.651 157.486 199.186 157.634 198.983 158.012C198.781 158.39 198.929 158.863 199.307 159.065C199.935 159.396 200.502 159.794 201.001 160.138C201.001 160.138 201.008 160.138 201.015 160.152C200.799 160.28 200.59 160.415 200.394 160.543C199.233 161.319 198.896 162.129 198.497 163.722C198.187 164.006 197.66 164.505 196.918 165.571H196.911C196.358 165.571 195.696 165.706 194.988 165.976C194.583 166.125 194.38 166.577 194.529 166.982C194.677 167.387 195.129 167.589 195.534 167.441C196.324 167.144 196.884 167.103 197.141 167.157C197.458 167.225 197.782 167.097 197.964 166.827C198.754 165.619 199.294 165.119 199.584 164.856C199.651 164.795 199.705 164.741 199.753 164.694C199.854 164.593 199.928 164.465 199.962 164.33C200.38 162.602 200.596 162.298 201.265 161.853C201.474 161.711 201.872 161.448 202.122 161.34C202.135 161.407 202.149 161.495 202.155 161.616C202.236 162.905 202.047 163.952 201.919 164.64C201.892 164.802 201.865 164.944 201.845 165.072C201.818 165.241 201.771 165.315 201.609 165.544C201.44 165.781 201.211 166.105 200.995 166.645C200.637 167.569 200.536 167.812 200.239 168.413C200.05 168.791 199.699 169.02 199.199 169.095C198.794 169.155 198.403 169.317 197.951 169.513C197.39 169.756 196.689 170.053 195.69 170.255C193.982 170.6 192.16 170.235 190.958 169.992C190.392 169.877 190.081 169.722 189.75 169.56C189.393 169.385 188.988 169.189 188.353 169.088C186.949 168.879 185.721 169.817 184.823 170.498C184.02 171.113 182.313 172.543 181.3 173.461C179.977 172.084 178.83 169.864 179.039 166.334C179.039 166.273 179.026 166.213 179.012 166.152C179.073 165.774 179.141 165.423 179.222 165.133C179.775 163.067 181.361 161.488 182.502 160.476C183.433 159.652 184.553 158.741 185.458 158.006C185.87 157.675 186.234 157.371 186.477 157.169C187.678 156.325 189.271 155.738 190.958 155.522C191.384 155.468 191.687 155.076 191.633 154.651C191.579 154.226 191.188 153.922 190.763 153.976C188.826 154.226 186.99 154.908 185.532 155.933C185.242 156.176 184.877 156.467 184.479 156.797C184.155 157.061 183.798 157.358 183.433 157.655C183.433 157.655 183.433 157.655 183.426 157.655C181.86 157.412 179.471 159.227 176.934 161.286C176.313 161.792 175.03 162.642 173.674 163.54C170.893 165.382 169.111 166.591 168.551 167.346C168.551 167.326 168.551 167.306 168.544 167.279C168.429 166.037 168.301 164.633 167.093 163.688C166.533 163.25 166.229 162.568 166.445 160.503C166.492 160.078 166.182 159.693 165.75 159.646C165.318 159.598 164.94 159.909 164.893 160.341C164.711 162.075 164.731 163.83 166.135 164.923C166.81 165.45 166.897 166.361 166.992 167.421C167.08 168.42 167.512 169.081 168.159 169.23C168.234 169.25 168.321 169.257 168.423 169.257C168.794 169.257 169.32 169.081 169.8 168.278C170.13 167.765 172.891 165.936 174.538 164.842C175.928 163.918 177.237 163.047 177.946 162.48C178.364 162.143 179.033 161.603 179.755 161.056C178.904 162.055 178.115 163.277 177.723 164.741C177.089 167.097 176.92 172.098 178.067 174.899C179.188 177.619 181.037 179.259 183.568 179.779C183.703 179.806 183.831 179.826 183.966 179.839C181.206 180.993 177.723 182.89 174.821 184.469C173.674 185.097 172.621 185.671 171.75 186.123C170.717 186.663 169.854 187.149 169.084 187.581C167.235 188.627 166.013 189.315 164.245 189.693C161.167 190.341 158.731 190.22 156.591 189.315C154.195 188.303 151.462 185.846 149.957 183.335C149.788 183.052 149.471 182.924 149.167 182.971C149.268 181.709 149.397 180.588 149.565 179.677C150.247 175.932 151.388 166.651 152.4 158.464C153.068 153.025 153.703 147.882 154.148 144.79C154.209 144.365 153.912 143.967 153.487 143.906C153.055 143.846 152.663 144.143 152.602 144.568C152.157 147.672 151.523 152.822 150.854 158.269C149.849 166.435 148.708 175.689 148.033 179.394C147.028 184.935 147.237 201.801 148.074 209.671C148.114 210.069 148.452 210.366 148.85 210.366C148.877 210.366 148.904 210.366 148.931 210.366C149.356 210.319 149.667 209.934 149.626 209.509C149.025 203.813 148.749 190.814 149.059 184.78C150.78 187.318 153.534 189.713 155.997 190.753C157.442 191.36 158.974 191.664 160.688 191.664C161.889 191.664 163.179 191.516 164.582 191.219C166.587 190.8 167.964 190.017 169.867 188.944C170.623 188.519 171.473 188.033 172.479 187.513C173.356 187.054 174.423 186.474 175.577 185.846C179.026 183.963 183.312 181.628 186.079 180.703C186.49 180.568 186.706 180.123 186.571 179.718C186.544 179.637 186.497 179.576 186.457 179.509C187.253 179.124 187.84 178.503 188.394 177.929C189.723 176.539 190.742 172.665 190.999 171.605C192.315 171.862 194.158 172.172 196.014 171.801C197.168 171.571 197.984 171.221 198.585 170.964C198.936 170.816 199.233 170.687 199.436 170.654C199.537 170.64 199.618 170.606 199.719 170.579C199.753 170.87 199.962 171.126 200.266 171.173L200.461 171.207C201.258 171.342 202.169 171.497 203.019 171.497C203.586 171.497 204.126 171.43 204.578 171.241C204.713 171.187 204.862 171.119 205.017 171.038C205.105 171.173 205.24 171.281 205.409 171.322C207.123 171.76 208.108 171.97 209.364 172.226L209.674 172.294C210.848 172.537 211.982 172.624 213.076 172.712L213.69 172.759C214.203 172.8 214.939 172.847 215.735 172.894C216.869 172.962 218.158 173.036 219.049 173.131C220.243 173.252 220.669 173.333 221.128 173.414L221.492 173.475C221.755 173.522 222.12 173.563 222.498 173.563C222.923 173.563 223.368 173.502 223.733 173.326C223.827 173.401 223.935 173.461 224.057 173.488C224.462 173.569 224.819 173.603 225.13 173.603C226.574 173.603 227.101 172.827 227.276 172.098C227.452 171.369 227.155 169.938 225.629 169.014L225.596 168.966ZM185.748 171.72C186.571 171.086 187.314 170.566 187.982 170.606C187.651 172.273 186.929 173.967 186.436 174.548C185.957 175.108 184.763 175.702 183.447 175.041C183.15 174.892 182.819 174.696 182.475 174.46C183.46 173.576 185.019 172.273 185.741 171.72H185.748ZM179.491 174.271C179.309 173.826 179.161 173.299 179.053 172.739C180.166 174.609 181.712 175.675 182.853 176.249C183.177 176.411 183.501 176.519 183.818 176.593C183.285 176.971 182.778 177.335 182.394 177.605L182.326 177.653C181.105 176.991 180.153 175.864 179.491 174.271ZM187.233 176.809C186.166 177.929 185.485 178.543 183.858 178.213C184.891 177.477 186.241 176.505 186.956 175.932C186.997 175.898 187.024 175.857 187.051 175.817C187.213 175.689 187.354 175.554 187.462 175.425C188.151 174.622 188.893 172.793 189.264 171.052C189.325 171.079 189.393 171.106 189.46 171.14C189.015 172.989 188.09 175.911 187.226 176.816L187.233 176.809ZM212.502 166.179C213.42 166.462 215.236 167.11 216.815 167.691C215.782 167.441 214.878 167.407 214.135 167.38C213.845 167.373 213.568 167.367 213.312 167.346C212.57 167.07 212.009 166.888 211.483 166.746C211.753 166.516 212.023 166.28 212.279 166.057C212.347 166.111 212.421 166.159 212.509 166.186L212.502 166.179ZM205.935 162.028C206.623 162.244 207.568 162.858 208.142 163.432C208.115 163.466 208.088 163.493 208.061 163.526C207.663 163.722 207.332 163.877 207.042 164.012C206.192 164.411 205.631 164.667 205.125 165.234H205.091C204.457 165.234 203.89 165.234 203.377 165.295C203.397 165.18 203.418 165.052 203.445 164.903C203.58 164.141 203.789 162.986 203.701 161.502C203.701 161.488 203.701 161.468 203.701 161.448C204.005 161.529 204.315 161.61 204.626 161.684C205.112 161.799 205.571 161.913 205.942 162.035L205.935 162.028ZM204.018 169.952C203.323 170.242 202.027 170.066 200.974 169.891C201.231 169.661 201.46 169.405 201.616 169.088C201.946 168.426 202.061 168.143 202.432 167.184C202.452 167.124 202.479 167.076 202.5 167.029C202.594 167.002 202.689 166.969 202.77 166.901C203.154 166.577 204.005 166.584 205.078 166.584H205.436C205.645 166.584 205.847 166.483 205.976 166.314C206.34 165.821 206.684 165.666 207.602 165.241C207.933 165.085 208.318 164.91 208.776 164.681C208.857 164.64 208.932 164.586 208.986 164.519C209.58 163.83 209.897 163.553 211.004 162.797C211.955 162.15 213.083 162.298 213.4 162.554C213.514 162.649 213.582 162.737 213.589 162.791C213.589 162.811 213.589 163 213.197 163.391C212.401 164.188 208.945 167.218 207.973 167.805C206.698 168.568 204.896 169.594 204.018 169.965V169.952ZM223.132 172.057C223.004 172.152 222.457 172.226 221.681 172.098L221.33 172.037C220.871 171.956 220.392 171.868 219.15 171.74C218.232 171.646 216.923 171.571 215.775 171.504C214.993 171.457 214.27 171.416 213.764 171.376L213.143 171.329C212.09 171.248 210.997 171.16 209.91 170.937L209.6 170.87C208.587 170.66 207.737 170.485 206.536 170.188C207.494 169.655 208.399 169.115 208.668 168.953C209.006 168.75 209.566 168.325 210.194 167.812C210.207 167.812 210.214 167.826 210.221 167.826C211.037 168.008 211.739 168.197 212.914 168.642C212.968 168.663 213.029 168.676 213.089 168.683C213.4 168.71 213.737 168.723 214.088 168.73C214.972 168.757 215.971 168.784 217.139 169.176C217.2 169.196 217.267 169.209 217.328 169.209H217.544C218.441 169.25 219.461 169.284 220.297 169.547C221.566 169.945 222.687 170.573 222.963 171.032C223.26 171.524 223.193 171.983 223.125 172.064L223.132 172.057ZM225.731 171.686C225.697 171.821 225.616 172.125 224.529 171.943C224.57 171.43 224.441 170.849 224.131 170.33C223.983 170.08 223.76 169.857 223.51 169.655C223.962 169.844 224.387 170.053 224.792 170.296C225.69 170.843 225.764 171.544 225.737 171.686H225.731Z" fill="#767E83"/>
<path id="Vector_11" d="M188.212 162.245C188.26 162.582 188.55 162.818 188.881 162.818C188.914 162.818 188.948 162.818 188.982 162.812C191.884 162.373 195.218 160.949 196.899 159.423C197.175 159.174 197.196 158.749 196.946 158.472C196.696 158.195 196.271 158.175 195.994 158.425C194.516 159.768 191.418 161.084 188.786 161.475C188.415 161.529 188.165 161.873 188.219 162.245H188.212Z" fill="#767E83"/>
<path id="Vector_12" d="M135.345 147.308C134.94 147.167 134.495 147.389 134.353 147.794C133.368 150.67 132.382 153.369 131.519 155.752C131.154 156.757 130.81 157.702 130.493 158.573C127.368 167.273 123.824 174.069 118.783 183.437C117.777 185.3 116.407 187.48 115.192 189.403C114.598 190.348 114.051 191.212 113.633 191.907C113.41 192.279 113.532 192.758 113.903 192.974C114.031 193.048 114.166 193.089 114.301 193.089C114.564 193.089 114.821 192.954 114.969 192.711C115.381 192.022 115.921 191.172 116.508 190.24C117.737 188.297 119.127 186.09 120.153 184.18C125.228 174.751 128.799 167.907 131.957 159.106C132.268 158.235 132.612 157.291 132.976 156.292C133.847 153.902 134.832 151.196 135.825 148.307C135.966 147.902 135.744 147.457 135.339 147.315L135.345 147.308Z" fill="#767E83"/>
<path id="Vector_13" d="M75.2231 179.906C74.7912 179.94 74.474 180.311 74.5077 180.743C74.8924 185.859 75.3716 200.531 74.2445 209.737C74.1905 210.163 74.4942 210.554 74.9262 210.608C74.9599 210.608 74.9869 210.608 75.0207 210.608C75.4121 210.608 75.7428 210.318 75.7901 209.926C76.9307 200.592 76.4515 185.798 76.06 180.621C76.0263 180.189 75.6483 179.865 75.2231 179.906Z" fill="#767E83"/>
<path id="Vector_14" d="M72.5507 162.737C72.9421 166.449 73.3403 170.283 73.8128 173.84C73.9545 174.913 74.0895 176.074 74.211 177.295C74.2515 177.7 74.5889 177.997 74.9871 177.997C75.0141 177.997 75.0411 177.997 75.0681 177.997C75.4933 177.957 75.8105 177.572 75.7633 177.147C75.6418 175.912 75.5068 174.737 75.3583 173.644C74.8926 170.107 74.4877 166.28 74.103 162.582C73.4686 156.501 72.8611 150.757 72.085 147.551C71.8892 146.741 71.6598 145.803 71.4033 144.777C69.8982 138.717 67.6305 129.551 67.6305 125.34C67.6305 124.908 67.2795 124.557 66.8543 124.557C66.4291 124.557 66.0781 124.908 66.0781 125.34C66.0781 129.747 68.3796 139.02 69.8982 145.155C70.1547 146.181 70.3841 147.119 70.5799 147.923C71.329 151.034 71.9297 156.724 72.5574 162.751L72.5507 162.737Z" fill="#767E83"/>
<path id="Vector_15" d="M155.154 118.084L155.059 119.454C154.708 124.692 154.344 130.111 153.413 134.971C153.332 135.396 153.608 135.801 154.033 135.882C154.081 135.889 154.135 135.895 154.182 135.895C154.546 135.895 154.877 135.639 154.945 135.261C155.896 130.3 156.261 124.84 156.618 119.555L156.713 118.185C156.74 117.753 156.416 117.382 155.991 117.355C155.566 117.328 155.188 117.652 155.161 118.077L155.154 118.084Z" fill="#767E83"/>
<path id="Vector_16" d="M103.907 48.4313C105.095 47.3042 109.638 46.5753 112.162 46.852C114.652 47.1287 118.358 48.0939 120.126 48.789C122.097 49.5652 123.757 50.5911 125.046 51.8397C125.195 51.9882 125.39 52.0557 125.586 52.0557C125.782 52.0557 125.991 51.9747 126.146 51.8194C126.443 51.509 126.436 51.0163 126.126 50.7193C124.688 49.329 122.859 48.1951 120.693 47.3379C118.796 46.5955 114.983 45.5966 112.331 45.3064C109.665 45.0095 104.501 45.7181 102.834 47.3042C102.524 47.6012 102.51 48.0939 102.807 48.4043C103.104 48.7148 103.597 48.7283 103.907 48.4313Z" fill="#767E83"/>
<path id="Vector_17" d="M118.222 76.7719C119.053 76.7719 119.727 76.098 119.727 75.2668C119.727 74.4356 119.053 73.7617 118.222 73.7617C117.391 73.7617 116.717 74.4356 116.717 75.2668C116.717 76.098 117.391 76.7719 118.222 76.7719Z" fill="#767E83"/>
<path id="Vector_18" d="M103.516 73.8691C102.686 73.8691 102.011 74.5441 102.011 75.3742C102.011 76.2044 102.686 76.8793 103.516 76.8793C104.346 76.8793 105.021 76.2044 105.021 75.3742C105.021 74.5441 104.346 73.8691 103.516 73.8691Z" fill="#767E83"/>
<path id="Vector_19" d="M112.593 75.3684C112.316 75.3279 112.06 75.5304 112.033 75.8071C111.803 77.6969 111.878 80.7341 112.195 82.7116C112.235 82.9614 112.451 83.1368 112.694 83.1368C112.721 83.1368 112.748 83.1368 112.775 83.1368C113.052 83.0896 113.241 82.8331 113.194 82.5564C112.89 80.6869 112.823 77.7172 113.039 75.9354C113.072 75.6587 112.877 75.4089 112.6 75.3752L112.593 75.3684Z" fill="#767E83"/>
<path id="Vector_20" d="M123.332 71.6353C123.757 71.5611 124.041 71.1561 123.96 70.7309C123.886 70.3057 123.481 70.0223 123.055 70.1032C121.935 70.299 119.924 69.9143 118.52 69.4216C117.366 69.0166 116.65 68.4362 115.962 67.3361C115.732 66.9716 115.253 66.8636 114.889 67.0931C114.524 67.3226 114.416 67.8018 114.646 68.1662C115.523 69.5566 116.529 70.3732 118.014 70.8929C118.992 71.2304 120.821 71.7163 122.367 71.7163C122.711 71.7163 123.035 71.6893 123.339 71.6353H123.332Z" fill="#767E83"/>
<path id="Vector_21" d="M106.519 67.7398C105.749 68.7792 104.987 69.3056 103.806 69.6228C102.368 70.0008 100.33 70.237 99.2297 69.9535C98.8113 69.8456 98.3861 70.0953 98.2781 70.5137C98.1701 70.9322 98.4198 71.3574 98.8383 71.4654C99.3242 71.5936 99.8844 71.6409 100.472 71.6409C101.848 71.6409 103.347 71.3574 104.204 71.1347C105.722 70.7297 106.789 70.0008 107.774 68.6779C108.031 68.3337 107.956 67.841 107.612 67.5846C107.268 67.3281 106.775 67.4023 106.519 67.7465V67.7398Z" fill="#767E83"/>
<path id="Vector_22" d="M104.832 90.8177C104.832 91.2969 104.987 91.6816 105.291 91.9786C106.02 92.6805 107.377 92.6265 109.253 92.5522C110.488 92.505 111.979 92.505 113.215 92.5522C113.768 92.5725 114.274 92.5927 114.733 92.5927C115.833 92.5927 116.663 92.4713 117.176 91.9786C117.48 91.6816 117.642 91.2969 117.642 90.8177C117.642 88.6444 114.591 86.6602 111.237 86.6602C107.883 86.6602 104.832 88.6377 104.832 90.8177ZM116.427 90.8177C116.427 91.0134 116.367 91.0742 116.34 91.1012C115.982 91.4454 114.598 91.3914 113.269 91.3306C112.634 91.3036 111.952 91.2766 111.237 91.2766C110.522 91.2766 109.84 91.3036 109.206 91.3306C107.869 91.3846 106.492 91.4386 106.135 91.1012C106.108 91.0742 106.047 91.0134 106.047 90.8177C106.047 89.6366 108.227 87.875 111.237 87.875C114.247 87.875 116.427 89.6298 116.427 90.8177Z" fill="#767E83"/>
<path id="Vector_23" d="M145.503 71.5405C145.179 71.5405 144.875 71.3313 144.774 71.0006C143.323 66.3099 146.643 61.5719 150.821 59.3784C151.192 57.5628 152.164 55.7675 153.642 54.222C156.464 51.286 160.729 49.8822 164.785 50.2264C165.204 49.241 165.757 48.2826 166.439 47.385C170.988 41.4119 180.471 39.8123 186.727 43.9563C187.078 44.1926 187.173 44.665 186.943 45.016C186.707 45.3669 186.235 45.4614 185.884 45.232C180.261 41.5064 171.744 42.944 167.661 48.3096C167.141 48.9913 166.709 49.7067 166.358 50.4491C167.755 50.7326 169.105 51.232 170.327 51.9677C172.081 53.0138 173.276 54.2962 173.877 55.7743C174.653 57.6708 174.295 59.8036 172.986 61.0792C171.703 62.3278 169.571 62.6383 167.789 61.8284C166.311 61.1534 165.076 59.7496 164.407 57.9813C163.679 56.0578 163.652 53.8642 164.252 51.718C160.756 51.5223 157.152 52.7709 154.736 55.2883C153.757 56.3075 153.035 57.4481 152.61 58.6157C154.405 58.0083 156.045 57.8733 157.503 58.2243C159.616 58.7372 161.249 60.3503 161.573 62.2468C161.802 63.5697 161.337 64.9533 160.297 66.0331C159.15 67.2278 157.496 67.8487 155.978 67.6597C153.21 67.3088 150.922 64.7373 150.659 61.6799C150.646 61.5381 150.639 61.3964 150.632 61.2547C147.44 63.3199 145.132 67.0658 146.212 70.5551C146.333 70.9601 146.11 71.3853 145.705 71.5135C145.631 71.5338 145.557 71.5473 145.483 71.5473L145.503 71.5405ZM152.212 60.4043C152.178 60.789 152.171 61.1669 152.205 61.5381C152.401 63.8531 154.155 65.8712 156.187 66.1344C157.233 66.2694 158.394 65.8239 159.211 64.9668C159.906 64.2378 160.23 63.3402 160.081 62.4965C159.865 61.2142 158.664 60.0668 157.159 59.7023C155.843 59.3851 154.304 59.5741 152.563 60.2558C152.441 60.303 152.326 60.3503 152.205 60.4043H152.212ZM165.805 51.8935C165.217 53.8035 165.217 55.7473 165.852 57.4346C166.378 58.8317 167.323 59.9251 168.437 60.4313C169.631 60.978 171.103 60.789 171.926 59.9791C172.777 59.1489 172.999 57.6506 172.466 56.348C171.872 54.8969 170.549 53.8777 169.544 53.2771C168.39 52.5886 167.121 52.1297 165.798 51.8867L165.805 51.8935Z" fill="#2D29FF"/>
<path id="Vector 230" d="M142.364 15.7752C140.864 15.7966 130.452 15.7987 131.821 18.7793C133.23 21.8445 135.871 24.4147 138.581 26.3453C140.414 27.6513 140.482 26.2525 140.889 24.3704C141.177 23.0401 143.43 14.2653 141.418 13.6056C137.971 12.4753 133.088 22.3031 133.351 24.8154C133.791 29.0198 141.407 28.7302 144.2 28.0699C147.15 27.372 149.819 25.1078 151.877 22.9796C152.716 22.1109 152.783 21.5368 152.544 19.1131C151.479 8.29544 141.754 16.0111 142.085 23.3412C142.223 26.3926 144.909 30.1474 148.316 28.5984C151.513 27.1452 153.601 21.9151 153.991 18.7237C154.756 12.4563 149.174 6.61746 144.088 3.89775C137.229 0.229997 126.755 0.267903 120.389 5.14947C108.32 14.404 127.287 30.0639 137.802 25.5386C141.057 24.1375 142.409 19.7998 141.14 16.5541C139.281 11.7992 132.081 17.3743 130.431 19.2522C127.398 22.7028 124.911 28.7876 128.901 32.5761C132.622 36.1102 140.604 37.2893 144.728 33.8C148.702 30.4376 146.916 23.6437 143.754 20.4483C139.794 16.4454 132.05 13.9958 126.536 15.5249C121.186 17.0086 116.84 22.0109 116.801 27.6805C116.745 35.7704 125.599 41.1741 132.795 41.8667C137.499 42.3194 141.923 41.163 146.147 39.1407C151.307 36.6698 158.657 32.1109 161.112 26.54C162.955 22.3551 161.661 12.286 157.829 9.26625C151.269 4.09555 139.867 6.94845 142.475 16.7766C144.3 23.6549 153.12 33.4373 158.886 24.7876" stroke="#2D29FF" stroke-width="1.5" stroke-linecap="round"/>
</g>
</svg>
