<svg width="226" height="177" viewBox="0 0 226 177" fill="none" xmlns="http://www.w3.org/2000/svg">
<g id="Group 2090">
<path id="Vector" d="M114.354 44.3657C114.741 38.8447 118.284 31.7611 123.019 27.8544C126.391 25.0725 132.036 23.9047 134.824 25.1927C138.084 23.6042 141.087 23.2779 144.948 24.2739C148.808 25.2699 153.175 27.4422 156.238 29.6575C159.386 31.9328 160.605 33.3667 162.329 36.329C164.053 39.2912 164.868 44.752 164.602 48.8219C164.336 52.8918 162.938 57.4596 162.26 59.1425C161.051 59.3314 159.283 61.0744 158.468 62.4654C157.954 63.3412 156.838 62.9977 157.044 62.1305C157.405 60.6537 158.417 56.3606 158.588 55.4161C158.76 54.4802 158.649 52.8145 158.142 52.1791C158.331 49.9209 158.554 47.4739 159.283 45.2243C154.891 44.3657 148.688 39.9352 148.465 36.9128C143.06 36.8527 136.206 33.5213 133.992 29.5373C131.058 31.8813 127.257 33.7359 123.989 33.8819C123.792 36.8356 122.247 39.6432 121.329 40.768C119.768 41.6267 118.352 44.6404 117.992 45.9198C117.632 47.1991 116.928 49.0709 116.645 49.878C116.396 50.5735 115.804 50.3331 115.83 49.6204C115.89 48.2037 115.607 45.3101 114.363 44.3657H114.354Z" fill="#2D29FF"/>
<path id="Vector_2" d="M121.089 104.959C117.486 105.388 114.732 105.912 111.601 108.187C112.742 111.467 113.265 112.695 113.548 114.55C109.276 122.243 99.4614 135.869 96.0898 141.802C96.0898 141.802 102.353 142.369 103.631 142.369C104.909 142.369 105.767 143.227 105.904 144.223L109.43 144.189C109.997 145.185 110.323 146.293 110.323 146.293C112.596 146.396 115.161 146.224 116.868 145.649C118.147 138.668 119.142 135.68 119.717 131.258C120.283 126.845 120.995 121.71 120.995 117.726C123.843 116.301 125.98 115.588 128.116 115.305C126.692 110.463 125.079 107.234 121.098 104.95L121.089 104.959Z" fill="#2D29FF"/>
<path id="Vector_3" d="M138.282 22.067C140.178 21.1397 146.038 21.9898 149.032 23.312C151.983 24.6171 156.161 27.2274 158.057 28.7643C160.279 30.5588 163.136 33.5296 164.148 37.505C164.26 37.9515 164.663 38.252 165.109 38.252C165.186 38.252 165.272 38.2435 165.358 38.2177C165.89 38.0803 166.207 37.5394 166.07 37.007C164.92 32.5079 161.754 29.2022 159.301 27.2188C157.268 25.5702 152.969 22.8827 149.829 21.5004C146.672 20.1094 140.066 18.9932 137.415 20.2897C136.926 20.5301 136.721 21.1226 136.961 21.612C137.201 22.1014 137.793 22.3075 138.282 22.067Z" fill="#767E83"/>
<path id="Vector_4" d="M124.958 53.8366C124.641 54.8583 125.207 55.9402 126.228 56.2579C127.249 56.5756 128.33 56.0089 128.647 54.9871C128.965 53.9653 128.399 52.8835 127.378 52.5658C126.357 52.2481 125.276 52.8148 124.958 53.8366Z" fill="#767E83"/>
<path id="Vector_5" d="M142.984 59.6061C142.666 60.6278 143.232 61.7097 144.253 62.0274C145.274 62.3451 146.355 61.7784 146.673 60.7566C146.99 59.7349 146.424 58.653 145.403 58.3353C144.382 58.0176 143.301 58.5843 142.984 59.6061Z" fill="#767E83"/>
<path id="Vector_6" d="M133.675 56.7123C133.324 56.6436 132.989 56.8754 132.929 57.2274C132.509 59.5028 131.282 63.1262 130.201 65.307C130.038 65.6247 130.175 66.0111 130.493 66.1742C130.587 66.2172 130.681 66.2429 130.776 66.2429C131.016 66.2429 131.239 66.1141 131.35 65.8909C132.5 63.5812 133.753 59.8806 134.199 57.4678C134.267 57.1158 134.036 56.7809 133.684 56.7208L133.675 56.7123Z" fill="#767E83"/>
<path id="Vector_7" d="M133.143 49.2087C133.443 49.2087 133.743 49.0714 133.941 48.8052C134.267 48.3673 134.172 47.7405 133.735 47.4142C132.199 46.2808 129.291 45.3106 127.103 45.2162C125.224 45.1389 123.594 45.3106 121.75 46.4354C121.286 46.7187 121.132 47.3284 121.424 47.8006C121.707 48.2643 122.316 48.4188 122.788 48.1269C124.212 47.2597 125.413 47.1223 127.017 47.1996C128.802 47.2768 131.341 48.1011 132.559 49.0027C132.74 49.1315 132.945 49.2002 133.151 49.2002L133.143 49.2087Z" fill="#767E83"/>
<path id="Vector_8" d="M150.559 56.8246C150.722 57.2024 151.082 57.4342 151.477 57.4342C151.605 57.4342 151.734 57.4084 151.863 57.3569C152.369 57.1423 152.601 56.5584 152.395 56.0604C151.554 54.0684 150.43 53.0467 148.757 51.9476C147.462 51.0976 144.107 49.844 142.083 49.8526C141.534 49.8526 141.096 50.3162 141.105 50.8572C141.105 51.3981 141.559 51.836 142.1 51.836C142.126 51.836 142.143 51.836 142.168 51.836C143.73 51.836 146.595 52.8921 147.668 53.6048C149.281 54.6694 149.984 55.4508 150.567 56.8332L150.559 56.8246Z" fill="#767E83"/>
<path id="Vector_9" d="M70.8675 75.3796C70.9876 75.4311 71.1077 75.4483 71.2278 75.4483C71.6225 75.4483 71.9999 75.2079 72.1544 74.8215C72.5747 73.7568 76.5812 73.2588 79.9614 73.8599C80.459 73.9457 81.1796 74.0831 82.0633 74.2462C83.7362 74.5553 86.0097 74.9761 88.5233 75.414C89.0552 75.5084 89.5786 75.1478 89.6644 74.6069C89.7587 74.0659 89.3984 73.5508 88.8579 73.4649C86.3528 73.027 84.0879 72.6063 82.4236 72.2972C81.5313 72.134 80.8021 71.9966 80.3045 71.9108C77.5163 71.4214 71.408 71.3098 70.3098 74.1003C70.1125 74.6069 70.3613 75.1821 70.8675 75.3882V75.3796Z" fill="#767E83"/>
<path id="Vector_10" d="M76.4013 97.1361C76.9504 97.1361 77.3965 96.6896 77.3965 96.1401C77.3965 90.3273 74.1536 80.5905 72.4978 78.0747C72.1975 77.6197 71.5799 77.4909 71.1252 77.7914C70.6705 78.0919 70.5418 78.7101 70.842 79.1652C72.3091 81.3976 75.4147 90.8596 75.4147 96.1401C75.4147 96.6896 75.8608 97.1361 76.4099 97.1361H76.4013Z" fill="#767E83"/>
<path id="Vector_11" d="M36.7911 122.775C36.9541 122.878 37.1343 122.921 37.3144 122.921C37.649 122.921 37.9664 122.758 38.1552 122.457C40.7975 118.207 42.4791 115.125 43.5858 112.471C47.0517 104.16 59.5515 84.6951 61.6191 81.7757C63.0604 79.7408 65.5226 77.4912 66.7837 77.4912H66.8095C67.3757 77.5342 67.8132 77.0705 67.8218 76.521C67.839 75.9715 67.4014 75.5164 66.8524 75.5078C66.8266 75.5078 66.8095 75.5078 66.7837 75.5078C63.6523 75.5078 60.032 80.5737 59.9976 80.6252C57.9043 83.5788 45.2758 103.267 41.7498 111.707C40.7032 114.223 39.0217 117.305 36.4651 121.41C36.1734 121.873 36.3192 122.483 36.7825 122.775H36.7911Z" fill="#767E83"/>
<path id="Vector_12" d="M102.035 79.8267C102.481 79.509 102.592 78.8908 102.275 78.4443C101.958 77.9978 101.34 77.8862 100.894 78.2039C98.912 79.6034 96.3554 81.2949 93.8847 82.9349C91.4739 84.5319 89.2004 86.0431 87.3731 87.3224C87.1243 87.5027 86.9613 87.7861 86.9527 88.0952C86.9441 88.4043 87.0728 88.7048 87.313 88.9023L94.2107 94.5778C90.9506 94.9212 87.5876 95.1015 85.3742 95.1187C84.868 95.1187 84.4476 95.5137 84.3961 96.0203C83.1607 109.466 86.3264 132.718 87.3302 139.527C87.3988 140.016 87.8278 140.377 88.3082 140.377C88.3597 140.377 88.4026 140.377 88.4541 140.368C88.9945 140.291 89.372 139.784 89.2862 139.243C88.3168 132.64 85.2884 110.445 86.2921 97.0935C88.9602 97.0334 92.9838 96.793 96.7587 96.2778C97.1533 96.2263 97.4707 95.943 97.5823 95.5652C97.6852 95.1874 97.5651 94.7753 97.2563 94.5263L89.5865 88.2068C91.1822 87.1164 93.0353 85.88 94.9828 84.592C97.4621 82.9435 100.027 81.2434 102.035 79.8353V79.8267Z" fill="#767E83"/>
<path id="Vector_13" d="M186.943 132.306C186.703 131.817 186.102 131.611 185.613 131.851C185.124 132.091 184.918 132.684 185.158 133.182C185.965 134.822 186.771 136.419 187.526 137.896C189.817 142.361 192.133 150.088 192.133 156.219C192.133 161.783 190.872 166.325 188.496 169.356C186.42 172 181.727 174.928 175.352 174.499C168.395 174.035 156.272 170.12 152.858 168.626C151.477 168.025 149.195 166.823 146.784 165.552C144.871 164.547 142.932 163.526 141.225 162.693C141.336 162.676 141.448 162.667 141.559 162.658C142.4 162.547 143.086 162.195 143.584 161.671C143.858 161.74 144.159 161.791 144.476 161.791C144.871 161.791 145.283 161.714 145.643 161.508C146.089 161.25 146.406 160.838 146.544 160.306C146.578 160.168 146.621 160.04 146.655 159.911C146.904 159.061 147.213 157.996 146.569 156.674C146.02 155.549 144.622 152.801 143.61 151.505C142.983 150.689 141.902 150.363 140.813 150.226C140.633 149.925 139.826 148.611 138.84 147.933C137.845 147.246 136.317 147.083 134.396 146.868L133.675 146.791C131.556 146.551 131.41 146.482 130.964 146.061C130.801 145.907 130.604 145.649 130.398 145.366C140.375 139.072 147.367 129.035 151.314 123.205C152.052 125.927 152.798 128.64 153.493 131.19C154.111 133.431 154.685 135.552 155.191 137.423C155.037 137.552 154.908 137.707 154.848 137.913C153.467 142.85 149.195 146.207 145.197 148.843C144.742 149.144 144.613 149.762 144.914 150.217C145.102 150.509 145.42 150.663 145.746 150.663C145.935 150.663 146.123 150.612 146.286 150.5C150.035 148.027 154.016 144.936 156.015 140.489C156.384 141.888 156.676 142.996 156.847 143.709C157.396 146.001 157.585 148.122 157.705 150.603C157.731 151.136 158.168 151.548 158.692 151.548C158.709 151.548 158.726 151.548 158.743 151.548C159.292 151.522 159.713 151.058 159.687 150.509C159.584 148.268 159.395 145.829 158.778 143.245C158.306 141.27 157.027 136.591 155.397 130.675C152.644 120.612 149.229 108.162 147.788 101.688C149.546 100.391 153.793 99.1462 156.684 98.2961C157.276 98.1244 157.825 97.9613 158.314 97.8153C161.506 96.8451 166.525 96.0637 170.754 95.8748C172.333 99.3952 174.975 107.217 177.128 113.571C178.304 117.057 179.325 120.071 179.925 121.633C180.629 123.488 181.641 125.824 182.919 128.58C183.151 129.078 183.734 129.292 184.24 129.061C184.738 128.829 184.953 128.236 184.721 127.738C183.46 125.034 182.473 122.741 181.778 120.929C181.195 119.401 180.183 116.404 179.007 112.936C176.708 106.144 173.851 97.6951 172.273 94.4238C172.101 94.0717 171.749 93.8399 171.346 93.8657C170.763 93.8828 170.162 93.9172 169.553 93.9515C169.596 93.9429 169.639 93.9515 169.682 93.9258C170.119 93.754 170.342 93.256 170.171 92.8096L168.592 88.7912C168.463 88.4649 168.146 88.2503 167.794 88.2503C167.443 88.2503 167.031 88.3276 166.593 88.4564C166.679 88.2417 166.696 88.0013 166.61 87.7695C166.379 87.1169 166.156 86.2411 165.967 85.2709C166.379 85.3825 166.825 85.2279 167.056 84.8501C167.923 83.442 169.098 80.0505 168.034 78.2302C166.636 75.8346 164.38 72.8037 161.54 71.9623C161.034 71.8077 160.468 71.7476 159.876 71.739C160.15 71.241 160.425 70.6915 160.708 70.099C161.094 69.3091 161.531 68.4162 162.072 67.4974L162.312 67.0853C164.062 64.1059 165.547 61.2724 164.414 59.3921C164.242 59.1173 164.028 58.9026 163.796 58.7223C163.848 58.6107 163.899 58.4991 163.959 58.3789C164.56 57.1339 165.469 55.2535 166.533 50.823C167.271 47.7406 167.417 44.8213 166.979 41.6444C166.902 41.1034 166.404 40.7257 165.864 40.7943C165.323 40.8716 164.946 41.3696 165.015 41.9105C165.409 44.8384 165.281 47.5259 164.603 50.3594C163.59 54.5752 162.767 56.2753 162.175 57.5117C162.072 57.7263 161.969 57.9324 161.883 58.1299C161.849 58.2072 161.84 58.293 161.823 58.3789C160.279 58.7739 158.769 60.3795 157.671 62.0624C158.271 60.2764 159.052 57.8723 159.181 57.1511C159.309 56.4212 159.687 54.0171 159.224 52.5746C159.284 50.2993 159.524 48.4618 159.953 46.9764C160.047 46.6501 159.953 46.3239 159.747 46.0834C160.373 46.2122 160.957 46.2809 161.489 46.2809C161.54 46.2809 161.583 46.2809 161.634 46.2809C162.184 46.2723 162.612 45.8173 162.604 45.2678C162.595 44.7268 162.149 44.2975 161.617 44.2975C161.617 44.2975 161.6 44.2975 161.592 44.2975C158.443 44.3662 152.052 40.9661 150.224 38.2185C150.19 38.167 150.147 38.1412 150.104 38.0983C150.713 38.0468 151.314 37.9695 151.923 37.8922C152.463 37.8235 152.849 37.3255 152.781 36.7846C152.712 36.2437 152.206 35.8573 151.674 35.926C148.749 36.3123 146.038 36.5098 142.554 35.0673C139.56 33.8309 137.99 32.0879 136.137 29.3146C135.837 28.8595 135.219 28.7393 134.765 29.0398C134.31 29.3403 134.19 29.9586 134.49 30.4136C136.506 33.4445 138.351 35.4709 141.799 36.8962C144.167 37.875 146.235 38.1841 148.182 38.1841C148.328 38.1841 148.474 38.1841 148.628 38.1755C148.38 38.5018 148.345 38.9569 148.586 39.3175C150.301 41.9105 154.865 44.7097 158.64 45.8001C158.374 45.9117 158.143 46.1264 158.057 46.4269C157.577 48.1184 157.311 50.1791 157.251 52.712C157.251 52.8494 157.276 52.9868 157.328 53.1155C157.594 53.7509 157.482 55.4939 157.251 56.8076C157.113 57.5546 155.878 61.281 155.123 63.4619C155.02 63.771 155.071 64.1145 155.26 64.3721C155.449 64.6296 155.758 64.767 156.092 64.7756L157.894 64.7069C158.246 64.6983 158.563 64.4923 158.735 64.1832C160.142 61.5472 161.823 60.2936 162.518 60.2764C162.604 60.2764 162.647 60.2764 162.733 60.4138C163.35 61.427 161.368 64.8014 160.622 66.0721L160.382 66.4843C159.807 67.4717 159.352 68.399 158.958 69.2147C158.46 70.2278 158.031 71.1122 157.542 71.739C157.491 71.8077 157.465 71.8936 157.431 71.9708C156.556 72.1426 155.681 72.3916 154.848 72.6749C155.097 72.0739 155.337 71.3441 155.569 70.4082C155.706 69.8758 155.38 69.3349 154.848 69.2061C154.316 69.0773 153.776 69.395 153.647 69.9273C153.107 72.0825 152.575 72.9067 151.914 73.8942C151.46 74.1174 151.056 74.3406 150.748 74.5295C148.852 75.6887 147.788 76.1781 145.205 76.8049C141.842 77.6206 139.895 81.1495 139.037 83.1758C138.599 84.2148 138.093 86.0436 138.179 87.8124C135.477 89.0316 132.774 89.6498 130.732 89.5039C127.901 89.3064 122.496 87.5462 120.523 86.3699C118.619 85.2279 114.415 79.5954 113.557 74.1861C113.557 74.1775 113.557 74.1689 113.557 74.1603C113.102 71.739 113.488 69.2662 113.857 66.8792C113.969 66.1322 114.089 65.411 114.166 64.7155C114.286 63.6594 114.295 62.818 114.303 62.0709C114.312 60.7315 114.329 59.684 114.998 57.8723C115.187 57.3571 114.93 56.7904 114.415 56.593C113.9 56.4041 113.334 56.6616 113.137 57.1768C112.776 58.1471 112.579 58.9456 112.467 59.6668C112.339 59.7269 112.176 59.6668 112.047 59.6153C111.558 59.3749 110.992 58.6708 110.812 57.6319C110.657 56.7475 110.82 55.6571 111.035 54.2661C111.172 53.3645 111.326 52.3428 111.412 51.2094L111.447 50.7286C111.549 49.2603 111.833 45.3622 112.922 44.8728C113.077 44.8041 113.119 44.8384 113.18 44.8728C113.737 45.2849 114.406 47.2683 114.072 50.2392C114.029 50.5912 114.183 50.9346 114.466 51.1493L115.916 52.2312C116.174 52.4286 116.517 52.4802 116.826 52.3771C117.134 52.2741 117.375 52.0251 117.461 51.7074C118.258 48.9083 119.64 44.2031 119.957 43.5162C120.292 42.7778 120.652 42.4944 121.518 41.9363C121.63 41.859 121.733 41.7646 121.81 41.6444C123.2 39.5236 124.144 37.6861 124.71 36.0118C124.89 35.4967 124.607 34.93 124.092 34.7582C124.092 34.7582 124.092 34.7582 124.084 34.7582C126.863 34.6209 130.398 33.2041 133.135 31.0061C133.564 30.6626 133.632 30.0358 133.28 29.6151C132.937 29.1858 132.311 29.1171 131.891 29.4691C128.631 32.0965 124.513 33.187 122.565 32.6975C122.033 32.5602 121.493 32.8864 121.364 33.4102C121.227 33.9425 121.553 34.4835 122.076 34.6123C122.496 34.7153 122.96 34.7668 123.457 34.784C123.183 34.8784 122.943 35.0845 122.84 35.385C122.342 36.8533 121.501 38.4846 120.266 40.3908C119.339 41.0004 118.687 41.5328 118.155 42.7005C117.821 43.4303 116.808 46.8562 116.139 49.1401C116.199 47.1224 115.873 44.9157 114.81 43.7051C114.87 43.602 114.912 43.4904 114.938 43.3702C114.973 43.1555 115.015 42.9323 115.05 42.6919C115.264 41.3353 115.565 39.4721 117.143 35.4366C119.125 30.3621 121.913 26.5842 125.199 24.5063C128.21 22.6002 132.071 21.8274 133.992 22.7547C134.481 22.9866 135.073 22.7805 135.314 22.2911C135.554 21.7931 135.339 21.2092 134.85 20.9688C132.294 19.741 127.79 20.5309 124.144 22.8406C120.498 25.1417 117.435 29.2545 115.299 34.7239C113.643 38.9655 113.317 41.0262 113.094 42.3914C113.068 42.5631 113.042 42.7177 113.017 42.8722C112.716 42.8722 112.416 42.9323 112.116 43.0697C110.117 43.9712 109.731 47.1395 109.482 50.5912L109.448 51.0634C109.362 52.1281 109.216 53.1155 109.087 53.9827C108.864 55.4853 108.667 56.7819 108.873 57.9839C109.147 59.5294 110.031 60.8345 111.189 61.4098C111.567 61.5987 111.953 61.6846 112.33 61.6932C112.33 61.8134 112.33 61.9422 112.33 62.0624C112.33 62.7922 112.313 63.5392 112.201 64.4923C112.124 65.162 112.013 65.8575 111.901 66.5873C111.601 68.5106 111.284 70.6314 111.404 72.7865C109.027 73.6108 106.411 74.5467 104.446 75.4654C101.958 75.3881 98.2947 74.9674 93.5333 74.229C92.9843 74.1517 92.4867 74.5124 92.4009 75.0533C92.3151 75.5942 92.684 76.1008 93.2245 76.1867C98.2175 76.968 102.061 77.3973 104.635 77.4574C104.635 77.4574 104.652 77.4574 104.66 77.4574C104.806 77.4574 104.952 77.4231 105.089 77.363C106.882 76.5129 109.353 75.6114 111.652 74.8043C111.73 75.2594 111.781 75.6801 111.807 76.0579C111.773 76.0235 111.747 75.9806 111.704 75.9463C111.258 75.62 110.64 75.7144 110.323 76.1609C100.131 90.0877 97.188 118.972 95.6009 134.478C95.3349 137.063 95.1119 139.304 94.8888 141.09C93.9365 141.038 93.0529 140.995 92.3666 140.961C91.6459 140.927 90.5478 140.918 89.158 140.901C87.0218 140.884 84.3622 140.858 81.7885 140.729C81.2566 140.712 80.7761 141.124 80.7504 141.674C80.7247 142.223 81.1451 142.687 81.6941 142.713C84.3022 142.841 86.9874 142.867 89.1408 142.884C90.4534 142.893 91.5859 142.91 92.2722 142.936C94.5199 143.047 98.6808 143.262 101.418 143.417L103.588 143.528C104.523 143.58 104.789 143.923 104.926 144.267C106.376 147.796 107.097 151.067 107.003 153.712C106.865 157.532 104.343 164.994 102.687 167.432C97.4111 167.879 87.6824 167.862 81.1794 167.844H78.1767C74.1874 167.844 69.7348 167.844 65.6597 167.862C62.2281 167.862 59.0624 167.879 56.6688 167.879C48.7245 167.879 41.9727 167.741 33.5309 165.998C30.511 165.372 28.1003 163.508 26.5646 160.589C24.0853 155.884 24.0853 148.74 26.5646 142.816C28.2547 138.772 31.5663 132.684 34.8178 127.67C35.118 127.206 34.9808 126.596 34.5261 126.296C34.0628 125.995 33.4537 126.133 33.1534 126.588C29.8504 131.696 26.4703 137.904 24.7373 142.043C22.0005 148.586 22.0349 156.227 24.8145 161.508C26.6333 164.968 29.5159 167.183 33.1362 167.93C41.7497 169.708 48.8961 169.854 56.6774 169.854C59.071 169.854 62.2367 169.854 65.6683 169.836C69.7434 169.828 74.196 169.819 78.1853 169.819H81.1879C88.3086 169.845 98.0717 169.862 103.322 169.356C103.588 169.33 103.828 169.201 104 168.995C104.609 168.248 105.278 166.96 105.93 165.423C106.033 165.457 106.136 165.483 106.248 165.483C106.428 165.483 106.616 165.432 106.779 165.329C107.32 164.985 107.818 164.582 108.289 164.135C108.41 164.195 108.538 164.238 108.684 164.247C109.834 164.315 111.721 164.582 114.303 165.028C114.647 165.088 114.99 165.157 115.333 165.217C117.04 165.535 118.79 165.87 121.39 165.87C121.827 165.87 122.282 165.861 122.771 165.844C126.7 165.681 131.865 165.002 134.67 162.701C135.254 162.77 135.966 162.813 136.738 162.839C136.781 162.864 136.815 162.899 136.866 162.916C138.694 163.526 142.503 165.526 145.866 167.295C148.311 168.583 150.619 169.793 152.069 170.429C155.578 171.966 168.043 175.984 175.224 176.465C175.687 176.499 176.142 176.508 176.588 176.508C183.057 176.508 187.844 173.391 190.057 170.566C192.717 167.183 194.124 162.212 194.124 156.202C194.124 149.753 191.696 141.639 189.302 136.968C188.556 135.509 187.749 133.92 186.943 132.289V132.306ZM149.658 116.98C148.011 115.718 146.192 114.266 144.622 112.936H148.586C148.929 114.249 149.289 115.597 149.658 116.98ZM148.062 110.952H141.988C141.576 110.952 141.216 111.201 141.062 111.588C140.916 111.965 141.01 112.403 141.31 112.678C143.678 114.859 147.668 118.01 150.379 120.019C150.413 120.045 150.447 120.054 150.482 120.071C150.542 120.294 150.602 120.517 150.662 120.74C150.61 120.792 150.55 120.826 150.516 120.886L150.113 121.479C146.304 127.12 139.234 137.552 129.137 143.837C128.905 143.614 128.656 143.408 128.373 143.245C127.095 142.498 123.603 141.871 122.033 142.567C121.167 142.953 119.725 143.545 118.25 144.129C118.318 143.803 118.387 143.477 118.456 143.133C119.657 137.355 121.467 128.674 121.982 118.319C123.234 117.658 125.757 116.799 127.653 116.319C127.996 117.581 128.262 118.809 128.399 119.719C128.536 120.689 129.042 121.41 129.772 121.685C129.995 121.771 130.226 121.814 130.466 121.814C131.161 121.814 131.925 121.462 132.749 120.758C133.1 120.457 133.615 119.993 134.173 119.478C130.261 127.876 125.731 135.929 122.659 140.171C122.342 140.618 122.436 141.236 122.883 141.553C123.063 141.682 123.26 141.742 123.466 141.742C123.775 141.742 124.075 141.596 124.272 141.33C129.977 133.439 143.318 108.016 144.004 95.9779C144.184 96.1067 144.365 96.244 144.553 96.3557C144.716 96.4587 144.905 96.5102 145.085 96.5102C145.154 96.5102 145.214 96.5016 145.274 96.4845C145.317 96.5703 145.368 96.6476 145.437 96.7163C145.437 96.7335 145.437 96.7592 145.437 96.7764L146.158 99.7901C146.201 99.9705 146.304 100.125 146.432 100.237C146.278 100.357 146.132 100.486 146.003 100.614C145.763 100.855 145.66 101.198 145.737 101.525C146.252 103.903 147.076 107.2 148.045 110.952H148.062ZM136.309 114.739C136.24 114.782 136.172 114.816 136.12 114.876C135.545 115.494 132.68 118.216 131.479 119.238C130.818 119.796 130.518 119.813 130.509 119.83C130.484 119.805 130.406 119.684 130.372 119.427C130.046 117.186 128.991 113.27 127.85 110.841C127.181 109.415 125.825 107.114 123.629 105.414C129.557 103.783 138.599 100.125 142.04 95.7976C141.791 100.374 139.432 107.44 136.3 114.739H136.309ZM168.601 93.4449C168.721 93.754 168.995 93.9343 169.304 93.9773C165.255 94.2692 160.759 95.0162 157.774 95.9178C157.293 96.0637 156.744 96.2269 156.161 96.3986C152.824 97.3774 149.847 98.3047 147.831 99.3608L147.247 96.8966C148.474 95.9092 150.516 94.5955 152.335 93.797C155.389 92.4661 159.112 91.5045 160.768 91.2469C162.346 91.0065 162.981 91.4615 163.496 92.2858C163.693 92.6035 164.062 92.758 164.423 92.6636C164.783 92.5777 165.049 92.2686 165.075 91.8994C165.152 90.9807 166.344 90.268 167.254 90.0362L168.584 93.4363L168.601 93.4449ZM140.873 83.9658C141.585 82.2743 143.155 79.355 145.677 78.7454C148.5 78.067 149.735 77.4918 151.794 76.2382C153.81 75.0018 158.615 73.1557 161.008 73.8684C162.741 74.3836 164.637 76.2897 166.353 79.2348C166.765 79.9474 166.336 81.9566 165.667 83.3218C165.538 82.3945 165.444 81.4586 165.401 80.6257C165.375 80.0762 164.937 79.6727 164.363 79.6813C163.814 79.707 163.393 80.1707 163.419 80.7202C163.53 83.2703 164.114 86.5931 164.766 88.4392C164.86 88.7139 165.075 88.92 165.332 89.023C164.8 89.3321 164.311 89.7443 163.951 90.2423C163.067 89.5554 161.943 89.3407 160.511 89.564C158.46 89.8817 154.66 90.9206 151.648 92.2343C150.001 92.9555 148.217 94.046 146.895 95.0162C146.312 93.0929 145.145 90.2766 143.798 88.92C143.412 88.5336 142.786 88.5336 142.4 88.92C142.014 89.3064 142.014 89.9332 142.4 90.3196C143.095 91.015 143.79 92.3545 144.33 93.6853C143.035 92.5348 141.825 91.0322 140.753 89.6498C139.741 88.3361 140.221 85.537 140.882 83.9658H140.873ZM119.528 88.0957C121.716 89.4008 127.481 91.2898 130.612 91.5045C130.844 91.5216 131.076 91.5302 131.324 91.5302C133.452 91.5302 136.034 90.9206 138.599 89.8216C138.745 90.1908 138.934 90.5514 139.183 90.8691C139.861 91.7449 140.598 92.6636 141.379 93.5394C141.216 93.6167 141.07 93.7283 140.967 93.9C138.402 98.1759 127.953 102.478 121.373 103.946C116.122 99.0947 109.696 89.4695 112.639 81.7591L112.708 81.5874C112.939 81.0121 113.145 80.4712 113.334 79.9131C115.118 83.7769 117.787 87.0568 119.528 88.0957ZM111.815 77.5004C111.704 78.711 111.335 79.6555 110.863 80.8404L110.795 81.0207C109.216 85.1507 109.791 90.1135 112.459 95.3597C114.415 99.2063 116.937 102.211 118.687 104.032C116.688 104.221 114.955 104.839 112.939 105.758C110.546 106.848 107.697 108.823 105.218 110.583C104.892 110.815 104.6 110.918 104.412 110.866C104.171 110.798 103.897 110.42 103.674 109.853C103.159 108.539 102.361 105.509 102.035 103.611C102.035 103.594 102.018 103.585 102.018 103.568C104.146 93.5308 107.226 83.8627 111.833 77.4832L111.815 77.5004ZM101.074 108.299C101.323 109.192 101.581 110.008 101.812 110.6C102.284 111.794 102.953 112.523 103.828 112.79C104.017 112.85 104.24 112.884 104.506 112.884C105.012 112.884 105.638 112.73 106.351 112.223C107.397 111.485 108.984 110.36 110.614 109.338C111.447 111.115 111.927 113.082 112.236 114.464C109.456 119.684 106.033 124.707 102.996 129.155C100.645 132.607 98.5693 135.655 97.2223 138.17C97.3339 137.097 97.454 135.938 97.5827 134.693C98.2947 127.738 99.2813 118.062 101.074 108.308V108.299ZM103.7 141.571L101.529 141.459C100.191 141.39 98.5092 141.296 96.8792 141.21C96.8792 141.15 96.8963 141.081 96.9049 141.013C96.9221 141.021 96.9306 141.038 96.9478 141.047C97.0765 141.107 97.2138 141.133 97.351 141.133C97.7285 141.133 98.0974 140.909 98.2604 140.54C99.41 137.947 101.829 134.393 104.635 130.28C107.758 125.703 111.301 120.509 114.158 115.074C114.269 114.868 114.286 114.558 114.235 114.327C113.909 112.884 113.377 110.506 112.322 108.333C112.811 108.059 113.3 107.801 113.746 107.595C116.259 106.444 118.155 105.852 120.824 106.007C123.655 107.337 125.319 110.128 126.057 111.699C126.417 112.463 126.769 113.416 127.095 114.421C124.95 114.979 121.802 116.035 120.48 116.92C120.214 117.091 120.051 117.383 120.043 117.701C119.571 128.133 117.812 136.573 116.525 142.738C116.362 143.503 116.217 144.232 116.079 144.911C116.079 144.928 116.079 144.945 116.079 144.962C114.449 145.434 112.236 145.503 111.198 145.391C110.906 144.705 110.546 144.018 110.074 143.322C109.894 143.047 109.576 142.884 109.25 142.884H107.148C106.917 142.884 106.711 142.979 106.548 143.108C106.11 142.386 105.287 141.674 103.708 141.588L103.7 141.571ZM109.001 153.797C109.096 151.213 108.504 148.139 107.286 144.842H108.71C110.211 147.323 110.357 149.633 110.537 152.501L110.58 153.119C110.777 156.15 109.499 160.211 107.011 162.641C108.084 159.499 108.924 156.021 109.01 153.789L109.001 153.797ZM134.507 160.709C134.198 160.658 133.898 160.761 133.675 160.967C131.942 162.607 127.936 163.672 122.694 163.886C119.528 164.015 117.581 163.654 115.702 163.294C115.35 163.225 114.998 163.165 114.647 163.096C112.605 162.736 111.009 162.495 109.816 162.375C111.815 159.533 112.733 155.849 112.553 152.999L112.519 152.381C112.407 150.595 112.287 148.869 111.815 147.126C113.291 147.169 115.573 147.014 117.229 146.37C119.202 145.606 121.518 144.662 122.745 144.121C123.663 143.709 126.546 144.146 127.524 144.713C128.064 145.022 128.528 145.675 128.939 146.242C129.231 146.636 129.497 147.014 129.806 147.306C130.69 148.139 131.35 148.251 133.503 148.491L134.224 148.568C135.846 148.749 137.244 148.895 137.887 149.341C138.153 149.53 138.428 149.822 138.677 150.122C138.642 150.122 138.608 150.122 138.574 150.122H138.231C137.973 150.122 137.699 150.122 137.407 150.131C136.48 150.148 135.322 150.165 133.744 150.045C133.272 150.002 132.86 150.363 132.826 150.835C132.791 151.307 133.143 151.719 133.615 151.754C135.271 151.883 136.472 151.857 137.433 151.848C137.716 151.848 137.973 151.848 138.222 151.848H138.582C139.5 151.831 141.679 151.805 142.263 152.552C143.009 153.514 144.184 155.704 145.034 157.429C145.386 158.151 145.231 158.683 145.017 159.421C144.974 159.567 144.931 159.713 144.888 159.868C144.854 159.988 144.819 160.005 144.794 160.022C144.725 160.065 144.579 160.082 144.399 160.074C144.545 159.25 144.399 158.443 144.082 157.996C144.004 157.884 143.936 157.781 143.867 157.67C143.627 157.292 143.327 156.82 142.58 155.987C141.439 154.708 139.543 154.364 138.145 154.459C137.09 154.536 135.357 154.536 133.624 154.459C133.075 154.459 132.611 154.853 132.586 155.403C132.56 155.952 132.98 156.416 133.529 156.442C135.331 156.519 137.15 156.519 138.282 156.442C139.157 156.382 140.427 156.562 141.096 157.309C141.739 158.03 141.971 158.391 142.194 158.743C142.28 158.88 142.357 159.001 142.417 159.078C142.477 159.215 142.529 159.73 142.297 160.117C142.117 160.435 141.782 160.623 141.276 160.692C139.08 160.993 135.991 160.932 134.49 160.692L134.507 160.709Z" fill="#767E83"/>
<path id="Vector_14" d="M159.91 154.553C159.876 154.003 159.387 153.591 158.855 153.634C158.306 153.668 157.894 154.149 157.937 154.69C158.031 156.081 158.177 157.232 158.374 158.305C159.052 161.902 160.519 165.646 162.389 168.565C162.578 168.857 162.895 169.02 163.221 169.02C163.402 169.02 163.59 168.969 163.753 168.866C164.217 168.574 164.345 167.956 164.054 167.492C162.312 164.779 160.948 161.293 160.322 157.936C160.133 156.94 160.004 155.858 159.91 154.544V154.553Z" fill="#767E83"/>
<path id="Vector_15" d="M20.6279 156.69H0.981717C0.432653 156.69 -0.00488281 157.137 -0.00488281 157.686C-0.00488281 158.236 0.441232 158.682 0.981717 158.682H20.6193C21.1684 158.682 21.6059 158.236 21.6059 157.686C21.6059 157.137 21.1598 156.69 20.6193 156.69H20.6279Z" fill="#767E83"/>
<path id="Vector_16" d="M225.009 156.69H196.312C195.763 156.69 195.316 157.137 195.316 157.686C195.316 158.236 195.763 158.682 196.312 158.682H225.009C225.558 158.682 226.004 158.236 226.004 157.686C226.004 157.137 225.558 156.69 225.009 156.69Z" fill="#767E83"/>
<path id="Vector_17" d="M52.6625 145.992C53.16 145.769 53.3831 145.177 53.1515 144.679C52.9284 144.181 52.3364 143.957 51.8389 144.189C48.9563 145.503 47.4378 146.739 47.0517 148.096C46.8372 148.834 46.9745 149.573 47.4463 150.277C48.0211 151.135 48.8018 151.659 49.7198 151.779C49.8657 151.797 50.0029 151.805 50.1573 151.805C51.3155 151.805 52.611 151.196 54.018 149.994C56.5402 147.83 62.9317 144.112 68.8598 141.888C70.3355 141.356 72.7548 141.296 74.2561 141.759C75.1312 142.034 76.2722 142.249 77.7478 142.42C78.2969 142.481 78.7859 142.094 78.846 141.553C78.906 141.012 78.52 140.514 77.9795 140.454C76.6497 140.3 75.5945 140.102 74.8481 139.87C72.9349 139.278 70.0695 139.347 68.1821 140.034C66.5006 140.643 65.6598 140.858 65.1537 140.214C64.6732 139.596 65.2309 138.66 66.5177 136.797L66.6207 136.642C68.5853 133.8 73.9816 123.952 75.5173 118.388C77.1816 112.317 77.5162 104.624 76.9843 100.477C76.9157 99.936 76.4181 99.5496 75.8776 99.6183C75.3371 99.687 74.951 100.185 75.0197 100.726C75.5344 104.693 75.2084 112.042 73.6127 117.864C72.1371 123.23 66.9038 132.761 64.9992 135.517L64.8963 135.672C63.5579 137.604 62.1767 139.596 63.6008 141.433C63.721 141.579 63.8411 141.708 63.9612 141.828C59.5343 143.88 55.0903 146.49 52.7568 148.5C51.6501 149.444 50.6807 149.916 50.0201 149.822C49.8914 149.805 49.5053 149.753 49.1279 149.178C48.9391 148.894 48.9648 148.757 48.9906 148.645C49.085 148.311 49.634 147.392 52.6968 146.001L52.6625 145.992Z" fill="#767E83"/>
<path id="Vector_18" d="M128.176 79.3976C129.043 79.6637 129.875 79.7925 130.613 79.7925C131.531 79.7925 132.32 79.5951 132.886 79.2001C133.495 78.7708 133.838 78.1354 133.881 77.3712C133.984 75.3449 133.083 72.7433 130.218 72.0821C127.593 71.4725 125.525 73.0094 124.641 74.804C124.29 75.5166 124.264 76.2464 124.556 76.9076C125.13 78.2384 126.846 79.0026 128.176 79.4062V79.3976ZM126.031 75.4737C126.426 74.6752 127.464 73.4817 129.068 73.4817C129.326 73.4817 129.592 73.516 129.875 73.5761C132.371 74.1514 132.371 76.7616 132.337 77.2854C132.32 77.5773 132.217 77.7748 132.002 77.9293C131.402 78.3501 130.046 78.3501 128.631 77.9122C127.207 77.4829 126.237 76.8818 125.98 76.2722C125.911 76.1176 125.843 75.8601 126.04 75.4651L126.031 75.4737Z" fill="#767E83"/>
<path id="Vector_19" d="M78.1505 36.0202C73.7752 36.0202 70.2148 32.4569 70.2148 28.078C70.2148 23.699 73.7752 20.1357 78.1505 20.1357C82.5259 20.1357 86.0862 23.699 86.0862 28.078C86.0862 32.4569 82.5259 36.0202 78.1505 36.0202ZM78.1505 21.9045C74.7532 21.9045 71.9821 24.6693 71.9821 28.078C71.9821 31.4867 74.7532 34.2515 78.1505 34.2515C81.5479 34.2515 84.3189 31.4867 84.3189 28.078C84.3189 24.6693 81.5565 21.9045 78.1505 21.9045Z" fill="#2D29FF"/>
<path id="Vector_20" d="M90.505 44.5805C87.8197 44.5805 85.6406 42.3996 85.6406 39.7121C85.6406 37.0246 87.8197 34.8438 90.505 34.8438C93.1903 34.8438 95.3694 37.0246 95.3694 39.7121C95.3694 42.3996 93.1903 44.5805 90.505 44.5805ZM90.505 36.6125C88.7977 36.6125 87.4079 38.0035 87.4079 39.7121C87.4079 41.4208 88.7977 42.8117 90.505 42.8117C92.2122 42.8117 93.6021 41.4208 93.6021 39.7121C93.6021 38.0035 92.2122 36.6125 90.505 36.6125Z" fill="#2D29FF"/>
<path id="Vector_21" d="M62.0906 23.4755C55.7678 23.4755 50.6289 18.3324 50.6289 12.0044C50.6289 5.67634 55.7678 0.533203 62.0906 0.533203C68.4134 0.533203 73.5523 5.67634 73.5523 12.0044C73.5523 18.3324 68.4134 23.4755 62.0906 23.4755ZM62.0906 2.30196C56.7458 2.30196 52.3962 6.65517 52.3962 12.0044C52.3962 17.3536 56.7458 21.7068 62.0906 21.7068C67.4354 21.7068 71.785 17.3536 71.785 12.0044C71.785 6.65517 67.4354 2.30196 62.0906 2.30196Z" fill="#2D29FF"/>
</g>
</svg>
