<svg width="158" height="193" viewBox="0 0 158 193" fill="none" xmlns="http://www.w3.org/2000/svg">
<path d="M38.9931 35.7034C37.9887 30.9456 39.2725 23.3784 42.5879 19.1039C45.1783 15.7658 49.6038 13.6739 52.2773 14.0893C54.6562 11.9596 57.745 11.1666 61.2567 11.0835C64.7685 11.0005 68.1065 11.733 71.1953 12.964C74.2464 14.1724 75.8701 15.2599 78.0451 17.3442C80.2201 19.4286 82.8029 23.5445 83.1805 27.3659C83.5128 30.7493 83.4751 34.6386 83.3089 36.2245C81.5115 36.3529 79.7821 38.7318 79.4271 40.1063C79.2006 40.9673 78.1206 40.9295 78.0904 40.1516C78.0376 38.8149 78.0073 35.8092 77.9243 34.9709C77.8412 34.1326 77.592 32.2597 77.0029 31.8368C76.2099 30.1149 75.6284 27.1167 76.0816 25.0247C72.4037 24.4432 69.7906 23.0687 68.0612 21.2713C64.1794 23.2349 58.6211 22.1927 53.6518 18.0541C51.2426 22.0643 48.1387 25.4854 41.7496 25.9461C41.5382 28.4081 41.5835 30.1224 41.085 31.293C40.5866 32.6297 40.6697 34.631 40.6697 38.2636C40.2921 36.6777 40.0882 35.7563 39.0007 35.6959L38.9931 35.7034Z" fill="#2D29FF"/>
<path d="M65.0172 136.207C64.5188 128.564 63.1367 102.192 61.7622 96.3618C62.6383 94.859 64.8964 92.2913 66.2709 90.9772C64.5792 88.5983 61.1883 85.3509 58.9453 83.7725C55.9396 85.6529 53.4323 88.2207 52.1786 90.0332C53.7948 92.4876 55.1844 94.791 55.9396 96.173C54.3083 103.317 50.925 129.999 50.4265 136.388C52.3674 141.773 56 151.862 58.4469 156.937C58.4469 156.937 62.5175 145.722 65.0248 136.199L65.0172 136.207Z" fill="#2D29FF"/>
<path d="M44.9214 24.3751C44.438 24.4053 44.0755 24.8131 44.0982 25.2965C44.1208 25.7647 44.506 26.1196 44.9667 26.1196C44.9818 26.1196 44.9969 26.1196 45.012 26.1196C47.5797 25.9761 51.1368 23.4462 53.2816 20.229C53.5459 19.8287 53.4401 19.285 53.0399 19.0206C52.6396 18.7488 52.0959 18.862 51.8315 19.2623C49.8076 22.2983 46.6659 24.2769 44.9214 24.3751Z" fill="#767E83"/>
<path d="M53.5084 11.4388C54.8451 10.1701 59.9428 9.35442 62.7673 9.66406C65.5616 9.9737 69.7228 11.0612 71.7015 11.8391C73.5366 12.5641 75.1377 13.4854 76.4668 14.5805C76.633 14.7164 76.8293 14.7844 77.0257 14.7844C77.2749 14.7844 77.5241 14.6787 77.6978 14.4672C78.0075 14.0972 77.9546 13.5458 77.5846 13.2362C76.1195 12.0203 74.3523 11.0008 72.3434 10.2078C70.2212 9.36953 65.9392 8.25936 62.9637 7.92707C59.9806 7.60233 54.1806 8.38775 52.3076 10.1701C51.9602 10.5023 51.9451 11.0536 52.2774 11.401C52.6097 11.7484 53.161 11.7635 53.5084 11.4313V11.4388Z" fill="#767E83"/>
<path d="M50.5094 41.2622C50.5094 40.3333 49.7541 39.5781 48.8252 39.5781C47.8963 39.5781 47.1411 40.3333 47.1411 41.2622C47.1411 42.1912 47.8963 42.9464 48.8252 42.9464C49.7541 42.9464 50.5094 42.1912 50.5094 41.2622Z" fill="#767E83"/>
<path d="M63.9985 40.8472C63.9985 41.7761 64.7537 42.5313 65.6827 42.5313C66.6116 42.5313 67.3668 41.7761 67.3668 40.8472C67.3668 39.9183 66.6116 39.1631 65.6827 39.1631C64.7537 39.1631 63.9985 39.9183 63.9985 40.8472Z" fill="#767E83"/>
<path d="M55.1394 50.0989C55.1394 50.0989 55.1998 50.0989 55.23 50.0989C55.5019 50.0989 55.7436 49.9025 55.7889 49.6231C56.1514 47.4027 56.2269 43.9967 55.9702 41.8746C55.9324 41.565 55.6454 41.3384 55.3433 41.3837C55.0337 41.4215 54.8147 41.7009 54.8524 42.0105C55.0941 44.0118 55.011 47.3423 54.6712 49.4418C54.6183 49.7515 54.8298 50.0384 55.1394 50.0913V50.0989Z" fill="#767E83"/>
<path d="M47.4431 33.3176C45.6004 33.2723 44.0371 33.7179 42.791 34.6317C42.3983 34.9111 42.3152 35.4624 42.5946 35.8476C42.8816 36.2403 43.4254 36.3233 43.8105 36.0439C44.747 35.3642 45.9327 35.047 47.4053 35.0621C49.0744 35.0999 51.2796 35.6965 52.3293 36.3913C52.4804 36.4895 52.6465 36.5348 52.8127 36.5348C53.0921 36.5348 53.3715 36.3989 53.5377 36.1496C53.802 35.7494 53.6963 35.2056 53.296 34.9413C51.7856 33.9369 49.1499 33.3554 47.4355 33.3176H47.4431Z" fill="#767E83"/>
<path d="M71.2627 35.213C71.4968 34.7901 71.3458 34.2614 70.9229 34.0273C69.3596 33.1588 67.9171 32.8492 66.0971 32.9927C64.6848 33.0984 61.8679 33.5591 60.2895 34.6088C59.8892 34.8731 59.7835 35.4169 60.0478 35.8171C60.214 36.0664 60.4934 36.2023 60.7728 36.2023C60.939 36.2023 61.1051 36.157 61.2562 36.0588C62.321 35.3489 64.564 34.8505 66.2255 34.7296C67.7208 34.6164 68.8083 34.8429 70.077 35.5528C70.5 35.7869 71.0286 35.6359 71.2627 35.213Z" fill="#767E83"/>
<path d="M49.7852 56.435C49.6417 56.7824 49.8079 57.1827 50.1553 57.3262C50.261 57.3715 50.3819 57.4017 50.4876 57.447C50.4876 57.4546 50.4876 57.4621 50.4876 57.4772C50.7972 59.2218 51.8772 60.5962 53.3876 61.1627C54.3165 61.5101 55.404 61.6535 56.4689 61.6535C57.6772 61.6535 58.8629 61.4647 59.7465 61.1702C61.0908 60.7171 62.8051 59.4106 63.6207 57.0921C63.6358 57.0392 63.6358 56.9863 63.6434 56.9335C63.7038 56.9033 63.7718 56.8731 63.8246 56.8353C64.1494 56.6465 64.2551 56.2311 64.0663 55.9064C63.8775 55.5816 63.4621 55.4759 63.1374 55.6647C61.7705 56.4728 59.6181 56.9486 56.7332 57.0694C54.6715 57.16 52.4058 56.7824 50.6764 56.0725C50.329 55.929 49.9287 56.0952 49.7852 56.4426V56.435ZM56.0913 58.4363C56.3254 58.4363 56.5519 58.4363 56.7861 58.4212C58.81 58.3306 60.4866 58.0814 61.846 57.666C61.1361 58.8744 60.1316 59.5918 59.3085 59.8712C57.6621 60.4226 55.3209 60.4301 53.8634 59.8788C52.7759 59.471 52.2623 58.5798 52.0207 57.9152C53.3196 58.2475 54.7168 58.4363 56.0988 58.4363H56.0913Z" fill="#767E83"/>
<path d="M157.139 131.194C156.066 127.282 154.586 123.785 152.736 120.802C150.818 117.706 148.454 115.485 146.891 114.013C146.558 113.703 146.271 113.424 146.03 113.189C145.69 112.85 145.138 112.85 144.799 113.189C144.459 113.529 144.459 114.081 144.799 114.42C145.048 114.67 145.35 114.957 145.697 115.281C147.193 116.694 149.458 118.823 151.256 121.723C153.015 124.563 154.428 127.909 155.455 131.654C156.716 136.261 155.878 139.977 154.964 142.28C153.771 145.256 151.565 147.31 148.401 148.375C142.895 150.225 138.319 150.421 134.8 148.949C130.427 147.121 127.293 145.369 124.332 143.096L124.166 142.967C120.541 140.188 117.921 138.179 114.401 135.944C112.438 134.698 111.116 133.867 109.855 133.867C110.671 129.917 111.509 126.224 112.113 124.027C112.241 123.559 111.97 123.083 111.501 122.954C111.041 122.826 110.557 123.098 110.429 123.566C108.971 128.868 106.2 142.718 105.482 148.261C104.969 152.249 104.636 155.851 104.5 158.978C104.478 159.461 104.855 159.869 105.331 159.892C105.346 159.892 105.361 159.892 105.369 159.892C105.83 159.892 106.215 159.529 106.237 159.061C106.373 155.987 106.698 152.43 107.212 148.488C107.574 145.648 108.488 140.611 109.485 135.687C110.21 135.43 110.988 135.853 113.465 137.424C116.924 139.614 119.378 141.502 123.101 144.357L123.267 144.485C126.356 146.857 129.604 148.677 134.12 150.565C135.887 151.305 137.873 151.675 140.063 151.675C142.729 151.675 145.697 151.131 148.945 150.036C152.615 148.805 155.183 146.411 156.572 142.937C157.592 140.385 158.513 136.276 157.131 131.201L157.139 131.194Z" fill="#767E83"/>
<path d="M129.263 100.086L129.482 100.32C131.136 102.132 134.044 104.655 136.612 106.89C138.311 108.37 139.784 109.646 140.493 110.379C140.667 110.553 140.894 110.643 141.12 110.643C141.347 110.643 141.558 110.56 141.732 110.394C142.079 110.054 142.087 109.503 141.747 109.163C140.984 108.378 139.489 107.079 137.76 105.576C135.23 103.378 132.36 100.886 130.774 99.149L130.555 98.9149C120.782 88.2211 115.073 82.0208 113.593 80.4802C113.261 80.1328 112.709 80.1253 112.362 80.4575C112.014 80.7898 112.007 81.3411 112.339 81.6885C113.804 83.2141 119.506 89.4068 129.271 100.093L129.263 100.086Z" fill="#767E83"/>
<path d="M112.679 118.174C113.721 119.737 114.816 121.27 116.085 123.052C117.316 124.774 118.713 126.73 120.322 129.086C121.175 130.332 122.036 131.813 122.95 133.384C124.264 135.642 125.616 137.975 127.232 140.135C130.117 144.009 133.432 145.565 136.287 146.577C136.385 146.607 136.483 146.63 136.581 146.63C136.944 146.63 137.276 146.403 137.405 146.048C137.563 145.595 137.329 145.097 136.876 144.938C134.263 144.017 131.25 142.597 128.637 139.1C127.081 137.016 125.752 134.728 124.46 132.515C123.531 130.914 122.655 129.404 121.764 128.105C120.14 125.733 118.743 123.77 117.505 122.04C116.243 120.273 115.156 118.755 114.129 117.214C111.644 113.491 101.449 99.7539 97.8314 95.5851C97.9371 95.5323 98.0504 95.4794 98.1562 95.419C99.7119 94.5052 103.518 91.5297 105.384 89.4453C105.655 89.1432 105.942 88.826 106.244 88.4937C108.042 86.5302 110.277 84.0833 111.606 81.2437C111.742 80.9567 111.69 80.6395 111.523 80.3903C111.576 80.1184 111.516 79.8314 111.304 79.62L110.24 78.54C110.073 78.3739 109.854 78.2757 109.62 78.2757C109.386 78.2757 109.16 78.3739 108.993 78.54C108.993 78.54 108.842 78.6911 108.616 78.9327C107.559 78.1246 106.479 77.1655 105.95 75.9043C105.406 74.6205 103.677 67.0306 102.65 62.235C102.317 60.7019 101.472 59.3727 100.067 58.1568C99.2286 57.4394 95.5054 53.9579 93.3001 51.8282C93.3228 51.7224 93.353 51.6016 93.3832 51.4657C93.5041 50.9144 93.6778 50.1592 93.7533 49.5625C93.9194 48.2485 93.6098 47.2667 92.6733 46.1565C92.0843 45.4617 87.9986 40.7266 86.0199 38.6271C86.0728 37.2148 85.7782 36.233 85.1136 35.644C84.8871 35.4401 84.6152 35.3192 84.3282 35.2362C84.5624 33.4237 84.7587 30.9617 84.5548 27.971C84.2452 23.4247 82.7196 20.1395 80.5295 16.5975C80.2727 16.1897 79.7365 16.0613 79.3287 16.3181C78.9209 16.5749 78.7925 17.1111 79.0418 17.5189C81.1563 20.9325 82.5233 23.8853 82.8103 28.0919C83.0217 31.1278 82.8103 33.5369 82.5459 35.3797C81.1186 35.9385 79.4647 37.5471 78.7095 39.7146C78.7472 38.0607 78.7774 35.795 78.6944 35.1455C78.6339 34.6849 78.3243 32.4419 77.5389 31.3242C77.0027 29.4135 76.7233 27.8275 76.693 26.4757C76.693 26.2189 76.5647 25.9924 76.3759 25.8338C76.5798 25.8413 76.7912 25.864 76.9951 25.864C78.0071 25.864 78.9436 25.7432 79.7214 25.4788C80.1746 25.3202 80.4238 24.8293 80.2652 24.3687C80.1066 23.9155 79.6157 23.6663 79.155 23.8249C76.6477 24.6783 71.7237 23.6286 69.3977 21.7481C69.3599 21.7179 69.3146 21.7103 69.2769 21.6877C69.7678 21.4838 70.2435 21.2723 70.7193 21.0533C71.1573 20.8494 71.3461 20.3283 71.1422 19.8978C70.9383 19.4598 70.4248 19.271 69.9868 19.4749C67.6456 20.5548 65.4479 21.4309 62.1779 21.1439C59.3685 20.8947 57.6013 19.8601 55.3432 18.04C54.9656 17.7379 54.4219 17.7983 54.1198 18.1759C53.8177 18.5535 53.8781 19.0973 54.2557 19.3994C56.7252 21.3931 58.7945 22.6015 62.0344 22.8809C62.5102 22.9262 62.9708 22.9413 63.4164 22.9413C65.1761 22.9413 66.6638 22.6241 68.0383 22.1634C67.925 22.4957 68.0232 22.8809 68.3102 23.115C70.0321 24.5122 72.8037 25.4788 75.3865 25.7734C75.1222 25.932 74.9409 26.2038 74.9485 26.5361C74.9863 28.0692 75.2959 29.844 75.9076 31.9736C75.9378 32.0869 75.9982 32.2002 76.0738 32.2908C76.4136 32.6987 76.7912 34.0203 76.9649 35.3797C77.048 36.0367 76.98 39.4654 76.9196 41.4667C76.9121 41.7536 77.0404 42.0255 77.2746 42.1992C77.4256 42.3125 77.6068 42.3654 77.7881 42.3654C77.8863 42.3654 77.9845 42.3503 78.0751 42.3125L79.1399 41.9349C78.4527 44.631 77.2141 49.6683 76.8441 51.1862C75.6357 51.9112 74.1329 52.8099 73.4154 53.1498C72.6149 53.535 72.1089 54.2826 72.0862 55.1058C72.0636 55.9667 72.5545 56.7597 73.4154 57.243C74.1102 57.6282 74.941 57.7943 75.7415 57.8246C75.0391 58.3305 74.6842 58.7233 74.3443 59.1009C74.1027 59.3727 73.8686 59.6371 73.4834 59.9618C73.0454 60.3319 72.6527 60.6188 72.2751 60.8983C71.754 61.2759 71.2631 61.6384 70.7948 62.1142C70.2058 62.7108 69.9414 63.4433 70.0698 64.123C70.1907 64.78 70.6589 65.3238 71.3915 65.6561C71.7389 65.8147 72.1391 65.8827 72.5469 65.8827C73.1813 65.8827 73.8534 65.7165 74.4727 65.4975C74.5558 66.2225 74.7673 67.0381 74.9938 67.8991C75.3186 69.1225 75.6886 70.5121 75.5376 71.3882C75.2808 72.9137 74.1253 74.2882 72.0183 75.5947C71.6633 75.8137 71.248 76.0856 70.7797 76.3877C68.3177 77.9887 64.2321 80.6471 59.0437 82.4218C55.8492 80.7377 50.7893 77.6187 49.0296 75.8061C47.7986 74.5298 46.4393 72.7626 46.9981 71.5921C47.5872 70.3384 48.063 68.7449 48.3273 67.1741C49.8755 69.1225 51.6351 70.8142 53.2739 71.2145C54.369 71.4788 56.2721 71.6298 58.2357 71.6298C60.1992 71.6298 62.0872 71.4863 63.3938 71.1767C65.6216 70.648 68.3102 69.2282 70.5909 67.3855C70.9685 67.0834 71.0214 66.5321 70.7193 66.1621C70.4172 65.7845 69.8659 65.7316 69.4959 66.0337C67.0339 68.0199 64.519 69.1225 62.986 69.485C60.5768 70.059 55.6151 69.991 53.6742 69.5228C52.1864 69.1678 49.9661 66.8342 47.5721 63.1337C45.3064 59.6295 44.0377 55.1662 43.6978 53.8823C43.3127 52.4021 43.1919 51.8357 42.7387 49.555C42.6481 49.0868 42.1874 48.7696 41.7116 48.8677C41.2434 48.9584 40.9338 49.419 41.0244 49.8948C41.3114 51.3448 41.4624 52.1227 41.6437 52.8704C41.0697 52.5003 40.3069 51.7375 40.239 50.6425C40.1635 49.419 39.7707 47.3347 39.3252 44.9104C39.0306 43.3245 38.6983 41.5271 38.4038 39.7297C38.0489 37.5169 38.5171 36.5578 38.7814 36.4596C38.9249 36.4067 39.378 36.6258 39.8387 37.3961C39.8538 37.4187 39.8765 37.4338 39.8916 37.4565C40.0049 39.8732 40.2465 42.3352 40.2616 42.4635C40.3069 42.9167 40.6845 43.249 41.1301 43.249C41.1603 43.249 41.1905 43.249 41.2207 43.249C41.6965 43.2037 42.0515 42.7732 42.0062 42.2974C42.0062 42.2521 41.5833 38.0153 41.5833 35.2588V34.919C41.5681 33.114 41.6739 32.0643 41.8929 31.7848C41.9911 31.664 42.059 31.5281 42.0817 31.377C42.414 29.4739 42.565 27.9484 42.6103 26.0981C42.6254 25.6148 42.2403 25.2145 41.7569 25.207C41.7569 25.207 41.7418 25.207 41.7343 25.207C41.2661 25.207 40.8734 25.5846 40.8658 26.0603C40.828 27.752 40.6845 29.1718 40.3976 30.8937C39.8614 31.7697 39.8236 33.3104 39.8387 34.9341V34.9869C39.7481 34.9416 39.665 34.9039 39.5819 34.8737C39.5744 34.8132 39.5668 34.7604 39.5593 34.7C39.3856 33.5143 39.1439 31.8906 39.4007 28.1221C39.7254 23.3869 41.0622 19.5127 43.2523 16.9298C45.2611 14.5585 48.2593 12.9046 50.102 13.1764C50.5778 13.2444 51.0234 12.9121 51.0914 12.4363C51.1593 11.9605 50.827 11.515 50.3513 11.447C47.9119 11.0996 44.3549 12.9272 41.9231 15.8046C39.4913 18.6744 38.0187 22.896 37.6637 28.0088C37.3918 31.9661 37.6637 33.7711 37.8298 34.9643C37.8298 34.9869 37.8298 35.0096 37.8374 35.0398C36.7197 35.7346 36.2892 37.5471 36.6895 40.0318C36.984 41.8443 37.3163 43.6492 37.6184 45.2503C38.0564 47.6141 38.434 49.6607 38.5095 50.7709C38.6606 53.1724 40.7752 54.6904 41.9231 54.8641C41.9684 54.8641 42.0137 54.8717 42.059 54.8717C42.0968 54.8717 42.127 54.8566 42.1572 54.8566C42.6556 56.6313 43.9471 60.7472 46.1145 64.1004C46.4015 64.5384 46.7036 64.9915 47.0208 65.4522C46.8622 65.5881 46.7489 65.7845 46.7262 66.011C46.545 67.6801 46.0466 69.5454 45.4122 70.8822C45.2007 71.3353 45.1101 71.8186 45.1327 72.3322C44.8458 72.3473 44.5739 72.4908 44.4228 72.7626L44.1963 73.1629C43.9169 72.8231 43.4184 72.7324 43.0408 72.9817C40.0275 75.0056 35.7606 78.0642 33.291 81.3796C29.7038 82.8976 27.5439 83.5924 25.6332 84.2116C24.5381 84.5666 23.5035 84.9064 22.3631 85.3445C18.9118 86.6812 17.2881 87.8971 16.9407 89.4075C16.835 89.8757 17.1295 90.344 17.5977 90.4497C17.6657 90.4648 17.7261 90.4724 17.7941 90.4724C18.1943 90.4724 18.5493 90.2005 18.6399 89.7927C18.7683 89.2187 19.6292 88.2671 22.9899 86.9682C24.085 86.5453 25.0517 86.2281 26.1694 85.8656C27.272 85.5106 28.4652 85.1179 29.953 84.5666L28.1782 86.077C27.8913 86.3187 27.7931 86.7114 27.929 87.0588C28.065 87.4062 28.3897 87.6177 28.7824 87.6101H29.009L24.2209 90.5479C23.8886 90.7518 23.7376 91.1445 23.8358 91.5221C26.766 102.261 31.8108 117.683 37.1728 128.762C41.7192 138.156 48.5387 149.349 53.2739 156.274C53.4401 156.523 53.7195 156.652 53.9914 156.652C54.1575 156.652 54.3312 156.599 54.4823 156.501C54.8825 156.229 54.9807 155.685 54.7088 155.285C50.0114 148.412 43.2523 137.311 38.7361 127.991C33.5251 117.237 28.6163 102.314 25.686 91.6882L32.785 87.3231C33.1249 87.1117 33.2759 86.7038 33.1626 86.3262C33.0494 85.9486 32.7095 85.7145 32.2866 85.707L31.2444 85.7523L34.0991 83.3205C34.2804 83.1695 34.3785 82.958 34.4012 82.739C34.4541 82.6937 34.5069 82.6408 34.5447 82.5879C36.6215 79.703 40.2918 76.9541 43.1767 74.9754C42.2025 76.8408 41.1679 79.197 40.6392 82.233C39.8312 86.8398 40.171 92.9192 40.9791 101.242C41.9004 110.735 47.7986 131.699 49.3846 136.782C50.9101 141.676 55.4716 154.144 56.8159 156.644C56.9745 156.939 57.2766 157.105 57.5862 157.105C57.6693 157.105 57.7599 157.09 57.843 157.059C57.7599 157.301 57.6768 157.55 57.5937 157.784C56.2948 161.613 55.2752 164.634 55.1469 168.131C55.0185 171.846 55.162 185.931 55.2828 191.792C55.2903 192.267 55.6831 192.645 56.1513 192.645H56.1664C56.6497 192.637 57.0273 192.237 57.0198 191.754C56.8989 185.908 56.7479 171.862 56.8838 168.191C56.9971 164.951 57.9336 162.18 59.2401 158.343C59.4667 157.671 59.7008 156.976 59.9425 156.244C60.9846 153.087 62.8727 146.57 64.5417 140.815C65.0779 138.972 65.5763 137.243 65.9992 135.793C67.8948 129.313 70.6891 117.955 73.1435 107.933C74.654 101.785 76.0738 95.9854 77.1613 91.8393C80.1217 80.5413 80.2803 79.046 80.3407 76.0176C80.3483 75.5343 79.9707 75.134 79.4873 75.1265H79.4722C78.9964 75.1265 78.6113 75.5041 78.6037 75.9798C78.5509 78.4267 78.43 79.839 76.5949 87.0815C76.5193 86.8851 76.3834 86.7114 76.187 86.6057C75.7641 86.3791 75.2355 86.5453 75.0089 86.9757C74.2159 88.4937 71.1875 92.0508 70.1227 93.1458C70.0623 93.2138 70.0019 93.2666 69.9566 93.3044C69.8886 93.2138 69.8206 93.108 69.7526 93.0099L69.6318 92.8362C68.9748 91.8695 63.8998 86.7265 60.607 83.7132C65.5008 81.8856 69.3373 79.4085 71.7011 77.8754C72.1618 77.5733 72.562 77.3166 72.9094 77.0976C75.4696 75.5116 76.8818 73.7444 77.2292 71.7053C77.3274 71.1389 77.2897 70.5121 77.1915 69.8626C77.3727 70.0439 77.5766 70.2553 77.7957 70.4743C77.7277 70.648 77.6522 70.8217 77.5917 70.9954C77.2292 72.015 77.2746 72.8684 77.7277 73.397C77.9467 73.6462 78.3243 73.9181 78.9587 73.9181C79.1097 73.9181 79.2834 73.903 79.4647 73.8652C79.9405 73.7746 80.3634 73.616 80.7485 73.4121L82.2741 74.9074C82.7272 75.353 83.067 75.6853 83.2256 75.8439C83.9129 76.5236 84.4566 76.7124 85.0381 76.7124C85.3553 76.7124 85.6725 76.6595 86.035 76.5916L86.2465 76.5538C87.0696 76.4179 87.5379 76.1384 87.8626 75.7457C88.0137 77.2788 88.3082 78.9101 88.8671 80.1864C88.6783 79.9674 88.5046 79.7786 88.3762 79.6426C87.7267 78.978 86.9866 78.1851 86.4353 77.3543C86.1709 76.9541 85.6272 76.8483 85.2269 77.1127C84.8267 77.377 84.7209 77.9207 84.9853 78.321C85.6196 79.2726 86.4277 80.1411 87.1301 80.8585C87.4322 81.1682 87.9608 81.795 88.4743 82.4218L84.6907 81.946C84.298 81.9007 83.9053 82.1273 83.7694 82.5049C83.6259 82.8825 83.7694 83.3054 84.0941 83.532L91.8728 88.8184C90.9665 94.7166 89.1314 101.347 86.1105 109.632C85.9444 110.085 86.1785 110.584 86.6316 110.75C86.7298 110.788 86.828 110.803 86.9337 110.803C87.2887 110.803 87.621 110.584 87.7493 110.229C90.9061 101.574 92.7866 94.6864 93.6778 88.5315C93.7231 88.1992 93.5796 87.8744 93.3077 87.6856L88.0741 84.1361L90.4001 84.4307C90.7475 84.476 91.0949 84.3023 91.2686 83.9926C91.3517 83.8416 91.3895 83.6754 91.3744 83.5093C91.7973 83.8416 92.2429 84.1361 92.7262 84.3627C94.0856 85.3294 96.3663 87.6177 97.771 89.6341C96.9025 90.5403 96.1095 91.3711 96.0491 91.4315C95.883 91.6052 95.7999 91.8393 95.8074 92.0734C95.815 92.2849 95.9132 92.4737 96.0567 92.6172C95.8754 92.67 95.7017 92.7757 95.5809 92.9494C94.8332 94.037 95.0371 94.9281 95.4827 95.4039C95.5356 95.4643 95.596 95.5096 95.664 95.5625C95.6715 95.7664 95.747 95.9627 95.8905 96.1213C98.4734 98.825 109.786 113.952 112.626 118.211L112.679 118.174ZM45.6614 74.1069C46.0994 75.0056 46.7942 75.9723 47.7911 76.9994C49.5885 78.8572 54.1726 81.7195 57.3823 83.4866C54.0291 86.1676 51.0536 89.5208 49.8604 90.8651C49.6489 91.0992 49.4903 91.2804 49.3921 91.3862C49.3619 91.4164 49.3393 91.4466 49.3166 91.4692C49.1807 91.3409 49.007 91.1445 48.8408 90.9632C48.0554 90.1023 45.6312 86.1223 44.9137 84.5062C44.3096 83.1468 43.9093 81.5835 43.8413 80.3072C43.8187 79.9069 43.5166 79.6049 43.1465 79.5218C43.8866 77.2788 44.8684 75.5116 45.6538 74.1145L45.6614 74.1069ZM42.7387 101.038C41.9458 92.8664 41.6059 86.9078 42.3838 82.4973C42.3838 82.4671 42.3989 82.4369 42.4064 82.4067C42.6179 83.3507 42.9275 84.3174 43.3202 85.201C44.0754 86.9002 46.5676 91.0463 47.557 92.1263C48.1989 92.8286 48.6294 93.2968 49.3091 93.3044H49.3166C49.8981 93.3044 50.321 92.9343 50.6684 92.5643C50.7742 92.451 50.9403 92.2622 51.1669 92.0054C51.3406 91.8091 51.5596 91.5599 51.8164 91.2804C52.3375 92.2849 53.1229 93.3799 53.8932 94.4523C54.2935 95.0112 54.6786 95.5398 55.0034 96.0232C52.783 105.003 50.5476 122.373 49.9585 132.455C47.5117 123.943 43.4562 108.378 42.7463 101.03L42.7387 101.038ZM68.3479 93.9539C68.7407 94.5354 69.1107 95.0867 69.8131 95.1471C69.8508 95.1471 69.8886 95.1471 69.9339 95.1471C70.5381 95.1471 71.0214 94.7393 71.4141 94.3315C72.2297 93.4932 75.1524 90.1552 76.3456 88.1916C76.0964 89.1583 75.8245 90.208 75.5225 91.3711C74.435 95.5247 73.0076 101.34 71.4972 107.487C69.4808 115.696 67.2453 124.797 65.4706 131.36C65.161 120.802 63.6732 102.088 62.8123 96.3781C63.8544 95.2377 65.0326 93.8255 66.5581 91.9224C67.4492 92.8513 68.0761 93.5461 68.2347 93.7877L68.3479 93.9539ZM65.3347 90.6536C63.6279 92.7909 62.3591 94.3088 61.249 95.5021C61.0677 95.6984 60.9846 95.9703 61.0299 96.2346C62.0268 102.276 64.013 128.218 63.7638 136.284C63.7638 136.472 63.8242 136.646 63.93 136.797C63.6128 137.885 63.2729 139.055 62.918 140.294C61.3396 145.746 59.3685 152.536 58.3338 155.662C58.3338 155.662 58.3338 155.662 58.3338 155.67C57.05 153.185 52.9794 142.076 51.3255 136.986C51.469 136.835 51.5596 136.631 51.5596 136.412C51.6427 127.674 54.2406 106.143 56.7932 96.0911C56.8536 95.857 56.8159 95.6153 56.6875 95.4114C56.2948 94.7997 55.819 94.1351 55.313 93.4403C54.4672 92.2773 53.5987 91.069 53.1758 90.1174C53.1455 90.0494 53.1002 90.0041 53.0549 89.9513C54.5955 88.3124 56.7101 86.2054 58.9456 84.476C60.8638 86.1903 63.3938 88.6749 65.3347 90.6536ZM97.2046 93.5536L97.4765 93.7877C97.4085 93.833 97.3405 93.8708 97.2877 93.9086C97.1668 93.9841 97.0611 94.0294 96.978 94.0596C97.0007 94.0143 97.0309 93.9614 97.0762 93.901C97.1517 93.7953 97.1895 93.6745 97.2121 93.5536H97.2046ZM109.635 80.3903L109.93 80.6924C108.699 83.2148 106.637 85.4804 104.961 87.3156C104.651 87.6479 104.364 87.9726 104.085 88.2822C102.816 89.702 100.565 91.5674 98.9038 92.7984C98.8585 92.7304 98.8132 92.6549 98.7528 92.6021L97.99 91.945C98.8661 91.0312 100.407 89.4226 101.094 88.7429C101.691 88.1539 101.766 88.1614 102.748 88.2218C102.906 88.2294 103.073 88.2445 103.261 88.252C103.571 88.252 103.866 88.1161 104.032 87.8518C104.198 87.5874 104.213 87.2551 104.077 86.9833C103.782 86.4169 104.575 85.5559 105.414 84.7327C106.169 83.9775 108.51 81.576 109.635 80.4129V80.3903ZM92.258 49.3586C92.2126 49.7211 92.122 50.1592 92.0314 50.5745C91.9181 50.4612 91.8199 50.3631 91.7595 50.2875C91.4423 49.9477 91.0949 49.6532 90.7098 49.4039C90.1811 48.4146 89.4788 46.9117 88.9048 45.6732C88.5197 44.8425 88.1798 44.1099 87.9608 43.687C87.5152 42.826 86.6845 41.882 85.665 41.8443C85.2571 41.8216 84.5472 41.9424 83.9733 42.8789C83.1728 44.1779 82.4704 46.9117 83.2105 49.1019C82.5686 49.1774 82.0173 49.2378 81.6774 49.2756C80.6428 49.3737 79.7894 49.5021 78.6717 50.0836C79.3967 47.1459 80.7485 41.6932 81.0128 40.7417C81.3829 39.4427 81.5868 38.9065 82.3118 38.476C82.78 38.189 83.2558 38.1588 84.1319 38.8612C84.2074 38.9216 84.3358 39.0424 84.4868 39.201C84.5019 39.2161 84.517 39.2312 84.5397 39.2539C86.0124 40.7643 90.4228 45.8242 91.5179 47.1232C92.2655 48.0068 92.3486 48.5959 92.2504 49.3586H92.258ZM84.7663 48.9131C84.0261 47.2591 84.5699 44.7896 85.2647 43.6719C85.31 43.5964 85.4459 43.3547 85.6121 43.3547C85.8462 43.3622 86.2993 43.755 86.6165 44.3742C86.828 44.7896 87.1603 45.4995 87.5303 46.3076C87.8626 47.025 88.2402 47.8406 88.6027 48.5959C88.1723 48.5354 87.7342 48.5203 87.3113 48.5808C86.7298 48.6638 85.7556 48.7922 84.7587 48.9131H84.7663ZM83.9582 36.9429C83.9582 36.9429 84.0035 36.9883 84.0261 37.0185C83.9657 36.9883 83.8978 36.9656 83.8298 36.9429C83.8449 36.9278 83.86 36.9203 83.8751 36.9052C83.9053 36.9127 83.9355 36.9203 83.9506 36.9354L83.9582 36.9429ZM73.8383 55.1436C73.8383 54.9699 73.9743 54.8037 74.1857 54.7055C75.1449 54.2448 77.1915 53.0063 78.5433 52.1831L79.0795 51.8584C80.167 51.2013 80.8467 51.1032 81.8587 51.005C82.9538 50.8993 86.2465 50.4914 87.5681 50.3026C88.5801 50.1592 89.6902 50.6047 90.4757 51.4657C90.9514 51.9868 92.5072 53.4821 94.1686 55.0529C93.3001 54.849 92.3259 54.6225 91.3517 54.3959C89.9244 54.0636 88.5725 53.7464 87.7796 53.5576C85.9444 53.112 84.4415 53.18 83.3011 53.7615C83.1199 53.8521 82.8556 53.9881 82.5384 54.1467C81.9267 54.1165 81.6397 54.1089 80.892 53.9956C80.5295 53.9428 80.1821 54.1165 80.0084 54.4337C79.9102 54.6073 79.4873 55.0982 77.6597 55.8308C76.9347 56.1178 75.2204 56.216 74.2839 55.6949C74.0045 55.5363 73.8459 55.3324 73.8459 55.136L73.8383 55.1436ZM78.9813 67.6876C78.8227 68.1483 78.6566 68.5561 78.4904 68.9413C77.2594 67.6876 76.8063 67.1816 76.6553 66.9928C76.6251 66.9551 76.5873 66.94 76.5571 66.9097C76.3608 66.1696 76.2022 65.4824 76.1946 64.9689C76.1946 64.8707 76.1644 64.7725 76.1342 64.6819C76.2475 64.6063 76.3532 64.5384 76.4363 64.478L76.6477 64.3194C77.4331 63.7379 78.2488 63.1337 78.717 62.1519C80.2879 61.7743 82.1004 61.1399 83.3087 60.5811C82.8405 60.9209 82.4251 61.3816 82.0626 62.0764C81.7379 62.6881 81.4509 63.1412 81.1488 63.617C80.892 64.0173 80.6353 64.4175 80.3558 64.9235C80.2048 65.1954 80.0764 65.4069 79.9631 65.6032C79.6082 66.1998 79.3589 66.6228 78.9889 67.6876H78.9813ZM86.0501 75.0358L85.8311 75.0736C84.9249 75.2322 84.8493 75.2397 84.3509 74.7413C84.1923 74.5827 83.8524 74.2504 83.3918 73.7973L82.055 72.4832C82.4327 72.1207 82.7498 71.7355 83.0293 71.3806C83.5428 70.7085 84.3735 69.4548 84.5623 68.1936C85.6121 67.3025 86.3144 66.3584 86.8431 65.6561L86.9564 65.5051C87.2358 65.4446 87.5152 65.3993 87.772 65.3465C88.1949 65.2709 88.5725 65.1954 88.9199 65.1048C88.3309 68.3144 87.3868 73.2309 87.1376 73.9257C86.8129 74.8319 86.7827 74.9074 86.0652 75.0283L86.0501 75.0358ZM93.7155 82.8523C93.6777 82.8221 93.6324 82.7994 93.5871 82.7767C92.3637 82.2028 91.397 81.221 90.6494 79.7559C90.015 78.5098 89.6147 76.3423 89.5241 73.6311C89.509 73.2611 89.2673 72.959 88.935 72.8457C89.222 71.5316 89.577 69.6889 89.8715 68.1407C90.1132 69.6889 90.5512 71.0483 90.8306 71.9168C91.533 74.0843 91.7293 75.1642 91.6689 76.5614C91.6462 77.0447 92.0163 77.4525 92.4996 77.4752C92.5147 77.4752 92.5298 77.4752 92.5374 77.4752C92.9981 77.4752 93.3832 77.1127 93.4059 76.6444C93.489 74.847 93.1567 73.465 92.4845 71.3882C91.903 69.5908 90.5361 65.3842 92.3561 62.5975C92.6205 62.1972 92.5072 61.6535 92.0994 61.3891C91.6991 61.1248 91.1553 61.2381 90.891 61.6459C90.7626 61.8423 90.6569 62.0386 90.5512 62.235C90.385 62.386 90.2038 62.5522 90.0527 62.6806C89.796 62.8996 89.5316 63.1337 89.3202 63.3527C89.1163 63.5717 88.2025 63.7379 87.4699 63.8738C87.1074 63.9418 86.7223 64.0097 86.3295 64.0928C86.1558 64.1306 85.9973 64.2287 85.8915 64.3722L85.597 64.7574C85.0532 65.4824 84.3811 66.3886 83.3389 67.2194C83.1652 67.3553 83.067 67.5592 83.0595 67.7782C83.0293 68.473 82.561 69.4775 81.7983 70.4743C81.1865 71.2824 80.3936 72.1358 79.223 72.3548C79.0115 72.3926 78.9058 72.3775 78.9209 72.3926C78.8983 72.3473 78.8378 72.0527 79.0493 71.4712C79.2003 71.0408 79.3891 70.6178 79.5931 70.1647C79.8423 69.5907 80.1293 68.9488 80.3936 68.1785C80.7108 67.2647 80.9071 66.9249 81.2394 66.3736C81.3603 66.1696 81.4962 65.9431 81.6548 65.6561C81.9191 65.1879 82.1608 64.8103 82.4024 64.4327C82.7121 63.9493 83.0293 63.4509 83.3842 62.7787C83.8676 61.8574 84.3886 61.5855 85.4535 61.1777C85.8462 61.0266 86.4353 60.8152 87.0923 60.5962C87.115 60.5886 87.1452 60.5811 87.1678 60.5735C88.3913 60.1582 89.8186 59.705 90.6494 59.554C91.7973 59.335 92.341 59.4709 93.1944 59.8712C93.572 60.0524 94.0252 59.8863 94.1989 59.5087C94.3801 59.1311 94.214 58.6779 93.8363 58.5042C92.7715 57.9982 91.8955 57.7792 90.3699 58.0738C89.4486 58.2475 87.9759 58.7081 86.7525 59.1235C86.3144 59.0178 85.9368 58.98 85.5366 58.9423C85.1137 58.9045 84.6379 58.8592 83.9582 58.7233C83.7618 58.6855 83.5579 58.7233 83.3918 58.8365C82.6063 59.3576 80.0764 60.3167 77.9845 60.7774C77.7277 60.8378 77.5162 61.0266 77.4331 61.2759C77.1688 62.0613 76.5042 62.5522 75.7415 63.1186L75.5225 63.2772C74.6766 63.9116 72.7962 64.6215 72.0258 64.2741C71.8672 64.2061 71.6029 64.055 71.5652 63.8436C71.5349 63.6623 71.6558 63.4056 71.8823 63.1714C72.2675 62.7787 72.6904 62.4691 73.1813 62.1066C73.5589 61.8272 73.9894 61.51 74.4727 61.1097C74.941 60.717 75.2279 60.3923 75.4847 60.1053C75.8472 59.6975 76.1644 59.3501 76.9649 58.8214C77.9996 58.1417 80.6655 56.7899 82.4251 55.9063C82.4402 55.9063 82.4478 55.9063 82.4629 55.9063C82.7725 55.9063 83.0444 55.7477 83.2105 55.5136C83.5353 55.3475 83.8071 55.2191 83.9884 55.1209C84.7965 54.7055 85.9519 54.6829 87.4246 55.0378C88.2251 55.2342 89.5845 55.5514 91.0119 55.8837C93.2473 56.4048 95.7848 56.9938 96.3437 57.16C96.3663 57.16 96.3814 57.16 96.4041 57.16C97.5898 58.2701 98.5866 59.1764 98.934 59.4785C100.044 60.4376 100.709 61.4571 100.95 62.605C101.215 63.8436 103.571 74.7413 104.349 76.584C105.013 78.1473 106.214 79.2726 107.4 80.1939C106.222 81.4023 104.742 82.9202 104.183 83.4791C103.473 84.1814 102.408 85.2387 102.272 86.4471C101.381 86.4471 100.777 86.5981 99.8705 87.4968C99.659 87.7083 99.3721 87.9953 99.0549 88.3276C97.4765 86.145 95.1278 83.8416 93.7155 82.8598V82.8523Z" fill="#767E83"/>
<path d="M106.245 164.74C106.214 164.256 105.799 163.901 105.323 163.924C104.84 163.954 104.477 164.369 104.508 164.845L104.576 166.038C104.87 171.023 106.433 186.399 107.249 191.761C107.317 192.191 107.687 192.501 108.11 192.501C108.155 192.501 108.201 192.501 108.238 192.494C108.714 192.426 109.039 191.98 108.971 191.504C108.17 186.218 106.615 170.894 106.32 165.94L106.252 164.747L106.245 164.74Z" fill="#767E83"/>
<path d="M85.6726 113.385C85.2271 113.218 84.7211 113.437 84.5474 113.883C83.8299 115.748 83.0747 117.652 82.2968 119.577C78.9739 127.802 74.0499 136.011 69.7075 143.253C65.7124 149.914 62.2611 155.669 61.0905 159.755C60.9546 160.215 61.2264 160.699 61.6871 160.835C61.7702 160.857 61.8457 160.865 61.9288 160.865C62.3064 160.865 62.6538 160.616 62.7671 160.23C63.8772 156.364 67.2757 150.7 71.2028 144.144C75.5755 136.841 80.5372 128.572 83.913 120.219C84.6984 118.286 85.4536 116.375 86.1786 114.502C86.3523 114.049 86.1258 113.551 85.6802 113.377L85.6726 113.385Z" fill="#767E83"/>
<path d="M4.20829 145.904C3.7174 145.859 3.30959 146.229 3.27183 146.705L2.97729 150.496C2.43354 157.58 1.96531 163.689 1.67078 166.212C1.12702 170.902 0.379365 185.424 0.115041 189.653L0.00175903 191.36C-0.0284494 191.844 0.334052 192.259 0.809836 192.289C0.832492 192.289 0.847596 192.289 0.870253 192.289C1.32338 192.289 1.70854 191.934 1.73875 191.474L1.85203 189.759C2.1239 185.538 2.86401 171.045 3.40021 166.408C3.69474 163.855 4.17053 157.723 4.71428 150.624L5.00881 146.833C5.04657 146.35 4.68407 145.934 4.20829 145.896V145.904Z" fill="#767E83"/>
<path d="M13.7461 90.1244C12.349 90.7663 10.8235 92.9111 9.84925 95.5921C8.35393 99.7005 6.70757 110.296 4.94037 127.1C4.61563 130.173 4.23803 134.486 3.74714 140.656C3.70938 141.139 4.06433 141.554 4.54766 141.592C4.57032 141.592 4.59298 141.592 4.61563 141.592C5.06876 141.592 5.44636 141.245 5.48413 140.792C5.97501 134.637 6.35262 130.339 6.67736 127.281C8.4219 110.621 10.0456 100.161 11.4881 96.1887C12.4849 93.4549 13.8217 92.0124 14.4787 91.7103C14.9167 91.5064 15.1055 90.9929 14.9092 90.5548C14.7053 90.1168 14.1917 89.928 13.7537 90.1244H13.7461Z" fill="#767E83"/>
<path d="M19.9765 127.598C19.9463 127.115 19.531 126.768 19.0552 126.783C18.5718 126.813 18.2093 127.228 18.2396 127.704C18.6021 133.58 20.8526 156.576 21.7286 161.968C21.4341 165.306 19.7273 189.654 19.8028 191.678C19.8179 192.146 20.2107 192.516 20.6713 192.516C20.6789 192.516 20.694 192.516 20.7015 192.516C21.1849 192.501 21.5549 192.093 21.5398 191.61C21.4945 190.515 22.2422 177.979 22.7029 171.831C23.0503 177.08 23.2391 188.37 23.0956 191.451C23.0729 191.935 23.443 192.343 23.9263 192.365C23.9414 192.365 23.9565 192.365 23.9641 192.365C24.4247 192.365 24.8099 192.003 24.8326 191.535C25.0818 186.074 24.3039 166.93 23.4581 161.794C22.6047 156.636 20.3315 133.489 19.9765 127.598Z" fill="#767E83"/>
<path d="M18.6932 118.067C19.1766 118.052 19.5542 117.651 19.5391 117.168C19.3578 110.394 19.3201 102.917 19.4333 97.1548C19.4409 96.6715 19.0633 96.2788 18.5799 96.2637H18.5648C18.0891 96.2637 17.7039 96.6413 17.6963 97.1171C17.5755 102.902 17.6208 110.416 17.8021 117.213C17.8172 117.689 18.2023 118.059 18.6706 118.059C18.6781 118.059 18.6857 118.059 18.6932 118.059V118.067Z" fill="#767E83"/>
<path d="M90.8332 0.557617L85.3513 12.5187" stroke="#2D29FF" stroke-width="1.42112"/>
<path d="M111.266 4.04639L92.8269 17.003" stroke="#2D29FF" stroke-width="1.42112"/>
<path d="M116.748 20.9897L96.8137 24.9774" stroke="#2D29FF" stroke-width="1.42112"/>
</svg>
