<svg width="12" height="11" viewBox="0 0 12 11" fill="none" xmlns="http://www.w3.org/2000/svg">
<path id="Union" fill-rule="evenodd" clip-rule="evenodd" d="M1.3333 1.61914C-0.507631 3.61787 -0.379709 6.73053 1.61902 8.57146C3.49352 10.298 6.34778 10.2928 8.21391 8.63673L10.3792 10.6311C10.5823 10.8182 10.8986 10.8052 11.0857 10.602C11.2728 10.3989 11.2598 10.0826 11.0567 9.89553L8.89143 7.90123C10.3892 5.90549 10.1603 3.06008 8.28563 1.33342C6.2869 -0.507516 3.17423 -0.379595 1.3333 1.61914ZM2.2965 7.83592C0.703996 6.36914 0.602074 3.88911 2.06885 2.29661C3.53562 0.704111 6.01565 0.602188 7.60815 2.06896C9.20065 3.53573 9.30258 6.01577 7.8358 7.60827C6.36903 9.20077 3.889 9.30269 2.2965 7.83592Z" fill="#949494"/>
</svg>
