<svg width="12" height="11" viewBox="0 0 12 11" fill="none" xmlns="http://www.w3.org/2000/svg">
<path id="Union" fill-rule="evenodd" clip-rule="evenodd" d="M2.2965 7.83604C0.703997 6.36926 0.602075 3.88923 2.06885 2.29673C3.53562 0.704233 6.01565 0.60231 7.60815 2.06908C9.20065 3.53586 9.30258 6.01589 7.8358 7.60839C6.36903 9.20089 3.889 9.30281 2.2965 7.83604ZM1.3333 1.61926C-0.507629 3.61799 -0.379708 6.73065 1.61902 8.57158C3.49352 10.2981 6.34778 10.2929 8.21391 8.63686L10.3792 10.6312C10.5823 10.8183 10.8986 10.8053 11.0857 10.6022C11.2728 10.399 11.2598 10.0827 11.0567 9.89565L8.89143 7.90136C10.3892 5.90561 10.1603 3.0602 8.28563 1.33354C6.2869 -0.507395 3.17423 -0.379473 1.3333 1.61926Z" fill="#949494"/>
</svg>
