<svg width="11" height="12" viewBox="0 0 11 12" fill="none" xmlns="http://www.w3.org/2000/svg">
<g id="Group 2073">
<ellipse id="Ellipse 8" cx="5.71717" cy="6.36133" rx="5.2826" ry="5.5" fill="#FF0076"/>
<g id="add">
<mask id="mask0_4_3451" style="mask-type:alpha" maskUnits="userSpaceOnUse" x="1" y="2" width="9" height="9">
<rect id="Bounding box" x="1.70219" y="2.62109" width="7.81825" height="7.48" fill="white"/>
</mask>
<g mask="url(#mask0_4_3451)">
<path id="add_2" d="M5.61124 8.54302C5.51894 8.54302 5.44163 8.5131 5.3793 8.45326C5.31675 8.39363 5.28548 8.31966 5.28548 8.23135V6.67302H3.65668C3.56438 6.67302 3.48696 6.6431 3.42441 6.58326C3.36208 6.52363 3.33092 6.44966 3.33092 6.36135C3.33092 6.27305 3.36208 6.19898 3.42441 6.13914C3.48696 6.0795 3.56438 6.04969 3.65668 6.04969H5.28548V4.49135C5.28548 4.40305 5.31675 4.32898 5.3793 4.26914C5.44163 4.2095 5.51894 4.17969 5.61124 4.17969C5.70354 4.17969 5.78096 4.2095 5.84351 4.26914C5.90584 4.32898 5.937 4.40305 5.937 4.49135V6.04969H7.5658C7.6581 6.04969 7.73541 6.0795 7.79774 6.13914C7.86029 6.19898 7.89156 6.27305 7.89156 6.36135C7.89156 6.44966 7.86029 6.52363 7.79774 6.58326C7.73541 6.6431 7.6581 6.67302 7.5658 6.67302H5.937V8.23135C5.937 8.31966 5.90584 8.39363 5.84351 8.45326C5.78096 8.5131 5.70354 8.54302 5.61124 8.54302Z" fill="white"/>
</g>
</g>
</g>
</svg>
