<svg xmlns="http://www.w3.org/2000/svg" width="12" height="18" viewBox="0 0 12 18" fill="none">
  <path fill-rule="evenodd" clip-rule="evenodd" d="M11.6006 2.37891C11.6006 3.477 10.7104 4.36719 9.6123 4.36719C9.24494 4.36719 8.90085 4.26756 8.60558 4.09385L4.11889 8.58054C4.1743 8.76335 4.2041 8.9573 4.2041 9.1582C4.2041 9.35921 4.17427 9.55325 4.1188 9.73614L8.42438 14.0422C8.75581 13.7949 9.16696 13.6484 9.6123 13.6484C10.7104 13.6484 11.6006 14.5386 11.6006 15.6367C11.6006 16.7348 10.7104 17.625 9.6123 17.625C8.51421 17.625 7.62402 16.7348 7.62402 15.6367C7.62402 15.3486 7.68531 15.0748 7.79557 14.8276L3.57645 10.608C3.22077 10.9419 2.74218 11.1465 2.21582 11.1465C1.11772 11.1465 0.227539 10.2563 0.227539 9.1582C0.227539 8.06011 1.11772 7.16992 2.21582 7.16992C2.74228 7.16992 3.22095 7.37453 3.57664 7.70857L7.89818 3.38703C7.72397 3.09144 7.62402 2.74684 7.62402 2.37891C7.62402 1.28081 8.51421 0.390625 9.6123 0.390625C10.7104 0.390625 11.6006 1.28081 11.6006 2.37891Z" fill="white"/>
</svg>