<svg width="22" height="22" viewBox="0 0 22 22" fill="none" xmlns="http://www.w3.org/2000/svg">
<g id="Group 2038">
<circle id="Ellipse 35" cx="10.9243" cy="10.9243" r="10.9243" fill="#2D29FF"/>
<path id="Vector (Stroke)" fill-rule="evenodd" clip-rule="evenodd" d="M10.9242 4.7793C11.3484 4.7793 11.6923 5.12319 11.6923 5.54741V10.1561H16.301C16.7252 10.1561 17.0691 10.5 17.0691 10.9242C17.0691 11.3484 16.7252 11.6923 16.301 11.6923H11.6923V16.301C11.6923 16.7252 11.3484 17.0691 10.9242 17.0691C10.5 17.0691 10.1561 16.7252 10.1561 16.301V11.6923H5.54741C5.12319 11.6923 4.7793 11.3484 4.7793 10.9242C4.7793 10.5 5.12319 10.1561 5.54741 10.1561H10.1561V5.54741C10.1561 5.12319 10.5 4.7793 10.9242 4.7793Z" fill="white"/>
</g>
</svg>
