<svg width="22" height="22" viewBox="0 0 22 22" fill="none" xmlns="http://www.w3.org/2000/svg">
<g id="Group 2039">
<circle id="Ellipse 36" cx="10.9243" cy="10.9243" r="10.9243" fill="#C8C8C8"/>
<path id="Vector (Stroke)" fill-rule="evenodd" clip-rule="evenodd" d="M10.9239 4.7793C11.3482 4.7793 11.6921 5.12319 11.6921 5.54741V10.1561H16.3007C16.725 10.1561 17.0688 10.5 17.0688 10.9242C17.0688 11.3484 16.725 11.6923 16.3007 11.6923H11.6921V16.301C11.6921 16.7252 11.3482 17.0691 10.9239 17.0691C10.4997 17.0691 10.1558 16.7252 10.1558 16.301V11.6923H5.54716C5.12295 11.6923 4.77905 11.3484 4.77905 10.9242C4.77905 10.5 5.12295 10.1561 5.54716 10.1561H10.1558V5.54741C10.1558 5.12319 10.4997 4.7793 10.9239 4.7793Z" fill="white"/>
</g>
</svg>
