<svg width="24" height="23" viewBox="0 0 24 23" fill="none" xmlns="http://www.w3.org/2000/svg">
<path id="Vector" d="M23.5023 11.3154L13.2734 0.941554L12.5877 0.245848C12.4315 0.0883782 12.2203 0 12 0C11.7798 0 11.5686 0.0883782 11.4124 0.245848L0.497791 11.3154C0.337715 11.4772 0.211205 11.6699 0.125727 11.8821C0.0402491 12.0943 -0.0024636 12.3217 0.000109727 12.551C0.0106987 13.4965 0.78634 14.2513 1.71817 14.2513H2.84325V23H21.1569V14.2513H22.3058C22.7584 14.2513 23.1846 14.0713 23.505 13.7463C23.6627 13.5868 23.7876 13.3971 23.8726 13.1882C23.9576 12.9794 24.0009 12.7555 24 12.5295C24 12.0729 23.8226 11.6404 23.5023 11.3154ZM13.4825 21.066H10.5176V15.5863H13.4825V21.066ZM19.2508 12.3173V21.066H15.1767V14.9416C15.1767 14.348 14.7029 13.8672 14.1178 13.8672H9.88226C9.29722 13.8672 8.82336 14.348 8.82336 14.9416V21.066H4.74926V12.3173H2.20791L12.0027 2.38669L12.6142 3.00718L21.7948 12.3173H19.2508Z" fill="#C8C8C8"/>
</svg>
