<svg width="20" height="21" viewBox="0 0 20 21" fill="none" xmlns="http://www.w3.org/2000/svg">
<g id="Group 2080" opacity="0.5">
<circle id="Ellipse 8" cx="10" cy="10.709" r="10" fill="#2D29FF"/>
<g id="add">
<mask id="mask0_4_3229" style="mask-type:alpha" maskUnits="userSpaceOnUse" x="2" y="3" width="16" height="15">
<rect id="Bounding box" x="2.83087" y="3.89648" width="14.3382" height="13.6259" fill="white"/>
</mask>
<g mask="url(#mask0_4_3229)">
<path id="add_2" d="M9.99918 14.6838C9.82991 14.6838 9.68812 14.6293 9.57381 14.5203C9.45911 14.4117 9.40176 14.2769 9.40176 14.116V11.2773H6.41463C6.24535 11.2773 6.10337 11.2228 5.98866 11.1138C5.87435 11.0052 5.8172 10.8704 5.8172 10.7096C5.8172 10.5487 5.87435 10.4138 5.98866 10.3048C6.10337 10.1961 6.24535 10.1418 6.41463 10.1418H9.40176V7.3031C9.40176 7.14224 9.45911 7.0073 9.57381 6.89829C9.68812 6.78967 9.82991 6.73535 9.99918 6.73535C10.1685 6.73535 10.3104 6.78967 10.4251 6.89829C10.5395 7.0073 10.5966 7.14224 10.5966 7.3031V10.1418H13.5837C13.753 10.1418 13.8948 10.1961 14.0091 10.3048C14.1238 10.4138 14.1812 10.5487 14.1812 10.7096C14.1812 10.8704 14.1238 11.0052 14.0091 11.1138C13.8948 11.2228 13.753 11.2773 13.5837 11.2773H10.5966V14.116C10.5966 14.2769 10.5395 14.4117 10.4251 14.5203C10.3104 14.6293 10.1685 14.6838 9.99918 14.6838Z" fill="white"/>
</g>
</g>
</g>
</svg>
