<svg xmlns="http://www.w3.org/2000/svg" width="15" height="15" viewBox="0 0 15 15" fill="none">
  <path fill-rule="evenodd" clip-rule="evenodd" d="M10.7481 14.4594C9.72742 14.4218 6.83465 14.022 3.80508 10.9931C0.776211 7.96356 0.377135 5.0715 0.338858 4.05006C0.282151 2.49345 1.47442 0.981502 2.85169 0.391039C3.01754 0.319423 3.19916 0.292157 3.37873 0.311916C3.5583 0.331675 3.72965 0.39778 3.87596 0.503745C5.0101 1.33025 5.79266 2.58064 6.46464 3.5638C6.61249 3.7798 6.67571 4.04265 6.64224 4.30226C6.60878 4.56188 6.48097 4.8001 6.28317 4.97155L4.90023 5.99866C4.83342 6.04691 4.78639 6.11776 4.76787 6.19807C4.74936 6.27838 4.76063 6.36267 4.79958 6.4353C5.11288 7.0045 5.67003 7.85227 6.30798 8.49022C6.94594 9.12818 7.83411 9.72219 8.443 10.0709C8.51935 10.1138 8.60921 10.1258 8.69411 10.1044C8.77902 10.0831 8.85252 10.03 8.8995 9.9561L9.79972 8.58592C9.96523 8.36607 10.2094 8.21879 10.481 8.17492C10.7527 8.13105 11.0308 8.194 11.2571 8.35058C12.2544 9.04099 13.4183 9.81008 14.2704 10.901C14.3849 11.0484 14.4578 11.2238 14.4814 11.409C14.5049 11.5941 14.4783 11.7822 14.4043 11.9536C13.811 13.338 12.3097 14.5168 10.7481 14.4594Z" fill="#2D29FF"/>
</svg>