<svg xmlns="http://www.w3.org/2000/svg" width="17" height="15" viewBox="0 0 17 15" fill="none">
  <path d="M0.509766 2.04252V9.98297C0.509766 10.9419 1.28467 11.7198 2.24136 11.7198H10.0424L12.7837 14.6973V11.7196H14.609C15.5651 11.7196 16.3406 10.9416 16.3406 9.9827V2.04252C16.3403 1.08335 15.5651 0.305664 14.609 0.305664H2.24136C1.28467 0.305664 0.509766 1.08335 0.509766 2.04252ZM11.5368 6.01248C11.5368 5.39604 12.0349 4.89606 12.6499 4.89606C13.265 4.89606 13.7631 5.39604 13.7631 6.01248C13.7631 6.62945 13.265 7.12916 12.6499 7.12916C12.0349 7.12916 11.5368 6.62972 11.5368 6.01248ZM7.31188 6.01248C7.31188 5.39604 7.81054 4.89606 8.42503 4.89606C9.03952 4.89606 9.53818 5.39604 9.53818 6.01248C9.53818 6.62945 9.03952 7.12916 8.42503 7.12916C7.81054 7.12916 7.31188 6.62972 7.31188 6.01248ZM3.08724 6.01248C3.08724 5.39604 3.5859 4.89606 4.20039 4.89606C4.81541 4.89606 5.31354 5.39604 5.31354 6.01248C5.31354 6.62945 4.81541 7.12916 4.20039 7.12916C3.58564 7.12943 3.08724 6.62972 3.08724 6.01248Z" fill="#2D29FF"/>
</svg>