<svg width="22" height="22" viewBox="0 0 22 22" fill="none" xmlns="http://www.w3.org/2000/svg">
<path id="Vector (Stroke)" fill-rule="evenodd" clip-rule="evenodd" d="M7.87334 12.6343C7.42386 12.7094 6.9765 12.8008 6.53125 12.9085C5.06458 13.2632 3.62083 13.7958 2.2 14.5063C1.53633 14.8509 1.00375 15.3496 0.60225 16.0022C0.20075 16.6549 0 17.3708 0 18.15V22H22V18.15C22.0009 17.3717 21.8006 16.6558 21.3991 16.0022C20.9976 15.3487 20.4646 14.85 19.8 14.5063C18.3792 13.7977 16.9354 13.2651 15.4687 12.9085C15.0241 12.8004 14.5774 12.7087 14.1286 12.6335C13.0968 12.4605 12.054 12.3744 11 12.375C9.94666 12.3756 8.90445 12.4621 7.87334 12.6343ZM8.25676 10.2769C9.07351 10.7588 9.98765 10.9999 10.9992 11C10.9994 11 10.9997 11 11 11C12.0126 11 12.9277 10.7586 13.7451 10.2758C14.1487 10.0375 14.5284 9.74034 14.8844 9.38437C15.9615 8.30729 16.5 7.0125 16.5 5.5C16.5 3.9875 15.9615 2.69271 14.8844 1.61563C13.8073 0.538542 12.5125 0 11 0C9.4875 0 8.19271 0.538542 7.11562 1.61563C6.03854 2.69271 5.5 3.9875 5.5 5.5C5.5 7.0125 6.03854 8.30729 7.11562 9.38437C7.47215 9.7409 7.85253 10.0384 8.25676 10.2769ZM18.7669 16.5342C17.4962 15.902 16.2181 15.4329 14.9311 15.1199C13.6413 14.8063 12.3327 14.6501 11.0014 14.6509C9.66823 14.6517 8.3578 14.8082 7.06629 15.1206C5.78139 15.4314 4.50516 15.8998 3.23598 16.5328C2.95374 16.682 2.72885 16.8889 2.54069 17.1947C2.36369 17.4824 2.27586 17.7844 2.27586 18.15V19.7241H19.7241V18.1473C19.7246 17.784 19.6374 17.4825 19.4599 17.1935C19.2722 16.888 19.0481 16.6822 18.7669 16.5342ZM8.7249 7.7751C9.37858 8.42878 10.0959 8.72414 11 8.72414C11.9041 8.72414 12.6214 8.42878 13.2751 7.7751C13.9288 7.12142 14.2241 6.40411 14.2241 5.5C14.2241 4.59589 13.9288 3.87858 13.2751 3.2249C12.6214 2.57122 11.9041 2.27586 11 2.27586C10.0959 2.27586 9.37858 2.57122 8.7249 3.2249C8.07122 3.87858 7.77586 4.59589 7.77586 5.5C7.77586 6.40411 8.07122 7.12142 8.7249 7.7751Z" fill="#C8C8C8"/>
</svg>
