<svg width="78" height="22" viewBox="0 0 78 22" fill="none" xmlns="http://www.w3.org/2000/svg">
<g id="logo">
<path id="Vector" d="M77.5376 8.31965V11.6496H75.3176L73.4576 8.31965H77.5376ZM72.9476 16.6296C72.9476 17.0896 73.1076 17.4797 73.4276 17.7997C73.7676 18.1196 74.1676 18.2796 74.6276 18.2796H77.5376V21.7596H74.6276C73.8476 21.7596 73.1076 21.6196 72.4076 21.3396C71.7276 21.0396 71.1276 20.6396 70.6076 20.1396C70.1076 19.6196 69.7076 19.0196 69.4076 18.3396C69.1076 17.6596 68.9576 16.9296 68.9576 16.1496V11.6496H66.7976V8.31965H68.9576V2.88965H72.9476V16.6296Z" fill="#2D29FF"/>
<path id="Vector_2" d="M57.8691 6.51953C58.9291 6.51953 59.9291 6.72953 60.8691 7.14953C61.8091 7.54953 62.6291 8.09953 63.3291 8.79953C64.0291 9.49953 64.5791 10.3195 64.9791 11.2595C65.3991 12.1995 65.6091 13.2095 65.6091 14.2895C65.6091 14.8695 65.5491 15.4295 65.4291 15.9695L65.3991 16.0295H57.7791L55.8591 12.9695H61.5591C61.2791 12.1295 60.8091 11.4395 60.1491 10.8995C59.5091 10.3595 58.7491 10.0895 57.8691 10.0895C57.3291 10.0895 56.8191 10.1995 56.3391 10.4195C55.8591 10.6395 55.4391 10.9395 55.0791 11.3195C54.7391 11.6795 54.4691 12.1195 54.2691 12.6395C54.0691 13.1395 53.9691 13.6895 53.9691 14.2895C53.9691 14.7495 54.0591 15.2295 54.2391 15.7295C54.4191 16.2095 54.6791 16.6495 55.0191 17.0495C55.3591 17.4495 55.7691 17.7895 56.2491 18.0695C56.7291 18.3295 57.2691 18.4595 57.8691 18.4595C58.4091 18.4595 58.8991 18.3895 59.3391 18.2495C59.7991 18.0895 60.2291 17.7495 60.6291 17.2295L60.6591 17.1995L60.7191 17.2295L64.1991 18.7595L64.1391 18.8195C63.4191 19.8195 62.4991 20.5995 61.3791 21.1595C60.2791 21.7195 59.1091 21.9995 57.8691 21.9995C56.7891 21.9995 55.7691 21.7995 54.8091 21.3995C53.8691 20.9995 53.0491 20.4495 52.3491 19.7495C51.6491 19.0495 51.0891 18.2295 50.6691 17.2895C50.2691 16.3495 50.0691 15.3495 50.0691 14.2895C50.0691 13.2095 50.2691 12.1995 50.6691 11.2595C51.0891 10.3195 51.6491 9.49953 52.3491 8.79953C53.0491 8.09953 53.8691 7.54953 54.8091 7.14953C55.7691 6.72953 56.7891 6.51953 57.8691 6.51953Z" fill="#2D29FF"/>
<path id="Vector_3" d="M44.5984 0.759766H48.5584V21.7598H44.5684L44.5984 0.759766Z" fill="#2D29FF"/>
<path id="Vector_4" d="M38.7976 0.759766H42.7576V21.7598H38.7676L38.7976 0.759766Z" fill="#2D29FF"/>
<path id="Vector_5" d="M29.539 6.51953C30.599 6.51953 31.599 6.72953 32.539 7.14953C33.479 7.54953 34.299 8.09953 34.999 8.79953C35.699 9.49953 36.249 10.3195 36.649 11.2595C37.069 12.1995 37.279 13.2095 37.279 14.2895C37.279 14.8695 37.219 15.4295 37.099 15.9695L37.069 16.0295H29.449L27.529 12.9695H33.229C32.949 12.1295 32.479 11.4395 31.819 10.8995C31.179 10.3595 30.419 10.0895 29.539 10.0895C28.999 10.0895 28.489 10.1995 28.009 10.4195C27.529 10.6395 27.109 10.9395 26.749 11.3195C26.409 11.6795 26.139 12.1195 25.939 12.6395C25.739 13.1395 25.639 13.6895 25.639 14.2895C25.639 14.7495 25.729 15.2295 25.909 15.7295C26.089 16.2095 26.349 16.6495 26.689 17.0495C27.029 17.4495 27.439 17.7895 27.919 18.0695C28.399 18.3295 28.939 18.4595 29.539 18.4595C30.079 18.4595 30.569 18.3895 31.009 18.2495C31.469 18.0895 31.899 17.7495 32.299 17.2295L32.329 17.1995L32.389 17.2295L35.869 18.7595L35.809 18.8195C35.089 19.8195 34.169 20.5995 33.049 21.1595C31.949 21.7195 30.779 21.9995 29.539 21.9995C28.459 21.9995 27.439 21.7995 26.479 21.3995C25.539 20.9995 24.719 20.4495 24.019 19.7495C23.319 19.0495 22.759 18.2295 22.339 17.2895C21.939 16.3495 21.739 15.3495 21.739 14.2895C21.739 13.2095 21.939 12.1995 22.339 11.2595C22.759 10.3195 23.319 9.49953 24.019 8.79953C24.719 8.09953 25.539 7.54953 26.479 7.14953C27.439 6.72953 28.459 6.51953 29.539 6.51953Z" fill="#2D29FF"/>
<path id="Vector_6" d="M17.8624 6.75977H22.0024L21.9724 6.78977L17.9524 21.7598H13.1824L11.2324 12.8798L9.2224 21.7598H6.1324V21.6998L9.1324 6.75977H9.1624H13.2724L15.5524 18.1298L17.8624 6.75977ZM4.6324 6.78977L6.7024 17.3498L4.0624 20.0798L4.0324 20.0198L0.462402 6.75977H4.6324V6.78977Z" fill="#2D29FF"/>
</g>
</svg>
