<svg width="259" height="187" viewBox="0 0 259 187" fill="none" xmlns="http://www.w3.org/2000/svg">
<path d="M162.325 4.83043C162.535 4.65087 162.559 4.33523 162.38 4.12544L159.454 0.706707C159.274 0.496917 158.959 0.472412 158.749 0.651974C158.539 0.831536 158.514 1.14717 158.694 1.35696L161.295 4.39583L158.256 6.99684C158.046 7.1764 158.022 7.49204 158.201 7.70183C158.381 7.91162 158.697 7.93612 158.906 7.75656L162.325 4.83043ZM2.52554 78.8893C2.45344 78.5717 2.38477 78.2508 2.31965 77.9269L1.33927 78.124C1.40601 78.456 1.47641 78.7849 1.55034 79.1107L2.52554 78.8893ZM1.97325 75.9528C1.87598 75.306 1.7928 74.6488 1.72455 73.9821L0.729751 74.0839C0.799601 74.7663 0.88476 75.4391 0.984372 76.1015L1.97325 75.9528ZM1.5677 71.9943C1.5309 71.3336 1.50879 70.6649 1.50214 69.9889L0.502189 69.9987C0.508993 70.6901 0.531604 71.374 0.56925 72.0499L1.5677 71.9943ZM1.52705 68.0031C1.55002 67.3441 1.58779 66.6791 1.64102 66.0088L0.644163 65.9296C0.589752 66.6147 0.551143 67.2945 0.527661 67.9683L1.52705 68.0031ZM1.84344 64.0176C1.92424 63.3656 2.01986 62.7094 2.13088 62.0495L1.14474 61.8836C1.03131 62.5578 0.933602 63.2284 0.851032 63.8946L1.84344 64.0176ZM2.50669 60.0785C2.64364 59.4362 2.79544 58.7911 2.96261 58.1436L1.99437 57.8936C1.82363 58.5549 1.66858 59.2139 1.52867 59.87L2.50669 60.0785ZM3.50379 56.2178C3.69561 55.5868 3.90235 54.9541 4.12448 54.3203L3.18075 53.9895C2.95398 54.6366 2.7429 55.2826 2.54702 55.9269L3.50379 56.2178ZM4.82317 52.4516C5.06761 51.8369 5.32687 51.2215 5.6014 50.6058L4.68809 50.1986C4.40798 50.8267 4.14341 51.4547 3.89394 52.0821L4.82317 52.4516ZM6.4485 48.8044C6.74253 48.2103 7.05117 47.6164 7.37482 47.023L6.49692 46.5442C6.16692 47.1492 5.85216 47.7549 5.55226 48.3609L6.4485 48.8044ZM8.36029 45.2967C8.70019 44.7269 9.05436 44.1581 9.42313 43.5904L8.58456 43.0456C8.20885 43.624 7.84795 44.2036 7.50152 44.7843L8.36029 45.2967ZM10.5367 41.944C10.9181 41.4018 11.3133 40.861 11.7226 40.3219L10.9261 39.7172C10.5095 40.2659 10.1072 40.8165 9.71877 41.3686L10.5367 41.944ZM12.9547 38.7572C13.3728 38.2449 13.8041 37.7344 14.2488 37.2261L13.4962 36.5676C13.0439 37.0845 12.6053 37.6037 12.1799 38.1249L12.9547 38.7572ZM15.5916 35.7421C16.0412 35.2614 16.5033 34.7829 16.9782 34.3067L16.2701 33.6006C15.7878 34.0842 15.3182 34.5704 14.8612 35.059L15.5916 35.7421ZM18.4263 32.8999C18.9022 32.4518 19.3899 32.006 19.8895 31.5629L19.226 30.8148C18.719 31.2644 18.224 31.7169 17.7408 32.1718L18.4263 32.8999ZM21.4243 30.2416C21.9267 29.8218 22.4402 29.4045 22.9651 28.99L22.3453 28.2052C21.8133 28.6254 21.2925 29.0485 20.783 29.4743L21.4243 30.2416ZM24.556 27.7685C25.0901 27.3697 25.6352 26.9737 26.1914 26.5807L25.6143 25.764C25.051 26.162 24.4989 26.5631 23.9577 26.9672L24.556 27.7685ZM27.8237 25.4576C28.3782 25.086 28.9431 24.7174 29.5186 24.3518L28.9824 23.5077C28.4001 23.8776 27.8284 24.2507 27.2671 24.6268L27.8237 25.4576ZM31.2198 23.2986C31.7829 22.959 32.3554 22.6222 32.9377 22.2883L32.4403 21.4208C31.8517 21.7583 31.2727 22.0989 30.7033 22.4424L31.2198 23.2986ZM34.7137 21.2959C35.2903 20.9818 35.8758 20.6706 36.4704 20.3624L36.0102 19.4746C35.4096 19.786 34.818 20.1004 34.2354 20.4177L34.7137 21.2959ZM38.253 19.4609C38.8561 19.1633 39.4681 18.8687 40.0892 18.5772L39.6642 17.6719C39.0374 17.9662 38.4195 18.2636 37.8105 18.5641L38.253 19.4609ZM41.8987 17.748C42.5 17.4791 43.1095 17.2129 43.7272 16.9497L43.3351 16.0298C42.7121 16.2953 42.0972 16.5638 41.4904 16.8352L41.8987 17.748ZM45.6048 16.1688C46.2192 15.9195 46.8413 15.6731 47.4712 15.4295L47.1106 14.4968C46.4755 14.7423 45.8483 14.9908 45.2288 15.2422L45.6048 16.1688ZM49.3293 14.7279C49.9562 14.4968 50.5905 14.2685 51.2323 14.0431L50.901 13.0996C50.2543 13.3267 49.6152 13.5567 48.9834 13.7896L49.3293 14.7279ZM53.165 13.3808C53.7829 13.1742 54.4075 12.9703 55.039 12.769L54.7352 11.8162C54.0994 12.0189 53.4703 12.2243 52.8479 12.4324L53.165 13.3808ZM56.9537 12.1732C57.5988 11.9773 58.2508 11.7842 58.9097 11.5938L58.6322 10.6331C57.969 10.8247 57.3127 11.0191 56.6632 11.2163L56.9537 12.1732ZM60.8443 11.0485C61.4766 10.8746 62.1151 10.7033 62.7598 10.5346L62.5065 9.56715C61.8579 9.73693 61.2155 9.90932 60.5792 10.0843L60.8443 11.0485ZM64.7125 10.0361C65.3697 9.87255 66.0332 9.71164 66.7029 9.55341L66.473 8.5802C65.7994 8.73934 65.1321 8.90118 64.471 9.06569L64.7125 10.0361ZM68.648 9.10546C69.2894 8.96154 69.9363 8.82002 70.589 8.68097L70.3806 7.70292C69.7245 7.84272 69.074 7.98501 68.4291 8.12973L68.648 9.10546ZM72.564 8.27121C73.228 8.13711 73.8978 8.00551 74.5733 7.87645L74.3857 6.89421C73.7067 7.02392 73.0335 7.1562 72.366 7.291L72.564 8.27121ZM76.5439 7.51017C77.1898 7.39342 77.8409 7.27895 78.4971 7.1668L78.3287 6.18109C77.6693 6.29377 77.0151 6.40879 76.366 6.52612L76.5439 7.51017ZM80.4814 6.83734C81.148 6.72987 81.8198 6.62476 82.4968 6.52203L82.3468 5.53335C81.6667 5.63653 80.9919 5.74213 80.3222 5.85009L80.4814 6.83734ZM84.5122 6.22556C85.1591 6.13335 85.8107 6.04329 86.467 5.95541L86.3342 4.96425C85.6752 5.05251 85.0208 5.14295 84.3711 5.23556L84.5122 6.22556ZM88.4499 5.69833C89.1156 5.61484 89.786 5.53355 90.4612 5.4545L90.3449 4.46129C89.667 4.54065 88.9939 4.62227 88.3254 4.7061L88.4499 5.69833ZM92.501 5.22411C93.1598 5.15238 93.8231 5.08275 94.4909 5.01525L94.3903 4.02032C93.72 4.08808 93.0542 4.15797 92.3927 4.22998L92.501 5.22411ZM96.4641 4.8232C97.1262 4.76124 97.7925 4.70133 98.4631 4.64352L98.3772 3.64721C97.7042 3.70524 97.0354 3.76536 96.3709 3.82755L96.4641 4.8232ZM100.488 4.47635C101.167 4.42273 101.851 4.37122 102.539 4.32184L102.467 3.32441C101.777 3.37395 101.091 3.42564 100.409 3.47945L100.488 4.47635ZM104.526 4.18599C105.182 4.14333 105.842 4.10258 106.506 4.06378L106.448 3.06548C105.781 3.10441 105.119 3.14529 104.461 3.1881L104.526 4.18599ZM108.51 3.95319C109.182 3.91828 109.858 3.88533 110.537 3.85435L110.492 2.85539C109.81 2.88646 109.132 2.91952 108.458 2.95454L108.51 3.95319ZM112.588 3.76738C113.255 3.74123 113.924 3.71696 114.598 3.69458L114.565 2.69513C113.889 2.71758 113.217 2.74192 112.549 2.76815L112.588 3.76738ZM116.576 3.63461C117.239 3.61643 117.906 3.60006 118.576 3.58552L118.554 2.58576C117.882 2.60034 117.214 2.61675 116.549 2.63499L116.576 3.63461ZM120.597 3.54742C121.275 3.53656 121.956 3.52755 122.64 3.52041L122.63 2.52046C121.943 2.52763 121.261 2.53666 120.581 2.54755L120.597 3.54742ZM124.7 3.50461C125.353 3.50139 126.009 3.49986 126.669 3.50001L126.669 2.50001C126.008 2.49986 125.35 2.5014 124.695 2.50462L124.7 3.50461ZM128.657 3.50557C129.323 3.50912 129.993 3.51438 130.665 3.52136L130.676 2.52142C130.002 2.51442 129.33 2.50914 128.663 2.50558L128.657 3.50557ZM132.693 3.54749C133.373 3.55793 134.055 3.5701 134.741 3.58403L134.761 2.58423C134.074 2.57027 133.39 2.55807 132.709 2.5476L132.693 3.54749ZM136.785 3.63048C137.439 3.64692 138.096 3.66494 138.756 3.68454L138.786 2.68498C138.124 2.66533 137.466 2.64727 136.81 2.63079L136.785 3.63048ZM140.746 3.74814C141.412 3.77093 142.081 3.79533 142.754 3.82134L142.792 2.82208C142.119 2.79602 141.448 2.77157 140.78 2.74872L140.746 3.74814ZM144.779 3.90421C145.457 3.93345 146.139 3.96432 146.823 3.99683L146.87 2.99796C146.185 2.96538 145.502 2.93444 144.822 2.90514L144.779 3.90421ZM148.881 4.0991C149.534 4.13295 150.19 4.16828 150.848 4.20509L150.904 3.20665C150.244 3.16976 149.587 3.13436 148.933 3.10044L148.881 4.0991ZM152.832 4.31999C153.496 4.35979 154.162 4.40108 154.832 4.44387L154.895 3.44591C154.225 3.40303 153.557 3.36166 152.892 3.32178L152.832 4.31999ZM156.848 4.57679C157.523 4.62261 158.2 4.66995 158.881 4.71882L158.952 3.72138C158.271 3.67243 157.592 3.625 156.916 3.57909L156.848 4.57679ZM160.93 4.87C161.273 4.89597 161.617 4.92233 161.961 4.94907L162.039 3.95207C161.694 3.92528 161.349 3.89887 161.006 3.87285L160.93 4.87Z" fill="url(#paint0_linear_379_2193)"/>
<path d="M96.6749 182.17C96.4651 182.349 96.4406 182.665 96.6201 182.875L99.5463 186.293C99.7258 186.503 100.041 186.528 100.251 186.348C100.461 186.168 100.486 185.853 100.306 185.643L97.705 182.604L100.744 180.003C100.954 179.824 100.978 179.508 100.799 179.298C100.619 179.088 100.303 179.064 100.094 179.243L96.6749 182.17ZM256.474 108.111C256.547 108.428 256.615 108.749 256.68 109.073L257.661 108.876C257.594 108.544 257.524 108.215 257.45 107.889L256.474 108.111ZM257.027 111.047C257.124 111.694 257.207 112.351 257.275 113.018L258.27 112.916C258.2 112.234 258.115 111.561 258.016 110.899L257.027 111.047ZM257.432 115.006C257.469 115.666 257.491 116.335 257.498 117.011L258.498 117.001C258.491 116.31 258.468 115.626 258.431 114.95L257.432 115.006ZM257.473 118.997C257.45 119.656 257.412 120.321 257.359 120.991L258.356 121.07C258.41 120.385 258.449 119.705 258.472 119.032L257.473 118.997ZM257.157 122.982C257.076 123.634 256.98 124.291 256.869 124.95L257.855 125.116C257.969 124.442 258.066 123.772 258.149 123.105L257.157 122.982ZM256.493 126.921C256.356 127.564 256.205 128.209 256.037 128.856L257.006 129.106C257.176 128.445 257.331 127.786 257.471 127.13L256.493 126.921ZM255.496 130.782C255.304 131.413 255.098 132.046 254.876 132.68L255.819 133.01C256.046 132.363 256.257 131.717 256.453 131.073L255.496 130.782ZM254.177 134.548C253.932 135.163 253.673 135.779 253.399 136.394L254.312 136.801C254.592 136.173 254.857 135.545 255.106 134.918L254.177 134.548ZM252.551 138.196C252.257 138.79 251.949 139.384 251.625 139.977L252.503 140.456C252.833 139.851 253.148 139.245 253.448 138.639L252.551 138.196ZM250.64 141.703C250.3 142.273 249.946 142.842 249.577 143.41L250.415 143.954C250.791 143.376 251.152 142.796 251.498 142.216L250.64 141.703ZM248.463 145.056C248.082 145.598 247.687 146.139 247.277 146.678L248.074 147.283C248.49 146.734 248.893 146.184 249.281 145.631L248.463 145.056ZM246.045 148.243C245.627 148.755 245.196 149.266 244.751 149.774L245.504 150.432C245.956 149.915 246.395 149.396 246.82 148.875L246.045 148.243ZM243.408 151.258C242.959 151.739 242.497 152.217 242.022 152.693L242.73 153.399C243.212 152.916 243.682 152.43 244.139 151.941L243.408 151.258ZM240.574 154.1C240.098 154.548 239.61 154.994 239.111 155.437L239.774 156.185C240.281 155.736 240.776 155.283 241.259 154.828L240.574 154.1ZM237.576 156.758C237.073 157.178 236.56 157.595 236.035 158.01L236.655 158.795C237.187 158.375 237.707 157.952 238.217 157.526L237.576 156.758ZM234.444 159.232C233.91 159.63 233.365 160.026 232.809 160.419L233.386 161.236C233.949 160.838 234.501 160.437 235.042 160.033L234.444 159.232ZM231.176 161.542C230.622 161.914 230.057 162.283 229.481 162.648L230.018 163.492C230.6 163.122 231.172 162.749 231.733 162.373L231.176 161.542ZM227.78 163.701C227.217 164.041 226.645 164.378 226.062 164.712L226.56 165.579C227.148 165.242 227.727 164.901 228.297 164.558L227.78 163.701ZM224.286 165.704C223.71 166.018 223.124 166.329 222.53 166.638L222.99 167.525C223.59 167.214 224.182 166.9 224.765 166.582L224.286 165.704ZM220.747 167.539C220.144 167.837 219.532 168.131 218.911 168.423L219.336 169.328C219.963 169.034 220.581 168.736 221.189 168.436L220.747 167.539ZM217.101 169.252C216.5 169.521 215.89 169.787 215.273 170.05L215.665 170.97C216.288 170.705 216.903 170.436 217.51 170.165L217.101 169.252ZM213.395 170.831C212.781 171.08 212.159 171.327 211.529 171.571L211.889 172.503C212.524 172.258 213.152 172.009 213.771 171.758L213.395 170.831ZM209.671 172.272C209.044 172.503 208.41 172.732 207.768 172.957L208.099 173.9C208.746 173.673 209.385 173.443 210.017 173.21L209.671 172.272ZM205.835 173.619C205.217 173.826 204.592 174.03 203.961 174.231L204.265 175.184C204.901 174.981 205.53 174.776 206.152 174.568L205.835 173.619ZM202.046 174.827C201.401 175.023 200.749 175.216 200.09 175.406L200.368 176.367C201.031 176.175 201.687 175.981 202.337 175.784L202.046 174.827ZM198.156 175.952C197.523 176.125 196.885 176.297 196.24 176.465L196.493 177.433C197.142 177.263 197.785 177.091 198.421 176.916L198.156 175.952ZM194.287 176.964C193.63 177.127 192.967 177.288 192.297 177.447L192.527 178.42C193.201 178.261 193.868 178.099 194.529 177.934L194.287 176.964ZM190.352 177.895C189.711 178.038 189.064 178.18 188.411 178.319L188.619 179.297C189.276 179.157 189.926 179.015 190.571 178.87L190.352 177.895ZM186.436 178.729C185.772 178.863 185.102 178.994 184.427 179.124L184.614 180.106C185.293 179.976 185.966 179.844 186.634 179.709L186.436 178.729ZM182.456 179.49C181.81 179.607 181.159 179.721 180.503 179.833L180.671 180.819C181.331 180.706 181.985 180.591 182.634 180.474L182.456 179.49ZM178.519 180.163C177.852 180.27 177.18 180.375 176.503 180.478L176.653 181.467C177.333 181.363 178.008 181.258 178.678 181.15L178.519 180.163ZM174.488 180.774C173.841 180.867 173.189 180.957 172.533 181.045L172.666 182.036C173.325 181.947 173.979 181.857 174.629 181.764L174.488 180.774ZM170.55 181.302C169.884 181.385 169.214 181.466 168.539 181.545L168.655 182.539C169.333 182.459 170.006 182.378 170.675 182.294L170.55 181.302ZM166.499 181.776C165.84 181.848 165.177 181.917 164.509 181.985L164.61 182.98C165.28 182.912 165.946 182.842 166.607 182.77L166.499 181.776ZM162.536 182.177C161.874 182.239 161.208 182.299 160.537 182.356L160.623 183.353C161.296 183.295 161.965 183.235 162.629 183.172L162.536 182.177ZM158.512 182.524C157.833 182.577 157.149 182.629 156.461 182.678L156.533 183.676C157.223 183.626 157.909 183.574 158.591 183.521L158.512 182.524ZM154.474 182.814C153.818 182.857 153.158 182.897 152.494 182.936L152.552 183.935C153.219 183.896 153.881 183.855 154.539 183.812L154.474 182.814ZM150.49 183.047C149.818 183.082 149.142 183.115 148.463 183.146L148.508 184.145C149.19 184.114 149.868 184.08 150.542 184.045L150.49 183.047ZM146.411 183.233C145.745 183.259 145.076 183.283 144.402 183.305L144.435 184.305C145.111 184.282 145.783 184.258 146.451 184.232L146.411 183.233ZM142.424 183.365C141.761 183.384 141.094 183.4 140.424 183.414L140.446 184.414C141.118 184.4 141.786 184.383 142.451 184.365L142.424 183.365ZM138.403 183.453C137.725 183.463 137.044 183.472 136.36 183.48L136.37 184.48C137.057 184.472 137.739 184.463 138.419 184.452L138.403 183.453ZM134.3 183.495C133.647 183.499 132.991 183.5 132.331 183.5L132.331 184.5C132.992 184.5 133.65 184.499 134.305 184.495L134.3 183.495ZM130.343 183.494C129.677 183.491 129.007 183.486 128.335 183.479L128.324 184.479C128.998 184.486 129.67 184.491 130.337 184.494L130.343 183.494ZM126.307 183.453C125.627 183.442 124.945 183.43 124.259 183.416L124.239 184.416C124.926 184.43 125.61 184.442 126.291 184.452L126.307 183.453ZM122.215 183.37C121.561 183.353 120.904 183.335 120.244 183.315L120.214 184.315C120.876 184.335 121.534 184.353 122.19 184.369L122.215 183.37ZM118.254 183.252C117.588 183.229 116.919 183.205 116.246 183.179L116.208 184.178C116.881 184.204 117.552 184.228 118.22 184.251L118.254 183.252ZM114.221 183.096C113.543 183.067 112.861 183.036 112.177 183.003L112.13 184.002C112.815 184.035 113.498 184.066 114.178 184.095L114.221 183.096ZM110.119 182.901C109.466 182.867 108.81 182.832 108.152 182.795L108.096 183.793C108.756 183.83 109.413 183.866 110.067 183.9L110.119 182.901ZM106.168 182.68C105.504 182.64 104.838 182.599 104.168 182.556L104.105 183.554C104.775 183.597 105.443 183.638 106.108 183.678L106.168 182.68ZM102.152 182.423C101.477 182.377 100.8 182.33 100.119 182.281L100.048 183.279C100.729 183.328 101.408 183.375 102.084 183.421L102.152 182.423ZM98.0699 182.13C97.7269 182.104 97.3831 182.078 97.0387 182.051L96.9613 183.048C97.3064 183.075 97.6507 183.101 97.9944 183.127L98.0699 182.13Z" fill="url(#paint1_linear_379_2193)"/>
<defs>
<linearGradient id="paint0_linear_379_2193" x1="81.5" y1="3" x2="81.5" y2="79" gradientUnits="userSpaceOnUse">
<stop stop-color="#2D29FF"/>
<stop offset="1" stop-color="#CBABFF"/>
</linearGradient>
<linearGradient id="paint1_linear_379_2193" x1="177.5" y1="184" x2="177.5" y2="108" gradientUnits="userSpaceOnUse">
<stop stop-color="#2D29FF"/>
<stop offset="1" stop-color="#CBABFF"/>
</linearGradient>
</defs>
</svg>
