<svg width="22" height="22" viewBox="0 0 22 22" fill="none" xmlns="http://www.w3.org/2000/svg">
<g id="Group 2038">
<circle id="Ellipse 35" cx="10.9243" cy="10.9243" r="10.9243" fill="#2D29FF"/>
<path id="Vector (Stroke)" fill-rule="evenodd" clip-rule="evenodd" d="M10.924 4.77905C11.3482 4.77905 11.6921 5.12295 11.6921 5.54716V10.1558H16.3008C16.725 10.1558 17.0689 10.4997 17.0689 10.9239C17.0689 11.3482 16.725 11.6921 16.3008 11.6921H11.6921V16.3007C11.6921 16.725 11.3482 17.0688 10.924 17.0688C10.4998 17.0688 10.1559 16.725 10.1559 16.3007V11.6921H5.5472C5.12298 11.6921 4.77908 11.3482 4.77908 10.9239C4.77908 10.4997 5.12298 10.1558 5.5472 10.1558H10.1559V5.54716C10.1559 5.12295 10.4998 4.77905 10.924 4.77905Z" fill="white"/>
</g>
</svg>
