<svg xmlns="http://www.w3.org/2000/svg">
  <symbol id="add-card-dot" viewBox="0 0 4 4">
    <circle id="Ellipse 209" cx="2.14844" cy="2.13281" r="1.85156" fill="#908EFC"/>
  </symbol>

  <symbol id="add-card" viewBox="0 0 20 21">
    <g id="Group 2080" opacity="0.5">
    <circle id="Ellipse 8" cx="10" cy="10.709" r="10" fill="#2D29FF"/>
    <g id="add">
    <mask id="mask0_4_3229" style="mask-type:alpha" maskUnits="userSpaceOnUse" x="2" y="3" width="16" height="15">
    <rect id="Bounding box" x="2.83087" y="3.89648" width="14.3382" height="13.6259" fill="white"/>
    </mask>
    <g mask="url(#mask0_4_3229)">
    <path id="add_2" d="M9.99918 14.6838C9.82991 14.6838 9.68812 14.6293 9.57381 14.5203C9.45911 14.4117 9.40176 14.2769 9.40176 14.116V11.2773H6.41463C6.24535 11.2773 6.10337 11.2228 5.98866 11.1138C5.87435 11.0052 5.8172 10.8704 5.8172 10.7096C5.8172 10.5487 5.87435 10.4138 5.98866 10.3048C6.10337 10.1961 6.24535 10.1418 6.41463 10.1418H9.40176V7.3031C9.40176 7.14224 9.45911 7.0073 9.57381 6.89829C9.68812 6.78967 9.82991 6.73535 9.99918 6.73535C10.1685 6.73535 10.3104 6.78967 10.4251 6.89829C10.5395 7.0073 10.5966 7.14224 10.5966 7.3031V10.1418H13.5837C13.753 10.1418 13.8948 10.1961 14.0091 10.3048C14.1238 10.4138 14.1812 10.5487 14.1812 10.7096C14.1812 10.8704 14.1238 11.0052 14.0091 11.1138C13.8948 11.2228 13.753 11.2773 13.5837 11.2773H10.5966V14.116C10.5966 14.2769 10.5395 14.4117 10.4251 14.5203C10.3104 14.6293 10.1685 14.6838 9.99918 14.6838Z" fill="white"/>
    </g>
    </g>
    </g>
  </symbol>

  <symbol id="arrow-right" viewBox="0 0 9 15">
    <path id="Vector 237" d="M1.18262 1L7.84473 7.66211L1.44404 14.0628" stroke="#2D29FF"/>
  </symbol>

  <symbol id="arrow-bottom" viewBox="0 0 11 6">
    <path d="M10.267 0.743164L5.56428 5.35359L1.04612 0.743164" stroke="#555555" stroke-width="0.5" fill="none"/>
  </symbol>

  <symbol id="call" viewBox="0 0 15 15">
    <path fill-rule="evenodd" clip-rule="evenodd" d="M10.7481 14.4594C9.72742 14.4218 6.83465 14.022 3.80508 10.9931C0.776211 7.96356 0.377135 5.0715 0.338858 4.05006C0.282151 2.49345 1.47442 0.981502 2.85169 0.391039C3.01754 0.319423 3.19916 0.292157 3.37873 0.311916C3.5583 0.331675 3.72965 0.39778 3.87596 0.503745C5.0101 1.33025 5.79266 2.58064 6.46464 3.5638C6.61249 3.7798 6.67571 4.04265 6.64224 4.30226C6.60878 4.56188 6.48097 4.8001 6.28317 4.97155L4.90023 5.99866C4.83342 6.04691 4.78639 6.11776 4.76787 6.19807C4.74936 6.27838 4.76063 6.36267 4.79958 6.4353C5.11288 7.0045 5.67003 7.85227 6.30798 8.49022C6.94594 9.12818 7.83411 9.72219 8.443 10.0709C8.51935 10.1138 8.60921 10.1258 8.69411 10.1044C8.77902 10.0831 8.85252 10.03 8.8995 9.9561L9.79972 8.58592C9.96523 8.36607 10.2094 8.21879 10.481 8.17492C10.7527 8.13105 11.0308 8.194 11.2571 8.35058C12.2544 9.04099 13.4183 9.81008 14.2704 10.901C14.3849 11.0484 14.4578 11.2238 14.4814 11.409C14.5049 11.5941 14.4783 11.7822 14.4043 11.9536C13.811 13.338 12.3097 14.5168 10.7481 14.4594Z" fill="#2D29FF"/>
  </symbol>

  <symbol id="dot3" viewBox="0 0 15 15">
    <circle cx="1.75957" cy="1.5125" r="1.2"/>
    <circle cx="1.75957" cy="5.53984" r="1.2"/>
    <circle cx="1.75957" cy="9.56523" r="1.2"/>
  </symbol>

  <symbol id="gallery" viewBox="0 0 20 19">
    <rect x="1" y="0.453125" width="18.1719" height="18.1719" rx="5" fill="white"/>
    <path d="M1.05176 12.3965L5.32309 8.28922C6.15959 7.48485 7.50282 7.55895 8.24576 8.45044L11.2161 12.0147C11.9115 12.8491 13.1457 12.976 13.9963 12.3005L14.8198 11.6466C15.6388 10.9962 16.8205 11.0866 17.5311 11.854L19.0693 13.5153" stroke="#2D29FF" stroke-width="0.75" stroke-linejoin="round"/>
    <circle cx="13.4427" cy="6.34602" r="2.1136" fill="white" stroke="#2D29FF" stroke-width="0.75"/>
  </symbol>

  <symbol id="image" viewBox="0 0 20 19">
    <g id="Group 2110">
    <rect id="Rectangle 2563" x="0.948242" y="0.0332031" width="18.1719" height="18.1719" rx="5" fill="white"/>
    <path id="Vector 244" d="M1 11.9766L5.27134 7.86929C6.10783 7.06493 7.45106 7.13903 8.19401 8.03052L11.1644 11.5948C11.8597 12.4292 13.0939 12.5561 13.9445 11.8806L14.768 11.2267C15.587 10.5763 16.7688 10.6667 17.4793 11.4341L19.0175 13.0953" stroke="#2D29FF" stroke-width="0.75" stroke-linejoin="round"/>
    <circle id="Ellipse 216" cx="13.3909" cy="5.9261" r="2.1136" fill="white" stroke="#2D29FF" stroke-width="0.75"/>
    </g>
  </symbol>

  <symbol id="magnifying-glass" viewBox="0 0 12 11">
    <path id="Union" fill-rule="evenodd" clip-rule="evenodd" d="M1.3333 1.61914C-0.507631 3.61787 -0.379709 6.73053 1.61902 8.57146C3.49352 10.298 6.34778 10.2928 8.21391 8.63673L10.3792 10.6311C10.5823 10.8182 10.8986 10.8052 11.0857 10.602C11.2728 10.3989 11.2598 10.0826 11.0567 9.89553L8.89143 7.90123C10.3892 5.90549 10.1603 3.06008 8.28563 1.33342C6.2869 -0.507516 3.17423 -0.379595 1.3333 1.61914ZM2.2965 7.83592C0.703996 6.36914 0.602074 3.88911 2.06885 2.29661C3.53562 0.704111 6.01565 0.602188 7.60815 2.06896C9.20065 3.53573 9.30258 6.01577 7.8358 7.60827C6.36903 9.20077 3.889 9.30269 2.2965 7.83592Z" fill="#949494"/>
  </symbol>

  <symbol id="mail" viewBox="0 0 16 14">
    <path d="M15.4893 2.40264C15.4893 1.55223 14.7935 0.856445 13.9431 0.856445H1.57354C0.72313 0.856445 0.0273438 1.55223 0.0273438 2.40264V11.6798C0.0273438 12.5302 0.72313 13.226 1.57354 13.226H13.9431C14.7935 13.226 15.4893 12.5302 15.4893 11.6798V2.40264ZM13.9431 2.40264L7.7583 6.26812L1.57354 2.40264H13.9431ZM13.9431 11.6798H1.57354V3.94883L7.7583 7.81431L13.9431 3.94883V11.6798Z" fill="#2D29FF"/>
  </symbol>

  <symbol id="message" viewBox="0 0 15 15">
    <path d="M0.509766 2.04252V9.98297C0.509766 10.9419 1.28467 11.7198 2.24136 11.7198H10.0424L12.7837 14.6973V11.7196H14.609C15.5651 11.7196 16.3406 10.9416 16.3406 9.9827V2.04252C16.3403 1.08335 15.5651 0.305664 14.609 0.305664H2.24136C1.28467 0.305664 0.509766 1.08335 0.509766 2.04252ZM11.5368 6.01248C11.5368 5.39604 12.0349 4.89606 12.6499 4.89606C13.265 4.89606 13.7631 5.39604 13.7631 6.01248C13.7631 6.62945 13.265 7.12916 12.6499 7.12916C12.0349 7.12916 11.5368 6.62972 11.5368 6.01248ZM7.31188 6.01248C7.31188 5.39604 7.81054 4.89606 8.42503 4.89606C9.03952 4.89606 9.53818 5.39604 9.53818 6.01248C9.53818 6.62945 9.03952 7.12916 8.42503 7.12916C7.81054 7.12916 7.31188 6.62972 7.31188 6.01248ZM3.08724 6.01248C3.08724 5.39604 3.5859 4.89606 4.20039 4.89606C4.81541 4.89606 5.31354 5.39604 5.31354 6.01248C5.31354 6.62945 4.81541 7.12916 4.20039 7.12916C3.58564 7.12943 3.08724 6.62972 3.08724 6.01248Z" fill="#2D29FF"/>
  </symbol>

  <symbol id="more" viewBox="0 0 11 12">
    <g id="Group 2073">
    <ellipse id="Ellipse 8" cx="5.71717" cy="6.36133" rx="5.2826" ry="5.5" fill="#FF0076"/>
    <g id="add">
    <mask id="mask0_4_3451" style="mask-type:alpha" maskUnits="userSpaceOnUse" x="1" y="2" width="9" height="9">
    <rect id="Bounding box" x="1.70219" y="2.62109" width="7.81825" height="7.48" fill="white"/>
    </mask>
    <g mask="url(#mask0_4_3451)">
    <path id="add_2" d="M5.61124 8.54302C5.51894 8.54302 5.44163 8.5131 5.3793 8.45326C5.31675 8.39363 5.28548 8.31966 5.28548 8.23135V6.67302H3.65668C3.56438 6.67302 3.48696 6.6431 3.42441 6.58326C3.36208 6.52363 3.33092 6.44966 3.33092 6.36135C3.33092 6.27305 3.36208 6.19898 3.42441 6.13914C3.48696 6.0795 3.56438 6.04969 3.65668 6.04969H5.28548V4.49135C5.28548 4.40305 5.31675 4.32898 5.3793 4.26914C5.44163 4.2095 5.51894 4.17969 5.61124 4.17969C5.70354 4.17969 5.78096 4.2095 5.84351 4.26914C5.90584 4.32898 5.937 4.40305 5.937 4.49135V6.04969H7.5658C7.6581 6.04969 7.73541 6.0795 7.79774 6.13914C7.86029 6.19898 7.89156 6.27305 7.89156 6.36135C7.89156 6.44966 7.86029 6.52363 7.79774 6.58326C7.73541 6.6431 7.6581 6.67302 7.5658 6.67302H5.937V8.23135C5.937 8.31966 5.90584 8.39363 5.84351 8.45326C5.78096 8.5131 5.70354 8.54302 5.61124 8.54302Z" fill="white"/>
    </g>
    </g>
    </g>
  </symbol>

  <symbol id="nav-add-card" viewBox="0 0 22 22">
    <g id="Group 2039">
    <circle id="Ellipse 36" cx="10.9243" cy="10.9243" r="10.9243" fill="#C8C8C8"/>
    <path id="Vector (Stroke)" fill-rule="evenodd" clip-rule="evenodd" d="M10.9239 4.7793C11.3482 4.7793 11.6921 5.12319 11.6921 5.54741V10.1561H16.3007C16.725 10.1561 17.0688 10.5 17.0688 10.9242C17.0688 11.3484 16.725 11.6923 16.3007 11.6923H11.6921V16.301C11.6921 16.7252 11.3482 17.0691 10.9239 17.0691C10.4997 17.0691 10.1558 16.7252 10.1558 16.301V11.6923H5.54716C5.12295 11.6923 4.77905 11.3484 4.77905 10.9242C4.77905 10.5 5.12295 10.1561 5.54716 10.1561H10.1558V5.54741C10.1558 5.12319 10.4997 4.7793 10.9239 4.7793Z" fill="white"/>
    </g>
  </symbol>

  <symbol id="icon-nav-home" viewBox="0 0 24 23">
    <path id="Vector" d="M23.5023 11.3154L13.2734 0.941554L12.5877 0.245848C12.4315 0.0883782 12.2203 0 12 0C11.7798 0 11.5686 0.0883782 11.4124 0.245848L0.497791 11.3154C0.337715 11.4772 0.211205 11.6699 0.125727 11.8821C0.0402491 12.0943 -0.0024636 12.3217 0.000109727 12.551C0.0106987 13.4965 0.78634 14.2513 1.71817 14.2513H2.84325V23H21.1569V14.2513H22.3058C22.7584 14.2513 23.1846 14.0713 23.505 13.7463C23.6627 13.5868 23.7876 13.3971 23.8726 13.1882C23.9576 12.9794 24.0009 12.7555 24 12.5295C24 12.0729 23.8226 11.6404 23.5023 11.3154ZM13.4825 21.066H10.5176V15.5863H13.4825V21.066ZM19.2508 12.3173V21.066H15.1767V14.9416C15.1767 14.348 14.7029 13.8672 14.1178 13.8672H9.88226C9.29722 13.8672 8.82336 14.348 8.82336 14.9416V21.066H4.74926V12.3173H2.20791L12.0027 2.38669L12.6142 3.00718L21.7948 12.3173H19.2508Z" fill="#C8C8C8"/>
  </symbol>

  <symbol id="icon-nav-mypage" viewBox="0 0 22 22">
    <path id="Vector (Stroke)" fill-rule="evenodd" clip-rule="evenodd" d="M7.87334 12.6343C7.42386 12.7094 6.9765 12.8008 6.53125 12.9085C5.06458 13.2632 3.62083 13.7958 2.2 14.5063C1.53633 14.8509 1.00375 15.3496 0.60225 16.0022C0.20075 16.6549 0 17.3708 0 18.15V22H22V18.15C22.0009 17.3717 21.8006 16.6558 21.3991 16.0022C20.9976 15.3487 20.4646 14.85 19.8 14.5063C18.3792 13.7977 16.9354 13.2651 15.4687 12.9085C15.0241 12.8004 14.5774 12.7087 14.1286 12.6335C13.0968 12.4605 12.054 12.3744 11 12.375C9.94666 12.3756 8.90445 12.4621 7.87334 12.6343ZM8.25676 10.2769C9.07351 10.7588 9.98765 10.9999 10.9992 11C10.9994 11 10.9997 11 11 11C12.0126 11 12.9277 10.7586 13.7451 10.2758C14.1487 10.0375 14.5284 9.74034 14.8844 9.38437C15.9615 8.30729 16.5 7.0125 16.5 5.5C16.5 3.9875 15.9615 2.69271 14.8844 1.61563C13.8073 0.538542 12.5125 0 11 0C9.4875 0 8.19271 0.538542 7.11562 1.61563C6.03854 2.69271 5.5 3.9875 5.5 5.5C5.5 7.0125 6.03854 8.30729 7.11562 9.38437C7.47215 9.7409 7.85253 10.0384 8.25676 10.2769ZM18.7669 16.5342C17.4962 15.902 16.2181 15.4329 14.9311 15.1199C13.6413 14.8063 12.3327 14.6501 11.0014 14.6509C9.66823 14.6517 8.3578 14.8082 7.06629 15.1206C5.78139 15.4314 4.50516 15.8998 3.23598 16.5328C2.95374 16.682 2.72885 16.8889 2.54069 17.1947C2.36369 17.4824 2.27586 17.7844 2.27586 18.15V19.7241H19.7241V18.1473C19.7246 17.784 19.6374 17.4825 19.4599 17.1935C19.2722 16.888 19.0481 16.6822 18.7669 16.5342ZM8.7249 7.7751C9.37858 8.42878 10.0959 8.72414 11 8.72414C11.9041 8.72414 12.6214 8.42878 13.2751 7.7751C13.9288 7.12142 14.2241 6.40411 14.2241 5.5C14.2241 4.59589 13.9288 3.87858 13.2751 3.2249C12.6214 2.57122 11.9041 2.27586 11 2.27586C10.0959 2.27586 9.37858 2.57122 8.7249 3.2249C8.07122 3.87858 7.77586 4.59589 7.77586 5.5C7.77586 6.40411 8.07122 7.12142 8.7249 7.7751Z" fill="#C8C8C8"/>
  </symbol>

  <symbol id="icon-nav-view-card" viewBox="0 0 18 22">
    <path id="Vector" d="M11.25 0H2.25C1.65326 0 1.08097 0.231785 0.65901 0.644365C0.237053 1.05694 0 1.61652 0 2.2V19.8C0 20.3835 0.237053 20.9431 0.65901 21.3556C1.08097 21.7682 1.65326 22 2.25 22H15.75C16.3467 22 16.919 21.7682 17.341 21.3556C17.7629 20.9431 18 20.3835 18 19.8V6.6L11.25 0ZM15.75 19.8H2.25V2.2H10.125V7.7H15.75V19.8Z" fill="#C8C8C8"/>
  </symbol>

  <symbol id="pencil" viewBox="0 0 15 15">
    <g id="Group 347" opacity="0.5">
    <g id="&#240;&#159;&#166;&#134; icon &#34;edit&#34;">
    <path id="Vector" d="M1 14.1768H7.36328H13.7266" stroke="#2D29FF" stroke-linecap="round" stroke-linejoin="round"/>
    <path id="Vector_2" d="M7.51999 3.44901L9.51982 1.44922L13.0194 4.94885L11.0196 6.94861M7.51999 3.44901L3.55596 7.41306C3.42337 7.54562 3.34888 7.72549 3.34888 7.913V11.1197H6.55567C6.74317 11.1197 6.92297 11.0453 7.05561 10.9126L11.0196 6.94861M7.51999 3.44901L11.0196 6.94861" stroke="#2D29FF" stroke-linecap="round" stroke-linejoin="round"/>
    </g>
    </g>
  </symbol>

  <symbol id="share" viewBox="0 0 12 18">
    <path fill-rule="evenodd" clip-rule="evenodd" d="M11.6006 2.37891C11.6006 3.477 10.7104 4.36719 9.6123 4.36719C9.24494 4.36719 8.90085 4.26756 8.60558 4.09385L4.11889 8.58054C4.1743 8.76335 4.2041 8.9573 4.2041 9.1582C4.2041 9.35921 4.17427 9.55325 4.1188 9.73614L8.42438 14.0422C8.75581 13.7949 9.16696 13.6484 9.6123 13.6484C10.7104 13.6484 11.6006 14.5386 11.6006 15.6367C11.6006 16.7348 10.7104 17.625 9.6123 17.625C8.51421 17.625 7.62402 16.7348 7.62402 15.6367C7.62402 15.3486 7.68531 15.0748 7.79557 14.8276L3.57645 10.608C3.22077 10.9419 2.74218 11.1465 2.21582 11.1465C1.11772 11.1465 0.227539 10.2563 0.227539 9.1582C0.227539 8.06011 1.11772 7.16992 2.21582 7.16992C2.74228 7.16992 3.22095 7.37453 3.57664 7.70857L7.89818 3.38703C7.72397 3.09144 7.62402 2.74684 7.62402 2.37891C7.62402 1.28081 8.51421 0.390625 9.6123 0.390625C10.7104 0.390625 11.6006 1.28081 11.6006 2.37891Z" fill="white"/>
  </symbol>

  <symbol id="logo" viewBox="0 0 78 22">
    <g id="logo">
    <path id="Vector" d="M77.5376 8.31965V11.6496H75.3176L73.4576 8.31965H77.5376ZM72.9476 16.6296C72.9476 17.0896 73.1076 17.4797 73.4276 17.7997C73.7676 18.1196 74.1676 18.2796 74.6276 18.2796H77.5376V21.7596H74.6276C73.8476 21.7596 73.1076 21.6196 72.4076 21.3396C71.7276 21.0396 71.1276 20.6396 70.6076 20.1396C70.1076 19.6196 69.7076 19.0196 69.4076 18.3396C69.1076 17.6596 68.9576 16.9296 68.9576 16.1496V11.6496H66.7976V8.31965H68.9576V2.88965H72.9476V16.6296Z" />
    <path id="Vector_2" d="M57.8691 6.51953C58.9291 6.51953 59.9291 6.72953 60.8691 7.14953C61.8091 7.54953 62.6291 8.09953 63.3291 8.79953C64.0291 9.49953 64.5791 10.3195 64.9791 11.2595C65.3991 12.1995 65.6091 13.2095 65.6091 14.2895C65.6091 14.8695 65.5491 15.4295 65.4291 15.9695L65.3991 16.0295H57.7791L55.8591 12.9695H61.5591C61.2791 12.1295 60.8091 11.4395 60.1491 10.8995C59.5091 10.3595 58.7491 10.0895 57.8691 10.0895C57.3291 10.0895 56.8191 10.1995 56.3391 10.4195C55.8591 10.6395 55.4391 10.9395 55.0791 11.3195C54.7391 11.6795 54.4691 12.1195 54.2691 12.6395C54.0691 13.1395 53.9691 13.6895 53.9691 14.2895C53.9691 14.7495 54.0591 15.2295 54.2391 15.7295C54.4191 16.2095 54.6791 16.6495 55.0191 17.0495C55.3591 17.4495 55.7691 17.7895 56.2491 18.0695C56.7291 18.3295 57.2691 18.4595 57.8691 18.4595C58.4091 18.4595 58.8991 18.3895 59.3391 18.2495C59.7991 18.0895 60.2291 17.7495 60.6291 17.2295L60.6591 17.1995L60.7191 17.2295L64.1991 18.7595L64.1391 18.8195C63.4191 19.8195 62.4991 20.5995 61.3791 21.1595C60.2791 21.7195 59.1091 21.9995 57.8691 21.9995C56.7891 21.9995 55.7691 21.7995 54.8091 21.3995C53.8691 20.9995 53.0491 20.4495 52.3491 19.7495C51.6491 19.0495 51.0891 18.2295 50.6691 17.2895C50.2691 16.3495 50.0691 15.3495 50.0691 14.2895C50.0691 13.2095 50.2691 12.1995 50.6691 11.2595C51.0891 10.3195 51.6491 9.49953 52.3491 8.79953C53.0491 8.09953 53.8691 7.54953 54.8091 7.14953C55.7691 6.72953 56.7891 6.51953 57.8691 6.51953Z" />
    <path id="Vector_3" d="M44.5984 0.759766H48.5584V21.7598H44.5684L44.5984 0.759766Z" />
    <path id="Vector_4" d="M38.7976 0.759766H42.7576V21.7598H38.7676L38.7976 0.759766Z" />
    <path id="Vector_5" d="M29.539 6.51953C30.599 6.51953 31.599 6.72953 32.539 7.14953C33.479 7.54953 34.299 8.09953 34.999 8.79953C35.699 9.49953 36.249 10.3195 36.649 11.2595C37.069 12.1995 37.279 13.2095 37.279 14.2895C37.279 14.8695 37.219 15.4295 37.099 15.9695L37.069 16.0295H29.449L27.529 12.9695H33.229C32.949 12.1295 32.479 11.4395 31.819 10.8995C31.179 10.3595 30.419 10.0895 29.539 10.0895C28.999 10.0895 28.489 10.1995 28.009 10.4195C27.529 10.6395 27.109 10.9395 26.749 11.3195C26.409 11.6795 26.139 12.1195 25.939 12.6395C25.739 13.1395 25.639 13.6895 25.639 14.2895C25.639 14.7495 25.729 15.2295 25.909 15.7295C26.089 16.2095 26.349 16.6495 26.689 17.0495C27.029 17.4495 27.439 17.7895 27.919 18.0695C28.399 18.3295 28.939 18.4595 29.539 18.4595C30.079 18.4595 30.569 18.3895 31.009 18.2495C31.469 18.0895 31.899 17.7495 32.299 17.2295L32.329 17.1995L32.389 17.2295L35.869 18.7595L35.809 18.8195C35.089 19.8195 34.169 20.5995 33.049 21.1595C31.949 21.7195 30.779 21.9995 29.539 21.9995C28.459 21.9995 27.439 21.7995 26.479 21.3995C25.539 20.9995 24.719 20.4495 24.019 19.7495C23.319 19.0495 22.759 18.2295 22.339 17.2895C21.939 16.3495 21.739 15.3495 21.739 14.2895C21.739 13.2095 21.939 12.1995 22.339 11.2595C22.759 10.3195 23.319 9.49953 24.019 8.79953C24.719 8.09953 25.539 7.54953 26.479 7.14953C27.439 6.72953 28.459 6.51953 29.539 6.51953Z" />
    <path id="Vector_6" d="M17.8624 6.75977H22.0024L21.9724 6.78977L17.9524 21.7598H13.1824L11.2324 12.8798L9.2224 21.7598H6.1324V21.6998L9.1324 6.75977H9.1624H13.2724L15.5524 18.1298L17.8624 6.75977ZM4.6324 6.78977L6.7024 17.3498L4.0624 20.0798L4.0324 20.0198L0.462402 6.75977H4.6324V6.78977Z" />
    </g>
  </symbol>

  <symbol id="step-1" viewBox="0 0 38 8">
    <g id="Group 2089">
    <circle id="Ellipse 201" cx="4.11523" cy="4.20996" r="3.6582" fill="#2D29FF"/>
    <circle id="Ellipse 202" cx="19" cy="4.20996" r="3.6582" fill="#D9D9D9"/>
    <circle id="Ellipse 203" cx="33.8848" cy="4.20996" r="3.6582" fill="#D9D9D9"/>
    </g>
  </symbol>

  <symbol id="step-2" viewBox="0 0 38 8">
    <g id="Group 2089">
    <circle id="Ellipse 201" cx="19.0002" cy="4.20996" r="3.6582" fill="#2D29FF"/>
    <circle id="Ellipse 202" cx="3.68384" cy="4.20996" r="3.6582" fill="#D9D9D9"/>
    <circle id="Ellipse 203" cx="34.3167" cy="4.20996" r="3.6582" fill="#D9D9D9"/>
    </g>
  </symbol>

  <symbol id="step-3" viewBox="0 0 38 8">
    <g id="Group 2089">
    <circle id="Ellipse 201" cx="34.3164" cy="4.20996" r="3.6582" fill="#2D29FF"/>
    <circle id="Ellipse 202" cx="3.68359" cy="4.20996" r="3.6582" fill="#D9D9D9"/>
    <circle id="Ellipse 203" cx="19" cy="4.20996" r="3.6582" fill="#D9D9D9"/>
    </g>
  </symbol>
</svg>
