<svg xmlns="http://www.w3.org/2000/svg">
  <symbol id="dot" viewBox="0 0 4 4" >
    <circle id="Ellipse 209" cx="2.14844" cy="2.13281" r="1.85156" fill="#908EFC"/>
  </symbol>

  <symbol id="circle-plus" viewBox="0 0 20 21">
    <g id="Group 2080" opacity="0.5">
    <circle id="Ellipse 8" cx="10" cy="10.709" r="10" fill="#2D29FF"/>
    <g id="add">
    <mask id="mask0_4_3229" style="mask-type:alpha" maskUnits="userSpaceOnUse" x="2" y="3" width="16" height="15">
    <rect id="Bounding box" x="2.83087" y="3.89648" width="14.3382" height="13.6259" fill="white"/>
    </mask>
    <g mask="url(#mask0_4_3229)">
    <path id="add_2" d="M9.99918 14.6838C9.82991 14.6838 9.68812 14.6293 9.57381 14.5203C9.45911 14.4117 9.40176 14.2769 9.40176 14.116V11.2773H6.41463C6.24535 11.2773 6.10337 11.2228 5.98866 11.1138C5.87435 11.0052 5.8172 10.8704 5.8172 10.7096C5.8172 10.5487 5.87435 10.4138 5.98866 10.3048C6.10337 10.1961 6.24535 10.1418 6.41463 10.1418H9.40176V7.3031C9.40176 7.14224 9.45911 7.0073 9.57381 6.89829C9.68812 6.78967 9.82991 6.73535 9.99918 6.73535C10.1685 6.73535 10.3104 6.78967 10.4251 6.89829C10.5395 7.0073 10.5966 7.14224 10.5966 7.3031V10.1418H13.5837C13.753 10.1418 13.8948 10.1961 14.0091 10.3048C14.1238 10.4138 14.1812 10.5487 14.1812 10.7096C14.1812 10.8704 14.1238 11.0052 14.0091 11.1138C13.8948 11.2228 13.753 11.2773 13.5837 11.2773H10.5966V14.116C10.5966 14.2769 10.5395 14.4117 10.4251 14.5203C10.3104 14.6293 10.1685 14.6838 9.99918 14.6838Z" fill="white"/>
    </g>
    </g>
    </g>
  </symbol>

  <symbol id="arrow" viewBox="0 0 9 15" >
    <path d="M8 14L0.928932 6.92893L7.29289 0.56497" stroke-width="1.2" fill="none"/>
  </symbol>

  <symbol id="arrow-right" viewBox="0 0 9 15">
    <path d="M1 1L7.36396 7.36396L1 13.7279" stroke="#2D29FF"/>
  </symbol>

  <symbol id="arrow-bottom" viewBox="0 0 11 6">
    <path d="M10.267 0.743164L5.56428 5.35359L1.04612 0.743164" stroke="#555555" stroke-width="0.5" fill="none"/>
  </symbol>

  <symbol id="call" viewBox="0 0 15 15">
    <path fill-rule="evenodd" clip-rule="evenodd" d="M10.7481 14.4594C9.72742 14.4218 6.83465 14.022 3.80508 10.9931C0.776211 7.96356 0.377135 5.0715 0.338858 4.05006C0.282151 2.49345 1.47442 0.981502 2.85169 0.391039C3.01754 0.319423 3.19916 0.292157 3.37873 0.311916C3.5583 0.331675 3.72965 0.39778 3.87596 0.503745C5.0101 1.33025 5.79266 2.58064 6.46464 3.5638C6.61249 3.7798 6.67571 4.04265 6.64224 4.30226C6.60878 4.56188 6.48097 4.8001 6.28317 4.97155L4.90023 5.99866C4.83342 6.04691 4.78639 6.11776 4.76787 6.19807C4.74936 6.27838 4.76063 6.36267 4.79958 6.4353C5.11288 7.0045 5.67003 7.85227 6.30798 8.49022C6.94594 9.12818 7.83411 9.72219 8.443 10.0709C8.51935 10.1138 8.60921 10.1258 8.69411 10.1044C8.77902 10.0831 8.85252 10.03 8.8995 9.9561L9.79972 8.58592C9.96523 8.36607 10.2094 8.21879 10.481 8.17492C10.7527 8.13105 11.0308 8.194 11.2571 8.35058C12.2544 9.04099 13.4183 9.81008 14.2704 10.901C14.3849 11.0484 14.4578 11.2238 14.4814 11.409C14.5049 11.5941 14.4783 11.7822 14.4043 11.9536C13.811 13.338 12.3097 14.5168 10.7481 14.4594Z" fill="#2D29FF"/>
  </symbol>

  <symbol id="dot3" viewBox="0 0 3 20">
    <circle cx="1.75957" cy="1.5125" r="1.2"/>
    <circle cx="1.75957" cy="5.53984" r="1.2"/>
    <circle cx="1.75957" cy="9.56523" r="1.2"/>
  </symbol>

  <symbol id="gallery" viewBox="0 0 20 19">
    <rect x="1" y="0.453125" width="18.1719" height="18.1719" rx="5" fill="white"/>
    <path d="M1.05176 12.3965L5.32309 8.28922C6.15959 7.48485 7.50282 7.55895 8.24576 8.45044L11.2161 12.0147C11.9115 12.8491 13.1457 12.976 13.9963 12.3005L14.8198 11.6466C15.6388 10.9962 16.8205 11.0866 17.5311 11.854L19.0693 13.5153" stroke="#2D29FF" stroke-width="0.75" stroke-linejoin="round"/>
    <circle cx="13.4427" cy="6.34602" r="2.1136" fill="white" stroke="#2D29FF" stroke-width="0.75"/>
  </symbol>

  <symbol id="image" viewBox="0 0 20 19">
    <g id="Group 2110">
    <rect id="Rectangle 2563" x="0.948242" y="0.0332031" width="18.1719" height="18.1719" rx="5" fill="white"/>
    <path id="Vector 244" d="M1 11.9766L5.27134 7.86929C6.10783 7.06493 7.45106 7.13903 8.19401 8.03052L11.1644 11.5948C11.8597 12.4292 13.0939 12.5561 13.9445 11.8806L14.768 11.2267C15.587 10.5763 16.7688 10.6667 17.4793 11.4341L19.0175 13.0953" stroke="#2D29FF" stroke-width="0.75" stroke-linejoin="round"/>
    <circle id="Ellipse 216" cx="13.3909" cy="5.9261" r="2.1136" fill="white" stroke="#2D29FF" stroke-width="0.75"/>
    </g>
  </symbol>

  <symbol id="magnifying-glass-gray1" viewBox="0 0 12 11">
    <path fill-rule="evenodd" clip-rule="evenodd" d="M1.27957 1.62668C-0.530777 3.6755 -0.40498 6.86617 1.56055 8.75323C3.40391 10.523 6.21075 10.5177 8.04588 8.82014L10.1752 10.8645C10.3749 11.0562 10.686 11.0429 10.87 10.8347C11.0539 10.6265 11.0412 10.3022 10.8414 10.1105L8.71215 8.06621C10.185 6.02044 9.95993 3.10373 8.11641 1.3338C6.15088 -0.553269 3.08992 -0.422142 1.27957 1.62668ZM2.22677 7.99925C0.660723 6.49572 0.560493 3.95354 2.0029 2.32113C3.44531 0.688722 5.88414 0.584245 7.45019 2.08778C9.01623 3.59131 9.11646 6.13349 7.67405 7.7659C6.23165 9.39831 3.79281 9.50278 2.22677 7.99925Z" fill="#C8C8C8"/>
  </symbol>

  <symbol id="magnifying-glass-gray2" viewBox="0 0 12 11">
    <path fill-rule="evenodd" clip-rule="evenodd" d="M1.27957 1.62668C-0.530777 3.6755 -0.40498 6.86617 1.56055 8.75323C3.40391 10.523 6.21075 10.5177 8.04588 8.82014L10.1752 10.8645C10.3749 11.0562 10.686 11.0429 10.87 10.8347C11.0539 10.6265 11.0412 10.3022 10.8414 10.1105L8.71215 8.06621C10.185 6.02044 9.95993 3.10373 8.11641 1.3338C6.15088 -0.553269 3.08992 -0.422142 1.27957 1.62668ZM2.22677 7.99925C0.660723 6.49572 0.560494 3.95354 2.0029 2.32113C3.44531 0.688722 5.88414 0.584245 7.45019 2.08778C9.01623 3.59131 9.11646 6.13349 7.67405 7.7659C6.23165 9.39831 3.79281 9.50278 2.22677 7.99925Z" fill="#949494"/>
  </symbol>

  <symbol id="mail" viewBox="0 0 16 14">
    <path d="M15.4893 2.40264C15.4893 1.55223 14.7935 0.856445 13.9431 0.856445H1.57354C0.72313 0.856445 0.0273438 1.55223 0.0273438 2.40264V11.6798C0.0273438 12.5302 0.72313 13.226 1.57354 13.226H13.9431C14.7935 13.226 15.4893 12.5302 15.4893 11.6798V2.40264ZM13.9431 2.40264L7.7583 6.26812L1.57354 2.40264H13.9431ZM13.9431 11.6798H1.57354V3.94883L7.7583 7.81431L13.9431 3.94883V11.6798Z" fill="#2D29FF"/>
  </symbol>

  <symbol id="message" viewBox="0 0 15 15">
    <path d="M0.509766 2.04252V9.98297C0.509766 10.9419 1.28467 11.7198 2.24136 11.7198H10.0424L12.7837 14.6973V11.7196H14.609C15.5651 11.7196 16.3406 10.9416 16.3406 9.9827V2.04252C16.3403 1.08335 15.5651 0.305664 14.609 0.305664H2.24136C1.28467 0.305664 0.509766 1.08335 0.509766 2.04252ZM11.5368 6.01248C11.5368 5.39604 12.0349 4.89606 12.6499 4.89606C13.265 4.89606 13.7631 5.39604 13.7631 6.01248C13.7631 6.62945 13.265 7.12916 12.6499 7.12916C12.0349 7.12916 11.5368 6.62972 11.5368 6.01248ZM7.31188 6.01248C7.31188 5.39604 7.81054 4.89606 8.42503 4.89606C9.03952 4.89606 9.53818 5.39604 9.53818 6.01248C9.53818 6.62945 9.03952 7.12916 8.42503 7.12916C7.81054 7.12916 7.31188 6.62972 7.31188 6.01248ZM3.08724 6.01248C3.08724 5.39604 3.5859 4.89606 4.20039 4.89606C4.81541 4.89606 5.31354 5.39604 5.31354 6.01248C5.31354 6.62945 4.81541 7.12916 4.20039 7.12916C3.58564 7.12943 3.08724 6.62972 3.08724 6.01248Z" fill="#2D29FF"/>
  </symbol>

  <symbol id="more" viewBox="0 0 11 12">
    <g id="Group 2073">
    <ellipse id="Ellipse 8" cx="5.71717" cy="6.36133" rx="5.2826" ry="5.5"/>
    <g id="add">
    <mask id="mask0_4_3451" style="mask-type:alpha" maskUnits="userSpaceOnUse" x="1" y="2" width="9" height="9">
    <rect id="Bounding box" x="1.70219" y="2.62109" width="7.81825" height="7.48" fill="white"/>
    </mask>
    <g mask="url(#mask0_4_3451)">
    <path id="add_2" d="M5.61124 8.54302C5.51894 8.54302 5.44163 8.5131 5.3793 8.45326C5.31675 8.39363 5.28548 8.31966 5.28548 8.23135V6.67302H3.65668C3.56438 6.67302 3.48696 6.6431 3.42441 6.58326C3.36208 6.52363 3.33092 6.44966 3.33092 6.36135C3.33092 6.27305 3.36208 6.19898 3.42441 6.13914C3.48696 6.0795 3.56438 6.04969 3.65668 6.04969H5.28548V4.49135C5.28548 4.40305 5.31675 4.32898 5.3793 4.26914C5.44163 4.2095 5.51894 4.17969 5.61124 4.17969C5.70354 4.17969 5.78096 4.2095 5.84351 4.26914C5.90584 4.32898 5.937 4.40305 5.937 4.49135V6.04969H7.5658C7.6581 6.04969 7.73541 6.0795 7.79774 6.13914C7.86029 6.19898 7.89156 6.27305 7.89156 6.36135C7.89156 6.44966 7.86029 6.52363 7.79774 6.58326C7.73541 6.6431 7.6581 6.67302 7.5658 6.67302H5.937V8.23135C5.937 8.31966 5.90584 8.39363 5.84351 8.45326C5.78096 8.5131 5.70354 8.54302 5.61124 8.54302Z" fill="white"/>
    </g>
    </g>
    </g>
  </symbol>

  <symbol id="nav-home" viewBox="0 0 24 23">
    <path d="M23.5023 11.3154L13.2734 0.941554L12.5877 0.245848C12.4315 0.0883782 12.2203 0 12 0C11.7798 0 11.5686 0.0883782 11.4124 0.245848L0.497791 11.3154C0.337715 11.4772 0.211205 11.6699 0.125727 11.8821C0.0402491 12.0943 -0.0024636 12.3217 0.000109727 12.551C0.0106987 13.4965 0.78634 14.2513 1.71817 14.2513H2.84325V23H21.1569V14.2513H22.3058C22.7584 14.2513 23.1846 14.0713 23.505 13.7463C23.6627 13.5868 23.7876 13.3971 23.8726 13.1882C23.9576 12.9794 24.0009 12.7555 24 12.5295C24 12.0729 23.8226 11.6404 23.5023 11.3154ZM13.4825 21.066H10.5176V15.5863H13.4825V21.066ZM19.2508 12.3173V21.066H15.1767V14.9416C15.1767 14.348 14.7029 13.8672 14.1178 13.8672H9.88226C9.29722 13.8672 8.82336 14.348 8.82336 14.9416V21.066H4.74926V12.3173H2.20791L12.0027 2.38669L12.6142 3.00718L21.7948 12.3173H19.2508Z" fill="#C8C8C8"/>
  </symbol>

  <symbol id="nav-home-active" viewBox="0 0 24 23">
    <path d="M23.5033 11.3116L12.5988 0.251884C12.5203 0.172037 12.427 0.10869 12.3244 0.0654689C12.2217 0.0222474 12.1116 0 12.0005 0C11.8893 0 11.7793 0.0222474 11.6766 0.0654689C11.574 0.10869 11.4807 0.172037 11.4022 0.251884L0.497704 11.3116C0.180021 11.634 0 12.072 0 12.5288C0 13.4773 0.759793 14.2485 1.69431 14.2485H2.84327V22.1402C2.84327 22.6158 3.22184 23 3.69042 23H10.3062V16.9811H13.2712V23H20.3106C20.7792 23 21.1577 22.6158 21.1577 22.1402V14.2485H22.3067C22.7567 14.2485 23.1883 14.0684 23.5059 13.7433C24.1651 13.0715 24.1651 11.9833 23.5033 11.3116Z" fill="#2D29FF"/>
  </symbol>

  <symbol id="nav-add-card" viewBox="0 0 22 22">
    <circle cx="10.9243" cy="10.9243" r="10.9243" fill="#C8C8C8"/>
    <path fill-rule="evenodd" clip-rule="evenodd" d="M10.924 4.77905C11.3482 4.77905 11.6921 5.12295 11.6921 5.54716V10.1558H16.3008C16.725 10.1558 17.0689 10.4997 17.0689 10.9239C17.0689 11.3482 16.725 11.6921 16.3008 11.6921H11.6921V16.3007C11.6921 16.725 11.3482 17.0688 10.924 17.0688C10.4998 17.0688 10.1559 16.725 10.1559 16.3007V11.6921H5.5472C5.12298 11.6921 4.77908 11.3482 4.77908 10.9239C4.77908 10.4997 5.12298 10.1558 5.5472 10.1558H10.1559V5.54716C10.1559 5.12295 10.4998 4.77905 10.924 4.77905Z" fill="white"/>
  </symbol>

  <symbol id="nav-add-card-active" viewBox="0 0 22 22">
    <circle cx="10.9243" cy="10.9243" r="10.9243" fill="#2D29FF"/>
    <path fill-rule="evenodd" clip-rule="evenodd" d="M10.924 4.77905C11.3482 4.77905 11.6921 5.12295 11.6921 5.54716V10.1558H16.3008C16.725 10.1558 17.0689 10.4997 17.0689 10.9239C17.0689 11.3482 16.725 11.6921 16.3008 11.6921H11.6921V16.3007C11.6921 16.725 11.3482 17.0688 10.924 17.0688C10.4998 17.0688 10.1559 16.725 10.1559 16.3007V11.6921H5.5472C5.12298 11.6921 4.77908 11.3482 4.77908 10.9239C4.77908 10.4997 5.12298 10.1558 5.5472 10.1558H10.1559V5.54716C10.1559 5.12295 10.4998 4.77905 10.924 4.77905Z" fill="white"/>
  </symbol>

  <symbol id="nav-view-card" viewBox="0 0 18 22">
    <path d="M11.25 0H2.25C1.65326 0 1.08097 0.231785 0.65901 0.644365C0.237053 1.05694 0 1.61652 0 2.2V19.8C0 20.3835 0.237053 20.9431 0.65901 21.3556C1.08097 21.7682 1.65326 22 2.25 22H15.75C16.3467 22 16.919 21.7682 17.341 21.3556C17.7629 20.9431 18 20.3835 18 19.8V6.6L11.25 0ZM15.75 19.8H2.25V2.2H10.125V7.7H15.75V19.8Z" fill="#C8C8C8"/>
  </symbol>

  <symbol id="nav-view-card-active" viewBox="0 0 18 22">
    <path d="M10.125 7.7V1.65L16.3125 7.7M2.25 0C1.00125 0 0 0.979 0 2.2V19.8C0 20.3835 0.237053 20.9431 0.65901 21.3556C1.08097 21.7682 1.65326 22 2.25 22H15.75C16.3467 22 16.919 21.7682 17.341 21.3556C17.7629 20.9431 18 20.3835 18 19.8V6.6L11.25 0H2.25Z" fill="#2D29FF"/>
  </symbol>

  <symbol id="nav-mypage" viewBox="0 0 22 22">
    <path fill-rule="evenodd" clip-rule="evenodd" d="M7.87334 12.6343C7.42386 12.7094 6.9765 12.8008 6.53125 12.9085C5.06458 13.2632 3.62083 13.7958 2.2 14.5063C1.53633 14.8509 1.00375 15.3496 0.60225 16.0022C0.20075 16.6549 0 17.3708 0 18.15V22H22V18.15C22.0009 17.3717 21.8006 16.6558 21.3991 16.0022C20.9976 15.3487 20.4646 14.85 19.8 14.5063C18.3792 13.7977 16.9354 13.2651 15.4687 12.9085C15.0241 12.8004 14.5774 12.7087 14.1286 12.6335C13.0968 12.4605 12.054 12.3744 11 12.375C9.94666 12.3756 8.90445 12.4621 7.87334 12.6343ZM8.25676 10.2769C9.07351 10.7588 9.98765 10.9999 10.9992 11C10.9994 11 10.9997 11 11 11C12.0126 11 12.9277 10.7586 13.7451 10.2758C14.1487 10.0375 14.5284 9.74034 14.8844 9.38437C15.9615 8.30729 16.5 7.0125 16.5 5.5C16.5 3.9875 15.9615 2.69271 14.8844 1.61563C13.8073 0.538542 12.5125 0 11 0C9.4875 0 8.19271 0.538542 7.11562 1.61563C6.03854 2.69271 5.5 3.9875 5.5 5.5C5.5 7.0125 6.03854 8.30729 7.11562 9.38437C7.47215 9.7409 7.85253 10.0384 8.25676 10.2769ZM18.7669 16.5342C17.4962 15.902 16.2181 15.4329 14.9311 15.1199C13.6413 14.8063 12.3327 14.6501 11.0014 14.6509C9.66823 14.6517 8.3578 14.8082 7.06629 15.1206C5.78139 15.4314 4.50516 15.8998 3.23598 16.5328C2.95374 16.682 2.72885 16.8889 2.54069 17.1947C2.36369 17.4824 2.27586 17.7844 2.27586 18.15V19.7241H19.7241V18.1473C19.7246 17.784 19.6374 17.4825 19.4599 17.1935C19.2722 16.888 19.0481 16.6822 18.7669 16.5342ZM8.7249 7.7751C9.37858 8.42878 10.0959 8.72414 11 8.72414C11.9041 8.72414 12.6214 8.42878 13.2751 7.7751C13.9288 7.12142 14.2241 6.40411 14.2241 5.5C14.2241 4.59589 13.9288 3.87858 13.2751 3.2249C12.6214 2.57122 11.9041 2.27586 11 2.27586C10.0959 2.27586 9.37858 2.57122 8.7249 3.2249C8.07122 3.87858 7.77586 4.59589 7.77586 5.5C7.77586 6.40411 8.07122 7.12142 8.7249 7.7751Z" fill="#C8C8C8"/>
  </symbol>

  <symbol id="nav-mypage-active" viewBox="0 0 22 22">
    <path d="M11 11C9.4875 11 8.19271 10.4615 7.11562 9.38437C6.03854 8.30729 5.5 7.0125 5.5 5.5C5.5 3.9875 6.03854 2.69271 7.11562 1.61563C8.19271 0.538542 9.4875 0 11 0C12.5125 0 13.8073 0.538542 14.8844 1.61563C15.9615 2.69271 16.5 3.9875 16.5 5.5C16.5 7.0125 15.9615 8.30729 14.8844 9.38437C13.8073 10.4615 12.5125 11 11 11ZM0 22V18.15C0 17.3708 0.20075 16.6549 0.60225 16.0022C1.00375 15.3496 1.53633 14.8509 2.2 14.5063C3.62083 13.7958 5.06458 13.2632 6.53125 12.9085C7.99792 12.5537 9.4875 12.3759 11 12.375C12.5125 12.3741 14.0021 12.5519 15.4687 12.9085C16.9354 13.2651 18.3792 13.7977 19.8 14.5063C20.4646 14.85 20.9976 15.3487 21.3991 16.0022C21.8006 16.6558 22.0009 17.3718 22 18.15V22H0Z" fill="#2D29FF"/>
  </symbol>

  <symbol id="pencil" viewBox="0 0 15 15">
    <g id="Group 347" opacity="0.5">
    <g id="&#240;&#159;&#166;&#134; icon &#34;edit&#34;">
    <path id="Vector" d="M1 14.1768H7.36328H13.7266" stroke="#2D29FF" stroke-linecap="round" stroke-linejoin="round"/>
    <path id="Vector_2" d="M7.51999 3.44901L9.51982 1.44922L13.0194 4.94885L11.0196 6.94861M7.51999 3.44901L3.55596 7.41306C3.42337 7.54562 3.34888 7.72549 3.34888 7.913V11.1197H6.55567C6.74317 11.1197 6.92297 11.0453 7.05561 10.9126L11.0196 6.94861M7.51999 3.44901L11.0196 6.94861" stroke="#2D29FF" stroke-linecap="round" stroke-linejoin="round"/>
    </g>
    </g>
  </symbol>

  <symbol id="share" viewBox="0 0 12 18">
    <path fill-rule="evenodd" clip-rule="evenodd" d="M11.6006 2.37891C11.6006 3.477 10.7104 4.36719 9.6123 4.36719C9.24494 4.36719 8.90085 4.26756 8.60558 4.09385L4.11889 8.58054C4.1743 8.76335 4.2041 8.9573 4.2041 9.1582C4.2041 9.35921 4.17427 9.55325 4.1188 9.73614L8.42438 14.0422C8.75581 13.7949 9.16696 13.6484 9.6123 13.6484C10.7104 13.6484 11.6006 14.5386 11.6006 15.6367C11.6006 16.7348 10.7104 17.625 9.6123 17.625C8.51421 17.625 7.62402 16.7348 7.62402 15.6367C7.62402 15.3486 7.68531 15.0748 7.79557 14.8276L3.57645 10.608C3.22077 10.9419 2.74218 11.1465 2.21582 11.1465C1.11772 11.1465 0.227539 10.2563 0.227539 9.1582C0.227539 8.06011 1.11772 7.16992 2.21582 7.16992C2.74228 7.16992 3.22095 7.37453 3.57664 7.70857L7.89818 3.38703C7.72397 3.09144 7.62402 2.74684 7.62402 2.37891C7.62402 1.28081 8.51421 0.390625 9.6123 0.390625C10.7104 0.390625 11.6006 1.28081 11.6006 2.37891Z" fill="white"/>
  </symbol>

  <symbol id="logo-white" viewBox="0 0 78 22">
    <path d="M77 7.46741V10.8203H74.7263L72.8212 7.46741H77ZM72.2989 15.8347C72.2989 16.2978 72.4628 16.6905 72.7905 17.0127C73.1387 17.3349 73.5484 17.496 74.0196 17.496H77V21H74.0196C73.2207 21 72.4628 20.859 71.7458 20.5771C71.0493 20.275 70.4348 19.8723 69.9022 19.3688C69.3901 18.8453 68.9804 18.2411 68.6732 17.5564C68.3659 16.8718 68.2123 16.1367 68.2123 15.3514V10.8203H66V7.46741H68.2123V2H72.2989V15.8347Z" fill="white"/>
    <path d="M58.0309 6C59.1223 6 60.1519 6.20349 61.1197 6.61047C62.0875 6.99806 62.9318 7.53101 63.6525 8.2093C64.3732 8.8876 64.9395 9.68217 65.3514 10.593C65.7838 11.5039 66 12.4826 66 13.5291C66 14.0911 65.9382 14.6337 65.8147 15.157L65.7838 15.2151H57.9382L55.9614 12.25H61.8301C61.5418 11.436 61.0579 10.7674 60.3784 10.2442C59.7194 9.72093 58.9369 9.4593 58.0309 9.4593C57.4749 9.4593 56.9498 9.56589 56.4556 9.77907C55.9614 9.99225 55.529 10.2829 55.1583 10.6512C54.8082 11 54.5302 11.4264 54.3243 11.9302C54.1184 12.4147 54.0154 12.9477 54.0154 13.5291C54.0154 13.9748 54.1081 14.4399 54.2934 14.9244C54.4788 15.3895 54.7465 15.8159 55.0965 16.2035C55.4466 16.5911 55.8687 16.9205 56.3629 17.1919C56.8571 17.4438 57.4131 17.5698 58.0309 17.5698C58.5869 17.5698 59.0914 17.5019 59.5444 17.3663C60.018 17.2112 60.4607 16.8818 60.8726 16.3779L60.9035 16.3488L60.9653 16.3779L64.5483 17.8605L64.4865 17.9186C63.7452 18.8876 62.7979 19.6434 61.6448 20.186C60.5122 20.7287 59.3076 21 58.0309 21C56.9189 21 55.8687 20.8062 54.8803 20.4186C53.9125 20.031 53.0682 19.4981 52.3475 18.8198C51.6268 18.1415 51.0502 17.3469 50.6178 16.436C50.2059 15.5252 50 14.5562 50 13.5291C50 12.4826 50.2059 11.5039 50.6178 10.593C51.0502 9.68217 51.6268 8.8876 52.3475 8.2093C53.0682 7.53101 53.9125 6.99806 54.8803 6.61047C55.8687 6.20349 56.9189 6 58.0309 6Z" fill="white"/>
    <path d="M44.0301 0H48V21H44L44.0301 0Z" fill="white"/>
    <path d="M38.0301 0H42V21H38L38.0301 0Z" fill="white"/>
    <path d="M29.0309 6C30.1223 6 31.1519 6.20349 32.1197 6.61047C33.0875 6.99806 33.9318 7.53101 34.6525 8.2093C35.3732 8.8876 35.9395 9.68217 36.3514 10.593C36.7838 11.5039 37 12.4826 37 13.5291C37 14.0911 36.9382 14.6337 36.8147 15.157L36.7838 15.2151H28.9382L26.9614 12.25H32.8301C32.5418 11.436 32.0579 10.7674 31.3784 10.2442C30.7194 9.72093 29.9369 9.4593 29.0309 9.4593C28.4749 9.4593 27.9498 9.56589 27.4556 9.77907C26.9614 9.99225 26.529 10.2829 26.1583 10.6512C25.8082 11 25.5302 11.4264 25.3243 11.9302C25.1184 12.4147 25.0154 12.9477 25.0154 13.5291C25.0154 13.9748 25.1081 14.4399 25.2934 14.9244C25.4788 15.3895 25.7465 15.8159 26.0965 16.2035C26.4466 16.5911 26.8687 16.9205 27.3629 17.1919C27.8571 17.4438 28.4131 17.5698 29.0309 17.5698C29.5869 17.5698 30.0914 17.5019 30.5444 17.3663C31.018 17.2112 31.4607 16.8818 31.8726 16.3779L31.9035 16.3488L31.9652 16.3779L35.5483 17.8605L35.4865 17.9186C34.7452 18.8876 33.7979 19.6434 32.6448 20.186C31.5122 20.7287 30.3076 21 29.0309 21C27.9189 21 26.8687 20.8062 25.8803 20.4186C24.9125 20.031 24.0682 19.4981 23.3475 18.8198C22.6268 18.1415 22.0502 17.3469 21.6178 16.436C21.2059 15.5252 21 14.5562 21 13.5291C21 12.4826 21.2059 11.5039 21.6178 10.593C22.0502 9.68217 22.6268 8.8876 23.3475 8.2093C24.0682 7.53101 24.9125 6.99806 25.8803 6.61047C26.8687 6.20349 27.9189 6 29.0309 6Z" fill="white"/>
    <path d="M17.7716 6H22L21.9694 6.03L17.8635 21H12.9916L11 12.12L8.94707 21H5.79109V20.94L8.85515 6H8.88579H13.0836L15.4123 17.37L17.7716 6ZM4.25905 6.03L6.37326 16.59L3.67688 19.32L3.64624 19.26L0 6H4.25905V6.03Z" fill="white"/>
  </symbol>

  <symbol id="logo-blue" viewBox="0 0 78 22">
    <path d="M77 7.46741V10.8203H74.7263L72.8212 7.46741H77ZM72.2989 15.8347C72.2989 16.2978 72.4628 16.6905 72.7905 17.0127C73.1387 17.3349 73.5484 17.496 74.0196 17.496H77V21H74.0196C73.2207 21 72.4628 20.859 71.7458 20.5771C71.0493 20.275 70.4348 19.8723 69.9022 19.3688C69.3901 18.8453 68.9804 18.2411 68.6732 17.5564C68.3659 16.8718 68.2123 16.1367 68.2123 15.3514V10.8203H66V7.46741H68.2123V2H72.2989V15.8347Z" fill="#2D29FF"/>
    <path d="M58.0309 6C59.1223 6 60.1519 6.20349 61.1197 6.61047C62.0875 6.99806 62.9318 7.53101 63.6525 8.2093C64.3732 8.8876 64.9395 9.68217 65.3514 10.593C65.7838 11.5039 66 12.4826 66 13.5291C66 14.0911 65.9382 14.6337 65.8147 15.157L65.7838 15.2151H57.9382L55.9614 12.25H61.8301C61.5418 11.436 61.0579 10.7674 60.3784 10.2442C59.7194 9.72093 58.9369 9.4593 58.0309 9.4593C57.4749 9.4593 56.9498 9.56589 56.4556 9.77907C55.9614 9.99225 55.529 10.2829 55.1583 10.6512C54.8082 11 54.5302 11.4264 54.3243 11.9302C54.1184 12.4147 54.0154 12.9477 54.0154 13.5291C54.0154 13.9748 54.1081 14.4399 54.2934 14.9244C54.4788 15.3895 54.7465 15.8159 55.0965 16.2035C55.4466 16.5911 55.8687 16.9205 56.3629 17.1919C56.8571 17.4438 57.4131 17.5698 58.0309 17.5698C58.5869 17.5698 59.0914 17.5019 59.5444 17.3663C60.018 17.2112 60.4607 16.8818 60.8726 16.3779L60.9035 16.3488L60.9653 16.3779L64.5483 17.8605L64.4865 17.9186C63.7452 18.8876 62.7979 19.6434 61.6448 20.186C60.5122 20.7287 59.3076 21 58.0309 21C56.9189 21 55.8687 20.8062 54.8803 20.4186C53.9125 20.031 53.0682 19.4981 52.3475 18.8198C51.6268 18.1415 51.0502 17.3469 50.6178 16.436C50.2059 15.5252 50 14.5562 50 13.5291C50 12.4826 50.2059 11.5039 50.6178 10.593C51.0502 9.68217 51.6268 8.8876 52.3475 8.2093C53.0682 7.53101 53.9125 6.99806 54.8803 6.61047C55.8687 6.20349 56.9189 6 58.0309 6Z" fill="#2D29FF"/>
    <path d="M44.0301 0H48V21H44L44.0301 0Z" fill="#2D29FF"/>
    <path d="M38.0301 0H42V21H38L38.0301 0Z" fill="#2D29FF"/>
    <path d="M29.0309 6C30.1223 6 31.1519 6.20349 32.1197 6.61047C33.0875 6.99806 33.9318 7.53101 34.6525 8.2093C35.3732 8.8876 35.9395 9.68217 36.3514 10.593C36.7838 11.5039 37 12.4826 37 13.5291C37 14.0911 36.9382 14.6337 36.8147 15.157L36.7838 15.2151H28.9382L26.9614 12.25H32.8301C32.5418 11.436 32.0579 10.7674 31.3784 10.2442C30.7194 9.72093 29.9369 9.4593 29.0309 9.4593C28.4749 9.4593 27.9498 9.56589 27.4556 9.77907C26.9614 9.99225 26.529 10.2829 26.1583 10.6512C25.8082 11 25.5302 11.4264 25.3243 11.9302C25.1184 12.4147 25.0154 12.9477 25.0154 13.5291C25.0154 13.9748 25.1081 14.4399 25.2934 14.9244C25.4788 15.3895 25.7465 15.8159 26.0965 16.2035C26.4466 16.5911 26.8687 16.9205 27.3629 17.1919C27.8571 17.4438 28.4131 17.5698 29.0309 17.5698C29.5869 17.5698 30.0914 17.5019 30.5444 17.3663C31.018 17.2112 31.4607 16.8818 31.8726 16.3779L31.9035 16.3488L31.9652 16.3779L35.5483 17.8605L35.4865 17.9186C34.7452 18.8876 33.7979 19.6434 32.6448 20.186C31.5122 20.7287 30.3076 21 29.0309 21C27.9189 21 26.8687 20.8062 25.8803 20.4186C24.9125 20.031 24.0682 19.4981 23.3475 18.8198C22.6268 18.1415 22.0502 17.3469 21.6178 16.436C21.2059 15.5252 21 14.5562 21 13.5291C21 12.4826 21.2059 11.5039 21.6178 10.593C22.0502 9.68217 22.6268 8.8876 23.3475 8.2093C24.0682 7.53101 24.9125 6.99806 25.8803 6.61047C26.8687 6.20349 27.9189 6 29.0309 6Z" fill="#2D29FF"/>
    <path d="M17.7716 6H22L21.9694 6.03L17.8635 21H12.9916L11 12.12L8.94707 21H5.79109V20.94L8.85515 6H8.88579H13.0836L15.4123 17.37L17.7716 6ZM4.25905 6.03L6.37326 16.59L3.67688 19.32L3.64624 19.26L0 6H4.25905V6.03Z" fill="#2D29FF"/>
  </symbol>

  <symbol id="step-1" viewBox="0 0 38 8">
    <g id="Group 2089">
    <circle id="Ellipse 201" cx="4.11523" cy="4.20996" r="3.6582" fill="#2D29FF"/>
    <circle id="Ellipse 202" cx="19" cy="4.20996" r="3.6582" fill="#D9D9D9"/>
    <circle id="Ellipse 203" cx="33.8848" cy="4.20996" r="3.6582" fill="#D9D9D9"/>
    </g>
  </symbol>

  <symbol id="step-2" viewBox="0 0 38 8">
    <g id="Group 2089">
    <circle id="Ellipse 201" cx="19.0002" cy="4.20996" r="3.6582" fill="#2D29FF"/>
    <circle id="Ellipse 202" cx="3.68384" cy="4.20996" r="3.6582" fill="#D9D9D9"/>
    <circle id="Ellipse 203" cx="34.3167" cy="4.20996" r="3.6582" fill="#D9D9D9"/>
    </g>
  </symbol>

  <symbol id="step-3" viewBox="0 0 38 8">
    <g id="Group 2089">
    <circle id="Ellipse 201" cx="34.3164" cy="4.20996" r="3.6582" fill="#2D29FF"/>
    <circle id="Ellipse 202" cx="3.68359" cy="4.20996" r="3.6582" fill="#D9D9D9"/>
    <circle id="Ellipse 203" cx="19" cy="4.20996" r="3.6582" fill="#D9D9D9"/>
    </g>
  </symbol>

  <symbol id="kakao" viewBox="0 0 15 15">
    <path fill-rule="evenodd" clip-rule="evenodd" d="M7.5 11.8994C11.6421 11.8994 15 9.43698 15 6.39941C15 3.36185 11.6421 0.899414 7.5 0.899414C3.35786 0.899414 0 3.36185 0 6.39941C0 8.25438 1.25223 9.89487 3.1706 10.8911C3.17568 10.8937 3.17301 10.9016 3.16741 10.9004C3.16489 10.8998 3.16239 10.9013 3.16167 10.9038L2.37004 13.6267C2.24132 14.0694 2.72942 14.4356 3.11846 14.1882L6.61984 11.9616C6.71037 11.904 6.81698 11.8775 6.92409 11.8834C7.11417 11.894 7.30623 11.8994 7.5 11.8994Z" fill="#1A1A1C"/>
  </symbol>

  <symbol id="trash" viewBox="0 0 9 10">
    <path d="M5.57478 1.00781L5.95647 1.5625H3.04353L3.42522 1.00781C3.45536 0.964844 3.50558 0.9375 3.55982 0.9375H5.44219C5.49643 0.9375 5.54665 0.962891 5.57679 1.00781H5.57478ZM2.62165 0.488281L1.88437 1.5625H0.482143C0.214955 1.5625 0 1.77148 0 2.03125C0 2.29102 0.214955 2.5 0.482143 2.5H0.642858V8.4375C0.642858 9.30078 1.36205 10 2.25 10H6.75C7.63795 10 8.35714 9.30078 8.35714 8.4375V2.5H8.51786C8.78504 2.5 9 2.29102 9 2.03125C9 1.77148 8.78504 1.5625 8.51786 1.5625H7.11562L6.37835 0.486328C6.16942 0.183594 5.81786 0 5.44219 0H3.55982C3.18415 0 2.83259 0.183594 2.62366 0.486328L2.62165 0.488281ZM7.39286 2.5V8.4375C7.39286 8.7832 7.10558 9.0625 6.75 9.0625H2.25C1.89442 9.0625 1.60714 8.7832 1.60714 8.4375V2.5H7.39286ZM5.78571 3.75V7.8125C5.78571 7.98438 5.93036 8.125 6.10714 8.125C6.28393 8.125 6.42857 7.98438 6.42857 7.8125V3.75C6.42857 3.57812 6.28393 3.4375 6.10714 3.4375C5.93036 3.4375 5.78571 3.57812 5.78571 3.75ZM4.17857 3.75V7.8125C4.17857 7.98438 4.32321 8.125 4.5 8.125C4.67679 8.125 4.82143 7.98438 4.82143 7.8125V3.75C4.82143 3.57812 4.67679 3.4375 4.5 3.4375C4.32321 3.4375 4.17857 3.57812 4.17857 3.75ZM2.57143 3.75V7.8125C2.57143 7.98438 2.71607 8.125 2.89286 8.125C3.06964 8.125 3.21429 7.98438 3.21429 7.8125V3.75C3.21429 3.57812 3.06964 3.4375 2.89286 3.4375C2.71607 3.4375 2.57143 3.57812 2.57143 3.75Z" fill="#FF0076"/>
  </symbol>

  <symbol id="circle-check"  viewBox="0 0 16 16" fill="none">
    <circle cx="8" cy="8" r="8" fill="white"/>
    <path d="M4.30395 8.7971L7.33377 12.5213L11.888 5.66575" stroke="#2D29FF" stroke-linecap="round" stroke-linejoin="round"/>
  </symbol>
  
  <symbol id="circle" width="16" height="16" viewBox="0 0 16 16" fill="none">
    <circle cx="8" cy="8" r="7.5" stroke="#C8C8C8"/>
  </symbol>

  <symbol id="close" viewBox="0 0 7 6" fill="none">
    <path fill-rule="evenodd" clip-rule="evenodd" d="M0.823438 0.166593C1.01836 -0.0290129 1.33438 -0.0290128 1.5293 0.166593L3.64688 2.29165L5.76446 0.166593C5.95937 -0.0290131 6.2754 -0.0290129 6.47032 0.166593C6.66523 0.362199 6.66523 0.679339 6.47032 0.874945L4.35274 3L6.47032 5.12506C6.66523 5.32066 6.66523 5.6378 6.47032 5.83341C6.2754 6.02901 5.95937 6.02901 5.76446 5.83341L3.64688 3.70835L1.5293 5.83341C1.33438 6.02901 1.01836 6.02901 0.823438 5.83341C0.628521 5.6378 0.628521 5.32066 0.823438 5.12506L2.94102 3L0.823438 0.874945C0.628521 0.679339 0.628521 0.362199 0.823438 0.166593Z"/>
  </symbol>

  <symbol id="modal-close" viewBox="0 0 22 22" fill="none">
    <g clip-path="url(#clip0_386_4308)">
      <path d="M3 19L18.5564 3.44365" stroke="#4442FF" stroke-width="2.2" stroke-linecap="round"/>
      <path d="M3 3L18.5563 18.5564" stroke="#4442FF" stroke-width="2.2" stroke-linecap="round"/>
    </g>
    <defs>
      <clipPath id="clip0_386_4308">
        <rect width="22" height="22" fill="white"/>
      </clipPath>
    </defs>
  </symbol>

</svg>